<?xml version="1.0" encoding="UTF-8" standalone="no"?>
<!-- Generator: Adobe Illustrator 18.1.1, SVG Export Plug-In . SVG Version: 6.00 Build 0)  -->

<svg
   version="1.1"
   id="Capa_1"
   x="0px"
   y="0px"
   viewBox="0 0 22.778 22.778"
   style="enable-background:new 0 0 22.778 22.778;"
   xml:space="preserve"
   sodipodi:docname="action.svg"
   inkscape:version="1.2.1 (9c6d41e410, 2022-07-14)"
   xmlns:inkscape="http://www.inkscape.org/namespaces/inkscape"
   xmlns:sodipodi="http://sodipodi.sourceforge.net/DTD/sodipodi-0.dtd"
   xmlns="http://www.w3.org/2000/svg"
   xmlns:svg="http://www.w3.org/2000/svg"><defs
   id="defs53" /><sodipodi:namedview
   id="namedview51"
   pagecolor="#505050"
   bordercolor="#eeeeee"
   borderopacity="1"
   inkscape:showpageshadow="0"
   inkscape:pageopacity="0"
   inkscape:pagecheckerboard="0"
   inkscape:deskcolor="#505050"
   showgrid="false"
   inkscape:zoom="10.360875"
   inkscape:cx="11.389"
   inkscape:cy="11.437258"
   inkscape:window-width="1500"
   inkscape:window-height="930"
   inkscape:window-x="-6"
   inkscape:window-y="-6"
   inkscape:window-maximized="1"
   inkscape:current-layer="Capa_1" />
<g
   id="g18">
	<g
   id="g16">
		
		
		
		
		
		
		<path

   id="polygon14"
   d="M 10.303,10.5 8.866,7.43 9.801,10.688 Z m 11.33,1.366 -2.561,2.217 0.381,0.375 z M 5.694,14.399 0,9.958 5.348,14.809 Z m 12.221,-10.441 -3.027,6.557 0.494,0.205 z m -5.477,13.951 c -0.503,0 -0.91,0.408 -0.91,0.911 h 1.822 c 0,-0.504 -0.408,-0.911 -0.912,-0.911 z m 3.884,-1.364 0.628,-3.568 -3.11,1.617 -1.413,-2.862 -1.407,2.851 -3.103,-1.648 0.601,3.613 -3.399,0.494 1.658,1.618 h 1.989 l -0.664,-0.648 2.019,-0.294 -0.373,-2.237 1.883,1.002 0.796,-1.613 0.795,1.609 1.873,-0.972 -0.391,2.207 2.048,0.298 -0.664,0.648 h 1.988 l 1.661,-1.618 z m 1.609,-1.112 0.899,-5.105 -4.418,2.297 -1.974,-4 -1.97,3.991 -4.418,-2.347 0.862,5.168 -4.814,0.7 2.587,2.523 H 5.68 l -2.09,-2.038 4.123,-0.601 -0.746,-4.479 3.806,2.024 1.665,-3.373 1.665,3.375 3.8,-1.975 -0.781,4.424 4.163,0.605 -2.089,2.038 h 0.994 l 2.588,-2.523 z" />
	</g>
</g>
<g
   id="g20">
</g>
<g
   id="g22">
</g>
<g
   id="g24">
</g>
<g
   id="g26">
</g>
<g
   id="g28">
</g>
<g
   id="g30">
</g>
<g
   id="g32">
</g>
<g
   id="g34">
</g>
<g
   id="g36">
</g>
<g
   id="g38">
</g>
<g
   id="g40">
</g>
<g
   id="g42">
</g>
<g
   id="g44">
</g>
<g
   id="g46">
</g>
<g
   id="g48">
</g>
</svg>
