<?xml version="1.0" encoding="UTF-8" standalone="no"?>
<!-- Generator: Adobe Illustrator 26.5.0, SVG Export Plug-In . SVG Version: 6.00 Build 0)  -->

<svg
   version="1.1"
   id="Ebene_1"
   x="0px"
   y="0px"
   viewBox="0 0 48 48"
   style="enable-background:new 0 0 48 48;"
   xml:space="preserve"
   sodipodi:docname="alchemy.svg"
   inkscape:version="1.2.1 (9c6d41e410, 2022-07-14)"
   xmlns:inkscape="http://www.inkscape.org/namespaces/inkscape"
   xmlns:sodipodi="http://sodipodi.sourceforge.net/DTD/sodipodi-0.dtd"
   xmlns="http://www.w3.org/2000/svg"
   xmlns:svg="http://www.w3.org/2000/svg"><defs
   id="defs78" /><sodipodi:namedview
   id="namedview76"
   pagecolor="#505050"
   bordercolor="#eeeeee"
   borderopacity="1"
   inkscape:showpageshadow="0"
   inkscape:pageopacity="0"
   inkscape:pagecheckerboard="0"
   inkscape:deskcolor="#505050"
   showgrid="false"
   inkscape:zoom="4.9166667"
   inkscape:cx="24"
   inkscape:cy="24.101695"
   inkscape:window-width="1500"
   inkscape:window-height="930"
   inkscape:window-x="-6"
   inkscape:window-y="-6"
   inkscape:window-maximized="1"
   inkscape:current-layer="Ebene_1" />

<path
   id="path73"
   d="m 14.9,35.2 c -1.2,0 -2,-0.5 -2.4,-1.6 -0.5,-1 -0.3,-2 0.5,-2.9 l 7.1,-8 v -7.2 h -0.9 c -0.4,0 -0.7,-0.1 -1,-0.4 -0.3,-0.3 -0.4,-0.6 -0.4,-1 0,-0.4 0.1,-0.7 0.4,-1 0.3,-0.3 0.6,-0.4 1,-0.4 h 9.5 c 0.4,0 0.7,0.1 1,0.4 0.3,0.3 0.4,0.6 0.4,1 0,0.4 -0.1,0.7 -0.4,1 -0.3,0.3 -0.6,0.4 -1,0.4 h -0.8 v 7.2 l 7.1,8 c 0.8,0.9 0.9,1.8 0.4,2.9 -0.5,1 -1.3,1.6 -2.4,1.6 z M 22.5,7.5 V 2 h 3 v 5.5 z m 0,38.5 v -5.5 h 3 V 46 Z m 18,-20.5 v -3 H 46 v 3 z M 2,25.5 v -3 h 5.5 v 3 z M 37.1,13 34.9,10.9 38.2,7.6 40.4,9.7 Z M 9.8,40.5 7.6,38.3 10.9,35 13,37.2 Z m 28.4,0 -3.2,-3.3 2.1,-2.2 3.3,3.3 z M 10.9,13 7.6,9.7 9.8,7.5 l 3.3,3.3 z" />
</svg>
