<?xml version="1.0" encoding="utf-8"?>
<!-- Generator: Adobe Illustrator 26.5.0, SVG Export Plug-In . SVG Version: 6.00 Build 0)  -->
<svg version="1.1" id="Ebene_1" xmlns="http://www.w3.org/2000/svg" xmlns:xlink="http://www.w3.org/1999/xlink" x="0px" y="0px"
	 viewBox="0 0 48 48" style="enable-background:new 0 0 48 48;" xml:space="preserve">
<path d="M22.5,7.5V2h3v5.5H22.5z M22.5,46v-5.5h3V46H22.5z M40.5,25.5v-3H46v3H40.5z M2,25.5v-3h5.5v3H2z M37.1,13l-2.2-2.1l3.3-3.3
	l2.2,2.1L37.1,13z M9.8,40.5l-2.2-2.2l3.3-3.3l2.1,2.2L9.8,40.5z M38.2,40.5L35,37.2l2.1-2.2l3.3,3.3L38.2,40.5z M10.9,13L7.6,9.7
	l2.2-2.2l3.3,3.3L10.9,13z"/>
<path d="M14.9,35.2c-1.2,0-2-0.5-2.4-1.6c-0.5-1-0.3-2,0.5-2.9l7.1-8v-7.2h-0.9c-0.4,0-0.7-0.1-1-0.4c-0.3-0.3-0.4-0.6-0.4-1
	s0.1-0.7,0.4-1c0.3-0.3,0.6-0.4,1-0.4h9.5c0.4,0,0.7,0.1,1,0.4c0.3,0.3,0.4,0.6,0.4,1s-0.1,0.7-0.4,1c-0.3,0.3-0.6,0.4-1,0.4h-0.8
	v7.2l7.1,8c0.8,0.9,0.9,1.8,0.4,2.9c-0.5,1-1.3,1.6-2.4,1.6H14.9z"/>
</svg>
