<?xml version="1.0" encoding="UTF-8" standalone="no"?>
<svg
   height="48"
   width="48"
   version="1.1"
   id="svg65"
   sodipodi:docname="animal.svg"
   inkscape:version="1.2.1 (9c6d41e410, 2022-07-14)"
   xmlns:inkscape="http://www.inkscape.org/namespaces/inkscape"
   xmlns:sodipodi="http://sodipodi.sourceforge.net/DTD/sodipodi-0.dtd"
   xmlns="http://www.w3.org/2000/svg"
   xmlns:svg="http://www.w3.org/2000/svg">
  <defs
     id="defs69" />
  <sodipodi:namedview
     id="namedview67"
     pagecolor="#505050"
     bordercolor="#eeeeee"
     borderopacity="1"
     inkscape:showpageshadow="0"
     inkscape:pageopacity="0"
     inkscape:pagecheckerboard="0"
     inkscape:deskcolor="#505050"
     showgrid="false"
     inkscape:zoom="4.9166667"
     inkscape:cx="24"
     inkscape:cy="24.101695"
     inkscape:window-width="1500"
     inkscape:window-height="930"
     inkscape:window-x="-6"
     inkscape:window-y="-6"
     inkscape:window-maximized="1"
     inkscape:current-layer="svg65" />
  <path
     id="path63"
     d="m 7.45,23.2 q -2,0 -3.375,-1.4 Q 2.7,20.4 2.7,18.4 q 0,-2 1.375,-3.4 1.375,-1.4 3.375,-1.4 2.05,0 3.425,1.375 1.375,1.375 1.375,3.425 0,2 -1.375,3.4 Q 9.5,23.2 7.45,23.2 Z m 9.9,-9 q -2,0 -3.375,-1.375 Q 12.6,11.45 12.6,9.45 q 0,-2 1.375,-3.4 1.375,-1.4 3.375,-1.4 2,0 3.4,1.375 1.4,1.375 1.4,3.425 0,2 -1.4,3.375 -1.4,1.375 -3.4,1.375 z m 13.3,0 q -2,0 -3.4,-1.375 -1.4,-1.375 -1.4,-3.375 0,-2.05 1.4,-3.425 1.4,-1.375 3.4,-1.375 2,0 3.4,1.4 1.4,1.4 1.4,3.4 0,2 -1.4,3.375 -1.4,1.375 -3.4,1.375 z m 9.9,9 q -2.05,0 -3.425,-1.4 -1.375,-1.4 -1.375,-3.4 0,-2.05 1.375,-3.425 Q 38.5,13.6 40.55,13.6 q 2,0 3.375,1.4 1.375,1.4 1.375,3.4 0,2 -1.375,3.4 -1.375,1.4 -3.375,1.4 z m -27.6,21.85 q -2.3,0 -3.775,-1.7 Q 7.7,41.65 7.7,39.25 7.7,37.05 9.1,35.35 10.5,33.65 11.95,32 13,30.75 14,29.525 15,28.3 15.95,26.9 q 1.5,-2.3 3.4,-4.25 1.9,-1.95 4.65,-1.95 2.75,0 4.675,1.975 1.925,1.975 3.475,4.275 0.9,1.3 1.85,2.575 0.95,1.275 2.05,2.475 1.45,1.65 2.85,3.35 1.4,1.7 1.4,3.9 0,2.4 -1.475,4.1 -1.475,1.7 -3.775,1.7 -2.8,0 -5.525,-0.475 Q 26.8,44.1 24,44.1 q -2.8,0 -5.525,0.475 -2.725,0.475 -5.525,0.475 z" />
</svg>
