<?xml version="1.0" encoding="UTF-8" standalone="no"?>
<svg
   height="48"
   width="48"
   version="1.1"
   id="svg90"
   sodipodi:docname="architecture.svg"
   inkscape:version="1.2.1 (9c6d41e410, 2022-07-14)"
   xmlns:inkscape="http://www.inkscape.org/namespaces/inkscape"
   xmlns:sodipodi="http://sodipodi.sourceforge.net/DTD/sodipodi-0.dtd"
   xmlns="http://www.w3.org/2000/svg"
   xmlns:svg="http://www.w3.org/2000/svg">
  <defs
     id="defs94" />
  <sodipodi:namedview
     id="namedview92"
     pagecolor="#505050"
     bordercolor="#eeeeee"
     borderopacity="1"
     inkscape:showpageshadow="0"
     inkscape:pageopacity="0"
     inkscape:pagecheckerboard="0"
     inkscape:deskcolor="#505050"
     showgrid="false"
     inkscape:zoom="4.9166667"
     inkscape:cx="24"
     inkscape:cy="24.101695"
     inkscape:window-width="1500"
     inkscape:window-height="930"
     inkscape:window-x="-6"
     inkscape:window-y="-6"
     inkscape:window-maximized="1"
     inkscape:current-layer="svg90" />
  <path
     id="path88"
     d="m 12.8,43.85 -0.6,-4.6 6.4,-17.6 q 0.75,0.85 1.725,1.325 Q 21.3,23.45 22.3,23.65 L 16.15,40.6 Z m 22.45,0 -3.4,-3.25 -6.25,-16.9 q 1,-0.2 2,-0.675 1,-0.475 1.75,-1.325 L 35.8,39.25 Z M 24,22.85 q -2.8,0 -4.825,-2.025 Q 17.15,18.8 17.15,16 q 0,-2.4 1.35,-4.2 1.35,-1.8 3.45,-2.35 V 4.9 h 4.1 v 4.55 q 2.1,0.55 3.45,2.35 1.35,1.8 1.35,4.2 0,2.8 -2,4.825 -2,2.025 -4.85,2.025 z m 0,-4.15 q 1.1,0 1.9,-0.8 0.8,-0.8 0.8,-1.9 0,-1.1 -0.8,-1.9 -0.8,-0.8 -1.9,-0.8 -1.1,0 -1.9,0.8 -0.8,0.8 -0.8,1.9 0,1.1 0.8,1.9 0.8,0.8 1.9,0.8 z" />
</svg>
