<?xml version="1.0" encoding="UTF-8" standalone="no"?>
<svg
   height="48"
   width="48"
   version="1.1"
   id="svg4"
   sodipodi:docname="basketball.svg"
   inkscape:version="1.2.1 (9c6d41e410, 2022-07-14)"
   xmlns:inkscape="http://www.inkscape.org/namespaces/inkscape"
   xmlns:sodipodi="http://sodipodi.sourceforge.net/DTD/sodipodi-0.dtd"
   xmlns="http://www.w3.org/2000/svg"
   xmlns:svg="http://www.w3.org/2000/svg">
  <defs
     id="defs8" />
  <sodipodi:namedview
     id="namedview6"
     pagecolor="#505050"
     bordercolor="#eeeeee"
     borderopacity="1"
     inkscape:showpageshadow="0"
     inkscape:pageopacity="0"
     inkscape:pagecheckerboard="0"
     inkscape:deskcolor="#505050"
     showgrid="false"
     inkscape:zoom="4.9166667"
     inkscape:cx="24"
     inkscape:cy="24.101695"
     inkscape:window-width="1500"
     inkscape:window-height="930"
     inkscape:window-x="-6"
     inkscape:window-y="-6"
     inkscape:window-maximized="1"
     inkscape:current-layer="svg4" />
  <path
     id="path2"
     d="m 2.9,21.65 h 9.3 Q 11.8,19.4 10.575,17.125 9.35,14.85 6.3,12.25 5,14.3 4.05,16.9 3.1,19.5 2.9,21.65 Z m 32.9,0 h 9.3 Q 44.9,19.5 43.95,16.875 43,14.25 41.65,12.2 38.7,14.7 37.45,17.05 36.2,19.4 35.8,21.65 Z M 6.35,35.8 q 3.05,-2.5 4.25,-4.85 1.2,-2.35 1.6,-4.6 H 2.9 Q 3.05,28.5 4.025,31.15 5,33.8 6.35,35.8 Z m 35.3,-0.05 Q 43,33.7 43.95,31.1 44.9,28.5 45.1,26.35 h -9.3 q 0.4,2.25 1.65,4.575 1.25,2.325 4.2,4.825 z m -24.5,-14.1 h 4.5 V 2.9 q -4.1,0.45 -7.1,2.05 -3,1.6 -5.1,3.55 3.95,3.6 5.55,6.725 1.6,3.125 2.15,6.425 z m 9.2,0 h 4.5 q 0.55,-3.3 2.2,-6.425 Q 34.7,12.1 38.6,8.5 36.5,6.55 33.475,4.95 30.45,3.35 26.35,2.9 Z M 21.65,45.1 V 26.35 h -4.5 Q 16.6,29.6 15,32.75 13.4,35.9 9.5,39.5 q 2.1,1.95 4.975,3.525 2.875,1.575 7.175,2.075 z m 4.7,0 q 4.35,-0.5 7.25,-2.1 2.9,-1.6 5,-3.55 -3.9,-3.6 -5.55,-6.725 Q 31.4,29.6 30.85,26.35 h -4.5 z" />
</svg>
