<?xml version="1.0" encoding="utf-8"?>
<!-- Generator: Adobe Illustrator 26.5.0, SVG Export Plug-In . SVG Version: 6.00 Build 0)  -->
<svg version="1.1" id="Ebene_1" xmlns="http://www.w3.org/2000/svg" xmlns:xlink="http://www.w3.org/1999/xlink" x="0px" y="0px"
	 viewBox="0 0 48 48" style="enable-background:new 0 0 48 48;" xml:space="preserve">
<g>
	<path d="M24,23.4c-1.9,0-3.4,0.6-4.7,1.9c-1.3,1.3-1.9,2.9-1.9,4.7c0,0.8,0.1,1.5,0.3,2.2s0.6,1.4,1.2,2.1c0.8-0.5,1.6-0.9,2.5-1.2
		c0.8-0.3,1.7-0.4,2.6-0.4c0.9,0,1.8,0.1,2.7,0.4s1.6,0.6,2.4,1.1c0.6-0.7,1-1.4,1.2-2.1c0.2-0.7,0.3-1.4,0.3-2.2
		c0-1.9-0.6-3.4-1.9-4.7C27.4,24,25.9,23.4,24,23.4z M26,29.9c-0.5,0.5-1.2,0.8-2,0.8s-1.5-0.3-2-0.8c-0.5-0.5-0.8-1.2-0.8-2
		c0-0.8,0.3-1.5,0.8-2c0.5-0.6,1.2-0.8,2-0.8s1.5,0.3,2,0.8c0.5,0.6,0.8,1.2,0.8,2.1C26.9,28.7,26.6,29.4,26,29.9z"/>
	<path d="M29.6,2.7H11.5c-1.3,0-2.4,0.5-3.3,1.4C7.2,5,6.8,6.2,6.8,7.5v33.1c0,1.3,0.5,2.4,1.4,3.3s2,1.4,3.3,1.4h25.1
		c1.3,0,2.4-0.5,3.4-1.4c0.9-0.9,1.4-2,1.4-3.3V14.4L29.6,2.7z M31.9,33.3c-0.5,1-1.1,1.9-1.8,2.7c-0.8,0.8-1.7,1.4-2.7,1.8
		c-1,0.4-2.1,0.7-3.3,0.7c-1.2,0-2.3-0.2-3.3-0.7c-1-0.4-1.9-1.1-2.7-1.8c-0.8-0.8-1.4-1.7-1.8-2.7c-0.4-1-0.7-2.1-0.7-3.3
		c0-1.2,0.2-2.3,0.7-3.3c0.4-1,1.1-1.9,1.8-2.7c0.8-0.8,1.7-1.4,2.7-1.8c1-0.5,2.1-0.7,3.3-0.7c1.2,0,2.3,0.2,3.3,0.7
		c1,0.5,1.9,1.1,2.7,1.8s1.4,1.7,1.8,2.7c0.5,1,0.7,2.1,0.7,3.3C32.5,31.2,32.3,32.3,31.9,33.3z M27.1,16.8V7.5l9.5,9.3H27.1z"/>
</g>
</svg>
