<?xml version="1.0" encoding="UTF-8" standalone="no"?>
<!-- Generator: Adobe Illustrator 26.5.0, SVG Export Plug-In . SVG Version: 6.00 Build 0)  -->

<svg
   version="1.1"
   id="Ebene_1"
   x="0px"
   y="0px"
   viewBox="0 0 48 48"
   style="enable-background:new 0 0 48 48;"
   xml:space="preserve"
   sodipodi:docname="biography.svg"
   inkscape:version="1.2.1 (9c6d41e410, 2022-07-14)"
   xmlns:inkscape="http://www.inkscape.org/namespaces/inkscape"
   xmlns:sodipodi="http://sodipodi.sourceforge.net/DTD/sodipodi-0.dtd"
   xmlns="http://www.w3.org/2000/svg"
   xmlns:svg="http://www.w3.org/2000/svg"><defs
   id="defs27" /><sodipodi:namedview
   id="namedview25"
   pagecolor="#505050"
   bordercolor="#eeeeee"
   borderopacity="1"
   inkscape:showpageshadow="0"
   inkscape:pageopacity="0"
   inkscape:pagecheckerboard="0"
   inkscape:deskcolor="#505050"
   showgrid="false"
   inkscape:zoom="4.9166667"
   inkscape:cx="24"
   inkscape:cy="24.101695"
   inkscape:window-width="1500"
   inkscape:window-height="930"
   inkscape:window-x="-6"
   inkscape:window-y="-6"
   inkscape:window-maximized="1"
   inkscape:current-layer="Ebene_1" />
<g
   id="g22">
	
	<path
   id="path20"
   d="M 29.6,2.7 H 11.5 C 10.2,2.7 9.1,3.2 8.2,4.1 7.2,5 6.8,6.2 6.8,7.5 v 33.1 c 0,1.3 0.5,2.4 1.4,3.3 0.9,0.9 2,1.4 3.3,1.4 h 25.1 c 1.3,0 2.4,-0.5 3.4,-1.4 0.9,-0.9 1.4,-2 1.4,-3.3 V 14.4 Z m 2.3,30.6 c -0.5,1 -1.1,1.9 -1.8,2.7 -0.8,0.8 -1.7,1.4 -2.7,1.8 -1,0.4 -2.1,0.7 -3.3,0.7 -1.2,0 -2.3,-0.2 -3.3,-0.7 -1,-0.4 -1.9,-1.1 -2.7,-1.8 -0.8,-0.8 -1.4,-1.7 -1.8,-2.7 -0.4,-1 -0.7,-2.1 -0.7,-3.3 0,-1.2 0.2,-2.3 0.7,-3.3 0.4,-1 1.1,-1.9 1.8,-2.7 0.8,-0.8 1.7,-1.4 2.7,-1.8 1,-0.5 2.1,-0.7 3.3,-0.7 1.2,0 2.3,0.2 3.3,0.7 1,0.5 1.9,1.1 2.7,1.8 0.8,0.7 1.4,1.7 1.8,2.7 0.5,1 0.7,2.1 0.7,3.3 -0.1,1.2 -0.3,2.3 -0.7,3.3 z M 27.1,16.8 V 7.5 l 9.5,9.3 z M 24,23.4 c -1.9,0 -3.4,0.6 -4.7,1.9 -1.3,1.3 -1.9,2.9 -1.9,4.7 0,0.8 0.1,1.5 0.3,2.2 0.2,0.7 0.6,1.4 1.2,2.1 0.8,-0.5 1.6,-0.9 2.5,-1.2 0.8,-0.3 1.7,-0.4 2.6,-0.4 0.9,0 1.8,0.1 2.7,0.4 0.9,0.3 1.6,0.6 2.4,1.1 0.6,-0.7 1,-1.4 1.2,-2.1 0.2,-0.7 0.3,-1.4 0.3,-2.2 C 30.6,28 30,26.5 28.7,25.2 27.4,24 25.9,23.4 24,23.4 Z m 2,6.5 c -0.5,0.5 -1.2,0.8 -2,0.8 -0.8,0 -1.5,-0.3 -2,-0.8 -0.5,-0.5 -0.8,-1.2 -0.8,-2 0,-0.8 0.3,-1.5 0.8,-2 0.5,-0.6 1.2,-0.8 2,-0.8 0.8,0 1.5,0.3 2,0.8 0.5,0.6 0.8,1.2 0.8,2.1 0.1,0.7 -0.2,1.4 -0.8,1.9 z" />
</g>
</svg>
