<?xml version="1.0" encoding="UTF-8" standalone="no"?>
<svg
   height="48"
   width="48"
   version="1.1"
   id="svg12"
   sodipodi:docname="blindness.svg"
   inkscape:version="1.2.1 (9c6d41e410, 2022-07-14)"
   xmlns:inkscape="http://www.inkscape.org/namespaces/inkscape"
   xmlns:sodipodi="http://sodipodi.sourceforge.net/DTD/sodipodi-0.dtd"
   xmlns="http://www.w3.org/2000/svg"
   xmlns:svg="http://www.w3.org/2000/svg">
  <defs
     id="defs16" />
  <sodipodi:namedview
     id="namedview14"
     pagecolor="#505050"
     bordercolor="#eeeeee"
     borderopacity="1"
     inkscape:showpageshadow="0"
     inkscape:pageopacity="0"
     inkscape:pagecheckerboard="0"
     inkscape:deskcolor="#505050"
     showgrid="false"
     inkscape:zoom="4.9166667"
     inkscape:cx="24"
     inkscape:cy="24.101695"
     inkscape:window-width="1500"
     inkscape:window-height="930"
     inkscape:window-x="-6"
     inkscape:window-y="-6"
     inkscape:window-maximized="1"
     inkscape:current-layer="svg12" />
  <path
     id="path10"
     d="m 40.35,45.25 -7.7,-7.6 q -1.75,0.7 -4,1.1 -2.25,0.4 -4.65,0.4 -7.55,0 -13.825,-4.275 Q 3.9,30.6 0.85,23 q 0.9,-2.55 2.75,-5.15 1.85,-2.6 4.3,-5 L 1.75,6.8 4.25,4.2 42.7,42.65 Z M 24,31.5 q 0.55,0 1.175,-0.125 Q 25.8,31.25 26.2,31.05 L 15.85,20.8 q -0.15,0.45 -0.25,1.05 -0.1,0.6 -0.1,1.15 0,3.6 2.5,6.05 2.5,2.45 6,2.45 z m 15.1,2.4 -7.45,-7.5 q 0.4,-0.6 0.625,-1.6 0.225,-1 0.225,-1.8 0,-3.55 -2.475,-6.025 Q 27.55,14.5 24,14.5 q -0.85,0 -1.75,0.2 -0.9,0.2 -1.65,0.6 L 14.15,8.85 q 1.75,-0.8 4.625,-1.4 2.875,-0.6 5.475,-0.6 7.35,0 13.6,4.25 6.25,4.25 9.3,11.9 -1.25,3.3 -3.375,6.075 Q 41.65,31.85 39.1,33.9 Z M 27.8,22.55 24.15,18.9 q 0.65,-0.4 1.5,-0.35 0.85,0.05 1.55,0.6 0.65,0.65 0.875,1.425 Q 28.3,21.35 27.8,22.55 Z" />
</svg>
