<?xml version="1.0" encoding="UTF-8" standalone="no"?>
<svg
   height="48"
   viewBox="0 96 960 960"
   width="48"
   version="1.1"
   id="svg4"
   sodipodi:docname="briefcase.svg"
   inkscape:version="1.2.2 (732a01da63, 2022-12-09)"
   xmlns:inkscape="http://www.inkscape.org/namespaces/inkscape"
   xmlns:sodipodi="http://sodipodi.sourceforge.net/DTD/sodipodi-0.dtd"
   xmlns="http://www.w3.org/2000/svg"
   xmlns:svg="http://www.w3.org/2000/svg">
  <defs
     id="defs8" />
  <sodipodi:namedview
     id="namedview6"
     pagecolor="#ffffff"
     bordercolor="#000000"
     borderopacity="0.25"
     inkscape:showpageshadow="2"
     inkscape:pageopacity="0.0"
     inkscape:pagecheckerboard="0"
     inkscape:deskcolor="#d1d1d1"
     showgrid="false"
     inkscape:zoom="17.270833"
     inkscape:cx="24.028951"
     inkscape:cy="24.028951"
     inkscape:window-width="1920"
     inkscape:window-height="1009"
     inkscape:window-x="-8"
     inkscape:window-y="-8"
     inkscape:window-maximized="1"
     inkscape:current-layer="svg4" />
  <path
     id="path2"
     d="m 307,303 v -79 q 0,-39.463 27.475,-67.231 Q 361.95,129 401,129 h 158 q 39.05,0 66.525,27.769 Q 653,184.537 653,224 v 79 h 158 q 39.463,0 67.231,27.475 Q 906,357.95 906,397 V 627 H 571 V 567 H 391 v 60 H 55 V 397 Q 55,357.95 82.475,330.475 109.95,303 149,303 Z m 94,0 H 559 V 224 H 401 Z m 50,384 v -60 h 60 v 60 z m -396,0 h 336 v 60 h 180 v -60 h 335 v 181 q 0,39.463 -27.769,67.231 Q 850.463,963 811,963 H 149 Q 109.95,963 82.475,935.231 55,907.463 55,868 Z" />
</svg>
