<?xml version="1.0" encoding="UTF-8" standalone="no"?>
<svg
   height="48"
   width="48"
   version="1.1"
   id="svg31"
   sodipodi:docname="brothers.svg"
   inkscape:version="1.2.1 (9c6d41e410, 2022-07-14)"
   xmlns:inkscape="http://www.inkscape.org/namespaces/inkscape"
   xmlns:sodipodi="http://sodipodi.sourceforge.net/DTD/sodipodi-0.dtd"
   xmlns="http://www.w3.org/2000/svg"
   xmlns:svg="http://www.w3.org/2000/svg">
  <defs
     id="defs35" />
  <sodipodi:namedview
     id="namedview33"
     pagecolor="#505050"
     bordercolor="#eeeeee"
     borderopacity="1"
     inkscape:showpageshadow="0"
     inkscape:pageopacity="0"
     inkscape:pagecheckerboard="0"
     inkscape:deskcolor="#505050"
     showgrid="false"
     inkscape:zoom="4.9166667"
     inkscape:cx="24"
     inkscape:cy="24.101695"
     inkscape:window-width="1500"
     inkscape:window-height="930"
     inkscape:window-x="-6"
     inkscape:window-y="-6"
     inkscape:window-maximized="1"
     inkscape:current-layer="svg31" />
  <path
     id="path29"
     d="m 0.75,41.9 v -6.05 q 0,-2.1 1.075,-3.8 1.075,-1.7 3.025,-2.6 3.75,-1.6 6.825,-2.35 3.075,-0.75 6.325,-0.75 3.35,0 6.375,0.725 3.025,0.725 6.775,2.375 1.9,0.85 3.025,2.55 1.125,1.7 1.125,3.85 v 6.05 z m 38.1,0 v -5.95 q 0,-3.25 -1.575,-5.475 Q 35.7,28.25 33,26.45 q 3.05,0.45 5.775,1.175 2.725,0.725 4.525,1.625 1.8,0.95 2.875,2.75 1.075,1.8 1.075,4.1 v 5.8 z M 18,23.3 q -3.6,0 -5.85,-2.25 Q 9.9,18.8 9.9,15.15 9.9,11.55 12.15,9.3 14.4,7.05 18,7.05 q 3.6,0 5.875,2.25 2.275,2.25 2.275,5.85 0,3.65 -2.275,5.9 Q 21.6,23.3 18,23.3 Z m 19.85,-8.15 q 0,3.6 -2.275,5.875 Q 33.3,23.3 29.7,23.3 29.1,23.3 28.475,23.2 27.85,23.1 27.15,22.85 28.45,21.5 29.075,19.55 29.7,17.6 29.7,15.2 29.7,12.75 29.075,10.875 28.45,9 27.15,7.5 27.75,7.3 28.4,7.175 29.05,7.05 29.7,7.05 q 3.6,0 5.875,2.275 2.275,2.275 2.275,5.825 z" />
</svg>
