<?xml version="1.0" encoding="utf-8"?>
<!-- Generator: Adobe Illustrator 27.0.0, SVG Export Plug-In . SVG Version: 6.00 Build 0)  -->
<svg version="1.1" id="Ebene_1" xmlns="http://www.w3.org/2000/svg" xmlns:xlink="http://www.w3.org/1999/xlink" x="0px" y="0px"
	 viewBox="0 0 48 48" style="enable-background:new 0 0 48 48;" xml:space="preserve">
<g transform="matrix(1, 0, 0, 1, 0, 0)">
	<path id="Icon_awesome-calendar-alt-2" d="M4,42.6c0,2.4,1.9,4.3,4.3,4.3h31.4c2.4,0,4.3-1.9,4.3-4.3V18.3H4V42.6z M32.6,25.1
		c0-0.6,0.5-1.1,1.1-1.1h3.6c0.6,0,1.1,0.5,1.1,1.1v3.6c0,0.6-0.5,1.1-1.1,1.1h-3.6c-0.6,0-1.1-0.5-1.1-1.1L32.6,25.1z M32.6,36.5
		c0-0.6,0.5-1.1,1.1-1.1h3.6c0.6,0,1.1,0.5,1.1,1.1v3.6c0,0.6-0.5,1.1-1.1,1.1h-3.6c-0.6,0-1.1-0.5-1.1-1.1L32.6,36.5z M21.1,25.1
		c0-0.6,0.5-1.1,1.1-1.1h3.6c0.6,0,1.1,0.5,1.1,1.1v3.6c0,0.6-0.5,1.1-1.1,1.1h-3.6c-0.6,0-1.1-0.5-1.1-1.1L21.1,25.1z M21.1,36.5
		c0-0.6,0.5-1.1,1.1-1.1h3.6c0.6,0,1.1,0.5,1.1,1.1v3.6c0,0.6-0.5,1.1-1.1,1.1h-3.6c-0.6,0-1.1-0.5-1.1-1.1L21.1,36.5z M9.7,25.1
		c0-0.6,0.5-1.1,1.1-1.1h3.6c0.6,0,1.1,0.5,1.1,1.1v3.6c0,0.6-0.5,1.1-1.1,1.1h-3.6c-0.6,0-1.1-0.5-1.1-1.1L9.7,25.1z M9.7,36.5
		c0-0.6,0.5-1.1,1.1-1.1h3.6c0.6,0,1.1,0.5,1.1,1.1v3.6c0,0.6-0.5,1.1-1.1,1.1h-3.6c-0.6,0-1.1-0.5-1.1-1.1L9.7,36.5z M39.7,6.9
		h-4.3V2.6c0-0.8-0.6-1.4-1.4-1.4h-2.9c-0.8,0-1.4,0.6-1.4,1.4v4.3H18.3V2.6c0-0.8-0.6-1.4-1.4-1.4H14c-0.8,0-1.4,0.6-1.4,1.4v4.3
		H8.3C5.9,6.9,4,8.8,4,11.2v4.3h40v-4.3C44,8.8,42.1,6.9,39.7,6.9z"/>
</g>
</svg>
