<?xml version="1.0" encoding="UTF-8" standalone="no"?>
<!-- Generator: Adobe Illustrator 27.0.0, SVG Export Plug-In . SVG Version: 6.00 Build 0)  -->

<svg
   version="1.1"
   id="Ebene_1"
   x="0px"
   y="0px"
   viewBox="0 0 48 48"
   style="enable-background:new 0 0 48 48;"
   xml:space="preserve"
   sodipodi:docname="calendar.svg"
   inkscape:version="1.2.1 (9c6d41e410, 2022-07-14)"
   xmlns:inkscape="http://www.inkscape.org/namespaces/inkscape"
   xmlns:sodipodi="http://sodipodi.sourceforge.net/DTD/sodipodi-0.dtd"
   xmlns="http://www.w3.org/2000/svg"
   xmlns:svg="http://www.w3.org/2000/svg"><defs
   id="defs8" /><sodipodi:namedview
   id="namedview6"
   pagecolor="#505050"
   bordercolor="#eeeeee"
   borderopacity="1"
   inkscape:showpageshadow="0"
   inkscape:pageopacity="0"
   inkscape:pagecheckerboard="0"
   inkscape:deskcolor="#505050"
   showgrid="false"
   inkscape:zoom="4.9166667"
   inkscape:cx="24"
   inkscape:cy="24.101695"
   inkscape:window-width="1500"
   inkscape:window-height="930"
   inkscape:window-x="-6"
   inkscape:window-y="-6"
   inkscape:window-maximized="1"
   inkscape:current-layer="Ebene_1" />
<g
   transform="matrix(1, 0, 0, 1, 0, 0)"
   id="g3">
	<path
   id="Icon_awesome-calendar-alt-2"
   d="m 4,42.6 c 0,2.4 1.9,4.3 4.3,4.3 H 39.7 C 42.1,46.9 44,45 44,42.6 V 18.3 H 4 Z M 32.6,25.1 c 0,-0.6 0.5,-1.1 1.1,-1.1 h 3.6 c 0.6,0 1.1,0.5 1.1,1.1 v 3.6 c 0,0.6 -0.5,1.1 -1.1,1.1 h -3.6 c -0.6,0 -1.1,-0.5 -1.1,-1.1 z m 0,11.4 c 0,-0.6 0.5,-1.1 1.1,-1.1 h 3.6 c 0.6,0 1.1,0.5 1.1,1.1 v 3.6 c 0,0.6 -0.5,1.1 -1.1,1.1 h -3.6 c -0.6,0 -1.1,-0.5 -1.1,-1.1 z M 21.1,25.1 c 0,-0.6 0.5,-1.1 1.1,-1.1 h 3.6 c 0.6,0 1.1,0.5 1.1,1.1 v 3.6 c 0,0.6 -0.5,1.1 -1.1,1.1 h -3.6 c -0.6,0 -1.1,-0.5 -1.1,-1.1 z m 0,11.4 c 0,-0.6 0.5,-1.1 1.1,-1.1 h 3.6 c 0.6,0 1.1,0.5 1.1,1.1 v 3.6 c 0,0.6 -0.5,1.1 -1.1,1.1 h -3.6 c -0.6,0 -1.1,-0.5 -1.1,-1.1 z M 9.7,25.1 c 0,-0.6 0.5,-1.1 1.1,-1.1 h 3.6 c 0.6,0 1.1,0.5 1.1,1.1 v 3.6 c 0,0.6 -0.5,1.1 -1.1,1.1 h -3.6 c -0.6,0 -1.1,-0.5 -1.1,-1.1 z m 0,11.4 c 0,-0.6 0.5,-1.1 1.1,-1.1 h 3.6 c 0.6,0 1.1,0.5 1.1,1.1 v 3.6 c 0,0.6 -0.5,1.1 -1.1,1.1 h -3.6 c -0.6,0 -1.1,-0.5 -1.1,-1.1 z M 39.7,6.9 H 35.4 V 2.6 C 35.4,1.8 34.8,1.2 34,1.2 h -2.9 c -0.8,0 -1.4,0.6 -1.4,1.4 V 6.9 H 18.3 V 2.6 C 18.3,1.8 17.7,1.2 16.9,1.2 H 14 c -0.8,0 -1.4,0.6 -1.4,1.4 V 6.9 H 8.3 C 5.9,6.9 4,8.8 4,11.2 v 4.3 H 44 V 11.2 C 44,8.8 42.1,6.9 39.7,6.9 Z" />
</g>
</svg>
