<?xml version="1.0" encoding="UTF-8" standalone="no"?>
<svg
   height="48"
   width="48"
   version="1.1"
   id="svg12"
   sodipodi:docname="cancer.svg"
   inkscape:version="1.2.1 (9c6d41e410, 2022-07-14)"
   xmlns:inkscape="http://www.inkscape.org/namespaces/inkscape"
   xmlns:sodipodi="http://sodipodi.sourceforge.net/DTD/sodipodi-0.dtd"
   xmlns="http://www.w3.org/2000/svg"
   xmlns:svg="http://www.w3.org/2000/svg">
  <defs
     id="defs16" />
  <sodipodi:namedview
     id="namedview14"
     pagecolor="#505050"
     bordercolor="#eeeeee"
     borderopacity="1"
     inkscape:showpageshadow="0"
     inkscape:pageopacity="0"
     inkscape:pagecheckerboard="0"
     inkscape:deskcolor="#505050"
     showgrid="false"
     inkscape:zoom="4.9166667"
     inkscape:cx="24"
     inkscape:cy="24.101695"
     inkscape:window-width="1500"
     inkscape:window-height="930"
     inkscape:window-x="-6"
     inkscape:window-y="-6"
     inkscape:window-maximized="1"
     inkscape:current-layer="svg12" />
  <path
     id="path10"
     d="M 20,28.6 17.35,23.3 Q 17.15,22.9 16.775,22.7 16.4,22.5 16,22.5 H 2.75 V 11.45 Q 2.75,9.5 4.125,8.1 5.5,6.7 7.45,6.7 h 33.1 q 1.95,0 3.35,1.4 1.4,1.4 1.4,3.35 V 22.5 H 32.95 l -3.6,-7.15 Q 29.15,14.95 28.775,14.775 28.4,14.6 28,14.6 27.6,14.6 27.225,14.775 26.85,14.95 26.65,15.35 Z M 7.45,41.25 Q 5.5,41.25 4.125,39.875 2.75,38.5 2.75,36.55 V 25.5 h 12.3 l 3.6,7.2 q 0.2,0.4 0.575,0.6 0.375,0.2 0.775,0.2 0.4,0 0.775,-0.2 0.375,-0.2 0.575,-0.6 L 28,19.4 l 2.65,5.3 q 0.2,0.4 0.575,0.6 0.375,0.2 0.775,0.2 h 13.3 v 11.05 q 0,1.95 -1.4,3.325 -1.4,1.375 -3.35,1.375 z" />
</svg>
