<?xml version="1.0" encoding="UTF-8" standalone="no"?>
<svg
   height="48"
   width="48"
   version="1.1"
   id="svg20"
   sodipodi:docname="capitalism.svg"
   inkscape:version="1.2.1 (9c6d41e410, 2022-07-14)"
   xmlns:inkscape="http://www.inkscape.org/namespaces/inkscape"
   xmlns:sodipodi="http://sodipodi.sourceforge.net/DTD/sodipodi-0.dtd"
   xmlns="http://www.w3.org/2000/svg"
   xmlns:svg="http://www.w3.org/2000/svg">
  <defs
     id="defs24" />
  <sodipodi:namedview
     id="namedview22"
     pagecolor="#505050"
     bordercolor="#eeeeee"
     borderopacity="1"
     inkscape:showpageshadow="0"
     inkscape:pageopacity="0"
     inkscape:pagecheckerboard="0"
     inkscape:deskcolor="#505050"
     showgrid="false"
     inkscape:zoom="4.9166667"
     inkscape:cx="24"
     inkscape:cy="24.101695"
     inkscape:window-width="1500"
     inkscape:window-height="930"
     inkscape:window-x="-6"
     inkscape:window-y="-6"
     inkscape:window-maximized="1"
     inkscape:current-layer="svg20" />
  <path
     id="path18"
     d="m 23.95,47.15 q -5.6,0 -10.8,-3.15 -5.2,-3.15 -8.35,-7.2 v 6.35 H 0.7 v -13.7 h 13.7 v 4.1 H 7.55 q 2.55,3.6 7.15,6.525 Q 19.3,43 23.95,43 27.75,43 31.175,41.55 34.6,40.1 37.2,37.6 39.8,35.1 41.375,31.675 42.95,28.25 43,24.3 h 4.15 q -0.05,4.8 -1.925,8.975 -1.875,4.175 -5.05,7.275 -3.175,3.1 -7.35,4.85 -4.175,1.75 -8.875,1.75 z m -1.7,-8.8 v -2.5 Q 20.2,35.35 18.525,33.9 16.85,32.45 15.85,29.9 l 3.1,-1.05 q 0.55,2 2,3.1 1.45,1.1 3.4,1.1 2.05,0 3.2,-0.875 Q 28.7,31.3 28.7,29.8 28.7,28.3 27.575,27.25 26.45,26.2 23.6,25 20.15,23.65 18.5,22.075 16.85,20.5 16.85,17.9 q 0,-2.2 1.4,-3.825 1.4,-1.625 4.1,-2.075 V 9.7 H 25.7 V 12 q 1.95,0.3 3.3,1.3 1.35,1 2.3,3.1 l -2.95,1.35 q -0.75,-1.5 -1.875,-2.2 -1.125,-0.7 -2.575,-0.7 -1.7,0 -2.7,0.775 -1,0.775 -1,2.075 0,1.5 1.225,2.45 1.225,0.95 4.075,2.15 3.55,1.45 5.05,3.175 1.5,1.725 1.5,4.325 0,1.4 -0.45,2.475 -0.45,1.075 -1.3,1.85 Q 29.45,34.9 28.275,35.35 27.1,35.8 25.6,35.95 v 2.4 z M 0.85,23.7 q 0,-4.65 1.825,-8.825 Q 4.5,10.7 7.625,7.6 10.75,4.5 14.975,2.675 19.2,0.85 24,0.85 q 5.6,0 10.85,3.175 5.25,3.175 8.3,7.175 V 4.85 h 4.15 v 13.7 H 33.6 v -4.1 h 6.85 Q 37.75,10.7 33.1,7.85 28.45,5 24,5 20.2,5 16.775,6.45 13.35,7.9 10.75,10.4 8.15,12.9 6.575,16.325 5,19.75 4.95,23.7 Z" />
</svg>
