<?xml version="1.0" encoding="UTF-8" standalone="no"?>
<svg
   height="48"
   width="48"
   version="1.1"
   id="svg55"
   sodipodi:docname="cars.svg"
   inkscape:version="1.2.1 (9c6d41e410, 2022-07-14)"
   xmlns:inkscape="http://www.inkscape.org/namespaces/inkscape"
   xmlns:sodipodi="http://sodipodi.sourceforge.net/DTD/sodipodi-0.dtd"
   xmlns="http://www.w3.org/2000/svg"
   xmlns:svg="http://www.w3.org/2000/svg">
  <defs
     id="defs59" />
  <sodipodi:namedview
     id="namedview57"
     pagecolor="#505050"
     bordercolor="#eeeeee"
     borderopacity="1"
     inkscape:showpageshadow="0"
     inkscape:pageopacity="0"
     inkscape:pagecheckerboard="0"
     inkscape:deskcolor="#505050"
     showgrid="false"
     inkscape:zoom="4.9166667"
     inkscape:cx="24"
     inkscape:cy="24.101695"
     inkscape:window-width="1500"
     inkscape:window-height="930"
     inkscape:window-x="-6"
     inkscape:window-y="-6"
     inkscape:window-maximized="1"
     inkscape:current-layer="svg55" />
  <path
     id="path53"
     d="m 10.1,39.05 v 1.55 q 0,1.15 -0.8,1.9 -0.8,0.75 -1.95,0.75 H 7.5 q -1.15,0 -1.95,-0.8 -0.8,-0.8 -0.8,-1.95 V 24.05 L 9.05,11.1 Q 9.4,10 10.325,9.35 11.25,8.7 12.4,8.7 h 23.2 q 1.15,0 2.075,0.65 Q 38.6,10 38.95,11.1 L 43.3,24.05 V 40.5 q 0,1.15 -0.85,1.95 -0.85,0.8 -1.95,0.8 h 0.1 q -1.15,0 -1.95,-0.75 -0.8,-0.75 -0.8,-1.9 V 39.05 Z M 10.7,21.3 h 26.65 l -2.6,-7.85 h -21.5 z m 3.85,10.75 q 1.1,0 1.9,-0.8 0.8,-0.8 0.8,-1.9 0,-1.15 -0.8,-1.975 -0.8,-0.825 -1.9,-0.825 -1.2,0 -2,0.825 -0.8,0.825 -0.8,1.975 0,1.15 0.8,1.925 0.8,0.775 2,0.775 z m 19,0 q 1.15,0 1.975,-0.8 0.825,-0.8 0.825,-1.9 0,-1.15 -0.825,-1.975 Q 34.7,26.55 33.55,26.55 q -1.15,0 -1.925,0.825 -0.775,0.825 -0.775,1.975 0,1.15 0.8,1.925 0.8,0.775 1.9,0.775 z" />
</svg>
