<?xml version="1.0" encoding="UTF-8" standalone="no"?>
<!-- Generator: Adobe Illustrator 26.5.0, SVG Export Plug-In . SVG Version: 6.00 Build 0)  -->

<svg
   version="1.1"
   id="Ebene_1"
   x="0px"
   y="0px"
   viewBox="0 0 48 48"
   style="enable-background:new 0 0 48 48;"
   xml:space="preserve"
   sodipodi:docname="cats.svg"
   inkscape:version="1.2.1 (9c6d41e410, 2022-07-14)"
   xmlns:inkscape="http://www.inkscape.org/namespaces/inkscape"
   xmlns:sodipodi="http://sodipodi.sourceforge.net/DTD/sodipodi-0.dtd"
   xmlns="http://www.w3.org/2000/svg"
   xmlns:svg="http://www.w3.org/2000/svg"><defs
   id="defs51" /><sodipodi:namedview
   id="namedview49"
   pagecolor="#505050"
   bordercolor="#eeeeee"
   borderopacity="1"
   inkscape:showpageshadow="0"
   inkscape:pageopacity="0"
   inkscape:pagecheckerboard="0"
   inkscape:deskcolor="#505050"
   showgrid="false"
   inkscape:zoom="4.9166667"
   inkscape:cx="24"
   inkscape:cy="24.101695"
   inkscape:window-width="1500"
   inkscape:window-height="930"
   inkscape:window-x="-6"
   inkscape:window-y="-6"
   inkscape:window-maximized="1"
   inkscape:current-layer="Ebene_1" />










<path
   id="rect46"
   transform="matrix(0.9813 -0.1926 0.1926 0.9813 -7.1245 4.2641)"
   d="m 16.1,38.299999 h 4.5 v 0.9 h -4.5 z m 0.594616,-3.012398 0.313688,-0.843568 4.217842,1.568436 -0.313687,0.843568 z m -0.25043,0.993915 4.415654,0.866661 -0.173332,0.883131 -4.415654,-0.866662 z m 10.722898,4.30228 0.340182,-0.833232 4.166162,1.700909 -0.340182,0.833233 z m 0.639784,-3.224086 4.497775,0.142181 -0.02844,0.899554 -4.497775,-0.14218 z m -0.09749,1.234731 4.415654,0.866661 -0.173333,0.883131 -4.415653,-0.866661 z m 0.02571,-3.765462 c -0.392503,-0.07704 -0.648361,-0.331065 -0.767576,-0.762086 -0.119215,-0.431021 -0.21917,-0.960167 -0.0055,-1.529662 0.0963,-0.490628 0.290717,-0.961997 0.662131,-1.296722 0.371413,-0.334725 0.606183,-0.492458 0.998685,-0.415422 0.392503,0.07704 0.648361,0.331065 0.767576,0.762086 0.119215,0.431021 0.21917,0.960168 0.103616,1.548921 -0.115555,0.588754 -0.309977,1.060123 -0.68139,1.394848 -0.371414,0.334726 -0.68505,0.375074 -1.077552,0.298037 z m -5.593162,-1.097771 c -0.392502,-0.07704 -0.648361,-0.331065 -0.767576,-0.762086 -0.119214,-0.431021 -0.21917,-0.960167 -0.103615,-1.548921 0.0963,-0.490628 0.290717,-0.961997 0.662131,-1.296723 0.371413,-0.334725 0.704308,-0.473199 0.998685,-0.415421 0.392503,0.07704 0.648361,0.331065 0.767576,0.762086 0.119215,0.431021 0.21917,0.960167 0.103615,1.548921 -0.115554,0.588754 -0.309976,1.060123 -0.681389,1.394848 -0.371414,0.334725 -0.586924,0.394333 -0.979427,0.317296 z m 13.223173,-4.028551 c 0.409931,-0.530976 0.819863,-1.061953 1.150928,-1.710314 0.273288,-0.353984 0.44845,-0.727228 0.642872,-1.198597 0.194421,-0.471369 0.388843,-0.942738 0.504397,-1.531492 -0.725397,0.06144 -1.685565,0.280608 -2.782376,0.67677 -0.45028,0.217341 -0.998686,0.415422 -1.468225,0.730888 l -1.715803,-2.680591 c 1.760771,-1.182997 3.327122,-1.894626 4.71831,-2.233011 1.489314,-0.319126 2.68608,-0.186141 3.492175,0.379693 0.904219,0.585094 1.319641,1.58378 1.265523,2.897932 -0.152243,1.294892 -0.774025,2.90525 -1.963472,4.811816 -0.585094,0.90422 -1.287573,1.887306 -1.970793,2.772266 z m 2.737408,3.186818 c -0.473199,-0.704308 -0.867532,-1.291232 -1.163738,-1.858897 -0.296207,-0.567665 -0.69054,-1.154589 -1.084872,-1.741513 v 0 l -2.131225,-3.679276 v 0 c -0.552066,-0.821693 -1.044524,-1.427877 -1.673626,-1.857067 -0.629102,-0.429191 -1.375589,-0.779516 -2.356845,-0.972107 v 0 l -4.808157,-0.943698 v 0 c -0.88313,-0.173333 -1.706654,-0.131154 -2.353185,0.04767 -0.646531,0.178822 -1.429706,0.534636 -2.330266,0.969317 l -3.481196,2.67963 v 0 c -0.488798,0.413592 -1.056463,0.709799 -1.545261,1.12339 -0.469539,0.315466 -1.075722,0.807925 -1.780031,1.281124 -0.919819,0.532806 -1.583779,1.319641 -2.149614,2.125735 -0.565835,0.806094 -0.973937,1.846958 -1.205047,3.024466 -0.5199966,2.649392 0.0183,5.098873 1.497504,7.427309 1.498463,2.230311 3.562761,3.654528 6.310279,4.193784 1.177508,0.23111 2.178023,0.325576 3.099672,0.302657 0.921649,-0.02292 1.548922,-0.103616 1.960683,-0.124705 l 1.473715,0.798775 c 1.021604,0.506227 2.081727,0.816203 3.259235,1.047313 2.649392,0.519997 5.196999,9.6e-4 7.42731,-1.497503 2.230311,-1.498464 3.654527,-3.562762 4.193783,-6.31028 0.192592,-0.981256 0.188932,-2.001031 -0.03024,-2.961198 -0.180652,-1.156419 -0.596074,-2.155104 -1.12888,-3.074924 z m -5.362142,8.628607 c -1.291232,0.867531 -2.780546,1.186657 -4.252431,0.89777 -0.490628,-0.0963 -0.961997,-0.290717 -1.629617,-0.523657 -0.569495,-0.21368 -1.217856,-0.544746 -1.945084,-0.993196 0.352154,-0.236599 0.704309,-0.473199 1.075722,-0.807924 0.273288,-0.353984 0.527317,-0.609843 0.585094,-0.904219 0.07704,-0.392503 -0.06144,-0.725398 -0.494288,-1.116071 -0.43285,-0.390673 -1.002345,-0.604353 -1.689225,-0.739167 -0.686879,-0.134814 -1.294892,-0.152243 -1.843298,0.04584 -0.548405,0.198081 -0.802434,0.45394 -0.879471,0.846442 -0.05778,0.294377 -0.01743,0.608013 0.199911,1.058293 0.119215,0.431021 0.45394,0.802435 0.69054,1.154589 -0.842783,0.140304 -1.56818,0.201741 -2.176193,0.184312 -0.608013,-0.01743 -1.216026,-0.03486 -1.706655,-0.131154 -1.57001,-0.308147 -2.730088,-1.147269 -3.59762,-2.438502 -0.867531,-1.291233 -1.186657,-2.780546 -0.89777,-4.252431 0.134814,-0.686879 0.46588,-1.335241 0.875811,-1.866217 0.508058,-0.511717 1.1335,-1.102301 2.053319,-1.635107 0.567665,-0.296207 1.154589,-0.69054 1.722253,-0.986747 0.488799,-0.413591 0.958338,-0.729057 1.212367,-0.984916 1.231625,-1.083042 2.189962,-1.812099 3.052004,-2.050529 0.862042,-0.238429 1.960683,-0.124704 3.432567,0.164183 1.373759,0.269628 2.414623,0.67773 3.141851,1.12618 0.727227,0.44845 1.437026,1.504913 2.148654,3.071264 0.217341,0.45028 0.513547,1.017944 0.829013,1.487483 0.315466,0.46954 0.709799,1.056463 1.044524,1.427877 0.650191,0.840953 1.025264,1.526002 1.282953,2.289918 0.257688,0.763916 0.240259,1.371929 0.105445,2.058809 -0.190761,1.491143 -0.951018,2.768607 -2.340376,3.616879 z M 17.113727,26.120456 c -0.178822,-0.646531 -0.357644,-1.293062 -0.419082,-2.01846 -0.119214,-0.431021 -0.140303,-0.842783 -0.142133,-1.35267 -0.0018,-0.509887 -0.0037,-1.019775 0.111895,-1.608528 0.765746,0.252198 1.57184,0.818033 2.437541,1.599379 0.334726,0.371413 0.767576,0.762086 1.083042,1.231625 l 2.601725,-1.833189 c -1.182998,-1.760771 -2.364165,-3.011656 -3.524244,-3.850779 -1.258204,-0.858381 -2.416452,-1.187617 -3.37662,-0.968446 -1.058293,0.199911 -1.820379,0.967487 -2.266999,2.204602 -0.348494,1.256374 -0.381523,2.982287 -9.6e-4,5.196999 0.199911,1.058292 0.478689,2.23397 0.776726,3.311522 z" />
</svg>
