<?xml version="1.0" encoding="utf-8"?>
<!-- Generator: Adobe Illustrator 26.5.0, SVG Export Plug-In . SVG Version: 6.00 Build 0)  -->
<svg version="1.1" id="Ebene_1" xmlns="http://www.w3.org/2000/svg" xmlns:xlink="http://www.w3.org/1999/xlink" x="0px" y="0px"
	 viewBox="0 0 48 48" style="enable-background:new 0 0 48 48;" xml:space="preserve">
<path d="M14.7,26.6c-0.3-0.6-0.6-1.2-0.8-1.9c-0.2-0.4-0.3-0.8-0.4-1.3c-0.1-0.5-0.2-1-0.2-1.6c0.8,0.1,1.7,0.5,2.7,1.1
	c0.4,0.3,0.9,0.6,1.3,1l2.2-2.3c-1.5-1.5-2.9-2.5-4.2-3.1c-1.4-0.6-2.6-0.7-3.5-0.3c-1,0.4-1.6,1.3-1.8,2.6c-0.1,1.3,0.2,3,1,5.1
	c0.4,1,0.9,2.1,1.4,3.1L14.7,26.6z"/>
<path d="M36.6,29.2c-0.6-0.6-1.1-1.1-1.5-1.6s-0.9-1-1.4-1.5l0,0l-2.8-3.2l0,0c-0.7-0.7-1.3-1.2-2-1.5s-1.5-0.5-2.5-0.5l0,0h-4.9
	l0,0c-0.9,0-1.7,0.2-2.3,0.5c-0.6,0.3-1.3,0.8-2.1,1.4l-2.9,3.3l0,0c-0.4,0.5-0.9,0.9-1.3,1.4c-0.4,0.4-0.9,1-1.5,1.6
	c-0.8,0.7-1.3,1.6-1.7,2.5c-0.4,0.9-0.6,2-0.6,3.2c0,2.7,1,5,2.9,7c1.9,1.9,4.2,2.9,7,2.9c1.2,0,2.2-0.1,3.1-0.3s1.5-0.4,1.9-0.5
	l1.6,0.5c1.1,0.3,2.2,0.4,3.4,0.4c2.7,0,5.1-1,7-2.9s2.9-4.2,2.9-7c0-1-0.2-2-0.6-2.9C37.9,30.9,37.3,30,36.6,29.2z M33,38.7
	c-1.1,1.1-2.5,1.7-4,1.7c-0.5,0-1-0.1-1.7-0.2c-0.6-0.1-1.3-0.3-2.1-0.6c0.3-0.3,0.6-0.6,0.9-1c0.2-0.4,0.4-0.7,0.4-1
	c0-0.4-0.2-0.7-0.7-1s-1.1-0.4-1.8-0.4s-1.3,0.1-1.8,0.4s-0.7,0.6-0.7,1c0,0.3,0.1,0.6,0.4,1c0.2,0.4,0.6,0.7,0.9,1
	c-0.8,0.3-1.5,0.5-2.1,0.6s-1.2,0.2-1.7,0.2c-1.6,0-2.9-0.6-4-1.7c-1.1-1.1-1.7-2.5-1.7-4c0-0.7,0.2-1.4,0.5-2
	c0.4-0.6,0.9-1.3,1.7-2c0.5-0.4,1-0.9,1.5-1.3c0.4-0.5,0.8-0.9,1-1.2c1-1.3,1.8-2.2,2.6-2.6c0.8-0.4,1.9-0.5,3.4-0.5
	c1.4,0,2.5,0.2,3.3,0.5s1.7,1.2,2.7,2.6c0.3,0.4,0.7,0.9,1.1,1.3s0.9,0.9,1.3,1.2c0.8,0.7,1.3,1.3,1.7,2s0.5,1.3,0.5,2
	C34.7,36.2,34.2,37.6,33,38.7z"/>
<path d="M33.3,26.6c0.3-0.6,0.6-1.2,0.8-1.9c0.2-0.4,0.3-0.8,0.4-1.3c0.1-0.5,0.2-1,0.2-1.6C34,22,33.1,22.4,32.1,23
	c-0.4,0.3-0.9,0.6-1.3,1l-2.2-2.3c1.5-1.5,2.9-2.5,4.2-3.1c1.4-0.6,2.6-0.7,3.5-0.3c1,0.4,1.6,1.3,1.8,2.6c0.1,1.3-0.2,3-1,5.1
	c-0.4,1-0.9,2.1-1.4,3.1L33.3,26.6z"/>
<path d="M21.1,33.1c-0.4,0-0.7-0.2-0.9-0.6c-0.2-0.4-0.4-0.9-0.4-1.5c0-0.5,0.1-1,0.4-1.4s0.6-0.6,0.9-0.6c0.4,0,0.7,0.2,0.9,0.6
	c0.2,0.4,0.4,0.9,0.4,1.5s-0.1,1.1-0.4,1.5S21.5,33.1,21.1,33.1z"/>
<path d="M26.8,33.1c-0.4,0-0.7-0.2-0.9-0.6c-0.2-0.4-0.4-0.9-0.3-1.5c0-0.5,0.1-1,0.4-1.4s0.5-0.6,0.9-0.6s0.7,0.2,0.9,0.6
	c0.2,0.4,0.4,0.9,0.4,1.5s-0.1,1.1-0.4,1.5S27.2,33.1,26.8,33.1z"/>
<rect x="27.5" y="36.8" width="4.5" height="0.9"/>
<rect x="27.4" y="35.2" transform="matrix(0.9869 -0.1615 0.1615 0.9869 -5.368 5.2558)" width="4.5" height="0.9"/>
<rect x="29.2" y="36.6" transform="matrix(0.1926 -0.9813 0.9813 0.1926 -14.1885 60.4614)" width="0.9" height="4.5"/>
<rect x="16" y="36.7" width="4.5" height="0.9"/>
<rect x="17.9" y="33.3" transform="matrix(0.1615 -0.9869 0.9869 0.1615 -19.7003 47.964)" width="0.9" height="4.5"/>
<rect x="16.1" y="38.3" transform="matrix(0.9813 -0.1926 0.1926 0.9813 -7.1245 4.2641)" width="4.5" height="0.9"/>
</svg>
