<?xml version="1.0" encoding="UTF-8" standalone="no"?>
<svg
   height="48"
   width="48"
   version="1.1"
   id="svg63"
   sodipodi:docname="chemistry.svg"
   inkscape:version="1.2.1 (9c6d41e410, 2022-07-14)"
   xmlns:inkscape="http://www.inkscape.org/namespaces/inkscape"
   xmlns:sodipodi="http://sodipodi.sourceforge.net/DTD/sodipodi-0.dtd"
   xmlns="http://www.w3.org/2000/svg"
   xmlns:svg="http://www.w3.org/2000/svg">
  <defs
     id="defs67" />
  <sodipodi:namedview
     id="namedview65"
     pagecolor="#505050"
     bordercolor="#eeeeee"
     borderopacity="1"
     inkscape:showpageshadow="0"
     inkscape:pageopacity="0"
     inkscape:pagecheckerboard="0"
     inkscape:deskcolor="#505050"
     showgrid="false"
     inkscape:zoom="4.9166667"
     inkscape:cx="24"
     inkscape:cy="24.101695"
     inkscape:window-width="1500"
     inkscape:window-height="930"
     inkscape:window-x="-6"
     inkscape:window-y="-6"
     inkscape:window-maximized="1"
     inkscape:current-layer="svg63" />
  <path
     id="path61"
     d="m 8.6,43.25 q -2.95,0 -4.15,-2.65 -1.2,-2.65 0.8,-4.9 L 17.35,22.05 V 9.85 H 15.9 q -1,0 -1.675,-0.675 Q 13.55,8.5 13.55,7.5 q 0,-1 0.675,-1.675 Q 14.9,5.15 15.9,5.15 h 16.2 q 1,0 1.7,0.675 0.7,0.675 0.7,1.675 0,1 -0.7,1.675 -0.7,0.675 -1.7,0.675 h -1.4 v 12.2 L 42.8,35.7 q 1.95,2.25 0.75,4.9 -1.2,2.65 -4.15,2.65 z" />
</svg>
