<?xml version="1.0" encoding="UTF-8" standalone="no"?>
<!-- Generator: Adobe Illustrator 26.5.0, SVG Export Plug-In . SVG Version: 6.00 Build 0)  -->

<svg
   version="1.1"
   id="Capa_1"
   x="0px"
   y="0px"
   viewBox="0 0 427.2 427.2"
   style="enable-background:new 0 0 427.2 427.2;"
   xml:space="preserve"
   sodipodi:docname="civil-rights.svg"
   inkscape:version="1.2.1 (9c6d41e410, 2022-07-14)"
   xmlns:inkscape="http://www.inkscape.org/namespaces/inkscape"
   xmlns:sodipodi="http://sodipodi.sourceforge.net/DTD/sodipodi-0.dtd"
   xmlns="http://www.w3.org/2000/svg"
   xmlns:svg="http://www.w3.org/2000/svg"><defs
   id="defs17" /><sodipodi:namedview
   id="namedview15"
   pagecolor="#505050"
   bordercolor="#eeeeee"
   borderopacity="1"
   inkscape:showpageshadow="0"
   inkscape:pageopacity="0"
   inkscape:pagecheckerboard="0"
   inkscape:deskcolor="#505050"
   showgrid="false"
   inkscape:zoom="0.55243444"
   inkscape:cx="213.60001"
   inkscape:cy="214.50509"
   inkscape:window-width="1500"
   inkscape:window-height="930"
   inkscape:window-x="-6"
   inkscape:window-y="-6"
   inkscape:window-maximized="1"
   inkscape:current-layer="Capa_1" />
<g
   id="g12">
	
	
	
	
	<path
   id="path10"
   d="M 299.8,25.5 C 282.3,25.5 268,39.8 268,57.3 v 73.4 c 2.6,-0.5 5.3,-0.7 8.1,-0.7 h 55.5 V 57.3 c 0,-17.5 -14.3,-31.8 -31.8,-31.8 z M 223.2,13 c -17.5,0 -31.8,14.3 -31.8,31.8 V 162 c 0,0 0,0 0,0.1 0,17.5 14.3,31.7 31.8,31.7 2.6,0 5.2,-0.3 7.7,-0.9 -1.6,-4.8 -2.5,-9.9 -2.5,-15.2 0,-18.7 10.9,-35 26.6,-42.8 V 44.8 C 255,27.3 240.7,13 223.2,13 Z M 146.5,26 C 129,26 114.7,40.3 114.7,57.8 V 162 c 0,17.5 14.3,31.8 31.8,31.8 17.5,0 31.8,-14.2 31.8,-31.7 0,0 0,-0.1 0,-0.1 v -104.2 0 0 C 178.4,40.3 164.1,26 146.5,26 Z m 194.8,322.8 0.3,-0.2 c 29.7,-21.1 47.4,-55.5 47.4,-92 v -90.9 c 0,-12.6 -10.2,-22.8 -22.8,-22.8 h -90.1 c -19.1,0 -34.7,15.6 -34.7,34.7 0,19.1 15.6,34.7 34.7,34.7 h 66.3 c 3.6,0 6.5,2.9 6.5,6.5 0,3.6 -2.9,6.5 -6.5,6.5 h -39.3 v 8.6 c 0,3.6 -2.9,6.5 -6.5,6.5 h -19.5 c -40.3,0 -73,32.7 -73,73 0,3.6 -2.9,6.5 -6.5,6.5 -3.6,0 -6.5,-2.9 -6.5,-6.5 0,-47.4 38.6,-86 86,-86 h 13 v -2.1 h -14 c -16.3,0 -30.7,-8.2 -39.3,-20.7 -4.4,1.4 -8.9,2.1 -13.6,2.1 -16.2,0 -30.4,-8.7 -38.3,-21.6 -7.9,12.9 -22.1,21.6 -38.3,21.6 -15.8,0 -29.6,-8.2 -37.6,-20.5 -7.7,13.6 -22.3,22.8 -39,22.8 -12.4,0 -23.7,-5.1 -31.8,-13.3 v 33.7 c 0,53.2 18.5,105.3 52,146.7 0.9,1.2 1.5,2.6 1.5,4.1 V 410 H 307 c 1.7,-24.4 14.3,-46.9 34.3,-61.2 z M 69.9,58.1 c -17.5,0 -31.8,14.3 -31.8,31.8 v 74.4 c 0,17.5 14.3,31.8 31.8,31.8 17.5,0 31.8,-14.3 31.8,-31.8 V 89.9 C 101.7,72.4 87.5,58.1 69.9,58.1 Z" />
</g>
</svg>
