<?xml version="1.0" encoding="utf-8"?>
<!-- Generator: Adobe Illustrator 26.5.0, SVG Export Plug-In . SVG Version: 6.00 Build 0)  -->
<svg version="1.1" id="Capa_1" xmlns="http://www.w3.org/2000/svg" xmlns:xlink="http://www.w3.org/1999/xlink" x="0px" y="0px"
	 viewBox="0 0 427.2 427.2" style="enable-background:new 0 0 427.2 427.2;" xml:space="preserve">
<g>
	<path d="M69.9,58.1c-17.5,0-31.8,14.3-31.8,31.8v74.4c0,17.5,14.3,31.8,31.8,31.8c17.5,0,31.8-14.3,31.8-31.8V89.9
		C101.7,72.4,87.5,58.1,69.9,58.1z"/>
	<path d="M341.3,348.8l0.3-0.2c29.7-21.1,47.4-55.5,47.4-92v-90.9c0-12.6-10.2-22.8-22.8-22.8h-90.1c-19.1,0-34.7,15.6-34.7,34.7
		s15.6,34.7,34.7,34.7h66.3c3.6,0,6.5,2.9,6.5,6.5c0,3.6-2.9,6.5-6.5,6.5h-39.3v8.6c0,3.6-2.9,6.5-6.5,6.5h-19.5
		c-40.3,0-73,32.7-73,73c0,3.6-2.9,6.5-6.5,6.5c-3.6,0-6.5-2.9-6.5-6.5c0-47.4,38.6-86,86-86h13v-2.1h-14
		c-16.3,0-30.7-8.2-39.3-20.7c-4.4,1.4-8.9,2.1-13.6,2.1c-16.2,0-30.4-8.7-38.3-21.6c-7.9,12.9-22.1,21.6-38.3,21.6
		c-15.8,0-29.6-8.2-37.6-20.5c-7.7,13.6-22.3,22.8-39,22.8c-12.4,0-23.7-5.1-31.8-13.3v33.7c0,53.2,18.5,105.3,52,146.7
		c0.9,1.2,1.5,2.6,1.5,4.1V410H307C308.7,385.6,321.3,363.1,341.3,348.8z"/>
	<path d="M146.5,26c-17.5,0-31.8,14.3-31.8,31.8v104.2c0,17.5,14.3,31.8,31.8,31.8c17.5,0,31.8-14.2,31.8-31.7c0,0,0-0.1,0-0.1V57.8
		h0v0C178.4,40.3,164.1,26,146.5,26z"/>
	<path d="M223.2,13c-17.5,0-31.8,14.3-31.8,31.8v117.2c0,0,0,0,0,0.1c0,17.5,14.3,31.7,31.8,31.7c2.6,0,5.2-0.3,7.7-0.9
		c-1.6-4.8-2.5-9.9-2.5-15.2c0-18.7,10.9-35,26.6-42.8V44.8C255,27.3,240.7,13,223.2,13z"/>
	<path d="M299.8,25.5c-17.5,0-31.8,14.3-31.8,31.8v73.4c2.6-0.5,5.3-0.7,8.1-0.7h55.5V57.3C331.6,39.8,317.3,25.5,299.8,25.5z"/>
</g>
</svg>
