<?xml version="1.0" encoding="UTF-8" standalone="no"?>
<svg
   height="48"
   width="48"
   version="1.1"
   id="svg36"
   sodipodi:docname="color-palette.svg"
   inkscape:version="1.2.1 (9c6d41e410, 2022-07-14)"
   xmlns:inkscape="http://www.inkscape.org/namespaces/inkscape"
   xmlns:sodipodi="http://sodipodi.sourceforge.net/DTD/sodipodi-0.dtd"
   xmlns="http://www.w3.org/2000/svg"
   xmlns:svg="http://www.w3.org/2000/svg">
  <defs
     id="defs40" />
  <sodipodi:namedview
     id="namedview38"
     pagecolor="#505050"
     bordercolor="#eeeeee"
     borderopacity="1"
     inkscape:showpageshadow="0"
     inkscape:pageopacity="0"
     inkscape:pagecheckerboard="0"
     inkscape:deskcolor="#505050"
     showgrid="false"
     inkscape:zoom="4.9166667"
     inkscape:cx="24"
     inkscape:cy="24.101695"
     inkscape:window-width="1500"
     inkscape:window-height="930"
     inkscape:window-x="-6"
     inkscape:window-y="-6"
     inkscape:window-maximized="1"
     inkscape:current-layer="svg36" />
  <path
     id="path34"
     d="M 24,44 Q 19.9,44 16.25,42.425 12.6,40.85 9.875,38.125 7.15,35.4 5.575,31.75 4,28.1 4,24 4,19.75 5.6,16.1 7.2,12.45 9.975,9.75 12.75,7.05 16.475,5.525 20.2,4 24.45,4 28.4,4 31.95,5.325 35.5,6.65 38.175,9 40.85,11.35 42.425,14.575 44,17.8 44,21.65 44,27.05 40.85,30.175 37.7,33.3 32.5,33.3 h -3.75 q -0.9,0 -1.55,0.7 -0.65,0.7 -0.65,1.55 0,1.35 0.725,2.3 Q 28,38.8 28,40.05 28,41.95 26.95,42.975 25.9,44 24,44 Z m 0,-20 z m -11.65,1.3 q 1,0 1.75,-0.75 0.75,-0.75 0.75,-1.75 0,-1 -0.75,-1.75 -0.75,-0.75 -1.75,-0.75 -1,0 -1.75,0.75 -0.75,0.75 -0.75,1.75 0,1 0.75,1.75 0.75,0.75 1.75,0.75 z m 6.3,-8.5 q 1,0 1.75,-0.75 0.75,-0.75 0.75,-1.75 0,-1 -0.75,-1.75 -0.75,-0.75 -1.75,-0.75 -1,0 -1.75,0.75 -0.75,0.75 -0.75,1.75 0,1 0.75,1.75 0.75,0.75 1.75,0.75 z m 10.7,0 q 1,0 1.75,-0.75 0.75,-0.75 0.75,-1.75 0,-1 -0.75,-1.75 -0.75,-0.75 -1.75,-0.75 -1,0 -1.75,0.75 -0.75,0.75 -0.75,1.75 0,1 0.75,1.75 0.75,0.75 1.75,0.75 z m 6.55,8.5 q 1,0 1.75,-0.75 0.75,-0.75 0.75,-1.75 0,-1 -0.75,-1.75 -0.75,-0.75 -1.75,-0.75 -1,0 -1.75,0.75 -0.75,0.75 -0.75,1.75 0,1 0.75,1.75 0.75,0.75 1.75,0.75 z M 24,41 q 0.55,0 0.775,-0.225 Q 25,40.55 25,40.05 q 0,-0.7 -0.725,-1.3 -0.725,-0.6 -0.725,-2.65 0,-2.3 1.5,-4.05 1.5,-1.75 3.8,-1.75 h 3.65 q 3.8,0 6.15,-2.225 Q 41,25.85 41,21.65 41,15.05 36,11.025 31,7 24.45,7 17.15,7 12.075,11.925 7,16.85 7,24 7,31.05 11.975,36.025 16.95,41 24,41 Z" />
</svg>
