<?xml version="1.0" encoding="UTF-8" standalone="no"?>
<svg
   height="48"
   viewBox="0 96 960 960"
   width="48"
   version="1.1"
   id="svg180"
   sodipodi:docname="contract.svg"
   inkscape:version="1.2.2 (732a01da63, 2022-12-09)"
   xmlns:inkscape="http://www.inkscape.org/namespaces/inkscape"
   xmlns:sodipodi="http://sodipodi.sourceforge.net/DTD/sodipodi-0.dtd"
   xmlns="http://www.w3.org/2000/svg"
   xmlns:svg="http://www.w3.org/2000/svg">
  <defs
     id="defs184" />
  <sodipodi:namedview
     id="namedview182"
     pagecolor="#ffffff"
     bordercolor="#000000"
     borderopacity="0.25"
     inkscape:showpageshadow="2"
     inkscape:pageopacity="0.0"
     inkscape:pagecheckerboard="0"
     inkscape:deskcolor="#d1d1d1"
     showgrid="false"
     inkscape:zoom="17.270833"
     inkscape:cx="24.028951"
     inkscape:cy="24.028951"
     inkscape:window-width="1920"
     inkscape:window-height="1009"
     inkscape:window-x="-8"
     inkscape:window-y="-8"
     inkscape:window-maximized="1"
     inkscape:current-layer="svg180" />
  <path
     id="path178"
     d="M 479,999 Q 400,999 330,969 260,939 207.5,887 155,835 125,765 95,695 95,615.267 95,535.534 125,465.767 155,396 207.5,343.5 260,291 330,260.5 400,230 479,230 q 79,0 149,30.5 70,30.5 122.5,83 52.5,52.5 83,122.267 30.5,69.767 30.5,149.5 Q 864,695 833.5,765 803,835 750.489,887.24 q -52.511,52.241 -122.5,82 Q 558,999 479,999 Z m 0,-382 z M 594,784 646,732 518,604 V 416 H 446 V 636 Z M 203,157 254,208 69,387 19,336 Z m 552,0 185,179 -51,51 L 704,208 Z M 478.864,905 Q 600,905 684.5,820.636 769,736.272 769,615.136 769,494 684.636,409.5 600.272,325 479.136,325 358,325 273.5,409.364 189,493.728 189,614.864 189,736 273.364,820.5 357.728,905 478.864,905 Z" />
</svg>
