<?xml version="1.0" encoding="UTF-8" standalone="no"?>
<!-- Generator: Adobe Illustrator 26.5.0, SVG Export Plug-In . SVG Version: 6.00 Build 0)  -->

<svg
   version="1.1"
   id="Ebene_1"
   x="0px"
   y="0px"
   viewBox="0 0 48 48"
   style="enable-background:new 0 0 48 48;"
   xml:space="preserve"
   sodipodi:docname="corruption.svg"
   inkscape:version="1.2.1 (9c6d41e410, 2022-07-14)"
   xmlns:inkscape="http://www.inkscape.org/namespaces/inkscape"
   xmlns:sodipodi="http://sodipodi.sourceforge.net/DTD/sodipodi-0.dtd"
   xmlns="http://www.w3.org/2000/svg"
   xmlns:svg="http://www.w3.org/2000/svg"><defs
   id="defs32" /><sodipodi:namedview
   id="namedview30"
   pagecolor="#505050"
   bordercolor="#eeeeee"
   borderopacity="1"
   inkscape:showpageshadow="0"
   inkscape:pageopacity="0"
   inkscape:pagecheckerboard="0"
   inkscape:deskcolor="#505050"
   showgrid="false"
   inkscape:zoom="4.9166667"
   inkscape:cx="24"
   inkscape:cy="24.101695"
   inkscape:window-width="1500"
   inkscape:window-height="930"
   inkscape:window-x="-6"
   inkscape:window-y="-6"
   inkscape:window-maximized="1"
   inkscape:current-layer="Ebene_1" />
<path
   id="path27"
   d="M 28,46.6 13.1,42.3 V 23 h 4.3 l 12.9,4.9 c 1.1,0.4 2.1,1.1 2.8,2 0.8,0.9 1.1,2.2 1.1,3.9 h -4.4 c -1.6,0 -2.8,0 -3.5,-0.2 -0.7,-0.2 -1.6,-0.3 -2.6,-0.6 l -3.5,-1.1 -0.9,2.5 4.1,1.3 c 0.6,0.2 1.5,0.4 2.5,0.5 1,0.1 2.1,0.2 3,0.2 h 9.8 c 2.4,0 4,0.3 4.8,0.8 0.8,0.5 1.2,1.5 1.2,2.7 v 1.5 z M 0.6,45 V 23 H 8.8 V 45 Z M 37,9.5 C 36.7,8.9 36.4,8.5 35.9,8.2 35.5,7.9 34.9,7.7 34.3,7.7 33.8,7.7 33.4,7.8 33,7.9 32.6,8.1 32.3,8.3 32.1,8.6 L 30.3,6.8 c 0.4,-0.4 0.8,-0.8 1.3,-1 0.5,-0.2 1,-0.4 1.6,-0.5 V 2.8 h 2.3 v 2.4 c 0.7,0 1.5,0.3 2.2,0.9 0.7,0.6 1.4,1.4 1.7,2.3 z m 6.4,15.9 -5,-5 c -0.4,0.3 -0.9,0.6 -1.3,0.8 -0.5,0.2 -1,0.3 -1.6,0.3 v 2.4 h -2.3 v -2.4 c -1,-0.1 -1.9,-0.5 -2.7,-1.3 -0.8,-0.8 -1.4,-1.7 -1.7,-2.8 l 2.4,-0.9 c 0.3,0.9 0.7,1.6 1.2,2 0.6,0.4 1.2,0.6 2,0.6 0.4,0 0.7,0 1.1,-0.1 0.4,-0.1 0.7,-0.2 0.9,-0.5 L 22.5,4.5 23.9,3.1 44.8,24 Z" />
</svg>
