<?xml version="1.0" encoding="UTF-8" standalone="no"?>
<svg
   version="1.1"
   viewBox="0 0 512 512"
   enable-background="new 0 0 512 512"
   id="svg76"
   sodipodi:docname="crime.svg"
   inkscape:version="1.2.1 (9c6d41e410, 2022-07-14)"
   xmlns:inkscape="http://www.inkscape.org/namespaces/inkscape"
   xmlns:sodipodi="http://sodipodi.sourceforge.net/DTD/sodipodi-0.dtd"
   xmlns="http://www.w3.org/2000/svg"
   xmlns:svg="http://www.w3.org/2000/svg">
  <defs
     id="defs80" />
  <sodipodi:namedview
     id="namedview78"
     pagecolor="#505050"
     bordercolor="#eeeeee"
     borderopacity="1"
     inkscape:showpageshadow="0"
     inkscape:pageopacity="0"
     inkscape:pagecheckerboard="0"
     inkscape:deskcolor="#505050"
     showgrid="false"
     inkscape:zoom="0.4609375"
     inkscape:cx="256"
     inkscape:cy="257.08475"
     inkscape:window-width="1500"
     inkscape:window-height="930"
     inkscape:window-x="-6"
     inkscape:window-y="-6"
     inkscape:window-maximized="1"
     inkscape:current-layer="svg76" />
  <g
     id="g74">
    <path
       id="path72"
       d="m 125.132,142.815 c 2.563,0.641 4.962,0.797 7.204,0.797 14.556,0 27.839,-9.923 31.199,-24.8 4.001,-17.127 -6.72,-34.41 -23.839,-38.247 -17.283,-4.001 -34.567,6.72 -38.411,23.839 -4,17.283 6.728,34.41 23.847,38.411 z m 70.087,-57.929 c 1.922,0 3.844,-0.164 5.766,-0.641 17.276,-3.039 28.957,-19.682 25.761,-37.122 -3.039,-17.447 -19.682,-28.964 -37.13,-25.769 -17.44,3.04 -28.957,19.682 -25.917,37.13 2.876,15.518 16.323,26.402 31.52,26.402 z m 279.347,27.738 C 446.056,84.114 407.338,71.959 370.07,76.019 L 338.784,44.733 c -12.486,-12.501 -32.77,-12.501 -45.255,0 l -15.385,15.385 c -10.206,-1.846 -21.358,0.965 -28.839,8.446 -5.915,5.923 -9.275,14.244 -9.275,22.565 0,2.156 0.246,4.305 0.683,6.42 l -15.075,15.075 c -12.502,12.494 -12.502,32.762 0,45.256 l 31.287,31.287 c -4.06,37.269 8.094,75.985 36.604,104.495 24.956,24.956 57.734,37.434 90.519,37.434 32.785,0 65.563,-12.478 90.519,-37.434 49.911,-49.913 49.911,-131.126 -0.001,-181.038 z M 429.31,248.406 c -24.956,24.956 -65.571,24.956 -90.527,0 -24.942,-24.943 -24.95,-65.526 -0.035,-90.484 l 0.078,-0.078 c 12.472,-12.451 28.845,-18.678 45.22,-18.678 16.393,0 32.785,6.235 45.263,18.713 24.957,24.956 24.957,65.571 10e-4,90.527 z m -221.285,14.983 v -44.245 c 0,-17.674 -14.33,-32.004 -32.004,-32.004 h -20.442 c -1.395,-2.408 -2.99,-4.71 -5.006,-6.727 -11.837,-11.837 -33.285,-11.837 -45.123,0 -2.014,2.017 -3.608,4.32 -5.002,6.727 H 80.01 c -17.674,0 -32.004,14.33 -32.004,32.004 v 44.245 C 18.782,286.873 0,322.843 0,363.162 c 0,70.587 57.429,128.016 128.016,128.016 70.587,0 128.016,-57.429 128.016,-128.016 -10e-4,-40.319 -18.782,-76.289 -48.007,-99.773 z M 128.016,427.17 c -35.293,0 -64.008,-28.715 -64.008,-64.008 0,-35.293 28.715,-64.008 64.008,-64.008 35.293,0 64.008,28.714 64.008,64.008 -0.001,35.293 -28.715,64.008 -64.008,64.008 z" />
  </g>
</svg>
