<?xml version="1.0" encoding="UTF-8" standalone="no"?>
<!-- Generator: Adobe Illustrator 26.5.0, SVG Export Plug-In . SVG Version: 6.00 Build 0)  -->

<svg
   version="1.1"
   id="Ebene_1"
   x="0px"
   y="0px"
   viewBox="0 0 48 48"
   style="enable-background:new 0 0 48 48;"
   xml:space="preserve"
   sodipodi:docname="dance.svg"
   inkscape:version="1.2.1 (9c6d41e410, 2022-07-14)"
   xmlns:inkscape="http://www.inkscape.org/namespaces/inkscape"
   xmlns:sodipodi="http://sodipodi.sourceforge.net/DTD/sodipodi-0.dtd"
   xmlns="http://www.w3.org/2000/svg"
   xmlns:svg="http://www.w3.org/2000/svg"><defs
   id="defs87" /><sodipodi:namedview
   id="namedview85"
   pagecolor="#505050"
   bordercolor="#eeeeee"
   borderopacity="1"
   inkscape:showpageshadow="0"
   inkscape:pageopacity="0"
   inkscape:pagecheckerboard="0"
   inkscape:deskcolor="#505050"
   showgrid="false"
   inkscape:zoom="4.9166667"
   inkscape:cx="24"
   inkscape:cy="24.101695"
   inkscape:window-width="1500"
   inkscape:window-height="930"
   inkscape:window-x="-6"
   inkscape:window-y="-6"
   inkscape:window-maximized="1"
   inkscape:current-layer="Ebene_1" />
<path
   id="path82"
   d="M 4.3,46.5 9.9,17.5 6,19.3 v 6.8 H 1.9 V 16.5 L 12,12.2 c 1,-0.4 2.1,-0.5 3.3,-0.3 1.2,0.2 2.1,0.8 2.7,1.8 l 2.2,3.3 c 0.9,1.4 2.1,2.6 3.5,3.5 1.4,1 3.2,1.4 5.1,1.4 V 26 c -2.1,0 -4,-0.4 -5.9,-1.2 C 21,24 19.4,22.6 18,20.7 l -1.7,6.3 4.4,4.1 V 46.5 H 16.6 V 34.2 l -4.4,-4 -3.6,16.3 z M 18,9.8 c -1.2,0 -2.2,-0.4 -3,-1.2 -0.8,-0.8 -1.2,-1.8 -1.2,-3 0,-1.2 0.4,-2.2 1.2,-3 0.8,-0.8 1.8,-1.2 3,-1.2 1.2,0 2.2,0.4 3,1.2 0.8,0.8 1.2,1.8 1.2,3 0,1.2 -0.4,2.2 -1.2,3 -0.8,0.7 -1.9,1.2 -3,1.2 z m 18.9,11.8 c -1.2,0 -2.3,-0.4 -3.1,-1.3 -0.8,-0.8 -1.3,-1.9 -1.3,-3.1 0,-1.2 0.4,-2.3 1.3,-3.1 0.9,-0.8 1.9,-1.3 3.1,-1.3 0.4,0 0.8,0 1.1,0.1 0.3,0.1 0.6,0.2 0.8,0.4 V 1.2 h 7.5 v 4.5 h -5 v 11.5 c 0,1.2 -0.4,2.3 -1.3,3.1 -0.8,0.9 -1.9,1.3 -3.1,1.3 z" />
</svg>
