<?xml version="1.0" encoding="utf-8"?>
<!-- Generator: Adobe Illustrator 26.5.0, SVG Export Plug-In . SVG Version: 6.00 Build 0)  -->
<svg version="1.1" id="Ebene_1" xmlns="http://www.w3.org/2000/svg" xmlns:xlink="http://www.w3.org/1999/xlink" x="0px" y="0px"
	 viewBox="0 0 48 48" style="enable-background:new 0 0 48 48;" xml:space="preserve">
<path d="M4.3,46.5l5.6-29L6,19.3v6.8H1.9v-9.6L12,12.2c1-0.4,2.1-0.5,3.3-0.3c1.2,0.2,2.1,0.8,2.7,1.8l2.2,3.3
	c0.9,1.4,2.1,2.6,3.5,3.5c1.4,1,3.2,1.4,5.1,1.4v4.1c-2.1,0-4-0.4-5.9-1.2c-1.9-0.8-3.5-2.2-4.9-4.1L16.3,27l4.4,4.1v15.4h-4.1V34.2
	l-4.4-4L8.6,46.5H4.3z M18,9.8c-1.2,0-2.2-0.4-3-1.2c-0.8-0.8-1.2-1.8-1.2-3c0-1.2,0.4-2.2,1.2-3c0.8-0.8,1.8-1.2,3-1.2
	c1.2,0,2.2,0.4,3,1.2c0.8,0.8,1.2,1.8,1.2,3c0,1.2-0.4,2.2-1.2,3C20.2,9.3,19.1,9.8,18,9.8z M36.9,21.6c-1.2,0-2.3-0.4-3.1-1.3
	c-0.8-0.8-1.3-1.9-1.3-3.1s0.4-2.3,1.3-3.1s1.9-1.3,3.1-1.3c0.4,0,0.8,0,1.1,0.1c0.3,0.1,0.6,0.2,0.8,0.4V1.2h7.5v4.5h-5v11.5
	c0,1.2-0.4,2.3-1.3,3.1C39.2,21.2,38.1,21.6,36.9,21.6z"/>
</svg>
