<?xml version="1.0" encoding="UTF-8" standalone="no"?>
<svg
   height="48"
   width="48"
   version="1.1"
   id="svg36"
   sodipodi:docname="death.svg"
   inkscape:version="1.2.1 (9c6d41e410, 2022-07-14)"
   xmlns:inkscape="http://www.inkscape.org/namespaces/inkscape"
   xmlns:sodipodi="http://sodipodi.sourceforge.net/DTD/sodipodi-0.dtd"
   xmlns="http://www.w3.org/2000/svg"
   xmlns:svg="http://www.w3.org/2000/svg">
  <defs
     id="defs40" />
  <sodipodi:namedview
     id="namedview38"
     pagecolor="#505050"
     bordercolor="#eeeeee"
     borderopacity="1"
     inkscape:showpageshadow="0"
     inkscape:pageopacity="0"
     inkscape:pagecheckerboard="0"
     inkscape:deskcolor="#505050"
     showgrid="false"
     inkscape:zoom="4.9166667"
     inkscape:cx="24"
     inkscape:cy="24.101695"
     inkscape:window-width="1500"
     inkscape:window-height="930"
     inkscape:window-x="-6"
     inkscape:window-y="-6"
     inkscape:window-maximized="1"
     inkscape:current-layer="svg36" />
  <path
     id="path34"
     d="m 24,27.15 q -3.35,0 -6.075,1.875 Q 15.2,30.9 13.9,34 h 20.2 q -1.25,-3.15 -4,-5 -2.75,-1.85 -6.1,-1.85 z m -9.15,-3.6 2.5,-2.25 2.25,2.25 1.55,-1.8 -2.25,-2.25 2.25,-2.25 -1.55,-1.8 -2.25,2.25 -2.5,-2.25 -1.55,1.8 2.25,2.25 -2.25,2.25 z m 13.6,0 2.2,-2.25 2.55,2.25 1.55,-1.8 -2.25,-2.25 2.25,-2.25 -1.55,-1.8 -2.55,2.25 -2.2,-2.25 -1.55,1.8 2.2,2.25 -2.2,2.25 z M 24,45.25 q -4.4,0 -8.275,-1.65 Q 11.85,41.95 8.95,39.05 6.05,36.15 4.4,32.275 2.75,28.4 2.75,24 2.75,19.6 4.4,15.725 6.05,11.85 8.95,8.95 11.85,6.05 15.725,4.375 19.6,2.7 24,2.7 q 4.4,0 8.275,1.675 3.875,1.675 6.775,4.575 2.9,2.9 4.575,6.775 Q 45.3,19.6 45.3,24 q 0,4.4 -1.675,8.275 -1.675,3.875 -4.575,6.775 -2.9,2.9 -6.775,4.55 Q 28.4,45.25 24,45.25 Z" />
</svg>
