<?xml version="1.0" encoding="UTF-8" standalone="no"?>
<svg
   height="48"
   width="48"
   version="1.1"
   id="svg28"
   sodipodi:docname="detective.svg"
   inkscape:version="1.2.1 (9c6d41e410, 2022-07-14)"
   xmlns:inkscape="http://www.inkscape.org/namespaces/inkscape"
   xmlns:sodipodi="http://sodipodi.sourceforge.net/DTD/sodipodi-0.dtd"
   xmlns="http://www.w3.org/2000/svg"
   xmlns:svg="http://www.w3.org/2000/svg">
  <defs
     id="defs32" />
  <sodipodi:namedview
     id="namedview30"
     pagecolor="#505050"
     bordercolor="#eeeeee"
     borderopacity="1"
     inkscape:showpageshadow="0"
     inkscape:pageopacity="0"
     inkscape:pagecheckerboard="0"
     inkscape:deskcolor="#505050"
     showgrid="false"
     inkscape:zoom="4.9166667"
     inkscape:cx="24"
     inkscape:cy="24.101695"
     inkscape:window-width="1500"
     inkscape:window-height="930"
     inkscape:window-x="-6"
     inkscape:window-y="-6"
     inkscape:window-maximized="1"
     inkscape:current-layer="svg28" />
  <path
     id="path26"
     d="m 22,22.35 q -3.6,0 -6.175,-2.575 Q 13.25,17.2 13.25,13.6 13.25,9.95 15.825,7.4 18.4,4.85 22,4.85 q 3.65,0 6.225,2.55 2.575,2.55 2.575,6.2 0,3.6 -2.575,6.175 Q 25.65,22.35 22,22.35 Z M 45.45,48.8 38.9,42.2 Q 37.75,43 36.575,43.25 35.4,43.5 34.15,43.5 30.25,43.5 27.525,40.775 24.8,38.05 24.8,34.15 q 0,-3.9 2.725,-6.625 2.725,-2.725 6.625,-2.725 3.95,0 6.675,2.725 2.725,2.725 2.725,6.625 0,1.25 -0.275,2.425 Q 43,37.75 42.2,38.85 l 6.6,6.6 z m -11.3,-10 q 2,0 3.325,-1.325 Q 38.8,36.15 38.8,34.2 q 0,-2 -1.325,-3.35 Q 36.15,29.5 34.2,29.5 q -2,0 -3.325,1.325 -1.325,1.325 -1.325,3.325 0,2 1.3,3.325 1.3,1.325 3.3,1.325 z m -9.5,-12.3 q -2.9,3.35 -2.825,7.7 0.075,4.35 2.675,7.7 H 4.75 v -6.05 q 0,-2.2 1.05,-3.8 1.05,-1.6 3.05,-2.6 2.4,-1.2 6.725,-2.325 Q 19.9,26 24.65,26.5 Z" />
</svg>
