<?xml version="1.0" encoding="utf-8"?>
<!-- Generator: Adobe Illustrator 26.5.0, SVG Export Plug-In . SVG Version: 6.00 Build 0)  -->
<svg version="1.1" id="Capa_1" xmlns="http://www.w3.org/2000/svg" xmlns:xlink="http://www.w3.org/1999/xlink" x="0px" y="0px"
	 viewBox="0 0 480 480" style="enable-background:new 0 0 480 480;" xml:space="preserve">
<g>
	<path d="M306.6,246.1c0.7,1.3,1.3,2.6,2,3.9H320v-40c0-16.5-13.5-30-30-30h-25v14.9C282.3,208.8,296.5,226.3,306.6,246.1z"/>
	<path d="M245,120c0-5.5-4.5-10-10-10c-24.8,0-45,20.2-45,45v6.8c19.3,3,38,9.5,55,19.3V120z"/>
	<path d="M360.4,340h9.6v-50c0-11-9-20-20-20h-30.9C333,295.9,346.8,319.3,360.4,340z"/>
	<path d="M420,415.2V370c0-5.5-4.5-10-10-10h-36C389.8,382.3,405.2,400.8,420,415.2z"/>
	<path d="M346.7,355.6C346.7,355.5,346.7,355.5,346.7,355.6c-21.7-32.6-41.4-68-57.9-100.3c-9.5-18.6-22.7-34.4-38.6-46.7
		c-0.9-0.5-1.6-1.1-2.3-1.7c-19.8-14.6-43.4-23.8-68.8-26.2c-5.1-0.5-9.1-4.8-9.1-10V61.1c0-22.7-18.4-41.1-41.1-41.1
		c-9.8,0-19.3,3.5-26.7,9.9L56.1,69.4c-3.9,3.3-6.1,8.1-6.1,13.2c0,9.6,7.8,17.4,17.4,17.4H100c5.5,0,10,4.5,10,10v79.7
		c0.2,3,0.5,6.1,0.8,9.3c0,0.3,0,0.7,0,1c0,2.5-0.9,4.9-2.6,6.7c-1.9,2.1-4.6,3.3-7.4,3.3H40c-11,0-20,9-20,20h87.6
		c4.6,0,8.6,3.2,9.7,7.7c9.3,38.9,26.4,74.8,50.7,106.9c1.3,1.7,2,3.9,2,6V410c0,5.5-4.5,10-10,10H90c-11,0-20,9-20,20s9,20,20,20
		h100c11,0,20-9,20-20v-29.8c0-3.8,2.1-7.2,5.5-8.9c1.4-0.7,3-1.1,4.5-1.1c2.1,0,4.2,0.7,6,2C276.6,440,336.8,460,400,460h45.9
		c-7.1-3.9-22.4-15-22.9-15.5C396.2,423.1,370.3,391,346.7,355.6z M140,50c0,5.5-4.5,10-10,10s-10-4.5-10-10v-2c0-5.5,4.5-10,10-10
		s10,4.5,10,10V50z"/>
</g>
</svg>
