<?xml version="1.0" encoding="UTF-8" standalone="no"?>
<!-- Generator: Adobe Illustrator 26.5.0, SVG Export Plug-In . SVG Version: 6.00 Build 0)  -->

<svg
   version="1.1"
   id="Capa_1"
   x="0px"
   y="0px"
   viewBox="0 0 480 480"
   style="enable-background:new 0 0 480 480;"
   xml:space="preserve"
   sodipodi:docname="dinosaurs.svg"
   inkscape:version="1.2.1 (9c6d41e410, 2022-07-14)"
   xmlns:inkscape="http://www.inkscape.org/namespaces/inkscape"
   xmlns:sodipodi="http://sodipodi.sourceforge.net/DTD/sodipodi-0.dtd"
   xmlns="http://www.w3.org/2000/svg"
   xmlns:svg="http://www.w3.org/2000/svg"><defs
   id="defs17" /><sodipodi:namedview
   id="namedview15"
   pagecolor="#505050"
   bordercolor="#eeeeee"
   borderopacity="1"
   inkscape:showpageshadow="0"
   inkscape:pageopacity="0"
   inkscape:pagecheckerboard="0"
   inkscape:deskcolor="#505050"
   showgrid="false"
   inkscape:zoom="0.49166667"
   inkscape:cx="240"
   inkscape:cy="241.01695"
   inkscape:window-width="1500"
   inkscape:window-height="930"
   inkscape:window-x="-6"
   inkscape:window-y="-6"
   inkscape:window-maximized="1"
   inkscape:current-layer="Capa_1" />
<g
   id="g12">
	
	
	
	
	<path
   id="path10"
   d="m 346.7,355.6 c 0,-0.1 0,-0.1 0,0 -21.7,-32.6 -41.4,-68 -57.9,-100.3 -9.5,-18.6 -22.7,-34.4 -38.6,-46.7 -0.9,-0.5 -1.6,-1.1 -2.3,-1.7 -19.8,-14.6 -43.4,-23.8 -68.8,-26.2 -5.1,-0.5 -9.1,-4.8 -9.1,-10 V 61.1 C 170,38.4 151.6,20 128.9,20 c -9.8,0 -19.3,3.5 -26.7,9.9 L 56.1,69.4 C 52.2,72.7 50,77.5 50,82.6 50,92.2 57.8,100 67.4,100 H 100 c 5.5,0 10,4.5 10,10 v 79.7 c 0.2,3 0.5,6.1 0.8,9.3 0,0.3 0,0.7 0,1 0,2.5 -0.9,4.9 -2.6,6.7 -1.9,2.1 -4.6,3.3 -7.4,3.3 H 40 c -11,0 -20,9 -20,20 h 87.6 c 4.6,0 8.6,3.2 9.7,7.7 9.3,38.9 26.4,74.8 50.7,106.9 1.3,1.7 2,3.9 2,6 V 410 c 0,5.5 -4.5,10 -10,10 H 90 c -11,0 -20,9 -20,20 0,11 9,20 20,20 h 100 c 11,0 20,-9 20,-20 v -29.8 c 0,-3.8 2.1,-7.2 5.5,-8.9 1.4,-0.7 3,-1.1 4.5,-1.1 2.1,0 4.2,0.7 6,2 50.6,37.8 110.8,57.8 174,57.8 h 45.9 C 438.8,456.1 423.5,445 423,444.5 396.2,423.1 370.3,391 346.7,355.6 Z M 140,50 c 0,5.5 -4.5,10 -10,10 -5.5,0 -10,-4.5 -10,-10 v -2 c 0,-5.5 4.5,-10 10,-10 5.5,0 10,4.5 10,10 z M 420,415.2 V 370 c 0,-5.5 -4.5,-10 -10,-10 h -36 c 15.8,22.3 31.2,40.8 46,55.2 z M 360.4,340 h 9.6 v -50 c 0,-11 -9,-20 -20,-20 h -30.9 c 13.9,25.9 27.7,49.3 41.3,70 z M 245,120 c 0,-5.5 -4.5,-10 -10,-10 -24.8,0 -45,20.2 -45,45 v 6.8 c 19.3,3 38,9.5 55,19.3 z m 61.6,126.1 c 0.7,1.3 1.3,2.6 2,3.9 H 320 v -40 c 0,-16.5 -13.5,-30 -30,-30 h -25 v 14.9 c 17.3,13.9 31.5,31.4 41.6,51.2 z" />
</g>
</svg>
