<?xml version="1.0" encoding="utf-8"?>
<!-- Generator: Adobe Illustrator 26.5.0, SVG Export Plug-In . SVG Version: 6.00 Build 0)  -->
<svg version="1.1" id="Ebene_1" xmlns="http://www.w3.org/2000/svg" xmlns:xlink="http://www.w3.org/1999/xlink" x="0px" y="0px"
	 viewBox="0 0 48 48" style="enable-background:new 0 0 48 48;" xml:space="preserve">
<path d="M9.2,24c-1.3,0-2.3-0.5-3.2-1.4s-1.3-2-1.3-3.2c0-1.3,0.4-2.4,1.3-3.3s2-1.4,3.2-1.4s2.3,0.4,3.2,1.3s1.4,2,1.4,3.3
	c0,1.2-0.5,2.3-1.4,3.2C11.5,23.6,10.5,24,9.2,24z M0.9,33.2v-1.5c0-0.8,0.2-1.6,0.7-2.4s1.1-1.3,1.9-1.7c0.9-0.4,1.8-0.6,2.7-0.9
	c0.9-0.2,1.9-0.3,3-0.3s2,0.1,3,0.3c1,0.2,1.9,0.5,2.8,0.9c0.8,0.4,1.4,1,1.9,1.7s0.7,1.5,0.7,2.4v1.5H0.9z M38.8,24.1
	c-1.3,0-2.4-0.5-3.2-1.4c-0.9-0.9-1.3-2-1.3-3.2c0-1.3,0.4-2.4,1.3-3.3c0.9-0.9,2-1.4,3.2-1.4c1.3,0,2.3,0.4,3.2,1.4
	c0.9,0.9,1.3,2,1.3,3.3c0,1.2-0.5,2.3-1.3,3.2C41.1,23.6,40.1,24.1,38.8,24.1z M30.4,33.2v-1.5c0-0.8,0.2-1.6,0.7-2.4
	s1.1-1.3,1.9-1.7c0.9-0.4,1.8-0.6,2.7-0.9c1-0.2,1.9-0.3,3-0.3s2,0.1,3,0.3c1,0.2,1.9,0.5,2.7,0.9s1.4,1,1.9,1.7s0.7,1.5,0.7,2.4
	v1.5H30.4z M22.3,31.5l0.8-5.9h-3c-0.2,0-0.3-0.1-0.4-0.2c-0.1-0.1-0.1-0.3,0-0.4l5.1-8.6h0.8l-0.8,5.9h3c0.1,0,0.3,0.1,0.3,0.2
	c0.1,0.1,0.1,0.3,0,0.4l-5.1,8.6H22.3z"/>
</svg>
