<?xml version="1.0" encoding="UTF-8" standalone="no"?>
<svg
   height="48"
   width="48"
   version="1.1"
   id="svg59"
   sodipodi:docname="documentary.svg"
   inkscape:version="1.2.1 (9c6d41e410, 2022-07-14)"
   xmlns:inkscape="http://www.inkscape.org/namespaces/inkscape"
   xmlns:sodipodi="http://sodipodi.sourceforge.net/DTD/sodipodi-0.dtd"
   xmlns="http://www.w3.org/2000/svg"
   xmlns:svg="http://www.w3.org/2000/svg">
  <defs
     id="defs63" />
  <sodipodi:namedview
     id="namedview61"
     pagecolor="#505050"
     bordercolor="#eeeeee"
     borderopacity="1"
     inkscape:showpageshadow="0"
     inkscape:pageopacity="0"
     inkscape:pagecheckerboard="0"
     inkscape:deskcolor="#505050"
     showgrid="false"
     inkscape:zoom="4.9166667"
     inkscape:cx="24"
     inkscape:cy="24.101695"
     inkscape:window-width="1500"
     inkscape:window-height="930"
     inkscape:window-x="-6"
     inkscape:window-y="-6"
     inkscape:window-maximized="1"
     inkscape:current-layer="svg59" />
  <path
     id="path57"
     d="m 24,29.95 q 1.65,0 2.775,-1.125 Q 27.9,27.7 27.9,26.05 27.9,24.4 26.775,23.275 25.65,22.15 24,22.15 q -1.65,0 -2.775,1.125 Q 20.1,24.4 20.1,26.05 q 0,1.65 1.125,2.775 Q 22.35,29.95 24,29.95 Z M 11.45,45.25 Q 9.5,45.25 8.125,43.875 6.75,42.5 6.75,40.55 V 7.45 Q 6.75,5.5 8.125,4.1 9.5,2.7 11.45,2.7 h 18.7 L 41.3,15.4 V 40.85 L 30.75,30.4 q 0.65,-0.8 0.975,-1.85 0.325,-1.05 0.325,-2.5 0,-3.4 -2.325,-5.725 Q 27.4,18 24,18 20.6,18 18.3,20.325 16,22.65 16,26.05 q 0,3.45 2.3,5.725 2.3,2.275 5.7,2.275 1.4,0 2.4,-0.2 1,-0.2 1.95,-0.9 l 11.2,11.2 q -0.65,0.5 -1.425,0.8 -0.775,0.3 -1.575,0.3 z" />
</svg>
