<?xml version="1.0" encoding="UTF-8" standalone="no"?>
<svg
   height="48"
   width="48"
   version="1.1"
   id="svg67"
   sodipodi:docname="dogs.svg"
   inkscape:version="1.2.1 (9c6d41e410, 2022-07-14)"
   xmlns:inkscape="http://www.inkscape.org/namespaces/inkscape"
   xmlns:sodipodi="http://sodipodi.sourceforge.net/DTD/sodipodi-0.dtd"
   xmlns="http://www.w3.org/2000/svg"
   xmlns:svg="http://www.w3.org/2000/svg">
  <defs
     id="defs71" />
  <sodipodi:namedview
     id="namedview69"
     pagecolor="#505050"
     bordercolor="#eeeeee"
     borderopacity="1"
     inkscape:showpageshadow="0"
     inkscape:pageopacity="0"
     inkscape:pagecheckerboard="0"
     inkscape:deskcolor="#505050"
     showgrid="false"
     inkscape:zoom="4.9166667"
     inkscape:cx="24"
     inkscape:cy="24.101695"
     inkscape:window-width="1500"
     inkscape:window-height="930"
     inkscape:window-x="-6"
     inkscape:window-y="-6"
     inkscape:window-maximized="1"
     inkscape:current-layer="svg67" />
  <path
     id="path65"
     d="M 9.15,44.85 V 24.25 L 8.7,23.8 Q 8.05,23.15 7.75,22.375 7.45,21.6 7.45,20.75 q 0,-0.8 0.3,-1.625 Q 8.05,18.3 8.7,17.65 l 6.65,-6.7 h 9 L 32.5,2.8 36.85,7.15 q 2.1,2.1 3.15,4.775 1.05,2.675 1.05,5.375 0,2.7 -1.05,5.375 -1.05,2.675 -3.15,4.775 l -4,4 v 13.4 z m 4.7,-4.7 h 14.3 V 29.5 l 5.35,-5.35 q 1.4,-1.4 2.125,-3.175 Q 36.35,19.2 36.35,17.3 36.35,15.4 35.625,13.65 34.9,11.9 33.5,10.5 l -1,-1 -6.2,6.15 h -8.6 l -0.95,1 2.85,2.9 q 1.55,1.55 2.3,3.425 0.75,1.875 0.75,3.925 0,1.9 -0.825,3.825 Q 21,32.65 19.35,34.45 l -5.5,-5.5 z" />
</svg>
