<?xml version="1.0" encoding="UTF-8" standalone="no"?>
<svg
   height="48"
   width="48"
   version="1.1"
   id="svg75"
   sodipodi:docname="drama.svg"
   inkscape:version="1.2.1 (9c6d41e410, 2022-07-14)"
   xmlns:inkscape="http://www.inkscape.org/namespaces/inkscape"
   xmlns:sodipodi="http://sodipodi.sourceforge.net/DTD/sodipodi-0.dtd"
   xmlns="http://www.w3.org/2000/svg"
   xmlns:svg="http://www.w3.org/2000/svg">
  <defs
     id="defs79" />
  <sodipodi:namedview
     id="namedview77"
     pagecolor="#505050"
     bordercolor="#eeeeee"
     borderopacity="1"
     inkscape:showpageshadow="0"
     inkscape:pageopacity="0"
     inkscape:pagecheckerboard="0"
     inkscape:deskcolor="#505050"
     showgrid="false"
     inkscape:zoom="4.9166667"
     inkscape:cx="24"
     inkscape:cy="24.101695"
     inkscape:window-width="1500"
     inkscape:window-height="930"
     inkscape:window-x="-6"
     inkscape:window-y="-6"
     inkscape:window-maximized="1"
     inkscape:current-layer="svg75" />
  <path
     id="path73"
     d="M 13.7,46.3 Q 8.4,46.3 4.625,42.4 0.85,38.5 0.85,33.4 V 18.9 H 26.6 v 14.5 q 0,5.1 -3.775,9 -3.775,3.9 -9.125,3.9 z M 9.45,30.1 q 0.8,0 1.35,-0.5 0.55,-0.5 0.55,-1.35 0,-0.8 -0.55,-1.35 -0.55,-0.55 -1.35,-0.55 -0.8,0 -1.35,0.55 -0.55,0.55 -0.55,1.35 0,0.85 0.55,1.35 0.55,0.5 1.35,0.5 z m 4.4,7.5 q 2.05,0 3.7,-0.925 Q 19.2,35.75 19.2,34.1 H 8.5 q 0,1.65 1.65,2.575 1.65,0.925 3.7,0.925 z m 4.25,-7.5 q 0.8,0 1.35,-0.5 Q 20,29.1 20,28.25 20,27.45 19.45,26.9 18.9,26.35 18.1,26.35 q -0.8,0 -1.35,0.55 -0.55,0.55 -0.55,1.35 0,0.85 0.55,1.35 0.55,0.5 1.35,0.5 z m 16.2,-1.05 q -1.35,0 -2.675,-0.325 Q 30.3,28.4 29.1,27.8 V 16.45 H 21.3 V 1.65 h 25.85 v 15 q 0,5.1 -3.775,8.75 -3.775,3.65 -9.075,3.65 z m -4.25,-15.7 q 0.8,0 1.35,-0.575 0.55,-0.575 0.55,-1.325 0,-0.85 -0.55,-1.375 -0.55,-0.525 -1.35,-0.525 -0.8,0 -1.35,0.55 -0.55,0.55 -0.55,1.35 0,0.75 0.55,1.325 0.55,0.575 1.35,0.575 z m 0.05,7 h 9.55 q 0,-1.65 -1.675,-2.575 Q 36.3,16.85 34.3,16.85 q -0.95,0 -2.375,0.425 Q 30.5,17.7 30.1,18.55 Z m 8.55,-7 q 0.8,0 1.35,-0.575 Q 40.55,12.2 40.55,11.45 40.55,10.6 40,10.075 39.45,9.55 38.65,9.55 q -0.8,0 -1.35,0.55 -0.55,0.55 -0.55,1.35 0,0.75 0.55,1.325 0.55,0.575 1.35,0.575 z" />
</svg>
