<?xml version="1.0" encoding="UTF-8" standalone="no"?>
<svg
   height="48"
   width="48"
   version="1.1"
   id="svg4"
   sodipodi:docname="drugs.svg"
   inkscape:version="1.2.1 (9c6d41e410, 2022-07-14)"
   xmlns:inkscape="http://www.inkscape.org/namespaces/inkscape"
   xmlns:sodipodi="http://sodipodi.sourceforge.net/DTD/sodipodi-0.dtd"
   xmlns="http://www.w3.org/2000/svg"
   xmlns:svg="http://www.w3.org/2000/svg">
  <defs
     id="defs8" />
  <sodipodi:namedview
     id="namedview6"
     pagecolor="#505050"
     bordercolor="#eeeeee"
     borderopacity="1"
     inkscape:showpageshadow="0"
     inkscape:pageopacity="0"
     inkscape:pagecheckerboard="0"
     inkscape:deskcolor="#505050"
     showgrid="false"
     inkscape:zoom="4.9166667"
     inkscape:cx="24"
     inkscape:cy="24.101695"
     inkscape:window-width="1500"
     inkscape:window-height="930"
     inkscape:window-x="-6"
     inkscape:window-y="-6"
     inkscape:window-maximized="1"
     inkscape:current-layer="svg4" />
  <path
     id="path2"
     d="M 15.8,45.55 12.2,42.9 V 34.05 H 10.05 Q 8.3,34.05 7.125,32.875 5.95,31.7 5.95,29.95 V 15.05 H 5.45 Q 4.65,14.95 4.15,14.375 3.65,13.8 3.65,13 3.65,12.1 4.225,11.525 4.8,10.95 5.7,10.95 h 6.5 V 7.3 H 11 Q 10.1,7.3 9.525,6.7 8.95,6.1 8.95,5.2 8.95,4.3 9.525,3.725 10.1,3.15 11,3.15 h 6 q 0.9,0 1.475,0.575 Q 19.05,4.3 19.05,5.2 19.05,6.1 18.475,6.7 17.9,7.3 17,7.3 h -1.2 v 3.65 h 6.5 q 0.9,0 1.475,0.575 0.575,0.575 0.575,1.475 0,0.8 -0.5,1.375 -0.5,0.575 -1.3,0.675 h -0.5 v 14.9 q 0,1.75 -1.175,2.925 Q 19.7,34.05 17.95,34.05 H 15.8 Z m -5.75,-15.6 h 7.9 V 26.8 H 14.5 q -0.55,0 -0.925,-0.375 Q 13.2,26.05 13.2,25.5 13.2,24.95 13.575,24.575 13.95,24.2 14.5,24.2 h 3.45 V 20.8 H 14.5 q -0.55,0 -0.925,-0.375 Q 13.2,20.05 13.2,19.5 13.2,18.95 13.575,18.575 13.95,18.2 14.5,18.2 h 3.45 v -3.15 h -7.9 z m 20.25,14.9 q -1.75,0 -2.95,-1.2 -1.2,-1.2 -1.2,-2.95 v -13 q 0,-1.65 0.4,-2.575 0.4,-0.925 1.1,-1.575 Q 29.1,22.3 29.4,21.775 29.7,21.25 29.7,20.7 V 19.2 H 29.2 Q 28.4,19.1 27.925,18.525 27.45,17.95 27.45,17.15 q 0,-0.9 0.6,-1.5 0.6,-0.6 1.45,-0.6 h 10 q 0.9,0 1.475,0.6 0.575,0.6 0.575,1.5 0,0.8 -0.475,1.375 Q 40.6,19.1 39.8,19.2 h -0.5 v 1.5 q 0,0.5 0.375,1.125 0.375,0.625 1.825,1.875 0.75,0.65 1.05,1.5 0.3,0.85 0.3,2.5 v 13 q 0,1.75 -1.2,2.95 -1.2,1.2 -2.95,1.2 z m 0,-16.15 h 8.4 v -1 q 0,-0.8 -0.475,-1.525 Q 37.75,25.45 37.2,24.85 36.4,23.85 36.05,23.175 35.7,22.5 35.7,21.3 v -2.1 h -2.4 v 2.1 q 0,1.1 -0.325,1.8 -0.325,0.7 -1.125,1.7 -0.5,0.65 -1.025,1.35 -0.525,0.7 -0.525,1.55 z m 0,12 h 8.4 v -3.4 h -8.4 z" />
</svg>
