<?xml version="1.0" encoding="UTF-8" standalone="no"?>
<!-- Generator: Adobe Illustrator 26.5.0, SVG Export Plug-In . SVG Version: 6.00 Build 0)  -->

<svg
   version="1.1"
   id="Ebene_1"
   x="0px"
   y="0px"
   viewBox="0 0 48 48"
   style="enable-background:new 0 0 48 48;"
   xml:space="preserve"
   sodipodi:docname="earthquakes.svg"
   inkscape:version="1.2.1 (9c6d41e410, 2022-07-14)"
   xmlns:inkscape="http://www.inkscape.org/namespaces/inkscape"
   xmlns:sodipodi="http://sodipodi.sourceforge.net/DTD/sodipodi-0.dtd"
   xmlns="http://www.w3.org/2000/svg"
   xmlns:svg="http://www.w3.org/2000/svg"><defs
   id="defs30" /><sodipodi:namedview
   id="namedview28"
   pagecolor="#505050"
   bordercolor="#eeeeee"
   borderopacity="1"
   inkscape:showpageshadow="0"
   inkscape:pageopacity="0"
   inkscape:pagecheckerboard="0"
   inkscape:deskcolor="#505050"
   showgrid="false"
   inkscape:zoom="4.9166667"
   inkscape:cx="24"
   inkscape:cy="24.101695"
   inkscape:window-width="1500"
   inkscape:window-height="930"
   inkscape:window-x="-6"
   inkscape:window-y="-6"
   inkscape:window-maximized="1"
   inkscape:current-layer="Ebene_1" />

<path
   id="path25"
   d="M 24,36 C 22.4,36 21,35.7 19.6,35.1 18.2,34.5 17,33.6 16,32.5 15,31.4 14.2,30.1 13.6,28.7 13,27.2 12.7,25.7 12.7,24 c 0,-1.7 0.3,-3.2 0.9,-4.7 0.6,-1.5 1.4,-2.7 2.4,-3.8 1,-1.1 2.2,-1.9 3.6,-2.6 1.4,-0.7 2.8,-1 4.4,-1 1.6,0 3,0.3 4.4,1 1.4,0.7 2.6,1.5 3.6,2.6 1,1.1 1.8,2.4 2.4,3.8 0.6,1.5 0.9,3 0.9,4.7 0,1.7 -0.3,3.2 -0.9,4.7 -0.6,1.5 -1.4,2.7 -2.4,3.8 -1,1.1 -2.2,1.9 -3.6,2.6 C 27,35.8 25.6,36 24,36 Z M 22.9,33.3 V 31 c -0.6,0 -1.1,-0.2 -1.5,-0.7 -0.4,-0.5 -0.6,-1 -0.6,-1.7 v -1.2 l -5.3,-5.6 c -0.1,0.4 -0.2,0.7 -0.2,1.1 0,0.3 -0.1,0.7 -0.1,1.1 0,2.4 0.7,4.5 2.2,6.3 1.5,1.8 3.3,2.8 5.5,3 z m 7.6,-2.9 c 0.4,-0.4 0.7,-0.9 1,-1.4 0.3,-0.5 0.5,-1 0.7,-1.6 0.2,-0.5 0.3,-1.1 0.4,-1.7 0.1,-0.6 0.1,-1.2 0.1,-1.8 0,-1.9 -0.5,-3.7 -1.5,-5.2 -1,-1.6 -2.3,-2.7 -4,-3.5 v 0.5 c 0,0.6 -0.2,1.2 -0.6,1.7 -0.4,0.5 -0.9,0.7 -1.5,0.7 h -2.2 v 2.4 c 0,0.3 -0.1,0.6 -0.4,0.8 -0.2,0.2 -0.5,0.3 -0.8,0.3 H 19.6 V 24 h 6.7 c 0.3,0 0.6,0.1 0.7,0.4 0.1,0.3 0.3,0.5 0.3,0.8 v 3.5 h 1.1 c 0.5,0 0.9,0.2 1.3,0.5 0.4,0.2 0.7,0.7 0.8,1.2 z M 0,29.8 V 18.2 H 3 V 29.7 H 0 Z m 6,4.4 V 13.9 H 9 V 34.2 Z M 45,29.8 V 18.3 h 3 v 11.5 z m -6,4.4 V 13.9 h 3 v 20.3 z" />
</svg>
