<?xml version="1.0" encoding="utf-8"?>
<!-- Generator: Adobe Illustrator 26.5.0, SVG Export Plug-In . SVG Version: 6.00 Build 0)  -->
<svg version="1.1" id="Ebene_1" xmlns="http://www.w3.org/2000/svg" xmlns:xlink="http://www.w3.org/1999/xlink" x="0px" y="0px"
	 viewBox="0 0 48 48" style="enable-background:new 0 0 48 48;" xml:space="preserve">
<path d="M0,29.8V18.2h3v11.5H0z M6,34.2V13.9h3v20.3H6z M45,29.8V18.3h3v11.5H45z M39,34.2V13.9h3v20.3H39z"/>
<path d="M24,36c-1.6,0-3-0.3-4.4-0.9S17,33.6,16,32.5c-1-1.1-1.8-2.4-2.4-3.8c-0.6-1.5-0.9-3-0.9-4.7s0.3-3.2,0.9-4.7
	s1.4-2.7,2.4-3.8s2.2-1.9,3.6-2.6s2.8-1,4.4-1c1.6,0,3,0.3,4.4,1s2.6,1.5,3.6,2.6c1,1.1,1.8,2.4,2.4,3.8c0.6,1.5,0.9,3,0.9,4.7
	s-0.3,3.2-0.9,4.7c-0.6,1.5-1.4,2.7-2.4,3.8c-1,1.1-2.2,1.9-3.6,2.6S25.6,36,24,36z M22.9,33.3V31c-0.6,0-1.1-0.2-1.5-0.7
	c-0.4-0.5-0.6-1-0.6-1.7v-1.2l-5.3-5.6c-0.1,0.4-0.2,0.7-0.2,1.1c0,0.3-0.1,0.7-0.1,1.1c0,2.4,0.7,4.5,2.2,6.3S20.7,33.1,22.9,33.3z
	 M30.5,30.4c0.4-0.4,0.7-0.9,1-1.4c0.3-0.5,0.5-1,0.7-1.6c0.2-0.5,0.3-1.1,0.4-1.7c0.1-0.6,0.1-1.2,0.1-1.8c0-1.9-0.5-3.7-1.5-5.2
	c-1-1.6-2.3-2.7-4-3.5v0.5c0,0.6-0.2,1.2-0.6,1.7s-0.9,0.7-1.5,0.7h-2.2v2.4c0,0.3-0.1,0.6-0.4,0.8c-0.2,0.2-0.5,0.3-0.8,0.3h-2.1
	V24h6.7c0.3,0,0.6,0.1,0.7,0.4s0.3,0.5,0.3,0.8v3.5h1.1c0.5,0,0.9,0.2,1.3,0.5C30.1,29.4,30.4,29.9,30.5,30.4z"/>
</svg>
