<?xml version="1.0" encoding="UTF-8" standalone="no"?>
<!-- Generator: Adobe Illustrator 27.0.0, SVG Export Plug-In . SVG Version: 6.00 Build 0)  -->

<svg
   version="1.1"
   id="Ebene_1"
   x="0px"
   y="0px"
   viewBox="0 0 48 48"
   style="enable-background:new 0 0 48 48;"
   xml:space="preserve"
   sodipodi:docname="erotic.svg"
   inkscape:version="1.2.1 (9c6d41e410, 2022-07-14)"
   xmlns:inkscape="http://www.inkscape.org/namespaces/inkscape"
   xmlns:sodipodi="http://sodipodi.sourceforge.net/DTD/sodipodi-0.dtd"
   xmlns="http://www.w3.org/2000/svg"
   xmlns:svg="http://www.w3.org/2000/svg"><defs
   id="defs47" /><sodipodi:namedview
   id="namedview45"
   pagecolor="#505050"
   bordercolor="#eeeeee"
   borderopacity="1"
   inkscape:showpageshadow="0"
   inkscape:pageopacity="0"
   inkscape:pagecheckerboard="0"
   inkscape:deskcolor="#505050"
   showgrid="false"
   inkscape:zoom="4.9166667"
   inkscape:cx="24"
   inkscape:cy="24.101695"
   inkscape:window-width="1500"
   inkscape:window-height="930"
   inkscape:window-x="-6"
   inkscape:window-y="-6"
   inkscape:window-maximized="1"
   inkscape:current-layer="Ebene_1" />

<path
   id="path42"
   d="m 24,18.9 -1.2,-1.1 c -1.5,-1.4 -2.7,-2.6 -3.7,-3.5 -1,-0.9 -1.7,-1.9 -2.3,-2.7 -0.6,-0.8 -1,-1.5 -1.2,-2.2 -0.2,-0.7 -0.3,-1.3 -0.3,-2 0,-1.4 0.5,-2.5 1.4,-3.5 0.9,-0.9 2.1,-1.4 3.4,-1.4 0.8,0 1.5,0.2 2.1,0.5 0.7,0.3 1.2,0.8 1.8,1.5 0.6,-0.7 1.2,-1.2 1.9,-1.5 0.6,-0.3 1.3,-0.5 2.1,-0.5 1.4,0 2.5,0.5 3.5,1.4 0.9,0.9 1.4,2.1 1.4,3.5 0,0.7 -0.1,1.3 -0.3,2 -0.2,0.6 -0.6,1.4 -1.2,2.2 -0.6,0.8 -1.4,1.7 -2.3,2.7 -0.9,1 -2.2,2.2 -3.7,3.6 z M 7,46 V 34.7 C 7,34 7.1,33.2 7.4,32.5 7.6,31.9 8,31.4 8.6,31 v -4.2 c 0,-1.5 0.5,-2.7 1.5,-3.7 1,-1 2.3,-1.5 3.7,-1.5 H 21 c 0.6,0 1.1,0.1 1.6,0.4 0.5,0.2 1,0.5 1.4,0.9 0.4,-0.4 0.8,-0.7 1.3,-0.9 0.5,-0.2 1,-0.4 1.6,-0.4 h 7.2 c 1.5,0 2.7,0.5 3.8,1.5 1,1 1.6,2.3 1.6,3.7 V 31 c 0.5,0.3 0.9,0.9 1.2,1.6 0.3,0.7 0.4,1.4 0.4,2.2 V 46 H 37.3 V 42.8 H 10.7 V 46 Z M 25.2,30.7 h 10.4 v -4 c 0,-0.4 -0.1,-0.8 -0.4,-1.1 -0.3,-0.3 -0.7,-0.4 -1.1,-0.4 h -7.7 c -0.4,0 -0.7,0.1 -0.9,0.4 -0.2,0.3 -0.3,0.6 -0.3,1 z m -12.9,0 h 10.4 v -4 c 0,-0.4 -0.1,-0.7 -0.3,-1 -0.2,-0.3 -0.5,-0.4 -0.9,-0.4 h -7.7 c -0.4,0 -0.7,0.1 -1,0.4 -0.3,0.3 -0.4,0.6 -0.4,1 v 4 z" />
</svg>
