<?xml version="1.0" encoding="utf-8"?>
<!-- Generator: Adobe Illustrator 27.0.0, SVG Export Plug-In . SVG Version: 6.00 Build 0)  -->
<svg version="1.1" id="Ebene_1" xmlns="http://www.w3.org/2000/svg" xmlns:xlink="http://www.w3.org/1999/xlink" x="0px" y="0px"
	 viewBox="0 0 48 48" style="enable-background:new 0 0 48 48;" xml:space="preserve">
<path d="M7,46V34.7c0-0.7,0.1-1.5,0.4-2.2C7.6,31.9,8,31.4,8.6,31v-4.2c0-1.5,0.5-2.7,1.5-3.7s2.3-1.5,3.7-1.5H21
	c0.6,0,1.1,0.1,1.6,0.4c0.5,0.2,1,0.5,1.4,0.9c0.4-0.4,0.8-0.7,1.3-0.9c0.5-0.2,1-0.4,1.6-0.4h7.2c1.5,0,2.7,0.5,3.8,1.5
	c1,1,1.6,2.3,1.6,3.7V31c0.5,0.3,0.9,0.9,1.2,1.6c0.3,0.7,0.4,1.4,0.4,2.2V46h-3.8v-3.2H10.7V46H7z M25.2,30.7h10.4v-4
	c0-0.4-0.1-0.8-0.4-1.1c-0.3-0.3-0.7-0.4-1.1-0.4h-7.7c-0.4,0-0.7,0.1-0.9,0.4c-0.2,0.3-0.3,0.6-0.3,1L25.2,30.7z M12.3,30.7h10.4
	v-4c0-0.4-0.1-0.7-0.3-1c-0.2-0.3-0.5-0.4-0.9-0.4h-7.7c-0.4,0-0.7,0.1-1,0.4s-0.4,0.6-0.4,1V30.7z"/>
<path d="M24,18.9l-1.2-1.1c-1.5-1.4-2.7-2.6-3.7-3.5s-1.7-1.9-2.3-2.7c-0.6-0.8-1-1.5-1.2-2.2c-0.2-0.7-0.3-1.3-0.3-2
	c0-1.4,0.5-2.5,1.4-3.5c0.9-0.9,2.1-1.4,3.4-1.4c0.8,0,1.5,0.2,2.1,0.5c0.7,0.3,1.2,0.8,1.8,1.5c0.6-0.7,1.2-1.2,1.9-1.5
	c0.6-0.3,1.3-0.5,2.1-0.5c1.4,0,2.5,0.5,3.5,1.4c0.9,0.9,1.4,2.1,1.4,3.5c0,0.7-0.1,1.3-0.3,2c-0.2,0.6-0.6,1.4-1.2,2.2
	c-0.6,0.8-1.4,1.7-2.3,2.7s-2.2,2.2-3.7,3.6L24,18.9z"/>
</svg>
