<?xml version="1.0" encoding="utf-8"?>
<!-- Generator: Adobe Illustrator 26.5.0, SVG Export Plug-In . SVG Version: 6.00 Build 0)  -->
<svg version="1.1" id="Ebene_1" xmlns="http://www.w3.org/2000/svg" xmlns:xlink="http://www.w3.org/1999/xlink" x="0px" y="0px"
	 viewBox="0 0 48 48" style="enable-background:new 0 0 48 48;" xml:space="preserve">
<g>
	<path d="M0.8,39.9v-4h3.4V12.1c0-1.1,0.4-2,1.2-2.8c0.8-0.8,1.7-1.2,2.9-1.2H26c1.1,0,2.1,0.4,2.9,1.2C29.6,10,30,11,30,12.1v23.8
		h3.4v4H0.8z M23,35.9h3V12.1h-7.9V9.8c1.4,0.3,2.6,0.9,3.5,2c0.9,1.1,1.4,2.4,1.4,3.8V35.9z M14.9,25.4c0.5,0,0.9-0.2,1.3-0.5
		c0.4-0.4,0.5-0.8,0.5-1.3c0-0.5-0.2-0.9-0.5-1.3c-0.4-0.4-0.8-0.5-1.3-0.5c-0.5,0-1,0.2-1.3,0.5c-0.4,0.4-0.5,0.8-0.5,1.3
		s0.2,0.9,0.5,1.3C13.9,25.3,14.3,25.4,14.9,25.4z"/>
	<path d="M44.3,35.9L41,19.2l2.4,1.1v3.9h2.4v-5.5l-5.9-2.4c-0.6-0.2-1.2-0.3-1.9-0.2s-1.2,0.5-1.6,1L35.1,19c-0.5,0.7-1.1,1.4-2,2
		c-0.9,0.6-1.9,0.8-3,0.8v2.3c1.3,0,2.5-0.3,3.5-0.8c1-0.5,2-1.3,2.8-2.4l1,3.7l-2.6,2.3v8.8h2.3v-7.1l2.6-2.3l2.2,9.4L44.3,35.9z
		 M36.1,15c0.7,0,1.2-0.2,1.7-0.7c0.5-0.5,0.7-1.1,0.7-1.7c0-0.7-0.2-1.2-0.7-1.7c-0.5-0.5-1-0.7-1.7-0.7c-0.7,0-1.2,0.2-1.7,0.7
		s-0.7,1-0.7,1.7c0,0.6,0.2,1.2,0.7,1.7S35.5,15,36.1,15z"/>
	<rect x="33.1" y="35.9" width="14.1" height="4"/>
</g>
</svg>
