<?xml version="1.0" encoding="UTF-8" standalone="no"?>
<!-- Generator: Adobe Illustrator 26.5.0, SVG Export Plug-In . SVG Version: 6.00 Build 0)  -->

<svg
   version="1.1"
   id="Ebene_1"
   x="0px"
   y="0px"
   viewBox="0 0 48 48"
   style="enable-background:new 0 0 48 48;"
   xml:space="preserve"
   sodipodi:docname="escape.svg"
   inkscape:version="1.2.1 (9c6d41e410, 2022-07-14)"
   xmlns:inkscape="http://www.inkscape.org/namespaces/inkscape"
   xmlns:sodipodi="http://sodipodi.sourceforge.net/DTD/sodipodi-0.dtd"
   xmlns="http://www.w3.org/2000/svg"
   xmlns:svg="http://www.w3.org/2000/svg"><defs
   id="defs13" /><sodipodi:namedview
   id="namedview11"
   pagecolor="#505050"
   bordercolor="#eeeeee"
   borderopacity="1"
   inkscape:showpageshadow="0"
   inkscape:pageopacity="0"
   inkscape:pagecheckerboard="0"
   inkscape:deskcolor="#505050"
   showgrid="false"
   inkscape:zoom="4.9166667"
   inkscape:cx="24"
   inkscape:cy="24.101695"
   inkscape:window-width="1500"
   inkscape:window-height="930"
   inkscape:window-x="-6"
   inkscape:window-y="-6"
   inkscape:window-maximized="1"
   inkscape:current-layer="Ebene_1" />
<g
   id="g8">
	
	
	<path
   id="rect6"
   d="m 33.099998,35.900002 h 14.100001 v 4 H 33.099998 Z M 44.3,35.9 41,19.2 l 2.4,1.1 v 3.9 h 2.4 V 18.7 L 39.9,16.3 C 39.3,16.1 38.7,16 38,16.1 c -0.7,0.1 -1.2,0.5 -1.6,1 L 35.1,19 c -0.5,0.7 -1.1,1.4 -2,2 -0.9,0.6 -1.9,0.8 -3,0.8 v 2.3 c 1.3,0 2.5,-0.3 3.5,-0.8 1,-0.5 2,-1.3 2.8,-2.4 l 1,3.7 -2.6,2.3 v 8.8 h 2.3 v -7.1 l 2.6,-2.3 2.2,9.4 z M 36.1,15 c 0.7,0 1.2,-0.2 1.7,-0.7 0.5,-0.5 0.7,-1.1 0.7,-1.7 0,-0.7 -0.2,-1.2 -0.7,-1.7 -0.5,-0.5 -1,-0.7 -1.7,-0.7 -0.7,0 -1.2,0.2 -1.7,0.7 -0.5,0.5 -0.7,1 -0.7,1.7 0,0.6 0.2,1.2 0.7,1.7 0.5,0.5 1.1,0.7 1.7,0.7 z M 0.8,39.9 v -4 H 4.2 V 12.1 C 4.2,11 4.6,10.1 5.4,9.3 6.2,8.5 7.1,8.1 8.3,8.1 H 26 c 1.1,0 2.1,0.4 2.9,1.2 0.7,0.7 1.1,1.7 1.1,2.8 v 23.8 h 3.4 v 4 z m 22.2,-4 h 3 V 12.1 H 18.1 V 9.8 c 1.4,0.3 2.6,0.9 3.5,2 0.9,1.1 1.4,2.4 1.4,3.8 z M 14.9,25.4 c 0.5,0 0.9,-0.2 1.3,-0.5 0.4,-0.4 0.5,-0.8 0.5,-1.3 0,-0.5 -0.2,-0.9 -0.5,-1.3 -0.4,-0.4 -0.8,-0.5 -1.3,-0.5 -0.5,0 -1,0.2 -1.3,0.5 -0.4,0.4 -0.5,0.8 -0.5,1.3 0,0.5 0.2,0.9 0.5,1.3 0.3,0.4 0.7,0.5 1.3,0.5 z" />
</g>
</svg>
