<?xml version="1.0" encoding="UTF-8" standalone="no"?>
<svg
   height="48"
   width="48"
   version="1.1"
   id="svg12"
   sodipodi:docname="exit.svg"
   inkscape:version="1.2.2 (732a01da63, 2022-12-09)"
   xmlns:inkscape="http://www.inkscape.org/namespaces/inkscape"
   xmlns:sodipodi="http://sodipodi.sourceforge.net/DTD/sodipodi-0.dtd"
   xmlns="http://www.w3.org/2000/svg"
   xmlns:svg="http://www.w3.org/2000/svg">
  <defs
     id="defs16" />
  <sodipodi:namedview
     id="namedview14"
     pagecolor="#ffffff"
     bordercolor="#000000"
     borderopacity="0.25"
     inkscape:showpageshadow="2"
     inkscape:pageopacity="0.0"
     inkscape:pagecheckerboard="0"
     inkscape:deskcolor="#d1d1d1"
     showgrid="false"
     inkscape:zoom="21.395833"
     inkscape:cx="23.976631"
     inkscape:cy="24.046738"
     inkscape:window-width="2558"
     inkscape:window-height="1341"
     inkscape:window-x="1272"
     inkscape:window-y="0"
     inkscape:window-maximized="0"
     inkscape:current-layer="svg12" />
  <path
     id="path10"
     d="M 9.45,43.25 Q 7.5,43.25 6.125,41.875 4.75,40.5 4.75,38.55 v -9.2 h 4.7 v 9.2 h 29.1 V 9.35 H 9.45 v 9.3 H 4.75 V 9.35 Q 4.75,7.4 6.125,6 7.5,4.6 9.45,4.6 h 29.1 q 1.95,0 3.35,1.4 1.4,1.4 1.4,3.35 v 29.2 q 0,1.95 -1.4,3.325 -1.4,1.375 -3.35,1.375 z m 11.9,-8.1 -3.45,-3.4 5.35,-5.4 H 4.75 v -4.7 h 18.5 L 17.9,16.25 21.35,12.85 32.5,24 Z" />
</svg>
