<?xml version="1.0" encoding="UTF-8" standalone="no"?>
<svg
   height="48"
   width="48"
   version="1.1"
   id="svg62"
   sodipodi:docname="family.svg"
   inkscape:version="1.2.1 (9c6d41e410, 2022-07-14)"
   xmlns:inkscape="http://www.inkscape.org/namespaces/inkscape"
   xmlns:sodipodi="http://sodipodi.sourceforge.net/DTD/sodipodi-0.dtd"
   xmlns="http://www.w3.org/2000/svg"
   xmlns:svg="http://www.w3.org/2000/svg">
  <defs
     id="defs66" />
  <sodipodi:namedview
     id="namedview64"
     pagecolor="#505050"
     bordercolor="#eeeeee"
     borderopacity="1"
     inkscape:showpageshadow="0"
     inkscape:pageopacity="0"
     inkscape:pagecheckerboard="0"
     inkscape:deskcolor="#505050"
     showgrid="false"
     inkscape:zoom="4.9166667"
     inkscape:cx="24"
     inkscape:cy="24.101695"
     inkscape:window-width="1500"
     inkscape:window-height="930"
     inkscape:window-x="-6"
     inkscape:window-y="-6"
     inkscape:window-maximized="1"
     inkscape:current-layer="svg62" />
  <path
     id="path60"
     d="m 38.05,11.35 q -1.75,0 -3,-1.225 Q 33.8,8.9 33.8,7.15 q 0,-1.75 1.25,-3 1.25,-1.25 3,-1.25 1.7,0 2.95,1.25 1.25,1.25 1.25,3 0,1.7 -1.225,2.95 -1.225,1.25 -2.975,1.25 z M 33.55,44.4 V 27.2 Q 33.55,25.95 33,24.925 32.45,23.9 31.2,23.5 l 2.7,-7.15 q 0.45,-1.25 1.6,-2.025 1.15,-0.775 2.55,-0.775 1.35,0 2.5,0.775 1.15,0.775 1.6,2.025 l 6,15.7 h -6.4 V 44.4 Z m -8.8,-21.1 q -1.45,0 -2.5,-1.075 Q 21.2,21.15 21.2,19.7 q 0,-1.45 1.025,-2.5 1.025,-1.05 2.525,-1.05 1.45,0 2.5,1.025 1.05,1.025 1.05,2.525 0,1.45 -1.025,2.525 Q 26.25,23.3 24.75,23.3 Z M 9.3,11.35 q -1.75,0 -3,-1.225 Q 5.05,8.9 5.05,7.15 q 0,-1.75 1.25,-3 1.25,-1.25 3,-1.25 1.7,0 2.95,1.25 1.25,1.25 1.25,3 0,1.7 -1.225,2.95 Q 11.05,11.35 9.3,11.35 Z M 4.6,44.4 V 30.05 H 1.1 V 18.4 Q 1.1,16.45 2.5,15.075 3.9,13.7 5.85,13.7 h 6.85 q 1.95,0 3.35,1.375 1.4,1.375 1.4,3.325 v 11.65 h -3.5 V 44.4 Z m 16.85,0 v -8.6 h -2.5 v -7.3 q 0,-1.45 1.025,-2.475 Q 21,25 22.45,25 h 4.6 q 1.45,0 2.475,1.025 1.025,1.025 1.025,2.475 v 7.3 h -2.5 v 8.6 z" />
</svg>
