<?xml version="1.0" encoding="UTF-8" standalone="no"?>
<svg
   height="48"
   viewBox="0 96 960 960"
   width="48"
   version="1.1"
   id="svg112"
   sodipodi:docname="female.svg"
   inkscape:version="1.2.2 (732a01da63, 2022-12-09)"
   xmlns:inkscape="http://www.inkscape.org/namespaces/inkscape"
   xmlns:sodipodi="http://sodipodi.sourceforge.net/DTD/sodipodi-0.dtd"
   xmlns="http://www.w3.org/2000/svg"
   xmlns:svg="http://www.w3.org/2000/svg">
  <defs
     id="defs116" />
  <sodipodi:namedview
     id="namedview114"
     pagecolor="#ffffff"
     bordercolor="#000000"
     borderopacity="0.25"
     inkscape:showpageshadow="2"
     inkscape:pageopacity="0.0"
     inkscape:pagecheckerboard="0"
     inkscape:deskcolor="#d1d1d1"
     showgrid="false"
     inkscape:zoom="17.270833"
     inkscape:cx="24.028951"
     inkscape:cy="24.028951"
     inkscape:window-width="1920"
     inkscape:window-height="1009"
     inkscape:window-x="-8"
     inkscape:window-y="-8"
     inkscape:window-maximized="1"
     inkscape:current-layer="svg112" />
  <path
     id="path110"
     d="m 433,964 v -80 h -80 v -88 h 80 V 707 Q 350,691 296.5,625.794 243,560.588 243,476 243,377.069 312.484,308.034 381.968,239 480,239 578.032,239 647.516,308.034 717,377.069 717,476 717,560.588 663.5,625.794 610,691 527,707 v 89 h 80 v 88 h -80 v 80 z M 479.798,619 Q 540,619 581.5,577.702 623,536.404 623,476.202 623,416 581.702,374.5 540.404,333 480.202,333 420,333 378.5,374.298 337,415.596 337,475.798 337,536 378.298,577.5 419.596,619 479.798,619 Z" />
</svg>
