<?xml version="1.0" encoding="UTF-8" standalone="no"?>
<svg
   height="48"
   width="48"
   version="1.1"
   id="svg4"
   sodipodi:docname="gambling.svg"
   inkscape:version="1.2.1 (9c6d41e410, 2022-07-14)"
   xmlns:inkscape="http://www.inkscape.org/namespaces/inkscape"
   xmlns:sodipodi="http://sodipodi.sourceforge.net/DTD/sodipodi-0.dtd"
   xmlns="http://www.w3.org/2000/svg"
   xmlns:svg="http://www.w3.org/2000/svg">
  <defs
     id="defs8" />
  <sodipodi:namedview
     id="namedview6"
     pagecolor="#505050"
     bordercolor="#eeeeee"
     borderopacity="1"
     inkscape:showpageshadow="0"
     inkscape:pageopacity="0"
     inkscape:pagecheckerboard="0"
     inkscape:deskcolor="#505050"
     showgrid="false"
     inkscape:zoom="4.9166667"
     inkscape:cx="24"
     inkscape:cy="24.101695"
     inkscape:window-width="1500"
     inkscape:window-height="930"
     inkscape:window-x="-6"
     inkscape:window-y="-6"
     inkscape:window-maximized="1"
     inkscape:current-layer="svg4" />
  <path
     id="path2"
     d="m 15.75,34.75 q 1.05,0 1.775,-0.725 Q 18.25,33.3 18.25,32.25 18.25,31.2 17.525,30.475 16.8,29.75 15.75,29.75 q -1.05,0 -1.775,0.725 -0.725,0.725 -0.725,1.775 0,1.05 0.725,1.775 0.725,0.725 1.775,0.725 z m 0,-16.5 q 1.05,0 1.775,-0.725 Q 18.25,16.8 18.25,15.75 18.25,14.7 17.525,13.975 16.8,13.25 15.75,13.25 q -1.05,0 -1.775,0.725 -0.725,0.725 -0.725,1.775 0,1.05 0.725,1.775 0.725,0.725 1.775,0.725 z M 24,26.5 q 1.05,0 1.775,-0.725 Q 26.5,25.05 26.5,24 26.5,22.95 25.775,22.225 25.05,21.5 24,21.5 22.95,21.5 22.225,22.225 21.5,22.95 21.5,24 q 0,1.05 0.725,1.775 Q 22.95,26.5 24,26.5 Z m 8.25,8.25 q 1.05,0 1.775,-0.725 Q 34.75,33.3 34.75,32.25 34.75,31.2 34.025,30.475 33.3,29.75 32.25,29.75 q -1.05,0 -1.775,0.725 -0.725,0.725 -0.725,1.775 0,1.05 0.725,1.775 0.725,0.725 1.775,0.725 z m 0,-16.5 q 1.05,0 1.775,-0.725 Q 34.75,16.8 34.75,15.75 34.75,14.7 34.025,13.975 33.3,13.25 32.25,13.25 q -1.05,0 -1.775,0.725 -0.725,0.725 -0.725,1.775 0,1.05 0.725,1.775 0.725,0.725 1.775,0.725 z m -22.8,25 Q 7.5,43.25 6.125,41.875 4.75,40.5 4.75,38.55 V 9.45 Q 4.75,7.5 6.125,6.1 7.5,4.7 9.45,4.7 h 29.1 q 1.95,0 3.35,1.4 1.4,1.4 1.4,3.35 v 29.1 q 0,1.95 -1.4,3.325 -1.4,1.375 -3.35,1.375 z" />
</svg>
