<?xml version="1.0" encoding="UTF-8" standalone="no"?>
<svg
   height="48"
   width="48"
   version="1.1"
   id="svg12"
   sodipodi:docname="gangs.svg"
   inkscape:version="1.2.1 (9c6d41e410, 2022-07-14)"
   xmlns:inkscape="http://www.inkscape.org/namespaces/inkscape"
   xmlns:sodipodi="http://sodipodi.sourceforge.net/DTD/sodipodi-0.dtd"
   xmlns="http://www.w3.org/2000/svg"
   xmlns:svg="http://www.w3.org/2000/svg">
  <defs
     id="defs16" />
  <sodipodi:namedview
     id="namedview14"
     pagecolor="#505050"
     bordercolor="#eeeeee"
     borderopacity="1"
     inkscape:showpageshadow="0"
     inkscape:pageopacity="0"
     inkscape:pagecheckerboard="0"
     inkscape:deskcolor="#505050"
     showgrid="false"
     inkscape:zoom="4.9166667"
     inkscape:cx="24"
     inkscape:cy="24.101695"
     inkscape:window-width="1500"
     inkscape:window-height="930"
     inkscape:window-x="-6"
     inkscape:window-y="-6"
     inkscape:window-maximized="1"
     inkscape:current-layer="svg12" />
  <path
     id="path10"
     d="m -0.6,36.6 v -3.25 q 0,-2.25 2.25,-3.6 Q 3.9,28.4 7.5,28.4 H 8.65 Q 8.2,29.4 7.925,30.475 7.65,31.55 7.65,32.8 v 3.8 z m 12,0 v -3.8 q 0,-3.55 3.475,-5.725 Q 18.35,24.9 24,24.9 q 5.65,0 9.125,2.175 Q 36.6,29.25 36.6,32.8 v 3.8 z m 28.95,0 v -3.8 q 0,-1.2 -0.25,-2.325 Q 39.85,29.35 39.35,28.4 h 1.15 q 3.6,0 5.85,1.35 2.25,1.35 2.25,3.6 V 36.6 Z M 7.5,27.05 q -1.65,0 -2.75,-1.125 -1.1,-1.125 -1.1,-2.775 0,-1.6 1.125,-2.725 Q 5.9,19.3 7.5,19.3 q 1.65,0 2.775,1.125 1.125,1.125 1.125,2.775 0,1.6 -1.125,2.725 Q 9.15,27.05 7.5,27.05 Z m 33,0 q -1.65,0 -2.75,-1.125 -1.1,-1.125 -1.1,-2.775 0,-1.6 1.125,-2.725 Q 38.9,19.3 40.5,19.3 q 1.65,0 2.775,1.125 1.125,1.125 1.125,2.775 0,1.6 -1.125,2.725 Q 42.15,27.05 40.5,27.05 Z M 24,23.45 q -2.75,0 -4.675,-1.925 Q 17.4,19.6 17.4,16.85 17.4,14.1 19.325,12.175 21.25,10.25 24,10.25 q 2.75,0 4.675,1.925 1.925,1.925 1.925,4.675 0,2.75 -1.925,4.675 Q 26.75,23.45 24,23.45 Z" />
</svg>
