<?xml version="1.0" encoding="UTF-8" standalone="no"?>
<!-- Generator: Adobe Illustrator 26.5.0, SVG Export Plug-In . SVG Version: 6.00 Build 0)  -->

<svg
   version="1.1"
   id="Ebene_1"
   x="0px"
   y="0px"
   viewBox="0 0 48 48"
   style="enable-background:new 0 0 48 48;"
   xml:space="preserve"
   sodipodi:docname="good-vs-evil.svg"
   inkscape:version="1.2.1 (9c6d41e410, 2022-07-14)"
   xmlns:inkscape="http://www.inkscape.org/namespaces/inkscape"
   xmlns:sodipodi="http://sodipodi.sourceforge.net/DTD/sodipodi-0.dtd"
   xmlns="http://www.w3.org/2000/svg"
   xmlns:svg="http://www.w3.org/2000/svg"><defs
   id="defs47" /><sodipodi:namedview
   id="namedview45"
   pagecolor="#505050"
   bordercolor="#eeeeee"
   borderopacity="1"
   inkscape:showpageshadow="0"
   inkscape:pageopacity="0"
   inkscape:pagecheckerboard="0"
   inkscape:deskcolor="#505050"
   showgrid="false"
   inkscape:zoom="4.9166667"
   inkscape:cx="24"
   inkscape:cy="24.101695"
   inkscape:window-width="1500"
   inkscape:window-height="930"
   inkscape:window-x="-6"
   inkscape:window-y="-6"
   inkscape:window-maximized="1"
   inkscape:current-layer="Ebene_1" />


<path
   id="path42"
   d="m 38.5,32.1 c -1.1,0 -2.2,-0.2 -3.2,-0.6 -1,-0.4 -1.9,-1 -2.6,-1.7 C 32,29 31.5,28.1 31,27.1 c -0.4,-1 -0.6,-2 -0.6,-3.2 0,-1.1 0.2,-2.2 0.6,-3.2 0.4,-1 1,-1.8 1.7,-2.6 0.7,-0.8 1.6,-1.3 2.6,-1.7 1,-0.4 2.1,-0.6 3.2,-0.6 1.1,0 2.2,0.2 3.2,0.6 1,0.4 1.9,1 2.6,1.7 0.7,0.7 1.3,1.6 1.7,2.6 0.4,1 0.6,2 0.6,3.2 0,1.1 -0.2,2.2 -0.6,3.2 -0.4,1 -1,1.9 -1.7,2.6 -0.7,0.7 -1.6,1.3 -2.6,1.7 -1,0.5 -2.1,0.7 -3.2,0.7 z m 1.3,-9 L 40,23 c 0.1,0.3 0.2,0.5 0.4,0.6 0.2,0.2 0.4,0.2 0.7,0.2 0.3,0 0.6,-0.1 0.8,-0.3 0.2,-0.2 0.3,-0.5 0.3,-0.8 0,-0.2 0,-0.3 -0.1,-0.5 -0.1,-0.1 -0.2,-0.3 -0.3,-0.4 l 0.5,-0.2 -0.5,-0.8 -2.6,1.5 z m -2.5,0 0.5,-0.9 -2.6,-1.5 -0.5,0.8 0.5,0.2 c -0.1,0.1 -0.2,0.3 -0.3,0.4 -0.1,0.1 -0.1,0.3 -0.1,0.5 0,0.3 0.1,0.6 0.3,0.8 0.2,0.2 0.5,0.3 0.8,0.3 0.3,0 0.5,-0.1 0.7,-0.2 0.2,-0.2 0.3,-0.4 0.4,-0.6 z m 1.2,1.5 c -0.9,0 -1.7,0.3 -2.3,0.9 -0.7,0.6 -1.1,1.4 -1.4,2.2 h 7.5 C 42,26.8 41.5,26.1 40.9,25.5 40.2,24.9 39.4,24.6 38.5,24.6 Z M 9.2,28.5 c 0.9,0 1.7,-0.2 2.5,-0.7 0.8,-0.5 1.3,-1.2 1.6,-2 H 5.2 c 0.3,0.9 0.8,1.5 1.6,2 0.8,0.5 1.5,0.7 2.4,0.7 z M 5.7,23.3 6.6,22.4 7.5,23.3 8.4,22.4 6.6,20.6 4.8,22.4 Z m 5.2,0 0.9,-0.9 0.9,0.9 0.9,-0.9 -1.8,-1.8 -1.8,1.8 z M 9.2,32.5 C 8,32.5 7,32.3 6,31.9 5,31.5 4.1,30.9 3.3,30.1 2.5,29.3 1.9,28.5 1.5,27.4 1.1,26.4 0.9,25.3 0.9,24.2 0.9,23.1 1.1,22 1.5,21 1.9,20 2.5,19.1 3.3,18.3 4.1,17.5 5,16.9 6,16.5 c 1,-0.4 2.1,-0.7 3.2,-0.7 1.1,0 2.2,0.2 3.2,0.7 1,0.5 1.9,1 2.7,1.8 0.8,0.8 1.4,1.6 1.8,2.7 0.4,1 0.7,2.1 0.7,3.2 0,1.1 -0.2,2.2 -0.7,3.2 -0.4,1 -1,1.9 -1.8,2.7 -0.8,0.8 -1.6,1.4 -2.7,1.8 -0.9,0.4 -2,0.6 -3.2,0.6 z m 13.1,-1 0.8,-5.9 h -3 c -0.2,0 -0.3,-0.1 -0.4,-0.2 -0.1,-0.1 -0.1,-0.3 0,-0.4 l 5.1,-8.6 h 0.8 l -0.8,5.9 h 3 c 0.1,0 0.3,0.1 0.3,0.2 0.1,0.1 0.1,0.3 0,0.4 L 23,31.5 Z" />
</svg>
