<?xml version="1.0" encoding="utf-8"?>
<!-- Generator: Adobe Illustrator 26.5.0, SVG Export Plug-In . SVG Version: 6.00 Build 0)  -->
<svg version="1.1" id="Ebene_1" xmlns="http://www.w3.org/2000/svg" xmlns:xlink="http://www.w3.org/1999/xlink" x="0px" y="0px"
	 viewBox="0 0 48 48" style="enable-background:new 0 0 48 48;" xml:space="preserve">
<path d="M22.3,31.5l0.8-5.9h-3c-0.2,0-0.3-0.1-0.4-0.2s-0.1-0.3,0-0.4l5.1-8.6h0.8l-0.8,5.9h3c0.1,0,0.3,0.1,0.3,0.2
	c0.1,0.1,0.1,0.3,0,0.4L23,31.5H22.3z"/>
<path d="M9.2,28.5c0.9,0,1.7-0.2,2.5-0.7s1.3-1.2,1.6-2H5.2c0.3,0.9,0.8,1.5,1.6,2S8.3,28.5,9.2,28.5z M5.7,23.3l0.9-0.9l0.9,0.9
	l0.9-0.9l-1.8-1.8l-1.8,1.8L5.7,23.3z M10.9,23.3l0.9-0.9l0.9,0.9l0.9-0.9l-1.8-1.8l-1.8,1.8L10.9,23.3z M9.2,32.5
	c-1.2,0-2.2-0.2-3.2-0.6s-1.9-1-2.7-1.8c-0.8-0.8-1.4-1.6-1.8-2.7c-0.4-1-0.6-2.1-0.6-3.2s0.2-2.2,0.6-3.2c0.4-1,1-1.9,1.8-2.7
	C4.1,17.5,5,16.9,6,16.5s2.1-0.7,3.2-0.7s2.2,0.2,3.2,0.7s1.9,1,2.7,1.8c0.8,0.8,1.4,1.6,1.8,2.7c0.4,1,0.7,2.1,0.7,3.2
	s-0.2,2.2-0.7,3.2c-0.4,1-1,1.9-1.8,2.7c-0.8,0.8-1.6,1.4-2.7,1.8C11.5,32.3,10.4,32.5,9.2,32.5z"/>
<path d="M38.5,32.1c-1.1,0-2.2-0.2-3.2-0.6c-1-0.4-1.9-1-2.6-1.7C32,29,31.5,28.1,31,27.1c-0.4-1-0.6-2-0.6-3.2
	c0-1.1,0.2-2.2,0.6-3.2c0.4-1,1-1.8,1.7-2.6s1.6-1.3,2.6-1.7c1-0.4,2.1-0.6,3.2-0.6c1.1,0,2.2,0.2,3.2,0.6c1,0.4,1.9,1,2.6,1.7
	s1.3,1.6,1.7,2.6c0.4,1,0.6,2,0.6,3.2c0,1.1-0.2,2.2-0.6,3.2c-0.4,1-1,1.9-1.7,2.6c-0.7,0.7-1.6,1.3-2.6,1.7
	C40.7,31.9,39.6,32.1,38.5,32.1z M39.8,23.1l0.2-0.1c0.1,0.3,0.2,0.5,0.4,0.6c0.2,0.2,0.4,0.2,0.7,0.2c0.3,0,0.6-0.1,0.8-0.3
	c0.2-0.2,0.3-0.5,0.3-0.8c0-0.2,0-0.3-0.1-0.5c-0.1-0.1-0.2-0.3-0.3-0.4l0.5-0.2l-0.5-0.8l-2.6,1.5L39.8,23.1z M37.3,23.1l0.5-0.9
	l-2.6-1.5l-0.5,0.8l0.5,0.2c-0.1,0.1-0.2,0.3-0.3,0.4c-0.1,0.1-0.1,0.3-0.1,0.5c0,0.3,0.1,0.6,0.3,0.8s0.5,0.3,0.8,0.3
	c0.3,0,0.5-0.1,0.7-0.2c0.2-0.2,0.3-0.4,0.4-0.6L37.3,23.1z M38.5,24.6c-0.9,0-1.7,0.3-2.3,0.9c-0.7,0.6-1.1,1.4-1.4,2.2h7.5
	c-0.3-0.9-0.8-1.6-1.4-2.2C40.2,24.9,39.4,24.6,38.5,24.6z"/>
</svg>
