<?xml version="1.0" encoding="utf-8"?>
<!-- Generator: Adobe Illustrator 26.5.0, SVG Export Plug-In . SVG Version: 6.00 Build 0)  -->
<svg version="1.1" id="Ebene_1" xmlns="http://www.w3.org/2000/svg" xmlns:xlink="http://www.w3.org/1999/xlink" x="0px" y="0px"
	 viewBox="0 0 512 512" style="enable-background:new 0 0 512 512;" xml:space="preserve">
<path d="M10,502v-20.8l121.7-121.7c-27.7-25.9-58.8-47.6-93-65.4c24.1-24.1,50.1-43.9,76-58.8l-8.4-12
	c20.4-11.3,41.8-17.7,62.4-19.2l-4.5-12.2c30.1-7.5,59.4-4,82,8.9c-41.6,8.4-96.3,41.2-146.2,91l44,44l33.7-25.7l-10.3-10.3l52-27.3
	l-7.8-7.8l73-38.3c0,0,0.1,0,0.1,0.1c0,0,0,0.1,0.1,0.1l-38.3,73l-8.2-8.2l-27.3,52l-9.9-9.9l-25.7,33.7l44,44
	c50.2-50.2,83.1-105.3,91.2-147c14,22.9,18,53.2,10.3,84.3l-12.1-4.4c-1.5,20.6-7.9,42-19.2,62.4l-13.9-9.7
	c-14.9,25.8-34.5,51.7-58.6,75.7c-18.2-34.6-39.7-65.1-64.3-91.8L31.6,502L10,502L10,502z"/>
<path d="M379.4,246.3l11.4-83.8h-42.6c-2.8,0-4.3-1.4-5.7-2.8c-1.4-1.4-1.4-4.3,0-5.7L415,31.7h11.4L415,115.6h42.6
	c1.4,0,4.3,1.4,4.3,2.8c1.4,1.4,1.4,4.3,0,5.7l-72.5,122.2H379.4z"/>
</svg>
