<?xml version="1.0" encoding="UTF-8" standalone="no"?>
<!-- Generator: Adobe Illustrator 26.5.0, SVG Export Plug-In . SVG Version: 6.00 Build 0)  -->

<svg
   version="1.1"
   id="Ebene_1"
   x="0px"
   y="0px"
   viewBox="0 0 512 512"
   style="enable-background:new 0 0 512 512;"
   xml:space="preserve"
   sodipodi:docname="greek-mythology.svg"
   inkscape:version="1.2.1 (9c6d41e410, 2022-07-14)"
   xmlns:inkscape="http://www.inkscape.org/namespaces/inkscape"
   xmlns:sodipodi="http://sodipodi.sourceforge.net/DTD/sodipodi-0.dtd"
   xmlns="http://www.w3.org/2000/svg"
   xmlns:svg="http://www.w3.org/2000/svg"><defs
   id="defs56" /><sodipodi:namedview
   id="namedview54"
   pagecolor="#505050"
   bordercolor="#eeeeee"
   borderopacity="1"
   inkscape:showpageshadow="0"
   inkscape:pageopacity="0"
   inkscape:pagecheckerboard="0"
   inkscape:deskcolor="#505050"
   showgrid="false"
   inkscape:zoom="0.4609375"
   inkscape:cx="256"
   inkscape:cy="257.08475"
   inkscape:window-width="1500"
   inkscape:window-height="930"
   inkscape:window-x="-6"
   inkscape:window-y="-6"
   inkscape:window-maximized="1"
   inkscape:current-layer="Ebene_1" />

<path
   id="path51"
   d="m 379.4,246.3 11.4,-83.8 h -42.6 c -2.8,0 -4.3,-1.4 -5.7,-2.8 -1.4,-1.4 -1.4,-4.3 0,-5.7 L 415,31.7 h 11.4 L 415,115.6 h 42.6 c 1.4,0 4.3,1.4 4.3,2.8 1.4,1.4 1.4,4.3 0,5.7 L 389.4,246.3 Z M 10,502 V 481.2 L 131.7,359.5 C 104,333.6 72.9,311.9 38.7,294.1 62.8,270 88.8,250.2 114.7,235.3 l -8.4,-12 c 20.4,-11.3 41.8,-17.7 62.4,-19.2 l -4.5,-12.2 c 30.1,-7.5 59.4,-4 82,8.9 -41.6,8.4 -96.3,41.2 -146.2,91 l 44,44 33.7,-25.7 -10.3,-10.3 52,-27.3 -7.8,-7.8 73,-38.3 c 0,0 0.1,0 0.1,0.1 0,0 0,0.1 0.1,0.1 l -38.3,73 -8.2,-8.2 -27.3,52 -9.9,-9.9 -25.7,33.7 44,44 c 50.2,-50.2 83.1,-105.3 91.2,-147 14,22.9 18,53.2 10.3,84.3 l -12.1,-4.4 c -1.5,20.6 -7.9,42 -19.2,62.4 l -13.9,-9.7 c -14.9,25.8 -34.5,51.7 -58.6,75.7 -18.2,-34.6 -39.7,-65.1 -64.3,-91.8 L 31.6,502 H 10 Z" />
</svg>
