<?xml version="1.0" encoding="utf-8"?>
<!-- Generator: Adobe Illustrator 26.5.0, SVG Export Plug-In . SVG Version: 6.00 Build 0)  -->
<svg version="1.1" id="Ebene_1" xmlns="http://www.w3.org/2000/svg" xmlns:xlink="http://www.w3.org/1999/xlink" x="0px" y="0px"
	 viewBox="0 0 100 100" style="enable-background:new 0 0 100 100;" xml:space="preserve">
<path d="M67.3,37.5L47,17.1h8.3v-3.6c0-1.5-0.5-2.8-1.6-3.9S51.3,8,49.8,8c-1.5,0-2.8,0.5-3.9,1.6s-1.6,2.3-1.6,3.8v0.9l-3.8-3.8
	c0.4-2.2,1.5-3.9,3.3-5.3c1.8-1.3,3.8-2,6.1-2c2.9,0,5.3,1,7.3,3c2,2,3,4.4,3,7.2v3.8h2.5c1.3,0,2.5,0.5,3.4,1.4
	c0.9,0.9,1.4,2,1.4,3.4V37.5z M70.3,52L65,46.7c-0.4,0.3-0.8,0.5-1.2,0.6c-0.4,0.1-0.8,0.2-1.3,0.2H37.4c-1.3,0-2.4-0.5-3.3-1.4
	c-0.9-0.9-1.3-2-1.3-3.3V21.9c0-1,0.3-2,0.8-2.8c0.6-0.8,1.4-1.3,2.4-1.5L25.3,7l2.6-2.5l45,45L70.3,52z M47.5,29.1
	c-0.4,0.3-0.6,0.7-0.8,1.2c-0.2,0.5-0.3,1-0.3,1.5c0,1,0.4,1.9,1.1,2.6c0.7,0.7,1.6,1.1,2.7,1.1c0.5,0,1-0.1,1.4-0.3
	c0.5-0.2,0.9-0.4,1.2-0.8L47.5,29.1z"/>
<path d="M33.4,96c-1.3,0-2.4-0.5-3.3-1.4c-0.9-0.9-1.4-2-1.4-3.3V70.3c0-1.3,0.5-2.4,1.4-3.3s2-1.4,3.3-1.4h33.1
	c1.3,0,2.4,0.5,3.3,1.4s1.4,2,1.4,3.3v21c0,1.3-0.5,2.4-1.4,3.3S67.8,96,66.5,96H33.4z M42.2,88.4h15.6v-3H42.2V88.4z M36.2,82.3h3
	v-3h-3V82.3z M42.4,82.3h3v-3h-3V82.3z M48.5,82.3h3v-3h-3V82.3z M54.6,82.3h3v-3h-3V82.3z M60.8,82.3h3v-3h-3V82.3z M36.2,76.1h3
	v-3h-3V76.1z M42.4,76.1h3v-3h-3V76.1z M48.5,76.1h3v-3h-3V76.1z M54.6,76.1h3v-3h-3V76.1z M60.8,76.1h3v-3h-3V76.1z"/>
<polygon points="50,53.6 41.6,62.1 58.4,62.1 "/>
</svg>
