<?xml version="1.0" encoding="UTF-8" standalone="no"?>
<!-- Generator: Adobe Illustrator 26.5.0, SVG Export Plug-In . SVG Version: 6.00 Build 0)  -->

<svg
   version="1.1"
   id="Ebene_1"
   x="0px"
   y="0px"
   viewBox="0 0 100 100"
   style="enable-background:new 0 0 100 100;"
   xml:space="preserve"
   sodipodi:docname="hacking.svg"
   inkscape:version="1.2.1 (9c6d41e410, 2022-07-14)"
   xmlns:inkscape="http://www.inkscape.org/namespaces/inkscape"
   xmlns:sodipodi="http://sodipodi.sourceforge.net/DTD/sodipodi-0.dtd"
   xmlns="http://www.w3.org/2000/svg"
   xmlns:svg="http://www.w3.org/2000/svg"><defs
   id="defs27" /><sodipodi:namedview
   id="namedview25"
   pagecolor="#505050"
   bordercolor="#eeeeee"
   borderopacity="1"
   inkscape:showpageshadow="0"
   inkscape:pageopacity="0"
   inkscape:pagecheckerboard="0"
   inkscape:deskcolor="#505050"
   showgrid="false"
   inkscape:zoom="2.36"
   inkscape:cx="50"
   inkscape:cy="50.211864"
   inkscape:window-width="1500"
   inkscape:window-height="930"
   inkscape:window-x="-6"
   inkscape:window-y="-6"
   inkscape:window-maximized="1"
   inkscape:current-layer="Ebene_1" />


<path
   id="polygon22"
   d="m 50,53.6 -8.4,8.5 H 58.4 Z M 33.4,96 c -1.3,0 -2.4,-0.5 -3.3,-1.4 -0.9,-0.9 -1.4,-2 -1.4,-3.3 v -21 c 0,-1.3 0.5,-2.4 1.4,-3.3 0.9,-0.9 2,-1.4 3.3,-1.4 h 33.1 c 1.3,0 2.4,0.5 3.3,1.4 0.9,0.9 1.4,2 1.4,3.3 v 21 c 0,1.3 -0.5,2.4 -1.4,3.3 -0.9,0.9 -2,1.4 -3.3,1.4 z m 8.8,-7.6 h 15.6 v -3 H 42.2 Z m -6,-6.1 h 3 v -3 h -3 z m 6.2,0 h 3 v -3 h -3 z m 6.1,0 h 3 v -3 h -3 z m 6.1,0 h 3 v -3 h -3 z m 6.2,0 h 3 v -3 h -3 z M 36.2,76.1 h 3 v -3 h -3 z m 6.2,0 h 3 v -3 h -3 z m 6.1,0 h 3 v -3 h -3 z m 6.1,0 h 3 v -3 h -3 z m 6.2,0 h 3 v -3 h -3 z M 67.3,37.5 47,17.1 h 8.3 V 13.5 C 55.3,12 54.8,10.7 53.7,9.6 52.6,8.5 51.3,8 49.8,8 48.3,8 47,8.5 45.9,9.6 c -1.1,1.1 -1.6,2.3 -1.6,3.8 v 0.9 l -3.8,-3.8 c 0.4,-2.2 1.5,-3.9 3.3,-5.3 1.8,-1.3 3.8,-2 6.1,-2 2.9,0 5.3,1 7.3,3 2,2 3,4.4 3,7.2 v 3.8 h 2.5 c 1.3,0 2.5,0.5 3.4,1.4 0.9,0.9 1.4,2 1.4,3.4 V 37.5 Z M 70.3,52 65,46.7 c -0.4,0.3 -0.8,0.5 -1.2,0.6 -0.4,0.1 -0.8,0.2 -1.3,0.2 H 37.4 c -1.3,0 -2.4,-0.5 -3.3,-1.4 -0.9,-0.9 -1.3,-2 -1.3,-3.3 V 21.9 c 0,-1 0.3,-2 0.8,-2.8 0.6,-0.8 1.4,-1.3 2.4,-1.5 L 25.3,7 l 2.6,-2.5 45,45 z M 47.5,29.1 c -0.4,0.3 -0.6,0.7 -0.8,1.2 -0.2,0.5 -0.3,1 -0.3,1.5 0,1 0.4,1.9 1.1,2.6 0.7,0.7 1.6,1.1 2.7,1.1 0.5,0 1,-0.1 1.4,-0.3 0.5,-0.2 0.9,-0.4 1.2,-0.8 z" />
</svg>
