<?xml version="1.0" encoding="utf-8"?>
<!-- Generator: Adobe Illustrator 26.5.0, SVG Export Plug-In . SVG Version: 6.00 Build 0)  -->
<svg version="1.1" id="Ebene_1" xmlns="http://www.w3.org/2000/svg" xmlns:xlink="http://www.w3.org/1999/xlink" x="0px" y="0px"
	 viewBox="0 0 48 48" style="enable-background:new 0 0 48 48;" xml:space="preserve">
<path d="M21.5,46.5l5.6-29l-3.9,1.8v6.8h-4.1v-9.6l10.1-4.3c1-0.4,2.1-0.5,3.3-0.3c1.2,0.2,2.1,0.8,2.7,1.8l2.2,3.3
	c0.9,1.4,2.1,2.6,3.5,3.5c1.4,1,3.2,1.4,5.1,1.4V26c-2.1,0-4-0.4-5.9-1.2c-1.9-0.8-3.5-2.2-4.9-4.1L33.5,27l4.4,4.1v15.4h-4.1V34.2
	l-4.4-4l-3.6,16.3H21.5z M35.2,9.8c-1.2,0-2.2-0.4-3-1.2S31,6.8,31,5.6s0.4-2.2,1.2-3s1.8-1.2,3-1.2s2.2,0.4,3,1.2s1.2,1.8,1.2,3
	s-0.4,2.2-1.2,3C37.4,9.3,36.3,9.8,35.2,9.8z"/>
<path d="M12.4,26.4c-1.2,0.2-2.3,0.5-3.5,1.2c-1.2,0.7-2.2,1.5-3.2,2.5c-1.9,2-3,4.4-3.1,7c-0.2,2.7,0.5,4.7,2.2,6.2
	c1.6,1.5,3.7,2.1,6.3,1.6c2.5-0.3,4.7-1.6,6.7-3.7c1-1.1,1.7-2.2,2.3-3.4c0.5-1.1,0.8-2.4,0.9-3.6l0.7-9.2L12.4,26.4z M17.2,33.4
	c0.1,0.6,0,1.2-0.3,1.9l-1.5-0.6c0.2-0.5,0.2-1,0.1-1.5c-0.1-0.4-0.3-0.8-0.7-1.2c-0.4-0.4-0.8-0.6-1.3-0.7
	c-0.4-0.1-0.8,0.1-1.1,0.4c-0.4,0.4-0.5,0.8-0.5,1.3c0.1,0.5,0.3,1.3,0.7,2.3c0.5,1.2,0.7,2.2,0.7,3c-0.1,0.8-0.4,1.5-1,2.1
	c-0.3,0.3-0.7,0.6-1.1,0.7c-0.4,0.1-0.7,0.2-1.1,0.2c-0.4,0-0.8-0.1-1.2-0.3c-0.4-0.2-0.8-0.4-1.2-0.8l-0.9,0.9l-1.2-1.2L6.6,39
	C6.2,38.4,6,37.7,5.9,37c0-0.8,0.1-1.6,0.5-2.4l1.5,0.8c-0.4,0.6-0.5,1.2-0.4,1.8c0.1,0.6,0.4,1.2,0.8,1.6c0.5,0.5,1,0.8,1.5,0.9
	c0.5,0.1,0.9-0.1,1.3-0.4c0.4-0.4,0.5-0.8,0.5-1.3c0-0.5-0.2-1.3-0.6-2.3c-0.5-1.2-0.8-2.1-0.8-2.9c0-0.8,0.3-1.5,0.9-2.1
	c0.5-0.5,1.2-0.8,1.9-0.9c0.7,0,1.5,0.2,2.2,0.7l0.8-0.8l1.2,1.2l-0.8,0.8C16.9,32.3,17.1,32.8,17.2,33.4z"/>
</svg>
