<?xml version="1.0" encoding="UTF-8" standalone="no"?>
<!-- Generator: Adobe Illustrator 27.0.0, SVG Export Plug-In . SVG Version: 6.00 Build 0)  -->

<svg
   version="1.1"
   id="Ebene_1"
   x="0px"
   y="0px"
   viewBox="0 0 48 48"
   style="enable-background:new 0 0 48 48;"
   xml:space="preserve"
   sodipodi:docname="heist.svg"
   inkscape:version="1.2.1 (9c6d41e410, 2022-07-14)"
   xmlns:inkscape="http://www.inkscape.org/namespaces/inkscape"
   xmlns:sodipodi="http://sodipodi.sourceforge.net/DTD/sodipodi-0.dtd"
   xmlns="http://www.w3.org/2000/svg"
   xmlns:svg="http://www.w3.org/2000/svg"><defs
   id="defs11" /><sodipodi:namedview
   id="namedview9"
   pagecolor="#505050"
   bordercolor="#eeeeee"
   borderopacity="1"
   inkscape:showpageshadow="0"
   inkscape:pageopacity="0"
   inkscape:pagecheckerboard="0"
   inkscape:deskcolor="#505050"
   showgrid="false"
   inkscape:zoom="4.9166667"
   inkscape:cx="24"
   inkscape:cy="24.101695"
   inkscape:window-width="1500"
   inkscape:window-height="930"
   inkscape:window-x="-6"
   inkscape:window-y="-6"
   inkscape:window-maximized="1"
   inkscape:current-layer="Ebene_1" />
<g
   id="g6">
	
	<path
   id="path4"
   d="m 35.2,9.8 c 1.1,0 2.2,-0.5 3,-1.2 0.8,-0.8 1.2,-1.8 1.2,-3 0,-1.2 -0.4,-2.2 -1.2,-3 -0.8,-0.8 -1.8,-1.2 -3,-1.2 -1.2,0 -2.2,0.4 -3,1.2 -0.8,0.8 -1.2,1.8 -1.2,3 0,1.2 0.4,2.2 1.2,3 0.8,0.8 1.8,1.2 3,1.2 z m 5.7,10.7 C 39.5,19.6 38.3,18.4 37.4,17 l -2.2,-3.3 c -0.6,-1 -1.5,-1.6 -2.7,-1.8 -1.2,-0.2 -2.3,-0.1 -3.3,0.3 l -10.1,4.3 v 8.9 l -6.7,1 c -1.2,0.2 -2.3,0.5 -3.5,1.2 -1.2,0.7 -2.2,1.5 -3.2,2.5 -1.9,2 -3,4.4 -3.1,7 -0.2,2.7 0.5,4.7 2.2,6.2 1.6,1.5 3.7,2.1 6.3,1.6 2.5,-0.3 4.7,-1.6 6.7,-3.7 1,-1.1 1.7,-2.2 2.3,-3.4 0.5,-1.1 0.8,-2.4 0.9,-3.6 l 0.6,-8.1 h 1.6 v -6.8 l 3.9,-1.8 -5.6,29 h 4.3 l 3.6,-16.3 4.4,4 v 12.3 h 4.1 V 31.1 L 33.5,27 35.2,20.7 c 1.4,1.9 3,3.3 4.9,4.1 1.9,0.8 3.8,1.2 5.9,1.2 v -4.1 c -1.9,0 -3.7,-0.4 -5.1,-1.4 z m -24,14.8 -1.5,-0.6 c 0.2,-0.5 0.2,-1 0.1,-1.5 -0.1,-0.4 -0.3,-0.8 -0.7,-1.2 -0.4,-0.4 -0.8,-0.6 -1.3,-0.7 -0.4,-0.1 -0.8,0.1 -1.1,0.4 -0.4,0.4 -0.5,0.8 -0.5,1.3 0.1,0.5 0.3,1.3 0.7,2.3 0.5,1.2 0.7,2.2 0.7,3 -0.1,0.8 -0.4,1.5 -1,2.1 -0.3,0.3 -0.7,0.6 -1.1,0.7 -0.4,0.1 -0.7,0.2 -1.1,0.2 C 9.7,41.3 9.3,41.2 8.9,41 8.5,40.8 8.1,40.6 7.7,40.2 L 6.8,41.1 5.6,39.9 6.6,39 C 6.2,38.4 6,37.7 5.9,37 5.9,36.2 6,35.4 6.4,34.6 l 1.5,0.8 c -0.4,0.6 -0.5,1.2 -0.4,1.8 0.1,0.6 0.4,1.2 0.8,1.6 0.5,0.5 1,0.8 1.5,0.9 0.5,0.1 0.9,-0.1 1.3,-0.4 0.4,-0.4 0.5,-0.8 0.5,-1.3 0,-0.5 -0.2,-1.3 -0.6,-2.3 -0.5,-1.2 -0.8,-2.1 -0.8,-2.9 0,-0.8 0.3,-1.5 0.9,-2.1 0.5,-0.5 1.2,-0.8 1.9,-0.9 0.7,0 1.5,0.2 2.2,0.7 l 0.8,-0.8 1.2,1.2 -0.8,0.8 c 0.5,0.6 0.7,1.1 0.8,1.7 0.1,0.6 0,1.2 -0.3,1.9 z" />
</g>
</svg>
