<?xml version="1.0" encoding="UTF-8" standalone="no"?>
<!-- Generator: Adobe Illustrator 18.0.0, SVG Export Plug-In . SVG Version: 6.00 Build 0)  -->

<svg
   version="1.1"
   id="Capa_1"
   x="0px"
   y="0px"
   viewBox="0 0 58.324 58.324"
   style="enable-background:new 0 0 58.324 58.324;"
   xml:space="preserve"
   sodipodi:docname="high-society.svg"
   inkscape:version="1.2.1 (9c6d41e410, 2022-07-14)"
   xmlns:inkscape="http://www.inkscape.org/namespaces/inkscape"
   xmlns:sodipodi="http://sodipodi.sourceforge.net/DTD/sodipodi-0.dtd"
   xmlns="http://www.w3.org/2000/svg"
   xmlns:svg="http://www.w3.org/2000/svg"><defs
   id="defs99" /><sodipodi:namedview
   id="namedview97"
   pagecolor="#505050"
   bordercolor="#eeeeee"
   borderopacity="1"
   inkscape:showpageshadow="0"
   inkscape:pageopacity="0"
   inkscape:pagecheckerboard="0"
   inkscape:deskcolor="#505050"
   showgrid="false"
   inkscape:zoom="4.0463616"
   inkscape:cx="29.162001"
   inkscape:cy="29.285568"
   inkscape:window-width="1500"
   inkscape:window-height="930"
   inkscape:window-x="-6"
   inkscape:window-y="-6"
   inkscape:window-maximized="1"
   inkscape:current-layer="Capa_1" />
<g
   id="g64">
	
	
	<path
   id="path62"
   d="M 11.236,12 H 47.089 C 47.077,8.38 47.899,4.764 49.557,1.447 49.712,1.137 49.695,0.769 49.513,0.474 49.331,0.179 49.009,0 48.662,0 h -39 C 9.315,0 8.994,0.18 8.812,0.475 8.63,0.77 8.613,1.138 8.768,1.447 10.426,4.764 11.248,8.38 11.236,12 Z M 50.548,31.637 C 50.424,31.044 50.263,30.42 50.049,29.712 49.922,29.289 49.533,29 49.092,29 H 9.232 C 8.791,29 8.401,29.289 8.274,29.712 8.062,30.42 7.9,31.044 7.776,31.637 c -1.808,0.979 -3.114,3.109 -3.114,5.188 0,2.154 1.268,4.09 3.208,4.979 2.496,9.754 11.177,16.521 21.292,16.521 8.198,0 15.453,-4.446 19.237,-11.324 h -0.737 c -3.606,0 -6.318,-1.981 -7.437,-5.177 -0.908,0.925 -2.168,1.502 -3.563,1.502 -2.757,0 -5,-2.243 -5,-5 0,-2.757 2.243,-5 5,-5 2.757,0 5,2.243 5,5 0,4.055 2.355,6.675 6,6.675 h 1.699 c 0.436,-1.025 0.809,-2.089 1.093,-3.196 1.94,-0.89 3.208,-2.825 3.208,-4.979 0,-2.08 -1.307,-4.211 -3.114,-5.189 z m -27.886,4.688 c 1.105,0 2,0.895 2,2 0,1.104 -0.895,2 -2,2 -1.105,0 -2,-0.896 -2,-2 0,-1.105 0.896,-2 2,-2 z M 32.674,44 c 3.368,0 6.467,1.973 7.894,5.024 0.234,0.501 0.018,1.096 -0.482,1.33 -1.168,0.546 -2.409,0.822 -3.688,0.822 -2.79,0 -5.38,-1.367 -7.003,-3.567 -1.623,2.2 -4.212,3.567 -7.002,3.567 0,0 0,0 0,0 -1.28,0 -2.521,-0.276 -3.688,-0.822 -0.5,-0.234 -0.716,-0.829 -0.482,-1.33 C 19.649,45.973 22.748,44 26.116,44 c 1.132,0 2.231,0.229 3.279,0.657 C 30.443,44.229 31.542,44 32.674,44 Z M 8.662,28 h 42 c 1.654,0 3,-1.346 3,-3 0,-1.654 -1.346,-3 -3,-3 H 49.329 L 48.885,20.936 C 47.953,18.7 47.391,16.36 47.181,14 H 11.143 c -0.21,2.36 -0.773,4.699 -1.705,6.936 L 8.995,22 H 8.662 c -1.654,0 -3,1.346 -3,3 0,1.654 1.346,3 3,3 z" />
</g>
<g
   id="g66">
</g>
<g
   id="g68">
</g>
<g
   id="g70">
</g>
<g
   id="g72">
</g>
<g
   id="g74">
</g>
<g
   id="g76">
</g>
<g
   id="g78">
</g>
<g
   id="g80">
</g>
<g
   id="g82">
</g>
<g
   id="g84">
</g>
<g
   id="g86">
</g>
<g
   id="g88">
</g>
<g
   id="g90">
</g>
<g
   id="g92">
</g>
<g
   id="g94">
</g>
</svg>
