<?xml version="1.0" encoding="utf-8"?>
<!-- Generator: Adobe Illustrator 26.5.0, SVG Export Plug-In . SVG Version: 6.00 Build 0)  -->
<svg version="1.1" id="Layer_1" xmlns="http://www.w3.org/2000/svg" xmlns:xlink="http://www.w3.org/1999/xlink" x="0px" y="0px"
	 viewBox="0 0 512 512" style="enable-background:new 0 0 512 512;" xml:space="preserve">
<g>
	<g>
		<g>
			<path d="M256.1,118.2l-1.4-3c-4.1-8.9-11.5-15.7-20.7-19.1c-9.2-3.4-19.2-2.9-28.1,1.2c-18.4,8.5-26.4,30.4-17.9,48.8l1.3,2.7
				l-2.8,1.3c-78.7,36.5-113.1,130.2-76.6,209l26,56L29.3,464.5c-6.3,2.9-9,10.3-6.1,16.6c2.9,6.3,10.3,9,16.6,6.1l117.9-54.6
				l93.6-43.4c0,0,0,0,0,0c0,0,0,0,0,0l146.5-67.9c0,0,0,0,0,0c0,0,0,0,0,0l83.8-38.8c6.3-2.9,9-10.3,6.1-16.6l-31.2-67.3
				C421.3,122.6,333,87.9,256.1,118.2z M210.7,135.6L210.7,135.6c-2.7-5.9-0.2-12.9,5.8-15.7c2.9-1.3,6.1-1.5,9-0.4
				c3,1.1,5.3,3.3,6.7,6.1l1.3,2.7l-21.4,9.9L210.7,135.6z M376.7,303.5l-125.4,58.1c-9.7-18.5-29.8-60.5-37.5-105
				c-1.2-6.8-7.6-11.4-14.4-10.2c-6.8,1.2-11.4,7.6-10.2,14.4c8.2,47.3,28.7,90.9,39.4,111.3l-70.1,32.5l-26-56
				c-30.7-66.2-1.8-145.1,64.5-175.8l14.2-6.6l23.3-10.8C312.1,159.5,362.6,268.7,376.7,303.5z M459.8,265l-60.4,28
				c-13.9-34.3-56.6-125.9-126.7-154.2c62.8-20.5,132.7,8.8,161.2,70.2L459.8,265L459.8,265z"/>
		</g>
	</g>
	<g>
		<g>
			<path d="M191.9,208.2c-6.3,2.9-9,10.3-6.1,16.6c2.9,6.3,10.3,9,16.6,6.1c6.3-2.9,9-10.3,6.1-16.6
				C205.6,208,198.2,205.3,191.9,208.2z"/>
		</g>
	</g>
</g>
</svg>
