<?xml version="1.0" encoding="UTF-8" standalone="no"?>
<!-- Generator: Adobe Illustrator 26.5.0, SVG Export Plug-In . SVG Version: 6.00 Build 0)  -->

<svg
   version="1.1"
   id="Layer_1"
   x="0px"
   y="0px"
   viewBox="0 0 512 512"
   style="enable-background:new 0 0 512 512;"
   xml:space="preserve"
   sodipodi:docname="hip-hop.svg"
   inkscape:version="1.2.1 (9c6d41e410, 2022-07-14)"
   xmlns:inkscape="http://www.inkscape.org/namespaces/inkscape"
   xmlns:sodipodi="http://sodipodi.sourceforge.net/DTD/sodipodi-0.dtd"
   xmlns="http://www.w3.org/2000/svg"
   xmlns:svg="http://www.w3.org/2000/svg"><defs
   id="defs125" /><sodipodi:namedview
   id="namedview123"
   pagecolor="#505050"
   bordercolor="#eeeeee"
   borderopacity="1"
   inkscape:showpageshadow="0"
   inkscape:pageopacity="0"
   inkscape:pagecheckerboard="0"
   inkscape:deskcolor="#505050"
   showgrid="false"
   inkscape:zoom="0.4609375"
   inkscape:cx="256"
   inkscape:cy="257.08475"
   inkscape:window-width="1500"
   inkscape:window-height="930"
   inkscape:window-x="-6"
   inkscape:window-y="-6"
   inkscape:window-maximized="1"
   inkscape:current-layer="Layer_1" />
<g
   id="g120">
	<g
   id="g112">
		<g
   id="g110">
			
		</g>
	</g>
	<g
   id="g118">
		<g
   id="g116">
			<path
   id="path114"
   d="m 191.9,208.2 c -6.3,2.9 -9,10.3 -6.1,16.6 2.9,6.3 10.3,9 16.6,6.1 6.3,-2.9 9,-10.3 6.1,-16.6 -2.9,-6.3 -10.3,-9 -16.6,-6.1 z m 64.2,-90 -1.4,-3 c -4.1,-8.9 -11.5,-15.7 -20.7,-19.1 -9.2,-3.4 -19.2,-2.9 -28.1,1.2 -18.4,8.5 -26.4,30.4 -17.9,48.8 l 1.3,2.7 -2.8,1.3 c -78.7,36.5 -113.1,130.2 -76.6,209 l 26,56 -106.6,49.4 c -6.3,2.9 -9,10.3 -6.1,16.6 2.9,6.3 10.3,9 16.6,6.1 l 117.9,-54.6 93.6,-43.4 c 0,0 0,0 0,0 0,0 0,0 0,0 l 146.5,-67.9 c 0,0 0,0 0,0 0,0 0,0 0,0 l 83.8,-38.8 c 6.3,-2.9 9,-10.3 6.1,-16.6 L 456.5,198.6 C 421.3,122.6 333,87.9 256.1,118.2 Z m -45.4,17.4 v 0 c -2.7,-5.9 -0.2,-12.9 5.8,-15.7 2.9,-1.3 6.1,-1.5 9,-0.4 3,1.1 5.3,3.3 6.7,6.1 l 1.3,2.7 -21.4,9.9 z m 166,167.9 -125.4,58.1 c -9.7,-18.5 -29.8,-60.5 -37.5,-105 -1.2,-6.8 -7.6,-11.4 -14.4,-10.2 -6.8,1.2 -11.4,7.6 -10.2,14.4 8.2,47.3 28.7,90.9 39.4,111.3 l -70.1,32.5 -26,-56 C 101.8,282.4 130.7,203.5 197,172.8 l 14.2,-6.6 23.3,-10.8 c 77.6,4.1 128.1,113.3 142.2,148.1 z M 459.8,265 399.4,293 C 385.5,258.7 342.8,167.1 272.7,138.8 c 62.8,-20.5 132.7,8.8 161.2,70.2 l 25.9,56 z" />
		</g>
	</g>
</g>
</svg>
