<?xml version="1.0" encoding="UTF-8" standalone="no"?>
<!-- Generator: Adobe Illustrator 27.0.0, SVG Export Plug-In . SVG Version: 6.00 Build 0)  -->

<svg
   version="1.1"
   id="Ebene_1"
   x="0px"
   y="0px"
   viewBox="0 0 48 48"
   style="enable-background:new 0 0 48 48;"
   xml:space="preserve"
   sodipodi:docname="history.svg"
   inkscape:version="1.2.1 (9c6d41e410, 2022-07-14)"
   xmlns:inkscape="http://www.inkscape.org/namespaces/inkscape"
   xmlns:sodipodi="http://sodipodi.sourceforge.net/DTD/sodipodi-0.dtd"
   xmlns="http://www.w3.org/2000/svg"
   xmlns:svg="http://www.w3.org/2000/svg"><defs
   id="defs106" /><sodipodi:namedview
   id="namedview104"
   pagecolor="#505050"
   bordercolor="#eeeeee"
   borderopacity="1"
   inkscape:showpageshadow="0"
   inkscape:pageopacity="0"
   inkscape:pagecheckerboard="0"
   inkscape:deskcolor="#505050"
   showgrid="false"
   inkscape:zoom="4.9166667"
   inkscape:cx="24"
   inkscape:cy="24.101695"
   inkscape:window-width="1500"
   inkscape:window-height="930"
   inkscape:window-x="-6"
   inkscape:window-y="-6"
   inkscape:window-maximized="1"
   inkscape:current-layer="Ebene_1" />
<path
   id="path101"
   d="M 17,44.2 V 39.5 H 7.9 v -21 H 37 v 10.1 h 4.7 V 9.4 C 41.7,8.1 41.2,7 40.3,6.1 39.4,5.2 38.3,4.7 37,4.7 h -2.8 v -3 h -4.1 v 3 H 14.8 v -3 h -4.1 v 3 H 7.9 C 6.6,4.7 5.5,5.2 4.6,6.1 3.7,7 3.2,8.2 3.2,9.4 v 30.1 c 0,1.3 0.5,2.4 1.4,3.3 0.9,0.9 2.1,1.4 3.3,1.4 H 17 Z M 30.5,47.5 33.8,44.2 29,39.4 H 44.9 V 34.7 H 29 L 33.8,29.8 30.5,26.5 20,37 Z" />
</svg>
