<?xml version="1.0" encoding="utf-8"?>
<!-- Generator: Adobe Illustrator 27.0.0, SVG Export Plug-In . SVG Version: 6.00 Build 0)  -->
<svg version="1.1" id="Ebene_1" xmlns="http://www.w3.org/2000/svg" xmlns:xlink="http://www.w3.org/1999/xlink" x="0px" y="0px"
	 viewBox="0 0 48 48" style="enable-background:new 0 0 48 48;" xml:space="preserve">
<path d="M17,44.2v-4.7H7.9v-21H37v10.1h4.7V9.4c0-1.3-0.5-2.4-1.4-3.3c-0.9-0.9-2-1.4-3.3-1.4h-2.8v-3h-4.1v3H14.8v-3h-4.1v3H7.9
	c-1.3,0-2.4,0.5-3.3,1.4S3.2,8.2,3.2,9.4v30.1c0,1.3,0.5,2.4,1.4,3.3s2.1,1.4,3.3,1.4H17z M30.5,47.5l3.3-3.3L29,39.4h15.9v-4.7H29
	l4.8-4.9l-3.3-3.3L20,37L30.5,47.5z"/>
</svg>
