<?xml version="1.0" encoding="UTF-8" standalone="no"?>
<svg
   height="48"
   width="48"
   version="1.1"
   id="svg32"
   sodipodi:docname="horror.svg"
   inkscape:version="1.2.1 (9c6d41e410, 2022-07-14)"
   xmlns:inkscape="http://www.inkscape.org/namespaces/inkscape"
   xmlns:sodipodi="http://sodipodi.sourceforge.net/DTD/sodipodi-0.dtd"
   xmlns="http://www.w3.org/2000/svg"
   xmlns:svg="http://www.w3.org/2000/svg">
  <defs
     id="defs36" />
  <sodipodi:namedview
     id="namedview34"
     pagecolor="#505050"
     bordercolor="#eeeeee"
     borderopacity="1"
     inkscape:showpageshadow="0"
     inkscape:pageopacity="0"
     inkscape:pagecheckerboard="0"
     inkscape:deskcolor="#505050"
     showgrid="false"
     inkscape:zoom="4.9166667"
     inkscape:cx="24"
     inkscape:cy="24.101695"
     inkscape:window-width="1500"
     inkscape:window-height="930"
     inkscape:window-x="-6"
     inkscape:window-y="-6"
     inkscape:window-maximized="1"
     inkscape:current-layer="svg32" />
  <path
     id="path30"
     d="M 11.2,44.75 V 36 Q 9.6,35.15 8.15,33.75 6.7,32.35 5.6,30.525 4.5,28.7 3.875,26.55 3.25,24.4 3.25,22 3.25,13.75 9.05,8.5 14.85,3.25 24,3.25 q 9.15,0 14.95,5.25 5.8,5.25 5.8,13.5 0,2.4 -0.625,4.55 Q 43.5,28.7 42.4,30.525 41.3,32.35 39.85,33.75 38.4,35.15 36.8,36 v 8.75 z m 4.75,-4 h 1.5 v 4 h 3.35 v -4 h 6.4 v 4 h 3.35 v -4 h 1.5 V 33.4 q 1.85,-0.8 3.325,-1.95 1.475,-1.15 2.5,-2.6 1.025,-1.45 1.6,-3.175 Q 40.05,23.95 40.05,22 40.05,15.7 35.6,11.825 31.15,7.95 24,7.95 16.85,7.95 12.425,11.825 8,15.7 8,22 q 0,1.95 0.55,3.675 0.55,1.725 1.575,3.175 1.025,1.45 2.5,2.6 1.475,1.15 3.325,1.95 z m 4.3,-8.35 h 7.5 L 24,24.9 Z M 17,25.35 q 1.65,0 2.775,-1.15 1.125,-1.15 1.125,-2.7 0,-1.65 -1.125,-2.775 Q 18.65,17.6 17,17.6 q -1.6,0 -2.725,1.125 -1.125,1.125 -1.125,2.775 0,1.6 1.15,2.725 1.15,1.125 2.7,1.125 z m 14,0 q 1.65,0 2.775,-1.15 1.125,-1.15 1.125,-2.7 0,-1.65 -1.125,-2.775 Q 32.65,17.6 31,17.6 q -1.6,0 -2.725,1.125 -1.125,1.125 -1.125,2.775 0,1.6 1.15,2.725 1.15,1.125 2.7,1.125 z M 15.95,40.75 V 33.4 Q 14.1,32.6 12.625,31.45 11.15,30.3 10.125,28.85 9.1,27.4 8.55,25.675 8,23.95 8,22 8,15.7 12.425,11.825 16.85,7.95 24,7.95 q 7.15,0 11.6,3.875 4.45,3.875 4.45,10.175 0,1.95 -0.575,3.675 -0.575,1.725 -1.6,3.175 -1.025,1.45 -2.5,2.6 Q 33.9,32.6 32.05,33.4 v 7.35 h -1.5 v -3 H 27.2 v 3 h -6.4 v -3 h -3.35 v 3 z" />
</svg>
