<?xml version="1.0" encoding="UTF-8" standalone="no"?>
<!-- Generator: Adobe Illustrator 26.5.0, SVG Export Plug-In . SVG Version: 6.00 Build 0)  -->

<svg
   version="1.1"
   id="Capa_1"
   x="0px"
   y="0px"
   viewBox="0 0 296.5 296.5"
   style="enable-background:new 0 0 296.5 296.5;"
   xml:space="preserve"
   sodipodi:docname="hunting.svg"
   inkscape:version="1.2.1 (9c6d41e410, 2022-07-14)"
   xmlns:inkscape="http://www.inkscape.org/namespaces/inkscape"
   xmlns:sodipodi="http://sodipodi.sourceforge.net/DTD/sodipodi-0.dtd"
   xmlns="http://www.w3.org/2000/svg"
   xmlns:svg="http://www.w3.org/2000/svg"><defs
   id="defs45" /><sodipodi:namedview
   id="namedview43"
   pagecolor="#505050"
   bordercolor="#eeeeee"
   borderopacity="1"
   inkscape:showpageshadow="0"
   inkscape:pageopacity="0"
   inkscape:pagecheckerboard="0"
   inkscape:deskcolor="#505050"
   showgrid="false"
   inkscape:zoom="0.79595278"
   inkscape:cx="148.25"
   inkscape:cy="148.87818"
   inkscape:window-width="1500"
   inkscape:window-height="930"
   inkscape:window-x="-6"
   inkscape:window-y="-6"
   inkscape:window-maximized="1"
   inkscape:current-layer="Capa_1" />
<g
   id="g40">
	<path
   id="path38"
   d="m 260.4,30.2 c -5.8,12.1 -15,22.4 -26.5,29.6 L 91.1,149.3 c -2.3,1.4 -3.9,3.7 -4.4,6.2 -0.1,0.3 -0.1,0.5 -0.1,0.8 l -13.8,-2.2 c -4.1,-0.7 -7.9,2.1 -8.6,6.2 -0.7,4.1 2.1,7.9 6.2,8.6 l 8.1,1.3 -7.7,4.8 v 0 l -51.3,32.2 c -7,4.4 -9.1,13.6 -4.7,20.7 l 19.6,31.3 c 2.7,4.4 7.5,7 12.7,7 5.2,0 10,-2.6 12.7,-7 l 44.4,-70.4 10.8,-6.8 4.6,7.4 c 2.7,4.3 7.2,6.8 12.3,6.8 2.7,0 5.4,-0.8 7.7,-2.2 l 9.5,-6 c 6.8,-4.2 8.8,-13.2 4.6,-19.9 l -4.6,-7.4 59.2,-37.1 c 4.7,-2.9 6.1,-9.1 3.2,-13.8 l -5,-8.1 38.7,-24.2 C 257,70.1 270.7,66.4 284.4,66.6 281.2,51.8 272.6,38.8 260.4,30.2 Z M 82.8,198.1 42.9,224.9 c -1.3,0.9 -2.7,1.3 -4.2,1.3 -2.4,0 -4.8,-1.2 -6.2,-3.3 -2.3,-3.4 -1.4,-8.1 2,-10.4 l 39.9,-26.8 c 3.4,-2.3 8.1,-1.4 10.4,2 2.4,3.4 1.5,8.1 -2,10.4 z m 49.1,-17.1 -4.4,-7 8.6,-5.4 4.4,7 z" />
</g>
</svg>
