<?xml version="1.0" encoding="utf-8"?>
<!-- Generator: Adobe Illustrator 26.5.0, SVG Export Plug-In . SVG Version: 6.00 Build 0)  -->
<svg version="1.1" id="Capa_1" xmlns="http://www.w3.org/2000/svg" xmlns:xlink="http://www.w3.org/1999/xlink" x="0px" y="0px"
	 viewBox="0 0 296.5 296.5" style="enable-background:new 0 0 296.5 296.5;" xml:space="preserve">
<g>
	<path d="M260.4,30.2c-5.8,12.1-15,22.4-26.5,29.6L91.1,149.3c-2.3,1.4-3.9,3.7-4.4,6.2c-0.1,0.3-0.1,0.5-0.1,0.8l-13.8-2.2
		c-4.1-0.7-7.9,2.1-8.6,6.2c-0.7,4.1,2.1,7.9,6.2,8.6l8.1,1.3l-7.7,4.8l0,0l-51.3,32.2c-7,4.4-9.1,13.6-4.7,20.7l19.6,31.3
		c2.7,4.4,7.5,7,12.7,7c5.2,0,10-2.6,12.7-7l44.4-70.4l10.8-6.8l4.6,7.4c2.7,4.3,7.2,6.8,12.3,6.8c2.7,0,5.4-0.8,7.7-2.2l9.5-6
		c6.8-4.2,8.8-13.2,4.6-19.9l-4.6-7.4l59.2-37.1c4.7-2.9,6.1-9.1,3.2-13.8l-5-8.1l38.7-24.2c11.8-7.4,25.5-11.1,39.2-10.9
		C281.2,51.8,272.6,38.8,260.4,30.2z M82.8,198.1l-39.9,26.8c-1.3,0.9-2.7,1.3-4.2,1.3c-2.4,0-4.8-1.2-6.2-3.3
		c-2.3-3.4-1.4-8.1,2-10.4l39.9-26.8c3.4-2.3,8.1-1.4,10.4,2C87.2,191.1,86.3,195.8,82.8,198.1z M131.9,181l-4.4-7l8.6-5.4l4.4,7
		L131.9,181z"/>
</g>
</svg>
