<?xml version="1.0" encoding="UTF-8" standalone="no"?>
<svg
   height="48"
   width="48"
   version="1.1"
   id="svg49"
   sodipodi:docname="illiusionism.svg"
   inkscape:version="1.2.1 (9c6d41e410, 2022-07-14)"
   xmlns:inkscape="http://www.inkscape.org/namespaces/inkscape"
   xmlns:sodipodi="http://sodipodi.sourceforge.net/DTD/sodipodi-0.dtd"
   xmlns="http://www.w3.org/2000/svg"
   xmlns:svg="http://www.w3.org/2000/svg">
  <defs
     id="defs53" />
  <sodipodi:namedview
     id="namedview51"
     pagecolor="#505050"
     bordercolor="#eeeeee"
     borderopacity="1"
     inkscape:showpageshadow="0"
     inkscape:pageopacity="0"
     inkscape:pagecheckerboard="0"
     inkscape:deskcolor="#505050"
     showgrid="false"
     inkscape:zoom="4.9166667"
     inkscape:cx="24"
     inkscape:cy="24.101695"
     inkscape:window-width="1500"
     inkscape:window-height="930"
     inkscape:window-x="-6"
     inkscape:window-y="-6"
     inkscape:window-maximized="1"
     inkscape:current-layer="svg49" />
  <path
     id="path47"
     d="M 39.75,43.35 26.3,29.95 q -1.45,1.15 -3.425,1.8 -1.975,0.65 -4.275,0.65 -5.75,0 -9.75,-4 -4,-4 -4,-9.65 0,-5.65 4,-9.65 4,-4 9.7,-4 5.65,0 9.625,4 3.975,4 3.975,9.65 0,2.25 -0.625,4.175 Q 30.9,24.85 29.65,26.55 l 13.5,13.4 z M 18.55,27.7 q 3.75,0 6.325,-2.625 Q 27.45,22.45 27.45,18.75 27.45,15 24.875,12.4 22.3,9.8 18.55,9.8 14.8,9.8 12.175,12.4 9.55,15 9.55,18.75 q 0,3.7 2.625,6.325 Q 14.8,27.7 18.55,27.7 Z m -3.45,-3.95 1.4,-4 -3.55,-2.7 h 4.15 l 1.4,-4.05 1.4,4.05 h 4.15 l -3.55,2.7 1.4,4 -3.4,-2.5 z" />
</svg>
