<?xml version="1.0" encoding="UTF-8" standalone="no"?>
<svg
   height="48"
   width="48"
   version="1.1"
   id="svg80"
   sodipodi:docname="internet.svg"
   inkscape:version="1.2.1 (9c6d41e410, 2022-07-14)"
   xmlns:inkscape="http://www.inkscape.org/namespaces/inkscape"
   xmlns:sodipodi="http://sodipodi.sourceforge.net/DTD/sodipodi-0.dtd"
   xmlns="http://www.w3.org/2000/svg"
   xmlns:svg="http://www.w3.org/2000/svg">
  <defs
     id="defs84" />
  <sodipodi:namedview
     id="namedview82"
     pagecolor="#505050"
     bordercolor="#eeeeee"
     borderopacity="1"
     inkscape:showpageshadow="0"
     inkscape:pageopacity="0"
     inkscape:pagecheckerboard="0"
     inkscape:deskcolor="#505050"
     showgrid="false"
     inkscape:zoom="4.9166667"
     inkscape:cx="24"
     inkscape:cy="24.101695"
     inkscape:window-width="1500"
     inkscape:window-height="930"
     inkscape:window-x="-6"
     inkscape:window-y="-6"
     inkscape:window-maximized="1"
     inkscape:current-layer="svg80" />
  <path
     id="path78"
     d="m 24,45.25 q -4.45,0 -8.325,-1.65 Q 11.8,41.95 8.925,39.05 6.05,36.15 4.4,32.25 2.75,28.35 2.75,23.9 2.75,19.45 4.4,15.575 6.05,11.7 8.925,8.85 11.8,6 15.675,4.35 19.55,2.7 24,2.7 q 4.45,0 8.325,1.65 3.875,1.65 6.75,4.5 2.875,2.85 4.55,6.725 1.675,3.875 1.675,8.325 0,4.45 -1.675,8.35 -1.675,3.9 -4.55,6.8 -2.875,2.9 -6.75,4.55 Q 28.45,45.25 24,45.25 Z M 23.95,40.7 Q 25.55,38.95 26.7,36.675 27.85,34.4 28.65,31.2 H 19.4 q 0.65,3 1.8,5.35 1.15,2.35 2.75,4.15 z m -4.1,-0.6 q -1.3,-1.8 -2.125,-4 Q 16.9,33.9 16.3,31.2 H 9 q 1.8,3.5 4.25,5.475 2.45,1.975 6.6,3.425 z m 8.25,-0.05 q 3.5,-1.1 6.325,-3.375 Q 37.25,34.4 38.95,31.2 h -7.2 q -0.65,2.65 -1.5,4.85 -0.85,2.2 -2.15,4 z M 8.05,28.35 h 7.7 Q 15.6,27 15.575,25.95 15.55,24.9 15.55,23.9 15.55,22.65 15.6,21.725 15.65,20.8 15.8,19.6 H 8.05 Q 7.7,20.8 7.575,21.7 7.45,22.6 7.45,23.9 q 0,1.25 0.125,2.25 0.125,1 0.475,2.2 z m 10.8,0 H 29.2 q 0.15,-1.55 0.175,-2.5 0.025,-0.95 0.025,-1.95 0,-1 -0.025,-1.875 Q 29.35,21.15 29.2,19.6 H 18.85 q -0.2,1.55 -0.25,2.425 -0.05,0.875 -0.05,1.875 0,1 0.05,1.95 0.05,0.95 0.25,2.5 z m 13.35,0 h 7.7 q 0.3,-1.2 0.45,-2.2 0.15,-1 0.15,-2.25 0,-1.3 -0.15,-2.2 -0.15,-0.9 -0.45,-2.1 h -7.65 q 0.05,1.8 0.1,2.65 0.05,0.85 0.05,1.65 0,1.05 -0.075,2 -0.075,0.95 -0.125,2.45 z M 31.7,16.7 h 7.25 Q 37.35,13.35 34.525,11.075 31.7,8.8 28.05,7.9 q 1.3,1.8 2.15,3.925 0.85,2.125 1.5,4.875 z m -12.3,0 h 9.3 Q 28.2,14.15 26.9,11.675 25.6,9.2 23.95,7.4 22.5,8.7 21.425,10.85 20.35,13 19.4,16.7 Z M 9,16.7 h 7.35 Q 16.9,14.1 17.675,12 18.45,9.9 19.8,7.95 16.1,8.85 13.375,11.05 10.65,13.25 9,16.7 Z" />
</svg>
