<?xml version="1.0" encoding="UTF-8" standalone="no"?>
<svg
   height="48"
   width="48"
   version="1.1"
   id="svg88"
   sodipodi:docname="journalism.svg"
   inkscape:version="1.2.1 (9c6d41e410, 2022-07-14)"
   xmlns:inkscape="http://www.inkscape.org/namespaces/inkscape"
   xmlns:sodipodi="http://sodipodi.sourceforge.net/DTD/sodipodi-0.dtd"
   xmlns="http://www.w3.org/2000/svg"
   xmlns:svg="http://www.w3.org/2000/svg">
  <defs
     id="defs92" />
  <sodipodi:namedview
     id="namedview90"
     pagecolor="#505050"
     bordercolor="#eeeeee"
     borderopacity="1"
     inkscape:showpageshadow="0"
     inkscape:pageopacity="0"
     inkscape:pagecheckerboard="0"
     inkscape:deskcolor="#505050"
     showgrid="false"
     inkscape:zoom="4.9166667"
     inkscape:cx="24"
     inkscape:cy="24.101695"
     inkscape:window-width="1500"
     inkscape:window-height="930"
     inkscape:window-x="-6"
     inkscape:window-y="-6"
     inkscape:window-maximized="1"
     inkscape:current-layer="svg88" />
  <path
     id="path86"
     d="M 2.15,39.4 V 34.7 H 23.3 v 4.7 z m 0,-11.05 v -4.7 h 12.3 v 4.7 z m 0,-11.05 v -4.75 h 12.3 v 4.75 z m 40.8,21.15 -8.1,-8.1 q -1.3,1 -2.825,1.475 Q 30.5,32.3 28.85,32.3 q -4.5,0 -7.7,-3.175 -3.2,-3.175 -3.2,-7.675 0,-4.55 3.175,-7.725 3.175,-3.175 7.725,-3.175 4.5,0 7.675,3.2 3.175,3.2 3.175,7.7 0,1.65 -0.475,3.175 -0.475,1.525 -1.475,2.825 l 8.15,8.1 z m -14.1,-10.3 q 2.75,0 4.725,-1.95 1.975,-1.95 1.975,-4.75 0,-2.8 -1.95,-4.775 -1.95,-1.975 -4.75,-1.975 -2.8,0 -4.75,1.975 -1.95,1.975 -1.95,4.775 0,2.8 1.95,4.75 1.95,1.95 4.75,1.95 z" />
</svg>
