<?xml version="1.0" encoding="UTF-8" standalone="no"?>
<!-- Generator: Adobe Illustrator 26.5.0, SVG Export Plug-In . SVG Version: 6.00 Build 0)  -->

<svg
   version="1.1"
   id="Ebene_1"
   x="0px"
   y="0px"
   viewBox="0 0 48 48"
   style="enable-background:new 0 0 48 48;"
   xml:space="preserve"
   sodipodi:docname="killers.svg"
   inkscape:version="1.2.1 (9c6d41e410, 2022-07-14)"
   xmlns:inkscape="http://www.inkscape.org/namespaces/inkscape"
   xmlns:sodipodi="http://sodipodi.sourceforge.net/DTD/sodipodi-0.dtd"
   xmlns="http://www.w3.org/2000/svg"
   xmlns:svg="http://www.w3.org/2000/svg"><defs
   id="defs69" /><sodipodi:namedview
   id="namedview67"
   pagecolor="#505050"
   bordercolor="#eeeeee"
   borderopacity="1"
   inkscape:showpageshadow="0"
   inkscape:pageopacity="0"
   inkscape:pagecheckerboard="0"
   inkscape:deskcolor="#505050"
   showgrid="false"
   inkscape:zoom="4.9166667"
   inkscape:cx="24"
   inkscape:cy="24.101695"
   inkscape:window-width="1500"
   inkscape:window-height="930"
   inkscape:window-x="-6"
   inkscape:window-y="-6"
   inkscape:window-maximized="1"
   inkscape:current-layer="Ebene_1" />
<g
   id="g64">
	
	<path
   id="path62"
   d="M 43.8,14.2 36,22 l 0.3,0.3 c 0.1,0.3 0.2,0.6 0.1,0.9 -0.1,0.3 -0.2,0.6 -0.4,0.9 l -0.7,0.7 -1.5,-1.5 -1.9,1.9 c -0.2,0.2 -0.3,0.2 -0.6,0.2 -0.2,0 -0.4,-0.1 -0.6,-0.2 l -1,-1 c -0.2,-0.2 -0.3,-0.4 -0.3,-0.6 0,-0.2 0.1,-0.4 0.3,-0.6 l 1.9,-1.9 -1.5,-1.5 0.6,-0.7 c 0.2,-0.2 0.5,-0.4 0.9,-0.4 0.3,-0.1 0.7,0 0.9,0.1 l 0.3,0.3 7.8,-7.8 h 3.2 c 0,0 0,3.1 0,3.1 z m -37.2,32.3 5.6,-29 -3.9,1.8 v 6.8 H 4.2 v -9.6 l 10.1,-4.3 c 1,-0.4 2.1,-0.5 3.3,-0.3 1.2,0.2 2.1,0.8 2.7,1.8 l 2.2,3.3 c 0.9,1.4 2.1,2.6 3.5,3.5 1.4,1 3.2,1.4 5.1,1.4 V 26 C 29,26 27.1,25.6 25.2,24.8 23.3,24 21.7,22.6 20.3,20.7 L 18.6,27 23,31.1 V 46.5 H 18.9 V 34.2 l -4.4,-4 -3.6,16.3 z M 20.3,9.8 c -1.2,0 -2.2,-0.4 -3,-1.2 -0.8,-0.8 -1.2,-1.8 -1.2,-3 0,-1.2 0.4,-2.2 1.2,-3 0.8,-0.8 1.8,-1.2 3,-1.2 1.2,0 2.2,0.4 3,1.2 0.8,0.8 1.2,1.8 1.2,3 0,1.2 -0.4,2.2 -1.2,3 -0.8,0.7 -1.9,1.2 -3,1.2 z" />
</g>
</svg>
