<?xml version="1.0" encoding="utf-8"?>
<!-- Generator: Adobe Illustrator 26.5.0, SVG Export Plug-In . SVG Version: 6.00 Build 0)  -->
<svg version="1.1" id="Ebene_1" xmlns="http://www.w3.org/2000/svg" xmlns:xlink="http://www.w3.org/1999/xlink" x="0px" y="0px"
	 viewBox="0 0 48 48" style="enable-background:new 0 0 48 48;" xml:space="preserve">
<g>
	<path d="M6.6,46.5l5.6-29l-3.9,1.8v6.8H4.2v-9.6l10.1-4.3c1-0.4,2.1-0.5,3.3-0.3s2.1,0.8,2.7,1.8l2.2,3.3c0.9,1.4,2.1,2.6,3.5,3.5
		c1.4,1,3.2,1.4,5.1,1.4V26c-2.1,0-4-0.4-5.9-1.2c-1.9-0.8-3.5-2.2-4.9-4.1L18.6,27l4.4,4.1v15.4h-4.1V34.2l-4.4-4l-3.6,16.3H6.6z
		 M20.3,9.8c-1.2,0-2.2-0.4-3-1.2c-0.8-0.8-1.2-1.8-1.2-3s0.4-2.2,1.2-3c0.8-0.8,1.8-1.2,3-1.2s2.2,0.4,3,1.2s1.2,1.8,1.2,3
		s-0.4,2.2-1.2,3C22.5,9.3,21.4,9.8,20.3,9.8z"/>
	<path d="M43.8,14.2L36,22l0.3,0.3c0.1,0.3,0.2,0.6,0.1,0.9c-0.1,0.3-0.2,0.6-0.4,0.9l-0.7,0.7l-1.5-1.5l-1.9,1.9
		c-0.2,0.2-0.3,0.2-0.6,0.2c-0.2,0-0.4-0.1-0.6-0.2l-1-1c-0.2-0.2-0.3-0.4-0.3-0.6s0.1-0.4,0.3-0.6l1.9-1.9l-1.5-1.5l0.6-0.7
		c0.2-0.2,0.5-0.4,0.9-0.4c0.3-0.1,0.7,0,0.9,0.1l0.3,0.3l7.8-7.8h3.2C43.8,11.1,43.8,14.2,43.8,14.2z"/>
</g>
</svg>
