<?xml version="1.0" encoding="utf-8"?>
<!-- Generator: Adobe Illustrator 26.5.0, SVG Export Plug-In . SVG Version: 6.00 Build 0)  -->
<svg version="1.1" id="Ebene_1" xmlns="http://www.w3.org/2000/svg" xmlns:xlink="http://www.w3.org/1999/xlink" x="0px" y="0px"
	 viewBox="0 0 48 48" style="enable-background:new 0 0 48 48;" xml:space="preserve">
<path d="M20.5,45.2v-21c2.5-0.7,4.5-1.9,6-3.7s2.3-3.9,2.3-6.3h-3.3c0,2-0.8,3.7-2.3,5.1c-1.6,1.4-3.4,2.1-5.6,2.1h-3.7
	c-1.1,0-1.9,0.1-2.5,0.3c-0.6,0.2-1.3,0.6-2.1,1.3l-7.5,7l2.4,2.4l6.8-6.4v19.2h3.2V34.8h3.1v10.3H20.5z M15.7,18.9
	c0.9,0,1.7-0.3,2.4-1s0.9-1.4,0.9-2.3c0-0.9-0.3-1.7-0.9-2.4s-1.4-1-2.3-1c-0.9,0-1.7,0.3-2.4,1s-1,1.4-1,2.3c0,0.9,0.3,1.7,1,2.4
	C14,18.6,14.8,18.9,15.7,18.9z"/>
<path d="M36.2,13.3l4.6-4.6l-1.8-1.8l-4.7,4.6L36.2,13.3z M30.8,7.8l4.6-4.7l-1.8-1.8L29,6L30.8,7.8z M27.3,16.2L37.8,5.6l-1.2-1.3
	L26,15L27.3,16.2z"/>
</svg>
