<?xml version="1.0" encoding="UTF-8" standalone="no"?>
<svg
   height="48"
   width="48"
   version="1.1"
   id="svg30"
   sodipodi:docname="love.svg"
   inkscape:version="1.2.1 (9c6d41e410, 2022-07-14)"
   xmlns:inkscape="http://www.inkscape.org/namespaces/inkscape"
   xmlns:sodipodi="http://sodipodi.sourceforge.net/DTD/sodipodi-0.dtd"
   xmlns="http://www.w3.org/2000/svg"
   xmlns:svg="http://www.w3.org/2000/svg">
  <defs
     id="defs34" />
  <sodipodi:namedview
     id="namedview32"
     pagecolor="#505050"
     bordercolor="#eeeeee"
     borderopacity="1"
     inkscape:showpageshadow="0"
     inkscape:pageopacity="0"
     inkscape:pagecheckerboard="0"
     inkscape:deskcolor="#505050"
     showgrid="false"
     inkscape:zoom="4.9166667"
     inkscape:cx="24"
     inkscape:cy="24.101695"
     inkscape:window-width="1500"
     inkscape:window-height="930"
     inkscape:window-x="-6"
     inkscape:window-y="-6"
     inkscape:window-maximized="1"
     inkscape:current-layer="svg30" />
  <path
     id="path28"
     d="m 23.95,43.65 -2.9,-2.6 Q 15.6,36.05 12.075,32.425 8.55,28.8 6.45,25.925 4.35,23.05 3.525,20.675 2.7,18.3 2.7,15.85 2.7,10.8 6.075,7.4 9.45,4 14.45,4 q 2.8,0 5.2,1.2 2.4,1.2 4.3,3.55 2.2,-2.5 4.5,-3.625 2.3,-1.125 5,-1.125 5.05,0 8.45,3.4 3.4,3.4 3.4,8.45 0,2.45 -0.825,4.8 -0.825,2.35 -2.925,5.225 -2.1,2.875 -5.65,6.525 -3.55,3.65 -9,8.65 z" />
</svg>
