<?xml version="1.0" encoding="utf-8"?>
<!-- Generator: Adobe Illustrator 26.5.0, SVG Export Plug-In . SVG Version: 6.00 Build 0)  -->
<svg version="1.1" id="Ebene_1" xmlns="http://www.w3.org/2000/svg" xmlns:xlink="http://www.w3.org/1999/xlink" x="0px" y="0px"
	 viewBox="0 0 48 48" style="enable-background:new 0 0 48 48;" xml:space="preserve">
<path d="M0.6,42.5v-8.9c0-1.2,0.4-2.2,1.3-3.1c0.9-0.9,1.9-1.3,3-1.3h7.3c0.6,0,1.2,0.1,1.6,0.3c0.4,0.2,0.8,0.5,1.1,0.9
	c1,1.5,2.3,2.7,3.9,3.5c1.6,0.8,3.3,1.2,5.1,1.2c1.8,0,3.5-0.4,5.1-1.2s3-2,4.1-3.5c0.2-0.4,0.6-0.7,1-0.9c0.4-0.2,1-0.3,1.7-0.3
	h7.3c1.2,0,2.2,0.4,3.1,1.3c0.8,0.9,1.3,1.9,1.3,3.1v8.8H32.8v-6.2c-1.2,0.9-2.6,1.7-4.1,2.2s-3.1,0.8-4.7,0.8
	c-1.6,0-3.1-0.3-4.6-0.8c-1.5-0.5-2.9-1.3-4.1-2.2v6.2H0.6z M8,24.2c-1.6,0-3-0.6-4.1-1.7c-1.1-1.1-1.7-2.5-1.7-4.2
	c0-1.6,0.6-3,1.7-4.1s2.5-1.7,4.1-1.7c1.6,0,3,0.6,4.2,1.7s1.7,2.5,1.7,4.1c0,1.6-0.6,3-1.7,4.2C11,23.7,9.6,24.2,8,24.2z M40,24.2
	c-1.6,0-3-0.6-4.1-1.7c-1.1-1.1-1.7-2.5-1.7-4.2c0-1.6,0.6-3,1.7-4.1s2.5-1.7,4.1-1.7c1.6,0,3,0.6,4.2,1.7s1.7,2.5,1.7,4.1
	c0,1.6-0.6,3-1.7,4.2C43,23.7,41.6,24.2,40,24.2z"/>
<path d="M24,18l-0.8-0.7c-1-1-1.9-1.8-2.6-2.5c-0.7-0.7-1.2-1.3-1.6-1.9c-0.4-0.6-0.7-1.1-0.8-1.5c-0.2-0.5-0.2-0.9-0.2-1.4
	c0-1,0.3-1.8,1-2.4s1.5-1,2.4-1c0.5,0,1,0.1,1.5,0.3s0.9,0.6,1.2,1c0.4-0.5,0.9-0.8,1.3-1s0.9-0.3,1.4-0.3c1,0,1.8,0.3,2.4,1
	c0.7,0.7,1,1.5,1,2.4c0,0.5-0.1,0.9-0.2,1.4c-0.2,0.5-0.4,1-0.8,1.5c-0.4,0.6-0.9,1.2-1.6,1.9c-0.7,0.7-1.5,1.5-2.6,2.5L24,18z"/>
</svg>
