<?xml version="1.0" encoding="UTF-8" standalone="no"?>
<!-- Generator: Adobe Illustrator 26.5.0, SVG Export Plug-In . SVG Version: 6.00 Build 0)  -->

<svg
   version="1.1"
   id="Ebene_1"
   x="0px"
   y="0px"
   viewBox="0 0 48 48"
   style="enable-background:new 0 0 48 48;"
   xml:space="preserve"
   sodipodi:docname="marriage.svg"
   inkscape:version="1.2.1 (9c6d41e410, 2022-07-14)"
   xmlns:inkscape="http://www.inkscape.org/namespaces/inkscape"
   xmlns:sodipodi="http://sodipodi.sourceforge.net/DTD/sodipodi-0.dtd"
   xmlns="http://www.w3.org/2000/svg"
   xmlns:svg="http://www.w3.org/2000/svg"><defs
   id="defs18" /><sodipodi:namedview
   id="namedview16"
   pagecolor="#505050"
   bordercolor="#eeeeee"
   borderopacity="1"
   inkscape:showpageshadow="0"
   inkscape:pageopacity="0"
   inkscape:pagecheckerboard="0"
   inkscape:deskcolor="#505050"
   showgrid="false"
   inkscape:zoom="4.9166667"
   inkscape:cx="24"
   inkscape:cy="24.101695"
   inkscape:window-width="1500"
   inkscape:window-height="930"
   inkscape:window-x="-6"
   inkscape:window-y="-6"
   inkscape:window-maximized="1"
   inkscape:current-layer="Ebene_1" />

<path
   id="path13"
   d="m 24,18 -0.8,-0.7 c -1,-1 -1.9,-1.8 -2.6,-2.5 C 19.9,14.1 19.4,13.5 19,12.9 18.6,12.3 18.3,11.8 18.2,11.4 18,10.9 18,10.5 18,10 c 0,-1 0.3,-1.8 1,-2.4 0.7,-0.6 1.5,-1 2.4,-1 0.5,0 1,0.1 1.5,0.3 0.5,0.2 0.9,0.6 1.2,1 0.4,-0.5 0.9,-0.8 1.3,-1 0.4,-0.2 0.9,-0.3 1.4,-0.3 1,0 1.8,0.3 2.4,1 0.7,0.7 1,1.5 1,2.4 0,0.5 -0.1,0.9 -0.2,1.4 -0.2,0.5 -0.4,1 -0.8,1.5 -0.4,0.6 -0.9,1.2 -1.6,1.9 -0.7,0.7 -1.5,1.5 -2.6,2.5 z M 0.6,42.5 v -8.9 c 0,-1.2 0.4,-2.2 1.3,-3.1 0.9,-0.9 1.9,-1.3 3,-1.3 h 7.3 c 0.6,0 1.2,0.1 1.6,0.3 0.4,0.2 0.8,0.5 1.1,0.9 1,1.5 2.3,2.7 3.9,3.5 1.6,0.8 3.3,1.2 5.1,1.2 1.8,0 3.5,-0.4 5.1,-1.2 1.6,-0.8 3,-2 4.1,-3.5 0.2,-0.4 0.6,-0.7 1,-0.9 0.4,-0.2 1,-0.3 1.7,-0.3 h 7.3 c 1.2,0 2.2,0.4 3.1,1.3 0.8,0.9 1.3,1.9 1.3,3.1 v 8.8 H 32.8 v -6.2 c -1.2,0.9 -2.6,1.7 -4.1,2.2 -1.5,0.5 -3.1,0.8 -4.7,0.8 -1.6,0 -3.1,-0.3 -4.6,-0.8 -1.5,-0.5 -2.9,-1.3 -4.1,-2.2 v 6.2 H 0.6 Z M 8,24.2 C 6.4,24.2 5,23.6 3.9,22.5 2.8,21.4 2.2,20 2.2,18.3 c 0,-1.6 0.6,-3 1.7,-4.1 1.1,-1.1 2.5,-1.7 4.1,-1.7 1.6,0 3,0.6 4.2,1.7 1.2,1.1 1.7,2.5 1.7,4.1 0,1.6 -0.6,3 -1.7,4.2 C 11,23.7 9.6,24.2 8,24.2 Z m 32,0 c -1.6,0 -3,-0.6 -4.1,-1.7 -1.1,-1.1 -1.7,-2.5 -1.7,-4.2 0,-1.6 0.6,-3 1.7,-4.1 1.1,-1.1 2.5,-1.7 4.1,-1.7 1.6,0 3,0.6 4.2,1.7 1.2,1.1 1.7,2.5 1.7,4.1 0,1.6 -0.6,3 -1.7,4.2 -1.2,1.2 -2.6,1.7 -4.2,1.7 z" />
</svg>
