<?xml version="1.0" encoding="UTF-8" standalone="no"?>
<svg
   height="48"
   width="48"
   version="1.1"
   id="svg38"
   sodipodi:docname="math.svg"
   inkscape:version="1.2.1 (9c6d41e410, 2022-07-14)"
   xmlns:inkscape="http://www.inkscape.org/namespaces/inkscape"
   xmlns:sodipodi="http://sodipodi.sourceforge.net/DTD/sodipodi-0.dtd"
   xmlns="http://www.w3.org/2000/svg"
   xmlns:svg="http://www.w3.org/2000/svg">
  <defs
     id="defs42" />
  <sodipodi:namedview
     id="namedview40"
     pagecolor="#505050"
     bordercolor="#eeeeee"
     borderopacity="1"
     inkscape:showpageshadow="0"
     inkscape:pageopacity="0"
     inkscape:pagecheckerboard="0"
     inkscape:deskcolor="#505050"
     showgrid="false"
     inkscape:zoom="4.9166667"
     inkscape:cx="24"
     inkscape:cy="24.101695"
     inkscape:window-width="1500"
     inkscape:window-height="930"
     inkscape:window-x="-6"
     inkscape:window-y="-6"
     inkscape:window-maximized="1"
     inkscape:current-layer="svg38" />
  <path
     id="path36"
     d="m 15.95,36.35 h 2.5 v -4.4 h 4.4 v -2.5 h -4.4 v -4.4 h -2.5 v 4.4 h -4.4 v 2.5 h 4.4 z M 26.25,34.6 H 36.3 V 32.15 H 26.25 Z m 0,-5.35 H 36.3 v -2.5 H 26.25 Z m 1.85,-7.7 3.05,-3.05 3.05,3.05 1.8,-1.8 -3.05,-3.05 3.05,-3.05 -1.8,-1.8 -3.05,3.05 -3.05,-3.05 -1.8,1.8 3.05,3.05 -3.05,3.05 z m -15.8,-3.8 h 9.8 v -2.5 H 12.3 Z M 9.45,43.25 Q 7.5,43.25 6.125,41.875 4.75,40.5 4.75,38.55 V 9.45 Q 4.75,7.5 6.125,6.1 7.5,4.7 9.45,4.7 h 29.1 q 1.95,0 3.35,1.4 1.4,1.4 1.4,3.35 v 29.1 q 0,1.95 -1.4,3.325 -1.4,1.375 -3.35,1.375 z" />
</svg>
