<?xml version="1.0" encoding="utf-8"?>
<!-- Generator: Adobe Illustrator 27.0.0, SVG Export Plug-In . SVG Version: 6.00 Build 0)  -->
<svg version="1.1" id="Ebene_1" xmlns="http://www.w3.org/2000/svg" xmlns:xlink="http://www.w3.org/1999/xlink" x="0px" y="0px"
	 viewBox="0 0 48 48" style="enable-background:new 0 0 48 48;" xml:space="preserve">
<g transform="matrix(1, 0, 0, 1, 0, 0)">
	<path id="Icon_awesome-coins-2" d="M1.7,37v3.7c0,3.1,7.5,5.6,16.7,5.6s16.7-2.5,16.7-5.6V37c-3.6,2.5-10.2,3.7-16.7,3.7
		S5.3,39.5,1.7,37z M29.6,12.9c9.2,0,16.7-2.5,16.7-5.6s-7.5-5.6-16.7-5.6S12.9,4.2,12.9,7.3S20.3,12.9,29.6,12.9L29.6,12.9z
		 M1.7,27.9v4.5c0,3.1,7.5,5.6,16.7,5.6s16.7-2.5,16.7-5.6v-4.5c-3.6,3-10.2,4.5-16.7,4.5S5.3,30.8,1.7,27.9z M37.9,28.8
		c5-1,8.4-2.8,8.4-4.8v-3.7c-2.5,1.6-5.4,2.6-8.4,3V28.8z M18.4,15.6c-9.2,0-16.7,3.1-16.7,7s7.5,7,16.7,7s16.7-3.1,16.7-7
		S27.7,15.6,18.4,15.6L18.4,15.6z M37.5,20.5c5.2-0.9,8.8-2.8,8.8-4.9v-3.7c-3.1,2.2-8.4,3.4-14,3.6C34.6,16.5,36.5,18.3,37.5,20.5
		L37.5,20.5z"/>
</g>
</svg>
