<?xml version="1.0" encoding="UTF-8" standalone="no"?>
<!-- Generator: Adobe Illustrator 27.0.0, SVG Export Plug-In . SVG Version: 6.00 Build 0)  -->

<svg
   version="1.1"
   id="Ebene_1"
   x="0px"
   y="0px"
   viewBox="0 0 48 48"
   style="enable-background:new 0 0 48 48;"
   xml:space="preserve"
   sodipodi:docname="money.svg"
   inkscape:version="1.2.1 (9c6d41e410, 2022-07-14)"
   xmlns:inkscape="http://www.inkscape.org/namespaces/inkscape"
   xmlns:sodipodi="http://sodipodi.sourceforge.net/DTD/sodipodi-0.dtd"
   xmlns="http://www.w3.org/2000/svg"
   xmlns:svg="http://www.w3.org/2000/svg"><defs
   id="defs8" /><sodipodi:namedview
   id="namedview6"
   pagecolor="#505050"
   bordercolor="#eeeeee"
   borderopacity="1"
   inkscape:showpageshadow="0"
   inkscape:pageopacity="0"
   inkscape:pagecheckerboard="0"
   inkscape:deskcolor="#505050"
   showgrid="false"
   inkscape:zoom="4.9166667"
   inkscape:cx="24"
   inkscape:cy="24.101695"
   inkscape:window-width="1500"
   inkscape:window-height="930"
   inkscape:window-x="-6"
   inkscape:window-y="-6"
   inkscape:window-maximized="1"
   inkscape:current-layer="Ebene_1" />
<g
   transform="matrix(1, 0, 0, 1, 0, 0)"
   id="g3">
	<path
   id="Icon_awesome-coins-2"
   d="m 1.7,37 v 3.7 c 0,3.1 7.5,5.6 16.7,5.6 9.2,0 16.7,-2.5 16.7,-5.6 V 37 C 31.5,39.5 24.9,40.7 18.4,40.7 11.9,40.7 5.3,39.5 1.7,37 Z M 29.6,12.9 c 9.2,0 16.7,-2.5 16.7,-5.6 0,-3.1 -7.5,-5.6 -16.7,-5.6 -9.2,0 -16.7,2.5 -16.7,5.6 0,3.1 7.4,5.6 16.7,5.6 z m -27.9,15 v 4.5 c 0,3.1 7.5,5.6 16.7,5.6 9.2,0 16.7,-2.5 16.7,-5.6 v -4.5 c -3.6,3 -10.2,4.5 -16.7,4.5 -6.5,0 -13.1,-1.6 -16.7,-4.5 z m 36.2,0.9 c 5,-1 8.4,-2.8 8.4,-4.8 v -3.7 c -2.5,1.6 -5.4,2.6 -8.4,3 z M 18.4,15.6 c -9.2,0 -16.7,3.1 -16.7,7 0,3.9 7.5,7 16.7,7 9.2,0 16.7,-3.1 16.7,-7 0,-3.9 -7.4,-7 -16.7,-7 z m 19.1,4.9 c 5.2,-0.9 8.8,-2.8 8.8,-4.9 v -3.7 c -3.1,2.2 -8.4,3.4 -14,3.6 2.3,1 4.2,2.8 5.2,5 z" />
</g>
</svg>
