<?xml version="1.0" encoding="UTF-8" standalone="no"?>
<!-- Generator: Adobe Illustrator 19.0.0, SVG Export Plug-In . SVG Version: 6.00 Build 0)  -->

<svg
   version="1.1"
   id="Layer_1"
   x="0px"
   y="0px"
   viewBox="0 0 512 512"
   style="enable-background:new 0 0 512 512;"
   xml:space="preserve"
   sodipodi:docname="monsters.svg"
   inkscape:version="1.2.1 (9c6d41e410, 2022-07-14)"
   xmlns:inkscape="http://www.inkscape.org/namespaces/inkscape"
   xmlns:sodipodi="http://sodipodi.sourceforge.net/DTD/sodipodi-0.dtd"
   xmlns="http://www.w3.org/2000/svg"
   xmlns:svg="http://www.w3.org/2000/svg"><defs
   id="defs63" /><sodipodi:namedview
   id="namedview61"
   pagecolor="#505050"
   bordercolor="#eeeeee"
   borderopacity="1"
   inkscape:showpageshadow="0"
   inkscape:pageopacity="0"
   inkscape:pagecheckerboard="0"
   inkscape:deskcolor="#505050"
   showgrid="false"
   inkscape:zoom="0.4609375"
   inkscape:cx="256"
   inkscape:cy="257.08475"
   inkscape:window-width="1500"
   inkscape:window-height="930"
   inkscape:window-x="-6"
   inkscape:window-y="-6"
   inkscape:window-maximized="1"
   inkscape:current-layer="Layer_1" />
<g
   id="g22">
	<g
   id="g20">
		
	</g>
</g>
<g
   id="g28">
	<g
   id="g26">
		<path
   id="path24"
   d="m 418.265,117.344 22.177,-22.179 c 6.529,3.119 13.752,5.009 21.471,5.009 C 489.575,100.174 512,77.75 512,50.087 512,22.424 489.576,0 461.913,0 434.25,0 411.826,22.424 411.826,50.087 c 0,7.718 1.89,14.94 5.009,21.471 L 389.092,99.3 C 350.286,78.679 304.711,66.783 256,66.783 207.289,66.783 161.714,78.679 122.909,99.3 L 95.165,71.558 c 3.119,-6.53 5.009,-13.753 5.009,-21.471 C 100.174,22.424 77.749,0 50.087,0 22.425,0 0,22.424 0,50.087 c 0,27.663 22.424,50.087 50.087,50.087 7.718,0 14.94,-1.89 21.471,-5.009 l 22.177,22.177 C 36.543,158.204 0,220.156 0,289.391 0,412.135 114.843,512 256,512 397.157,512 512,412.135 512,289.391 512,220.156 475.457,158.204 418.265,117.344 Z M 322.783,445.217 H 200.348 c -9.223,0 -16.696,-7.473 -16.696,-16.696 0,-9.223 7.473,-16.696 16.696,-16.696 h 122.435 c 9.223,0 16.696,7.473 16.696,16.696 -10e-4,9.223 -7.474,16.696 -16.696,16.696 z M 256,378.435 c -67.51,0 -122.435,-54.934 -122.435,-122.435 0,-67.501 54.924,-122.435 122.435,-122.435 67.511,0 122.435,54.934 122.435,122.435 0,67.501 -54.924,122.435 -122.435,122.435 z m 0,-178.087 c -30.736,0 -55.652,24.917 -55.652,55.652 0,30.735 24.917,55.652 55.652,55.652 30.735,0 55.652,-24.917 55.652,-55.652 0,-30.735 -24.916,-55.652 -55.652,-55.652 z M 272.696,256 C 263.488,256 256,248.508 256,239.304 c 0,-9.204 7.487,-16.696 16.696,-16.696 9.208,0 16.696,7.492 16.696,16.696 -10e-4,9.204 -7.488,16.696 -16.696,16.696 z" />
	</g>
</g>
<g
   id="g30">
</g>
<g
   id="g32">
</g>
<g
   id="g34">
</g>
<g
   id="g36">
</g>
<g
   id="g38">
</g>
<g
   id="g40">
</g>
<g
   id="g42">
</g>
<g
   id="g44">
</g>
<g
   id="g46">
</g>
<g
   id="g48">
</g>
<g
   id="g50">
</g>
<g
   id="g52">
</g>
<g
   id="g54">
</g>
<g
   id="g56">
</g>
<g
   id="g58">
</g>
</svg>
