<?xml version="1.0" encoding="UTF-8" standalone="no"?>
<svg
   height="48"
   width="48"
   version="1.1"
   id="svg67"
   sodipodi:docname="motherhood.svg"
   inkscape:version="1.2.1 (9c6d41e410, 2022-07-14)"
   xmlns:inkscape="http://www.inkscape.org/namespaces/inkscape"
   xmlns:sodipodi="http://sodipodi.sourceforge.net/DTD/sodipodi-0.dtd"
   xmlns="http://www.w3.org/2000/svg"
   xmlns:svg="http://www.w3.org/2000/svg">
  <defs
     id="defs71" />
  <sodipodi:namedview
     id="namedview69"
     pagecolor="#505050"
     bordercolor="#eeeeee"
     borderopacity="1"
     inkscape:showpageshadow="0"
     inkscape:pageopacity="0"
     inkscape:pagecheckerboard="0"
     inkscape:deskcolor="#505050"
     showgrid="false"
     inkscape:zoom="4.9166667"
     inkscape:cx="24"
     inkscape:cy="24.101695"
     inkscape:window-width="1500"
     inkscape:window-height="930"
     inkscape:window-x="-6"
     inkscape:window-y="-6"
     inkscape:window-maximized="1"
     inkscape:current-layer="svg67" />
  <path
     id="path65"
     d="M 4.15,46 V 23.95 L 7.3,14.6 q 0.5,-1.4 1.65,-2.175 1.15,-0.775 2.5,-0.775 0.45,0 0.925,0.1 0.475,0.1 0.875,0.25 l 8.25,3.65 h 5.35 v 4.7 h -6.4 L 15.3,18.1 12.85,25.55 V 46 Z M 18.1,41.25 V 36.5 h 25.8 v 4.75 z M 40.3,34 Q 38.85,34 37.775,32.95 36.7,31.9 36.7,30.4 q 0,-1.45 1.075,-2.5 1.075,-1.05 2.575,-1.05 1.45,0 2.5,1.05 1.05,1.05 1.05,2.5 0,1.5 -1.05,2.55 Q 41.8,34 40.3,34 Z M 26.2,33.5 q -1.95,0 -3.025,-1.1 Q 22.1,31.3 22.1,29.35 V 27.5 h -4 v -4.15 h 5.75 q 1,0 1.675,0.675 Q 26.2,24.7 26.2,25.7 v 1.65 h 4.9 v -4 h 4.1 v 6 q 0,2 -1.075,3.075 Q 33.05,33.5 31.1,33.5 Z M 15.25,8.75 q -1.75,0 -3,-1.275 Q 11,6.2 11,4.45 q 0,-1.7 1.25,-2.95 1.25,-1.25 3,-1.25 1.7,0 2.95,1.25 1.25,1.25 1.25,3 0,1.7 -1.225,2.975 Q 17,8.75 15.25,8.75 Z" />
</svg>
