<?xml version="1.0" encoding="UTF-8" standalone="no"?>
<svg
   height="48"
   width="48"
   version="1.1"
   id="svg91"
   sodipodi:docname="musical.svg"
   inkscape:version="1.2.1 (9c6d41e410, 2022-07-14)"
   xmlns:inkscape="http://www.inkscape.org/namespaces/inkscape"
   xmlns:sodipodi="http://sodipodi.sourceforge.net/DTD/sodipodi-0.dtd"
   xmlns="http://www.w3.org/2000/svg"
   xmlns:svg="http://www.w3.org/2000/svg">
  <defs
     id="defs95" />
  <sodipodi:namedview
     id="namedview93"
     pagecolor="#505050"
     bordercolor="#eeeeee"
     borderopacity="1"
     inkscape:showpageshadow="0"
     inkscape:pageopacity="0"
     inkscape:pagecheckerboard="0"
     inkscape:deskcolor="#505050"
     showgrid="false"
     inkscape:zoom="4.9166667"
     inkscape:cx="24"
     inkscape:cy="24.101695"
     inkscape:window-width="1500"
     inkscape:window-height="930"
     inkscape:window-x="-6"
     inkscape:window-y="-6"
     inkscape:window-maximized="1"
     inkscape:current-layer="svg91" />
  <path
     id="path89"
     d="M 2.45,46.35 V 7.75 q 0,-2 1.35,-3.375 Q 5.15,3 7.15,3 h 22.5 q 2,0 3.375,1.375 Q 34.4,5.75 34.4,7.75 v 3 q -2.7,1.1 -4.3,3.5 -1.6,2.4 -1.6,5.25 0,2.85 1.6,5.25 1.6,2.4 4.3,3.45 v 4.05 q 0,2 -1.375,3.35 -1.375,1.35 -3.375,1.35 H 11.8 Z m 8.2,-17.75 h 9.5 v -3.95 h -9.5 z M 38,25.5 q -2.5,0 -4.25,-1.75 Q 32,22 32,19.5 32,17 33.75,15.25 35.5,13.5 38,13.5 q 0.35,0 0.85,0.1 0.5,0.1 1.15,0.3 V 3 h 8.5 V 7 H 44 v 12.5 q 0,2.55 -1.75,4.275 Q 40.5,25.5 38,25.5 Z M 10.65,22 h 15.5 v -4 h -15.5 z m 0,-6.65 h 15.5 v -4 h -15.5 z" />
</svg>
