<?xml version="1.0" encoding="UTF-8" standalone="no"?>
<svg
   height="48"
   width="48"
   version="1.1"
   id="svg83"
   sodipodi:docname="mystery.svg"
   inkscape:version="1.2.1 (9c6d41e410, 2022-07-14)"
   xmlns:inkscape="http://www.inkscape.org/namespaces/inkscape"
   xmlns:sodipodi="http://sodipodi.sourceforge.net/DTD/sodipodi-0.dtd"
   xmlns="http://www.w3.org/2000/svg"
   xmlns:svg="http://www.w3.org/2000/svg">
  <defs
     id="defs87" />
  <sodipodi:namedview
     id="namedview85"
     pagecolor="#505050"
     bordercolor="#eeeeee"
     borderopacity="1"
     inkscape:showpageshadow="0"
     inkscape:pageopacity="0"
     inkscape:pagecheckerboard="0"
     inkscape:deskcolor="#505050"
     showgrid="false"
     inkscape:zoom="4.9166667"
     inkscape:cx="24"
     inkscape:cy="24.101695"
     inkscape:window-width="1500"
     inkscape:window-height="930"
     inkscape:window-x="-6"
     inkscape:window-y="-6"
     inkscape:window-maximized="1"
     inkscape:current-layer="svg83" />
  <path
     id="path81"
     d="M 20.95,31.3 Q 21,26.95 21.975,24.85 22.95,22.75 25.25,21.05 27.2,19.5 28.125,18 29.05,16.5 29.05,14.7 29.05,12.75 27.775,11.475 26.5,10.2 24.3,10.2 q -2.3,0 -3.75,1.3 -1.45,1.3 -2.15,3.35 l -6,-2.6 q 1.35,-3.7 4.35,-6.025 3,-2.325 7.55,-2.325 5.45,0 8.4,3.1 2.95,3.1 2.95,7.55 0,3 -1.05,5.275 -1.05,2.275 -3.35,4.275 -2.3,2 -2.85,3.275 -0.55,1.275 -0.55,3.925 z m 3.35,14.1 q -1.95,0 -3.3,-1.35 -1.35,-1.35 -1.35,-3.25 0,-1.95 1.35,-3.3 1.35,-1.35 3.3,-1.35 1.95,0 3.3,1.35 1.35,1.35 1.35,3.3 0,1.9 -1.35,3.25 -1.35,1.35 -3.3,1.35 z" />
</svg>
