<?xml version="1.0" encoding="utf-8"?>
<!-- Generator: Adobe Illustrator 26.5.0, SVG Export Plug-In . SVG Version: 6.00 Build 0)  -->
<svg version="1.1" id="Ebene_1" xmlns="http://www.w3.org/2000/svg" xmlns:xlink="http://www.w3.org/1999/xlink" x="0px" y="0px"
	 viewBox="0 0 48 48" style="enable-background:new 0 0 48 48;" xml:space="preserve">
<path d="M24.3,44v-3.8h4.9V44H24.3z M14.9,44v-5.3h-12L9.7,29H6.2l11.2-15.8L28.5,29H25l6.9,9.7h-12V44H14.9z M33.7,38.7l-5.8-8.2
	h3.5l-8.4-12l3.7-5.3L37.9,29h-3.5l6.8,9.7H33.7z"/>
<path d="M37,19.1l0.8-5.9h-3c-0.2,0-0.3-0.1-0.4-0.2c-0.1-0.1-0.1-0.3,0-0.4L39.5,4h0.8l-0.8,5.9h3c0.1,0,0.3,0.1,0.3,0.2
	c0.1,0.1,0.1,0.3,0,0.4l-5.1,8.6H37z"/>
</svg>
