<?xml version="1.0" encoding="UTF-8" standalone="no"?>
<!-- Generator: Adobe Illustrator 26.5.0, SVG Export Plug-In . SVG Version: 6.00 Build 0)  -->

<svg
   version="1.1"
   id="Ebene_1"
   x="0px"
   y="0px"
   viewBox="0 0 48 48"
   style="enable-background:new 0 0 48 48;"
   xml:space="preserve"
   sodipodi:docname="natural-disaster.svg"
   inkscape:version="1.2.1 (9c6d41e410, 2022-07-14)"
   xmlns:inkscape="http://www.inkscape.org/namespaces/inkscape"
   xmlns:sodipodi="http://sodipodi.sourceforge.net/DTD/sodipodi-0.dtd"
   xmlns="http://www.w3.org/2000/svg"
   xmlns:svg="http://www.w3.org/2000/svg"><defs
   id="defs112" /><sodipodi:namedview
   id="namedview110"
   pagecolor="#505050"
   bordercolor="#eeeeee"
   borderopacity="1"
   inkscape:showpageshadow="0"
   inkscape:pageopacity="0"
   inkscape:pagecheckerboard="0"
   inkscape:deskcolor="#505050"
   showgrid="false"
   inkscape:zoom="4.9166667"
   inkscape:cx="24"
   inkscape:cy="24.101695"
   inkscape:window-width="1500"
   inkscape:window-height="930"
   inkscape:window-x="-6"
   inkscape:window-y="-6"
   inkscape:window-maximized="1"
   inkscape:current-layer="Ebene_1" />

<path
   id="path107"
   d="m 37,19.1 0.8,-5.9 h -3 c -0.2,0 -0.3,-0.1 -0.4,-0.2 -0.1,-0.1 -0.1,-0.3 0,-0.4 L 39.5,4 h 0.8 l -0.8,5.9 h 3 c 0.1,0 0.3,0.1 0.3,0.2 0.1,0.1 0.1,0.3 0,0.4 l -5.1,8.6 z M 24.3,44 v -3.8 h 4.9 V 44 Z m -9.4,0 V 38.7 H 2.9 L 9.7,29 H 6.2 L 17.4,13.2 28.5,29 H 25 l 6.9,9.7 h -12 V 44 Z m 18.8,-5.3 -5.8,-8.2 h 3.5 L 23,18.5 26.7,13.2 37.9,29 h -3.5 l 6.8,9.7 z" />
</svg>
