<?xml version="1.0" encoding="utf-8"?>
<!-- Generator: Adobe Illustrator 26.5.0, SVG Export Plug-In . SVG Version: 6.00 Build 0)  -->
<svg version="1.1" id="Ebene_1" xmlns="http://www.w3.org/2000/svg" xmlns:xlink="http://www.w3.org/1999/xlink" x="0px" y="0px"
	 viewBox="0 0 48 48" style="enable-background:new 0 0 48 48;" xml:space="preserve">
<g>
	<path d="M29.4,7.6c0.8,0.8,1.8,1.2,3,1.2c1.2,0,2.2-0.4,3-1.2c0.8-0.8,1.2-1.8,1.2-3c0-0.3,0-0.6-0.1-0.9l-8.3,1.7
		C28.4,6.3,28.8,7,29.4,7.6z"/>
	<path d="M35.4,1.7c-0.8-0.8-1.8-1.2-3-1.2c-1.2,0-2.2,0.4-3,1.2c-0.7,0.7-1.1,1.5-1.2,2.4L36,2.5C35.9,2.2,35.7,1.9,35.4,1.7z"/>
	<path d="M22.2,17.8c1.2,0,2.2-0.4,3-1.2c0.4-0.4,0.7-0.9,0.9-1.5l-7.9-2.9C18,12.6,18,13,18,13.5c0,1.2,0.4,2.2,1.2,3
		C20,17.3,21,17.8,22.2,17.8z"/>
	<path d="M21.7,22.5l-4.2-4c-0.4-0.4-0.8-0.7-1.3-0.9s-1-0.4-1.5-0.4s-1,0.1-1.5,0.3s-1,0.5-1.3,0.9l-6.2,6.7
		c-0.5,0.5-0.9,1.2-1.1,2c-0.2,0.8-0.2,1.6,0.2,2.5L6.8,36L0,43.7l3.3,2.6l7.7-9v-4.5l3.5,3.1V46h4.1V33.8L13,29.2l4.7-4.8l1.4,1.5
		c1.3,1.3,2.8,2.3,4.3,2.8s3.1,0.8,4.8,0.8v-4.2c-1.3,0-2.4-0.1-3.2-0.4C24.2,24.6,23.1,23.8,21.7,22.5z"/>
	<path d="M26.3,13.5c0-1.2-0.4-2.2-1.2-3c-0.8-0.8-1.8-1.2-3-1.2c-1.2,0-2.2,0.4-3,1.2c-0.1,0.1-0.2,0.3-0.3,0.4l7.5,2.7
		C26.3,13.6,26.3,13.6,26.3,13.5z"/>
	<path d="M48,25v-9.5l-9.9-4.3c-1-0.5-2-0.6-3.1-0.4c-1.1,0.2-2,0.8-2.6,1.8l-2,3.4c-1.1,1.8-2.3,3.1-3.6,3.9
		c-1.3,0.8-2.8,1.4-4.5,1.7c0.6,0.7,1.2,1.2,1.7,1.6c0.5,0.4,1.1,0.7,1.8,1c1.1-0.2,2.2-0.7,3.2-1.4s2.2-1.9,3.4-3.5l1.6,9l-4.5,4.5
		V46h4.1V35l3.9-4.1L40.9,46H45l-5-29.6l3.8,1.7V25H48z"/>
</g>
<path d="M28.7,4.8c0,0.1,0.1,0.1,0.1,0.2c0.2,0.2,0.6,0.2,0.8,0c0.2-0.2,0.2-0.6,0-0.8c-0.1-0.1-0.1-0.1-0.2-0.1L28.7,4.8z"/>
<path d="M25.8,14.1c0,0.1-0.1,0.1-0.1,0.2c-0.2,0.2-0.6,0.2-0.8,0c-0.2-0.2-0.2-0.6,0-0.8c0.1-0.1,0.1-0.1,0.2-0.1L25.8,14.1z"/>
</svg>
