<?xml version="1.0" encoding="UTF-8" standalone="no"?>
<!-- Generator: Adobe Illustrator 26.5.0, SVG Export Plug-In . SVG Version: 6.00 Build 0)  -->

<svg
   version="1.1"
   id="Ebene_1"
   x="0px"
   y="0px"
   viewBox="0 0 48 48"
   style="enable-background:new 0 0 48 48;"
   xml:space="preserve"
   sodipodi:docname="ninjas.svg"
   inkscape:version="1.2.1 (9c6d41e410, 2022-07-14)"
   xmlns:inkscape="http://www.inkscape.org/namespaces/inkscape"
   xmlns:sodipodi="http://sodipodi.sourceforge.net/DTD/sodipodi-0.dtd"
   xmlns="http://www.w3.org/2000/svg"
   xmlns:svg="http://www.w3.org/2000/svg"><defs
   id="defs23" /><sodipodi:namedview
   id="namedview21"
   pagecolor="#505050"
   bordercolor="#eeeeee"
   borderopacity="1"
   inkscape:showpageshadow="0"
   inkscape:pageopacity="0"
   inkscape:pagecheckerboard="0"
   inkscape:deskcolor="#505050"
   showgrid="false"
   inkscape:zoom="4.9166667"
   inkscape:cx="24"
   inkscape:cy="24.101695"
   inkscape:window-width="1500"
   inkscape:window-height="930"
   inkscape:window-x="-6"
   inkscape:window-y="-6"
   inkscape:window-maximized="1"
   inkscape:current-layer="Ebene_1" />
<g
   id="g14">
	
	
	
	
	
	
</g>

<path
   id="path18"
   d="m 25.8,14.1 c 0,0.1 -0.1,0.1 -0.1,0.2 -0.2,0.2 -0.6,0.2 -0.8,0 -0.2,-0.2 -0.2,-0.6 0,-0.8 0.1,-0.1 0.1,-0.1 0.2,-0.1 z m 2.9,-9.3 c 0,0.1 0.1,0.1 0.1,0.2 0.2,0.2 0.6,0.2 0.8,0 0.2,-0.2 0.2,-0.6 0,-0.8 C 29.5,4.1 29.5,4.1 29.4,4.1 Z M 48,25 v -9.5 l -9.9,-4.3 c -1,-0.5 -2,-0.6 -3.1,-0.4 -1.1,0.2 -2,0.8 -2.6,1.8 l -2,3.4 c -1.1,1.8 -2.3,3.1 -3.6,3.9 -1.3,0.8 -2.8,1.4 -4.5,1.7 0.6,0.7 1.2,1.2 1.7,1.6 0.5,0.4 1.1,0.7 1.8,1 1.1,-0.2 2.2,-0.7 3.2,-1.4 1,-0.7 2.2,-1.9 3.4,-3.5 l 1.6,9 -4.5,4.5 V 46 h 4.1 V 35 L 37.5,30.9 40.9,46 H 45 l -5,-29.6 3.8,1.7 V 25 Z M 26.3,13.5 c 0,-1.2 -0.4,-2.2 -1.2,-3 -0.8,-0.8 -1.8,-1.2 -3,-1.2 -1.2,0 -2.2,0.4 -3,1.2 -0.1,0.1 -0.2,0.3 -0.3,0.4 l 7.5,2.7 c 0,0 0,0 0,-0.1 z m -4.6,9 -4.2,-4 c -0.4,-0.4 -0.8,-0.7 -1.3,-0.9 -0.5,-0.2 -1,-0.4 -1.5,-0.4 -0.5,0 -1,0.1 -1.5,0.3 -0.5,0.2 -1,0.5 -1.3,0.9 l -6.2,6.7 c -0.5,0.5 -0.9,1.2 -1.1,2 -0.2,0.8 -0.2,1.6 0.2,2.5 l 2,6.4 -6.8,7.7 3.3,2.6 7.7,-9 v -4.5 l 3.5,3.1 V 46 h 4.1 V 33.8 l -5.6,-4.6 4.7,-4.8 1.4,1.5 c 1.3,1.3 2.8,2.3 4.3,2.8 1.5,0.5 3.1,0.8 4.8,0.8 v -4.2 c -1.3,0 -2.4,-0.1 -3.2,-0.4 -0.8,-0.3 -1.9,-1.1 -3.3,-2.4 z m 0.5,-4.7 c 1.2,0 2.2,-0.4 3,-1.2 0.4,-0.4 0.7,-0.9 0.9,-1.5 L 18.2,12.2 C 18,12.6 18,13 18,13.5 c 0,1.2 0.4,2.2 1.2,3 0.8,0.8 1.8,1.3 3,1.3 z M 35.4,1.7 c -0.8,-0.8 -1.8,-1.2 -3,-1.2 -1.2,0 -2.2,0.4 -3,1.2 -0.7,0.7 -1.1,1.5 -1.2,2.4 L 36,2.5 C 35.9,2.2 35.7,1.9 35.4,1.7 Z m -6,5.9 c 0.8,0.8 1.8,1.2 3,1.2 1.2,0 2.2,-0.4 3,-1.2 0.8,-0.8 1.2,-1.8 1.2,-3 0,-0.3 0,-0.6 -0.1,-0.9 l -8.3,1.7 c 0.2,0.9 0.6,1.6 1.2,2.2 z" />
</svg>
