<?xml version="1.0" encoding="UTF-8" standalone="no"?>
<svg
   width="639"
   height="600"
   viewBox="0 0 639 600"
   version="1.1"
   id="svg37"
   sodipodi:docname="norse-mythology.svg"
   inkscape:version="1.2.1 (9c6d41e410, 2022-07-14)"
   xmlns:inkscape="http://www.inkscape.org/namespaces/inkscape"
   xmlns:sodipodi="http://sodipodi.sourceforge.net/DTD/sodipodi-0.dtd"
   xmlns="http://www.w3.org/2000/svg"
   xmlns:svg="http://www.w3.org/2000/svg">
  <defs
     id="defs41" />
  <sodipodi:namedview
     id="namedview39"
     pagecolor="#505050"
     bordercolor="#eeeeee"
     borderopacity="1"
     inkscape:showpageshadow="0"
     inkscape:pageopacity="0"
     inkscape:pagecheckerboard="0"
     inkscape:deskcolor="#505050"
     showgrid="false"
     inkscape:zoom="0.39333333"
     inkscape:cx="320.33898"
     inkscape:cy="301.27119"
     inkscape:window-width="1500"
     inkscape:window-height="930"
     inkscape:window-x="-6"
     inkscape:window-y="-6"
     inkscape:window-maximized="1"
     inkscape:current-layer="svg37" />
  <title
     id="title33">Spiral triskelion (formed from mathematical Archimedean spirals), occasionally used as a Christian Trinitarian symbol</title>
  <path
     id="path35"
     transform="translate(-5.5,710.5) scale(0.1065,-0.1065)"
     d="m 4627.24,2660.02 c -10.93,-0.57 -23.85,2.24 -33.62,7.15 -10.43,5.23 -20.89,14.55 -27.64,24.06 -7.51,10.59 -13.16,25 -15.38,37.79 -2.52,14.54 -1.65,31.96 1.75,46.32 3.88,16.37 12.22,34.3 21.78,48.14 10.84,15.71 26.77,31.43 42.31,42.51 17.52,12.48 40.22,23.25 60.83,29.4 23.01,6.87 50.81,10.28 74.82,9.66 26.58,-0.69 57.02,-6.46 82.16,-15.12 27.63,-9.52 57.67,-25.47 81.28,-42.69 25.77,-18.79 52.07,-44.95 71.33,-70.37 20.89,-27.58 40.11,-62.89 52.31,-95.26 13.17,-34.92 22.33,-77.29 25.18,-114.5 3.05,-39.94 -0.16,-86.35 -8.31,-125.57 -8.72,-41.92 -25.71,-88.64 -45.62,-126.54 -21.2,-40.35 -52.21,-83.22 -83.63,-116.25 -33.34,-35.04 -77.37,-69.84 -118.97,-94.5 -44,-26.09 -98.79,-48.91 -148.2,-62.13 -52.11,-13.95 -114.23,-21.55 -168.17,-20.95 -56.75,0.62 -121.83,10.46 -176.33,26.28 -57.19,16.61 -120.24,44.83 -170.91,76.11 -53.06,32.77 -108.8,78.86 -151.22,124.58 -44.32,47.78 -87.66,109.71 -117.68,167.56 -31.32,60.36 -57.75,134.64 -71.94,201.14 -14.78,69.26 -20.82,151.16 -16.73,221.85 4.26,73.52 20.72,157.31 44.26,227.08 24.45,72.46 63.91,151.85 106.61,215.29 44.28,65.78 105.46,134.4 165.51,186.18 62.2,53.63 142.04,105.5 216.17,140.86 76.68,36.59 170.48,66.63 254.08,81.76 86.39,15.63 188.06,20.11 275.52,12.5 90.29,-7.86 192.78,-30.95 277.84,-62.23 87.72,-32.27 183.47,-82.97 259.65,-137.1 78.51,-55.79 160.02,-132.06 221.15,-206.46 62.95,-76.6 123.36,-174.35 164.05,-264.76 41.85,-93 75.51,-206.31 91.56,-307.02 16.5,-103.52 19.43,-224.98 8.28,-329.21 -11.45,-107.05 -41.17,-228.25 -80.2,-328.58 -40.07,-102.99 -102.02,-215.09 -167.6,-304.03 -67.28,-91.23 -158.64,-185.63 -247.4,-256.12 -90.99,-72.26 -206.66,-141.22 -313.36,-187.22 -109.31,-47.13 -242.14,-84.41 -359.96,-101.38 -120.64,-17.38 -261.89,-18.75 -382.88,-4.05 -123.82,15.03 -263.73,51.37 -379.34,98.17 -118.25,47.87 -246.72,121.06 -348.4,198.1 -103.96,78.76 -211.25,185.22 -291.09,288.34 -81.58,105.38 -159.09,238.96 -210.4,361.96 -52.41,125.61 -93.31,277.96 -111.19,412.9 -16.66,112.11 -52.74,238.44 -98.1,342.31 -44.23,101.27 -110.35,210.97 -179.5,297.16 -67.37,83.98 -157.48,170.31 -244.46,233.75 -84.69,61.77 -191.34,119.97 -289.24,157.43 -95.24,36.46 -210.21,63.96 -311.67,74.22 -98.64,9.97 -213.5,6.52 -311.31,-9.69 -95.01,-15.74 -201.81,-48.2 -289.37,-88.29 -84.98,-38.91 -176.77,-96.48 -248.57,-156.32 -69.617,-58.02 -140.856,-135.23 -192.807,-209.49 -50.325,-71.94 -97.278,-162.24 -126.936,-244.87 -28.701,-79.96 -49.58,-176.22 -56.241,-260.91 -6.438,-81.88 -1.434,-176.96 13.91,-257.64 14.816,-77.9 43.656,-165.19 78.482,-236.43 33.584,-68.7 82.61,-142.57 133.137,-199.97 48.66,-55.27 112.987,-111.42 174.525,-151.87 59.18,-38.89 133.13,-74.6 200.49,-96.44 64.69,-20.96 142.24,-35.21 210.17,-38.26 65.11,-2.93 140.41,3.64 203.96,18.13 60.8,13.87 128.58,39.1 183.49,68.67 52.43,28.24 108.39,68.73 151.37,109.96 40.95,39.28 82.01,90.73 110.92,139.56 27.49,46.42 51.97,104.02 65.95,156.12 13.25,49.4 20.88,108.26 20.29,159.41 -0.56,48.36 -8.68,103.89 -22.36,150.28 -12.89,43.72 -34.51,92.02 -58.85,130.55 -22.87,36.2 -54.84,74.27 -86.78,102.77 -29.89,26.67 -68.48,52.66 -104.6,69.99 -33.64,16.14 -74.92,29.39 -111.74,35.44 -34.14,5.62 -74.33,6.63 -108.66,2.33 -31.64,-3.97 -67.45,-13.66 -96.6,-26.59 -26.72,-11.84 -55.56,-29.87 -77.62,-49.04 -20.07,-17.45 -40.28,-40.92 -54.17,-63.6 -12.54,-20.48 -23.49,-46.27 -29.04,-69.63 -4.98,-20.92 -7.01,-45.97 -4.95,-67.37 1.82,-19 7.47,-40.65 15.65,-57.9 7.21,-15.2 18.57,-31.39 30.81,-42.93 10.73,-10.12 25.38,-19.59 39.23,-24.67 12.19,-4.48 27.49,-6.79 40.42,-5.58 11.61,1.09 24.91,5.49 34.66,11.9 9.14,6.01 18.03,15.8 23,25.54 4.96,9.75 13.86,19.54 23,25.55 9.74,6.41 23.04,10.81 34.66,11.9 12.93,1.21 28.22,-1.11 40.41,-5.58 13.85,-5.08 28.51,-14.55 39.24,-24.67 12.24,-11.54 23.6,-27.73 30.81,-42.93 8.18,-17.25 13.82,-38.9 15.65,-57.9 2.05,-21.41 0.02,-46.46 -4.95,-67.37 -5.56,-23.37 -16.51,-49.15 -29.05,-69.63 -13.88,-22.68 -34.1,-46.15 -54.17,-63.6 -22.06,-19.17 -50.9,-37.2 -77.61,-49.04 -29.16,-12.93 -64.96,-22.62 -96.61,-26.59 -34.32,-4.3 -74.52,-3.29 -108.65,2.32 -36.83,6.06 -78.1,19.31 -111.75,35.45 -36.12,17.33 -74.7,43.32 -104.59,69.99 -31.95,28.5 -63.91,66.57 -86.78,102.77 -24.35,38.53 -45.97,86.83 -58.86,130.55 -13.68,46.39 -21.8,101.92 -22.36,150.28 -0.59,51.15 7.04,110.01 20.3,159.41 13.98,52.1 38.45,109.7 65.94,156.12 28.92,48.83 69.98,100.27 110.93,139.56 42.97,41.23 98.93,81.72 151.37,109.96 54.9,29.57 122.69,54.8 183.49,68.67 63.54,14.49 138.84,21.06 203.96,18.13 67.93,-3.05 145.47,-17.3 210.16,-38.27 67.37,-21.83 141.31,-57.54 200.49,-96.44 61.54,-40.44 125.87,-96.59 174.53,-151.86 50.53,-57.4 99.55,-131.27 133.14,-199.97 34.82,-71.24 63.66,-158.53 78.48,-236.43 15.34,-80.68 20.35,-175.76 13.91,-257.64 -6.66,-84.7 -27.54,-180.95 -56.24,-260.91 -29.66,-82.64 -76.61,-172.93 -126.94,-244.87 -51.95,-74.26 -123.19,-151.47 -192.81,-209.49 -71.8,-59.84 -163.58,-117.41 -248.56,-156.32 -87.56,-40.09 -194.37,-72.55 -289.38,-88.29 -97.8,-16.21 -212.67,-19.66 -311.31,-9.69 -101.46,10.26 -216.42,37.76 -311.67,74.21 -97.893,37.47 -204.545,95.67 -289.233,157.44 -86.984,63.44 -177.089,149.77 -244.463,233.75 -69.153,86.19 -135.267,195.89 -179.497,297.16 -45.367,103.87 -81.44,230.2 -98.105,342.31 -17.084,114.93 -18.972,249.59 -5.461,364.99 13.841,118.23 47.973,251.9 92.186,362.42 45.269,113.16 114.709,236.18 187.929,333.61 74.93,99.71 176.357,202.71 274.694,279.43 100.581,78.48 228.2,153.14 345.76,202.68 120.18,50.65 266.02,90.34 395.25,107.92 132.05,17.96 286.5,18.29 418.66,1.23 135,-17.42 287.38,-58.18 413.18,-110.16 105.43,-41.62 232.86,-73.54 345.5,-86.19 109.82,-12.33 237.87,-9.92 347.1,6.87 106.41,16.36 226.23,51.22 324.66,94.83 95.84,42.46 199.57,105.73 280.96,171.77 79.19,64.26 160.5,150.07 220.11,232.81 57.95,80.44 112.4,181.64 147.27,274.45 33.86,90.15 59.16,198.87 68.22,294.75 8.79,93.05 4.83,201.32 -11.09,293.42 -15.44,89.3 -46.69,189.6 -85.03,271.72 -37.13,79.56 -91.86,165.37 -148.59,232.37 -54.9,64.83 -127.82,131.04 -197.84,179.16 -67.68,46.51 -152.53,89.72 -230.07,116.77 -74.87,26.12 -164.89,44.79 -244,50.25 -76.29,5.26 -164.77,-0.26 -239.74,-15.32 -72.2,-14.5 -152.99,-42.13 -218.79,-75.21 -63.27,-31.8 -131.17,-77.98 -183.76,-125.41 -50.5,-45.54 -101.62,-105.57 -138.23,-162.87 -35.08,-54.93 -67.05,-123.42 -86.27,-185.7 -18.39,-59.59 -30.44,-130.91 -32.28,-193.25 -1.75,-59.52 5.33,-128.23 19.55,-186.06 13.54,-55.11 37.57,-116.39 65.39,-165.85 26.46,-47.01 64.1,-97.01 102.24,-135.17 36.15,-36.18 83.31,-72.22 127.9,-97.28 42.16,-23.69 94.32,-44.43 141.33,-55.78 44.31,-10.69 96.94,-16.12 142.49,-14.3 42.78,1.71 91.73,10.35 132.39,23.77 38.04,12.55 79.84,32.97 112.91,55.58 30.8,21.07 62.91,50.2 86.57,79.06 21.93,26.75 42.9,61.05 56.33,92.93 12.39,29.39 21.9,65.24 25.29,96.96 3.1,29.06 1.9,63.05 -3.67,91.73 -5.08,26.11 -15.3,55.35 -27.99,78.72 -11.47,21.1 -28.33,43.47 -45.78,59.96 -15.63,14.77 -36.31,29.06 -55.87,37.98 -17.37,7.92 -38.94,13.86 -57.97,15.39 -16.76,1.36 -36.47,-0.38 -52.58,-5.21 -14.13,-4.23 -29.66,-12.19 -40.99,-21.64 -9.97,-8.32 -19.62,-20.41 -25.03,-32.22 -4.87,-10.6 -7.71,-24.32 -7.03,-35.96 0.64,-10.92 4.66,-23.52 10.62,-32.69 5.96,-9.18 9.99,-21.77 10.63,-32.7 0.67,-11.64 -2.17,-25.36 -7.03,-35.96 -5.41,-11.8 -15.07,-23.89 -25.04,-32.21 -11.32,-9.46 -26.85,-17.41 -40.98,-21.65 -16.11,-4.82 -35.82,-6.57 -52.58,-5.21 -19.03,1.54 -40.6,7.47 -57.97,15.4 -19.57,8.92 -40.25,23.2 -55.87,37.97 -17.46,16.49 -34.31,38.87 -45.78,59.96 -12.7,23.37 -22.92,52.62 -27.99,78.72 -5.58,28.69 -6.77,62.68 -3.67,91.74 3.39,31.71 12.9,67.56 25.28,96.95 13.44,31.88 34.41,66.19 56.34,92.94 23.66,28.86 55.77,57.98 86.57,79.05 33.06,22.62 74.87,43.04 112.91,55.59 40.66,13.41 89.61,22.06 132.39,23.76 45.55,1.82 98.18,-3.6 142.49,-14.3 47.01,-11.35 99.17,-32.08 141.33,-55.78 44.59,-25.06 91.74,-61.1 127.9,-97.28 38.13,-38.16 75.78,-88.15 102.23,-135.17 27.83,-49.45 51.85,-110.74 65.4,-165.84 14.22,-57.83 21.3,-126.54 19.54,-186.07 -1.84,-62.34 -13.88,-133.65 -32.27,-193.24 -19.22,-62.28 -51.19,-130.78 -86.28,-185.7 -36.6,-57.31 -87.72,-117.34 -138.22,-162.88 -52.59,-47.42 -120.49,-93.6 -183.77,-125.41 -65.79,-33.07 -146.58,-60.71 -218.78,-75.21 -74.97,-15.06 -163.46,-20.58 -239.74,-15.32 -79.11,5.46 -169.13,24.13 -244,50.25 -77.55,27.06 -162.39,70.26 -230.08,116.78 -70.02,48.11 -142.93,114.32 -197.84,179.16 -56.73,67 -111.45,152.81 -148.59,232.36 -38.33,82.12 -69.58,182.42 -85.02,271.73 -15.92,92.1 -19.88,200.37 -11.09,293.42 9.06,95.87 34.35,204.6 68.22,294.75 34.87,92.81 89.31,194.01 147.27,274.45 59.61,82.74 140.91,168.54 220.1,232.8 81.4,66.05 185.12,129.31 280.96,171.77 98.44,43.61 218.26,78.48 324.67,94.84 109.22,16.79 237.28,19.2 347.1,6.87 112.64,-12.65 240.07,-44.57 345.5,-86.2 108.07,-42.67 225.63,-108.36 318.82,-177.76 95.47,-71.1 194.17,-167.5 267.77,-261.05 75.37,-95.79 147.18,-217.43 194.95,-329.56 48.89,-114.74 87.37,-254.08 104.65,-377.6 17.67,-126.35 18.52,-274.2 2.65,-400.78 -16.23,-129.4 -54.78,-275.55 -104.17,-396.26 -50.47,-123.33 -127.41,-257.25 -208.26,-363.19 -82.59,-108.19 -194.08,-219.78 -301.99,-302.74 -88.76,-70.49 -180.13,-164.89 -247.4,-256.12 -65.58,-88.93 -127.53,-201.04 -167.6,-304.02 -39.04,-100.34 -68.75,-221.54 -80.2,-328.59 -11.15,-104.23 -8.23,-225.69 8.27,-329.21 16.06,-100.7 49.72,-214.02 91.57,-307.02 40.68,-90.4 101.1,-188.16 164.04,-264.76 61.14,-74.4 142.65,-150.67 221.15,-206.45 76.19,-54.14 171.94,-104.84 259.66,-137.11 85.06,-31.28 187.55,-54.37 277.83,-62.23 87.47,-7.61 189.14,-3.13 275.53,12.5 83.6,15.13 177.4,45.18 254.08,81.76 74.12,35.36 153.96,87.23 216.16,140.86 60.06,51.78 121.24,120.4 165.52,186.18 42.7,63.44 82.16,142.83 106.61,215.29 23.54,69.77 40,153.56 44.25,227.08 4.1,70.7 -1.95,152.59 -16.72,221.85 -14.19,66.5 -40.62,140.78 -71.94,201.14 -30.03,57.85 -73.36,119.78 -117.69,167.56 -42.41,45.72 -98.15,91.82 -151.21,124.58 -50.68,31.28 -113.72,59.51 -170.91,76.11 -54.5,15.82 -119.59,25.66 -176.33,26.28 -53.94,0.6 -116.06,-7 -168.17,-20.95 -49.42,-13.22 -104.2,-36.04 -148.2,-62.13 -41.6,-24.66 -85.64,-59.46 -118.97,-94.5 -31.42,-33.03 -62.44,-75.89 -83.64,-116.25 -19.91,-37.9 -36.9,-84.62 -45.61,-126.54 -8.15,-39.22 -11.37,-85.63 -8.31,-125.57 2.85,-37.21 12.01,-79.58 25.17,-114.5 12.21,-32.37 31.43,-67.68 52.32,-95.26 19.26,-25.42 45.55,-51.58 71.33,-70.37 23.61,-17.22 53.65,-33.17 81.28,-42.69 25.14,-8.66 55.58,-14.43 82.16,-15.12 24.01,-0.61 51.81,2.8 74.82,9.66 20.61,6.15 43.31,16.92 60.82,29.4 15.55,11.09 31.47,26.8 42.32,42.51 9.56,13.84 17.9,31.78 21.78,48.14 3.4,14.36 4.27,31.78 1.75,46.32 -2.23,12.79 -7.87,27.2 -15.38,37.79 -6.76,9.51 -17.22,18.83 -27.64,24.06 -9.78,4.91 -22.69,7.72 -33.62,7.15 z" />
</svg>
