<?xml version="1.0" encoding="UTF-8" standalone="no"?>
<!-- Generator: Adobe Illustrator 19.0.0, SVG Export Plug-In . SVG Version: 6.00 Build 0)  -->

<svg
   version="1.1"
   id="Layer_1"
   x="0px"
   y="0px"
   viewBox="0 0 510.268 510.268"
   style="enable-background:new 0 0 510.268 510.268;"
   xml:space="preserve"
   sodipodi:docname="opera.svg"
   inkscape:version="1.2.1 (9c6d41e410, 2022-07-14)"
   xmlns:inkscape="http://www.inkscape.org/namespaces/inkscape"
   xmlns:sodipodi="http://sodipodi.sourceforge.net/DTD/sodipodi-0.dtd"
   xmlns="http://www.w3.org/2000/svg"
   xmlns:svg="http://www.w3.org/2000/svg"><defs
   id="defs92" /><sodipodi:namedview
   id="namedview90"
   pagecolor="#505050"
   bordercolor="#eeeeee"
   borderopacity="1"
   inkscape:showpageshadow="0"
   inkscape:pageopacity="0"
   inkscape:pagecheckerboard="0"
   inkscape:deskcolor="#505050"
   showgrid="false"
   inkscape:zoom="0.46250205"
   inkscape:cx="255.134"
   inkscape:cy="256.21508"
   inkscape:window-width="1500"
   inkscape:window-height="930"
   inkscape:window-x="-6"
   inkscape:window-y="-6"
   inkscape:window-maximized="1"
   inkscape:current-layer="Layer_1" />
<g
   id="g57">
	<g
   id="g55">
		<g
   id="g53">
			
			
			
			
			<path
   id="path51"
   d="m 135.163,330.47 c 0.491,5.504 5.099,9.707 10.624,9.707 h 63.467 c 5.461,0 10.048,-4.139 10.624,-9.579 1.6,-15.68 2.389,-29.995 2.389,-43.755 0,-39.083 -5.653,-78.848 -16.341,-115.029 -0.747,-2.517 -2.411,-4.693 -4.651,-6.059 -38.016,-23.339 -81.515,-36.779 -125.803,-38.891 -4.032,-0.619 -8.128,2.091 -10.027,5.824 -1.899,3.733 -1.408,8.277 1.237,11.541 37.441,46.167 61.761,112.3 68.481,186.241 z m -77.782,9.707 H 102.8 c 3.029,0 5.909,-1.301 7.936,-3.52 2.027,-2.24 3.008,-5.248 2.667,-8.256 -2.581,-24.661 -7.04,-48.043 -13.205,-69.525 -0.917,-3.179 -3.285,-5.781 -6.379,-6.976 -26.773,-10.432 -54.571,-16.427 -82.645,-17.749 -4.48,-0.597 -8.128,2.091 -10.027,5.824 -1.899,3.733 -1.408,8.277 1.237,11.52 17.856,22.037 33.003,49.515 44.992,81.728 1.557,4.181 5.547,6.954 10.005,6.954 z m 442.219,64 h -10.667 v -32 c 0,-5.888 -4.779,-10.667 -10.667,-10.667 H 51.6 c -5.888,0 -10.667,4.779 -10.667,10.667 v 32 H 30.267 c -5.888,0 -10.667,4.779 -10.667,10.667 v 42.667 c 0,5.888 4.779,10.667 10.667,10.667 H 499.6 c 5.888,0 10.667,-4.779 10.667,-10.667 v -42.667 c 0,-5.888 -4.779,-10.667 -10.667,-10.667 z M 360.336,332.604 c 1.365,4.501 5.504,7.573 10.219,7.573 H 471.59 c 3.925,0 7.531,-2.155 9.387,-5.611 8.448,-15.595 17.493,-29.419 26.901,-41.003 2.667,-3.264 3.136,-7.787 1.237,-11.541 -1.899,-3.755 -5.931,-6.507 -10.027,-5.824 -47.467,2.261 -93.952,17.621 -134.421,44.416 -3.926,2.603 -5.675,7.467 -4.331,11.99 z M 243.6,286.844 c 0,13.525 -0.661,27.541 -1.984,41.685 -0.277,2.987 0.725,5.931 2.731,8.171 2.027,2.219 4.885,3.477 7.893,3.477 h 51.157 c 2.773,0 5.44,-1.088 7.424,-3.029 32.811,-31.829 70.549,-54.805 112.149,-68.288 5.141,-1.664 8.213,-6.891 7.168,-12.203 C 406.501,136.23 304.379,48.038 181.797,42.15 c -4.16,-0.491 -8.128,2.091 -10.027,5.824 -1.899,3.755 -1.408,8.277 1.237,11.541 44.865,55.297 70.593,138.134 70.593,227.329 z" />
		</g>
	</g>
</g>
<g
   id="g59">
</g>
<g
   id="g61">
</g>
<g
   id="g63">
</g>
<g
   id="g65">
</g>
<g
   id="g67">
</g>
<g
   id="g69">
</g>
<g
   id="g71">
</g>
<g
   id="g73">
</g>
<g
   id="g75">
</g>
<g
   id="g77">
</g>
<g
   id="g79">
</g>
<g
   id="g81">
</g>
<g
   id="g83">
</g>
<g
   id="g85">
</g>
<g
   id="g87">
</g>
</svg>
