<?xml version="1.0" encoding="UTF-8" standalone="no"?>
<!-- Generator: Adobe Illustrator 16.0.0, SVG Export Plug-In . SVG Version: 6.00 Build 0)  -->

<svg
   version="1.1"
   id="Capa_1"
   x="0px"
   y="0px"
   width="187.549px"
   height="187.549px"
   viewBox="0 0 187.549 187.549"
   style="enable-background:new 0 0 187.549 187.549;"
   xml:space="preserve"
   sodipodi:docname="physics.svg"
   inkscape:version="1.2.1 (9c6d41e410, 2022-07-14)"
   xmlns:inkscape="http://www.inkscape.org/namespaces/inkscape"
   xmlns:sodipodi="http://sodipodi.sourceforge.net/DTD/sodipodi-0.dtd"
   xmlns="http://www.w3.org/2000/svg"
   xmlns:svg="http://www.w3.org/2000/svg"><defs
   id="defs139" /><sodipodi:namedview
   id="namedview137"
   pagecolor="#505050"
   bordercolor="#eeeeee"
   borderopacity="1"
   inkscape:showpageshadow="0"
   inkscape:pageopacity="0"
   inkscape:pagecheckerboard="0"
   inkscape:deskcolor="#505050"
   showgrid="false"
   inkscape:zoom="1.2583378"
   inkscape:cx="93.774498"
   inkscape:cy="94.171848"
   inkscape:window-width="1500"
   inkscape:window-height="930"
   inkscape:window-x="-6"
   inkscape:window-y="-6"
   inkscape:window-maximized="1"
   inkscape:current-layer="Capa_1" />
<g
   id="g104">
	<path
   id="path102"
   d="m 160.397,93.774 c 1.596,-1.809 3.104,-3.62 4.516,-5.423 12.59,-16.217 16.166,-30.928 10.078,-41.467 -3.387,-5.857 -11.225,-12.838 -29.365,-12.838 -5.645,0 -11.904,0.774 -18.494,2.113 C 119.631,13.923 107.715,0 93.757,0 79.798,0 67.894,13.935 60.394,36.171 53.815,34.826 47.564,34.058 41.928,34.058 c -18.146,0 -25.983,6.981 -29.373,12.839 -6.083,10.533 -2.506,25.25 10.083,41.455 1.404,1.809 2.911,3.626 4.51,5.423 -1.593,1.809 -3.101,3.623 -4.51,5.42 -12.59,16.207 -16.166,30.914 -10.083,41.458 3.384,5.858 11.228,12.839 29.373,12.839 0,0 0,0 0.006,0 5.707,0 11.943,-0.751 18.483,-2.069 7.501,22.213 19.405,36.121 33.352,36.127 v 0 c 13.958,0 25.868,-13.926 33.369,-36.162 6.591,1.342 12.85,2.116 18.488,2.116 18.141,0 25.979,-6.98 29.359,-12.832 6.088,-10.533 2.518,-25.257 -10.078,-41.477 -1.406,-1.798 -2.92,-3.612 -4.51,-5.421 z M 145.626,46.151 c 9.652,0 16.344,2.403 18.873,6.792 3.376,5.81 -0.059,16.269 -9.149,27.97 -1.069,1.386 -2.252,2.766 -3.452,4.152 -5.278,-5.024 -11.183,-9.939 -17.613,-14.635 -0.857,-8.062 -2.116,-15.678 -3.795,-22.662 5.419,-1.052 10.52,-1.617 15.136,-1.617 z m -37.019,73.312 c -4.924,2.843 -9.895,5.378 -14.839,7.714 -4.944,-2.348 -9.916,-4.883 -14.836,-7.714 -4.927,-2.855 -9.658,-5.846 -14.156,-8.955 -0.423,-5.35 -0.665,-10.935 -0.665,-16.745 0,-5.689 0.225,-11.296 0.665,-16.748 4.498,-3.112 9.229,-6.1 14.156,-8.952 4.915,-2.843 9.892,-5.382 14.836,-7.716 4.944,2.349 9.909,4.885 14.839,7.716 4.924,2.852 9.67,5.852 14.168,8.952 0.414,5.358 0.656,10.938 0.656,16.748 0,5.805 -0.236,11.39 -0.65,16.745 -4.504,3.096 -9.244,6.099 -14.174,8.955 z m 12.265,6.72 c -0.62,3.736 -1.359,7.259 -2.157,10.651 -3.393,-0.999 -6.827,-2.146 -10.344,-3.458 2.099,-1.129 4.19,-2.222 6.295,-3.422 2.105,-1.229 4.161,-2.494 6.206,-3.771 z m -41.697,7.193 c -3.511,1.307 -6.954,2.453 -10.338,3.446 -0.804,-3.381 -1.543,-6.903 -2.161,-10.627 2.04,1.265 4.093,2.529 6.198,3.747 2.095,1.212 4.208,2.305 6.301,3.434 z M 52.157,101.021 c -2.888,-2.394 -5.562,-4.816 -8.13,-7.246 2.568,-2.429 5.243,-4.873 8.13,-7.247 -0.08,2.4 -0.151,4.805 -0.151,7.247 0,2.442 0.071,4.846 0.151,7.246 z m 14.531,-39.67 c 0.617,-3.667 1.374,-7.19 2.199,-10.615 3.369,1.005 6.797,2.143 10.288,3.437 -2.104,1.126 -4.211,2.222 -6.301,3.425 -2.093,1.223 -4.141,2.476 -6.186,3.753 z m 41.671,-7.179 c 3.517,-1.312 6.951,-2.453 10.344,-3.458 0.804,3.39 1.543,6.912 2.151,10.648 -2.045,-1.277 -4.096,-2.542 -6.2,-3.759 -2.092,-1.208 -4.19,-2.305 -6.295,-3.431 z m 27.03,32.371 c 2.885,2.385 5.562,4.802 8.128,7.231 -2.565,2.43 -5.243,4.858 -8.128,7.229 0.077,-2.394 0.143,-4.775 0.143,-7.229 0,-2.454 -0.066,-4.846 -0.143,-7.231 z M 74.115,34.028 C 79.7,20.3 87.051,12.105 93.762,12.105 c 7.669,0 15.796,10.072 21.606,27.021 -7.004,2.069 -14.257,4.702 -21.606,7.935 -7.318,-3.209 -14.538,-5.843 -21.536,-7.911 0.612,-1.75 1.23,-3.493 1.889,-5.122 z M 23.037,52.949 c 2.53,-4.374 9.236,-6.786 18.891,-6.786 4.617,0 9.709,0.564 15.114,1.605 -1.679,6.983 -2.938,14.6 -3.789,22.662 -6.428,4.696 -12.336,9.611 -17.614,14.635 -1.191,-1.386 -2.374,-2.766 -3.437,-4.146 -9.085,-11.713 -12.513,-22.16 -9.165,-27.97 z m 18.903,88.437 v 0 c -9.661,0 -16.367,-2.412 -18.897,-6.785 -3.36,-5.811 0.068,-16.267 9.165,-27.971 1.069,-1.383 2.246,-2.76 3.437,-4.148 5.284,5.023 11.186,9.941 17.614,14.646 0.852,8.051 2.11,15.67 3.789,22.65 -5.4,1.04 -10.483,1.608 -15.108,1.608 z m 51.834,34.057 c -7.657,-0.006 -15.773,-10.048 -21.589,-26.953 7.013,-2.068 14.259,-4.705 21.63,-7.956 7.326,3.204 14.562,5.84 21.56,7.909 -5.81,16.929 -13.926,27 -21.601,27 z m 70.725,-40.831 c -2.523,4.386 -9.215,6.785 -18.866,6.785 -4.623,0 -9.712,-0.567 -15.132,-1.607 1.679,-6.992 2.938,-14.611 3.801,-22.674 6.431,-4.699 12.323,-9.611 17.602,-14.635 1.2,1.389 2.389,2.766 3.452,4.154 9.09,11.711 12.512,22.161 9.143,27.977 z" />
</g>
<g
   id="g106">
</g>
<g
   id="g108">
</g>
<g
   id="g110">
</g>
<g
   id="g112">
</g>
<g
   id="g114">
</g>
<g
   id="g116">
</g>
<g
   id="g118">
</g>
<g
   id="g120">
</g>
<g
   id="g122">
</g>
<g
   id="g124">
</g>
<g
   id="g126">
</g>
<g
   id="g128">
</g>
<g
   id="g130">
</g>
<g
   id="g132">
</g>
<g
   id="g134">
</g>
</svg>
