<?xml version="1.0" encoding="UTF-8" standalone="no"?>
<svg
   height="48"
   width="48"
   version="1.1"
   id="svg159"
   sodipodi:docname="poetry.svg"
   inkscape:version="1.2.1 (9c6d41e410, 2022-07-14)"
   xmlns:inkscape="http://www.inkscape.org/namespaces/inkscape"
   xmlns:sodipodi="http://sodipodi.sourceforge.net/DTD/sodipodi-0.dtd"
   xmlns="http://www.w3.org/2000/svg"
   xmlns:svg="http://www.w3.org/2000/svg">
  <defs
     id="defs163" />
  <sodipodi:namedview
     id="namedview161"
     pagecolor="#505050"
     bordercolor="#eeeeee"
     borderopacity="1"
     inkscape:showpageshadow="0"
     inkscape:pageopacity="0"
     inkscape:pagecheckerboard="0"
     inkscape:deskcolor="#505050"
     showgrid="false"
     inkscape:zoom="4.9166667"
     inkscape:cx="24"
     inkscape:cy="24.101695"
     inkscape:window-width="1500"
     inkscape:window-height="930"
     inkscape:window-x="-6"
     inkscape:window-y="-6"
     inkscape:window-maximized="1"
     inkscape:current-layer="svg159" />
  <path
     id="path157"
     d="M 16.05,41.8 Q 14.1,41.8 12.725,40.4 11.35,39 11.35,37.05 v -5.4 H 18 V 25.3 q -1.75,0 -3.575,-0.7 Q 12.6,23.9 11.2,22.55 V 19.8 H 8.9 L 2.05,12.9 Q 4.1,11.2 6.65,10.025 9.2,8.85 11.85,8.85 q 1.25,0 3,0.45 1.75,0.45 3.15,1.35 v -4.5 h 25.3 v 29.1 q 0,2.7 -1.925,4.625 Q 39.45,41.8 36.75,41.8 Z M 22.7,31.65 h 12.25 v 3.6 q 0,0.85 0.5,1.325 0.5,0.475 1.3,0.475 0.8,0 1.3,-0.475 0.5,-0.475 0.5,-1.325 V 10.9 H 22.7 v 2.95 L 33.45,24.6 v 2.6 H 30.9 l -5.6,-5.65 -0.65,0.8 q -0.5,0.6 -0.95,0.9 -0.45,0.3 -1,0.6 z M 10.45,16.25 h 4.3 v 4.55 q 0.75,0.5 1.525,0.75 0.775,0.25 1.575,0.25 1.15,0 2.375,-0.675 Q 21.45,20.45 21.9,19.9 l 0.75,-0.85 -3.2,-3.25 Q 17.85,14.2 15.925,13.3 14,12.4 11.85,12.4 10.6,12.4 9.65,12.7 8.7,13 7.7,13.5 Z" />
</svg>
