<?xml version="1.0" encoding="utf-8"?>
<!-- Generator: Adobe Illustrator 26.5.0, SVG Export Plug-In . SVG Version: 6.00 Build 0)  -->
<svg version="1.1" id="Ebene_1" xmlns="http://www.w3.org/2000/svg" xmlns:xlink="http://www.w3.org/1999/xlink" x="0px" y="0px"
	 viewBox="0 0 48 48" style="enable-background:new 0 0 48 48;" xml:space="preserve">
<path d="M17,28l-1.8-1.8c0.4-0.6,0.6-1.2,0.6-2c0-0.8-0.2-1.4-0.6-2l1.8-1.8c1,1,1.4,2.2,1.4,3.8C18.4,25.8,18,27,17,28z M20.6,31.6
	l-1.8-1.8c1.4-1.5,2.1-3.4,2.1-5.6s-0.7-4.1-2.1-5.6l1.8-1.8c1,1,1.7,2.1,2.1,3.4c0.5,1.3,0.7,2.6,0.7,4c0,1.4-0.2,2.7-0.7,4
	C22.3,29.5,21.6,30.6,20.6,31.6z M7.7,25.7c-1,0-1.9-0.4-2.6-1.1S3.9,23,3.9,22c0-1.1,0.4-2,1.1-2.7c0.7-0.7,1.6-1.1,2.6-1.1
	s1.9,0.4,2.6,1.1c0.7,0.7,1.1,1.6,1.1,2.7c0,1-0.4,1.9-1.1,2.6C9.6,25.4,8.7,25.7,7.7,25.7z M0.9,33.2V32c0-0.7,0.2-1.3,0.6-1.9
	C1.8,29.5,2.4,29,3,28.7c0.7-0.3,1.4-0.5,2.2-0.7c0.8-0.2,1.6-0.2,2.4-0.2c0.8,0,1.6,0.1,2.4,0.2c0.8,0.2,1.5,0.4,2.3,0.7
	c0.7,0.3,1.2,0.8,1.5,1.4c0.4,0.6,0.6,1.2,0.6,1.9v1.2H0.9z"/>
<path d="M24.5,33.2v-1.5c0-0.7,0.3-1.2,1-1.7c0.7-0.4,1.6-0.6,2.7-0.6h0.5c-0.1,0.3-0.2,0.6-0.3,1c-0.1,0.3-0.1,0.7-0.1,1.1v1.7
	H24.5z M30,33.2v-1.7c0-1.1,0.5-2,1.6-2.6c1.1-0.7,2.5-1,4.2-1c1.7,0,3.1,0.3,4.2,1c1.1,0.7,1.6,1.5,1.6,2.6v1.7H30z M43.3,33.2
	v-1.7c0-0.4,0-0.7-0.1-1.1c-0.1-0.3-0.2-0.7-0.3-1h0.5c1.1,0,2,0.2,2.7,0.6c0.7,0.4,1,1,1,1.7v1.5H43.3z M28.3,28.8
	c-0.5,0-0.9-0.2-1.3-0.5s-0.5-0.8-0.5-1.3c0-0.5,0.2-0.9,0.5-1.2s0.8-0.5,1.2-0.5c0.5,0,0.9,0.2,1.3,0.5s0.5,0.8,0.5,1.3
	c0,0.5-0.2,0.9-0.5,1.2S28.8,28.8,28.3,28.8z M43.4,28.8c-0.5,0-0.9-0.2-1.3-0.5c-0.3-0.3-0.5-0.8-0.5-1.3c0-0.5,0.2-0.9,0.5-1.2
	c0.3-0.3,0.8-0.5,1.2-0.5c0.5,0,0.9,0.2,1.3,0.5s0.5,0.8,0.5,1.3c0,0.5-0.2,0.9-0.5,1.2S43.9,28.8,43.4,28.8z M35.8,27.2
	c-0.8,0-1.6-0.3-2.1-0.9s-0.9-1.3-0.9-2.1c0-0.8,0.3-1.6,0.9-2.1s1.3-0.9,2.1-0.9c0.8,0,1.6,0.3,2.1,0.9c0.6,0.6,0.9,1.3,0.9,2.1
	c0,0.8-0.3,1.6-0.9,2.1S36.7,27.2,35.8,27.2z"/>
</svg>
