<?xml version="1.0" encoding="UTF-8" standalone="no"?>
<!-- Generator: Adobe Illustrator 26.5.0, SVG Export Plug-In . SVG Version: 6.00 Build 0)  -->

<svg
   version="1.1"
   id="Ebene_1"
   x="0px"
   y="0px"
   viewBox="0 0 48 48"
   style="enable-background:new 0 0 48 48;"
   xml:space="preserve"
   sodipodi:docname="politics.svg"
   inkscape:version="1.2.1 (9c6d41e410, 2022-07-14)"
   xmlns:inkscape="http://www.inkscape.org/namespaces/inkscape"
   xmlns:sodipodi="http://sodipodi.sourceforge.net/DTD/sodipodi-0.dtd"
   xmlns="http://www.w3.org/2000/svg"
   xmlns:svg="http://www.w3.org/2000/svg"><defs
   id="defs9" /><sodipodi:namedview
   id="namedview7"
   pagecolor="#505050"
   bordercolor="#eeeeee"
   borderopacity="1"
   inkscape:showpageshadow="0"
   inkscape:pageopacity="0"
   inkscape:pagecheckerboard="0"
   inkscape:deskcolor="#505050"
   showgrid="false"
   inkscape:zoom="4.9166667"
   inkscape:cx="24"
   inkscape:cy="24.101695"
   inkscape:window-width="1500"
   inkscape:window-height="930"
   inkscape:window-x="-6"
   inkscape:window-y="-6"
   inkscape:window-maximized="1"
   inkscape:current-layer="Ebene_1" />

<path
   id="path4"
   d="m 24.5,33.2 v -1.5 c 0,-0.7 0.3,-1.2 1,-1.7 0.7,-0.4 1.6,-0.6 2.7,-0.6 h 0.5 c -0.1,0.3 -0.2,0.6 -0.3,1 -0.1,0.3 -0.1,0.7 -0.1,1.1 v 1.7 z m 5.5,0 v -1.7 c 0,-1.1 0.5,-2 1.6,-2.6 1.1,-0.7 2.5,-1 4.2,-1 1.7,0 3.1,0.3 4.2,1 1.1,0.7 1.6,1.5 1.6,2.6 v 1.7 z m 13.3,0 v -1.7 c 0,-0.4 0,-0.7 -0.1,-1.1 -0.1,-0.3 -0.2,-0.7 -0.3,-1 h 0.5 c 1.1,0 2,0.2 2.7,0.6 0.7,0.4 1,1 1,1.7 v 1.5 z m -15,-4.4 C 27.8,28.8 27.4,28.6 27,28.3 26.6,28 26.5,27.5 26.5,27 c 0,-0.5 0.2,-0.9 0.5,-1.2 0.3,-0.3 0.8,-0.5 1.2,-0.5 0.5,0 0.9,0.2 1.3,0.5 0.4,0.3 0.5,0.8 0.5,1.3 0,0.5 -0.2,0.9 -0.5,1.2 -0.3,0.3 -0.7,0.5 -1.2,0.5 z m 15.1,0 c -0.5,0 -0.9,-0.2 -1.3,-0.5 -0.3,-0.3 -0.5,-0.8 -0.5,-1.3 0,-0.5 0.2,-0.9 0.5,-1.2 0.3,-0.3 0.8,-0.5 1.2,-0.5 0.5,0 0.9,0.2 1.3,0.5 0.4,0.3 0.5,0.8 0.5,1.3 0,0.5 -0.2,0.9 -0.5,1.2 -0.3,0.3 -0.7,0.5 -1.2,0.5 z m -7.6,-1.6 c -0.8,0 -1.6,-0.3 -2.1,-0.9 -0.5,-0.6 -0.9,-1.3 -0.9,-2.1 0,-0.8 0.3,-1.6 0.9,-2.1 0.6,-0.5 1.3,-0.9 2.1,-0.9 0.8,0 1.6,0.3 2.1,0.9 0.6,0.6 0.9,1.3 0.9,2.1 0,0.8 -0.3,1.6 -0.9,2.1 -0.6,0.5 -1.2,0.9 -2.1,0.9 z M 17,28 15.2,26.2 c 0.4,-0.6 0.6,-1.2 0.6,-2 0,-0.8 -0.2,-1.4 -0.6,-2 L 17,20.4 c 1,1 1.4,2.2 1.4,3.8 0,1.6 -0.4,2.8 -1.4,3.8 z m 3.6,3.6 -1.8,-1.8 c 1.4,-1.5 2.1,-3.4 2.1,-5.6 0,-2.2 -0.7,-4.1 -2.1,-5.6 l 1.8,-1.8 c 1,1 1.7,2.1 2.1,3.4 0.5,1.3 0.7,2.6 0.7,4 0,1.4 -0.2,2.7 -0.7,4 -0.4,1.3 -1.1,2.4 -2.1,3.4 z M 7.7,25.7 C 6.7,25.7 5.8,25.3 5.1,24.6 4.4,23.9 3.9,23 3.9,22 c 0,-1.1 0.4,-2 1.1,-2.7 0.7,-0.7 1.6,-1.1 2.6,-1.1 1,0 1.9,0.4 2.6,1.1 0.7,0.7 1.1,1.6 1.1,2.7 0,1 -0.4,1.9 -1.1,2.6 -0.6,0.8 -1.5,1.1 -2.5,1.1 z M 0.9,33.2 V 32 C 0.9,31.3 1.1,30.7 1.5,30.1 1.8,29.5 2.4,29 3,28.7 3.7,28.4 4.4,28.2 5.2,28 6,27.8 6.8,27.8 7.6,27.8 c 0.8,0 1.6,0.1 2.4,0.2 0.8,0.2 1.5,0.4 2.3,0.7 0.7,0.3 1.2,0.8 1.5,1.4 0.4,0.6 0.6,1.2 0.6,1.9 v 1.2 H 0.9 Z" />
</svg>
