<?xml version="1.0" encoding="UTF-8" standalone="no"?>
<svg
   version="1.1"
   viewBox="0 0 263.666 263.666"
   enable-background="new 0 0 263.666 263.666"
   id="svg15"
   sodipodi:docname="post-apocalypse.svg"
   inkscape:version="1.2.1 (9c6d41e410, 2022-07-14)"
   xmlns:inkscape="http://www.inkscape.org/namespaces/inkscape"
   xmlns:sodipodi="http://sodipodi.sourceforge.net/DTD/sodipodi-0.dtd"
   xmlns="http://www.w3.org/2000/svg"
   xmlns:svg="http://www.w3.org/2000/svg">
  <defs
     id="defs19" />
  <sodipodi:namedview
     id="namedview17"
     pagecolor="#505050"
     bordercolor="#eeeeee"
     borderopacity="1"
     inkscape:showpageshadow="0"
     inkscape:pageopacity="0"
     inkscape:pagecheckerboard="0"
     inkscape:deskcolor="#505050"
     showgrid="false"
     inkscape:zoom="0.89507185"
     inkscape:cx="131.83299"
     inkscape:cy="132.39161"
     inkscape:window-width="1500"
     inkscape:window-height="930"
     inkscape:window-x="-6"
     inkscape:window-y="-6"
     inkscape:window-maximized="1"
     inkscape:current-layer="svg15" />
  <g
     id="g13">
    <path
       id="path11"
       d="m 242.202,170.456 -0.454,-0.209 c -4.136,-1.911 -9.038,-0.108 -10.949,4.028 l -3.67,7.943 -10.999,-5.082 c 10.85,-26.7 17.182,-54.554 17.182,-75.489 C 233.312,45.509 187.804,0 131.666,0 75.527,0 30.019,45.509 30.019,101.647 c 0,20.97 6.353,48.88 17.234,75.62 l -10.716,4.951 -3.67,-7.943 c -1.911,-4.137 -6.813,-5.939 -10.949,-4.028 l -0.454,0.209 c -4.137,1.912 -5.94,6.814 -4.029,10.95 l 27.894,60.367 c 1.911,4.137 6.813,5.94 10.949,4.028 l 0.454,-0.209 c 4.137,-1.911 5.94,-6.814 4.029,-10.95 l -3.67,-7.942 13.069,-6.039 c 17.077,25.043 38.388,43.005 61.506,43.005 23.153,0 44.495,-18.019 61.585,-43.123 l 13.324,6.157 -3.67,7.942 c -1.911,4.137 -0.107,9.039 4.029,10.95 l 0.454,0.209 c 4.136,1.912 9.038,0.108 10.949,-4.028 l 27.893,-60.367 c 1.913,-4.136 0.109,-9.038 -4.028,-10.95 z m -54.896,-87.01 c 14.558,0 26.359,11.802 26.359,26.36 0,14.558 -11.802,26.359 -26.359,26.359 -14.559,0 -39.141,-11.802 -39.141,-26.359 0,-14.558 24.582,-26.36 39.141,-26.36 z m -55.641,81.22 c 4.557,0 8.25,3.693 8.25,8.25 0,4.557 -3.693,8.25 -8.25,8.25 -4.557,0 -8.25,-3.693 -8.25,-8.25 0,-4.557 3.693,-8.25 8.25,-8.25 z M 76.024,83.446 c 14.559,0 39.141,11.802 39.141,26.36 0,14.558 -24.582,26.359 -39.141,26.359 -14.558,0 -26.359,-11.802 -26.359,-26.359 0,-14.558 11.802,-26.36 26.359,-26.36 z m 30.641,122.72 c -4.557,0 -8.25,-3.693 -8.25,-8.25 0,-4.557 3.693,-8.25 8.25,-8.25 4.557,0 8.25,3.693 8.25,8.25 0,4.557 -3.693,8.25 -8.25,8.25 z m 25,25 c -4.557,0 -8.25,-3.693 -8.25,-8.25 0,-4.557 3.693,-8.25 8.25,-8.25 4.557,0 8.25,3.693 8.25,8.25 0,4.557 -3.693,8.25 -8.25,8.25 z m 25,-25 c -4.557,0 -8.25,-3.693 -8.25,-8.25 0,-4.557 3.693,-8.25 8.25,-8.25 4.557,0 8.25,3.693 8.25,8.25 0,4.557 -3.693,8.25 -8.25,8.25 z" />
  </g>
</svg>
