<?xml version="1.0" encoding="UTF-8" standalone="no"?>
<svg
   height="48"
   viewBox="0 96 960 960"
   width="48"
   version="1.1"
   id="svg4"
   sodipodi:docname="price.svg"
   inkscape:version="1.2.2 (732a01da63, 2022-12-09)"
   xmlns:inkscape="http://www.inkscape.org/namespaces/inkscape"
   xmlns:sodipodi="http://sodipodi.sourceforge.net/DTD/sodipodi-0.dtd"
   xmlns="http://www.w3.org/2000/svg"
   xmlns:svg="http://www.w3.org/2000/svg">
  <defs
     id="defs8" />
  <sodipodi:namedview
     id="namedview6"
     pagecolor="#ffffff"
     bordercolor="#000000"
     borderopacity="0.25"
     inkscape:showpageshadow="2"
     inkscape:pageopacity="0.0"
     inkscape:pagecheckerboard="0"
     inkscape:deskcolor="#d1d1d1"
     showgrid="false"
     inkscape:zoom="17.270833"
     inkscape:cx="24.028951"
     inkscape:cy="24.028951"
     inkscape:window-width="1920"
     inkscape:window-height="1009"
     inkscape:window-x="-8"
     inkscape:window-y="-8"
     inkscape:window-maximized="1"
     inkscape:current-layer="svg4" />
  <path
     id="path2"
     d="m 445,863 h 67 v -48 q 59,-6 94,-36.5 Q 641,748 641,692 641,640 611.133,605.5 581.267,571 509.667,542 453,518 428.5,499 404,480 404,450 q 0,-26 20,-41.5 20,-15.5 54,-15.5 29,0 51.5,14 22.5,14 37.5,44 l 59,-27 Q 606.843,381.805 579.921,361.902 553,342 514,335.943 V 290 h -67 v 46 q -54,9 -82,41.071 -28,32.072 -28,76.539 0,52.39 33,83.89 33,31.5 102,58.5 57,24 79.5,45.054 Q 574,662.108 574,692 574,722 551,739.5 528,757 486.5,757 448,757 419,735 390,713 379,673 l -62,21 q 20,51 53.5,80 33.5,29 74.5,39.349 z m 35.138,138 Q 392,1001 314.5,968 237,935 179,877 121,819 88,741.638 55,664.276 55,576.138 55,487 88,409.5 121,332 178.843,274.447 q 57.843,-57.552 135.278,-91 Q 391.557,150 479.779,150 q 89.221,0 166.839,33.37 77.619,33.37 135.096,90.79 57.478,57.42 90.882,134.96 Q 906,486.66 906,576 q 0,88.276 -33.447,165.76 -33.448,77.483 -91,135.362 Q 724,935 646.638,968 q -77.362,33 -166.5,33 z" />
</svg>
