<?xml version="1.0" encoding="UTF-8" standalone="no"?>
<svg
   height="48"
   width="48"
   version="1.1"
   id="svg54"
   sodipodi:docname="religion.svg"
   inkscape:version="1.2.1 (9c6d41e410, 2022-07-14)"
   xmlns:inkscape="http://www.inkscape.org/namespaces/inkscape"
   xmlns:sodipodi="http://sodipodi.sourceforge.net/DTD/sodipodi-0.dtd"
   xmlns="http://www.w3.org/2000/svg"
   xmlns:svg="http://www.w3.org/2000/svg">
  <defs
     id="defs58" />
  <sodipodi:namedview
     id="namedview56"
     pagecolor="#505050"
     bordercolor="#eeeeee"
     borderopacity="1"
     inkscape:showpageshadow="0"
     inkscape:pageopacity="0"
     inkscape:pagecheckerboard="0"
     inkscape:deskcolor="#505050"
     showgrid="false"
     inkscape:zoom="4.9166667"
     inkscape:cx="24"
     inkscape:cy="24.101695"
     inkscape:window-width="1500"
     inkscape:window-height="930"
     inkscape:window-x="-6"
     inkscape:window-y="-6"
     inkscape:window-maximized="1"
     inkscape:current-layer="svg54" />
  <path
     id="path52"
     d="M 3.15,46.3 V 29.1 l 8.25,-3.65 v -6.5 L 21.65,13.7 V 9.55 h -4 v -4.7 h 4 v -4 h 4.7 v 4 h 4 v 4.7 h -4 v 4.15 l 10.25,5.25 v 6.5 l 8.25,3.65 V 46.3 H 29 v -6.65 q 0,-2 -1.5,-3.5 -1.5,-1.5 -3.5,-1.5 -2,0 -3.5,1.5 -1.5,1.5 -1.5,3.5 V 46.3 Z M 24,27.9 q 1.15,0 1.95,-0.8 0.8,-0.8 0.8,-1.95 0,-1.1 -0.8,-1.925 Q 25.15,22.4 24,22.4 q -1.15,0 -1.95,0.825 -0.8,0.825 -0.8,1.925 0,1.15 0.8,1.95 0.8,0.8 1.95,0.8 z" />
</svg>
