<?xml version="1.0" encoding="UTF-8" standalone="no"?>
<svg
   height="48"
   viewBox="0 96 960 960"
   width="48"
   version="1.1"
   id="svg4"
   sodipodi:docname="revenue.svg"
   inkscape:version="1.2.2 (732a01da63, 2022-12-09)"
   xmlns:inkscape="http://www.inkscape.org/namespaces/inkscape"
   xmlns:sodipodi="http://sodipodi.sourceforge.net/DTD/sodipodi-0.dtd"
   xmlns="http://www.w3.org/2000/svg"
   xmlns:svg="http://www.w3.org/2000/svg">
  <defs
     id="defs8" />
  <sodipodi:namedview
     id="namedview6"
     pagecolor="#ffffff"
     bordercolor="#000000"
     borderopacity="0.25"
     inkscape:showpageshadow="2"
     inkscape:pageopacity="0.0"
     inkscape:pagecheckerboard="0"
     inkscape:deskcolor="#d1d1d1"
     showgrid="false"
     inkscape:zoom="17.270833"
     inkscape:cx="24.028951"
     inkscape:cy="24.028951"
     inkscape:window-width="1920"
     inkscape:window-height="1009"
     inkscape:window-x="-8"
     inkscape:window-y="-8"
     inkscape:window-maximized="1"
     inkscape:current-layer="svg4" />
  <path
     id="path2"
     d="M 479,1039 Q 367,1039 263,976 159,913 96,832 V 959 H 14 V 685 h 274 v 82 H 151 q 51,72 143,130.5 92,58.5 185,58.5 76,0 144.5,-29 Q 692,898 744,848 796,798 827.5,729.5 859,661 860,582 h 83 Q 942,678 904.5,761.5 867,845 803.5,907 740,969 656.5,1004 573,1039 479,1039 Z M 445,863 V 813 Q 404,803 370.5,774 337,745 317,694 l 62,-21 q 11,40 40,62 29,22 68,22 41,0 64,-17.5 Q 574,722 574,692 574,662 551.5,641 529,620 472,596 403,569 370,537.5 337,506 337,454 337,410 365,377.5 393,345 447,336 v -46 h 67 v 46 q 39,6 66,26 27,20 46,62 l -59,27 Q 552,421 529.5,407 507,393 478,393 q -34,0 -54,15.5 -20,15.5 -20,41.5 0,30 24.5,49 24.5,19 81.5,43 71,29 101,63.5 30,34.5 30,86.5 0,28 -9,49.5 -9,21.5 -26,37 Q 589,794 565.5,803 542,812 512,815 v 48 z M 17,570 Q 17,477 53.5,393.5 90,310 152.5,248 215,186 299.5,149.5 384,113 480,113 592,113 697,176.5 802,240 863,320 V 193 h 83 V 467 H 672 V 385 H 809 Q 755,310 662,253 569,196 480,196 404,196 335.5,225 267,254 215,304 163,354 131.5,422.5 100,491 99,570 Z" />
</svg>
