<?xml version="1.0" encoding="UTF-8" standalone="no"?>
<svg
   height="48"
   width="48"
   version="1.1"
   id="svg70"
   sodipodi:docname="riddle.svg"
   inkscape:version="1.2.1 (9c6d41e410, 2022-07-14)"
   xmlns:inkscape="http://www.inkscape.org/namespaces/inkscape"
   xmlns:sodipodi="http://sodipodi.sourceforge.net/DTD/sodipodi-0.dtd"
   xmlns="http://www.w3.org/2000/svg"
   xmlns:svg="http://www.w3.org/2000/svg">
  <defs
     id="defs74" />
  <sodipodi:namedview
     id="namedview72"
     pagecolor="#505050"
     bordercolor="#eeeeee"
     borderopacity="1"
     inkscape:showpageshadow="0"
     inkscape:pageopacity="0"
     inkscape:pagecheckerboard="0"
     inkscape:deskcolor="#505050"
     showgrid="false"
     inkscape:zoom="4.9166667"
     inkscape:cx="24"
     inkscape:cy="24.101695"
     inkscape:window-width="1500"
     inkscape:window-height="930"
     inkscape:window-x="-6"
     inkscape:window-y="-6"
     inkscape:window-maximized="1"
     inkscape:current-layer="svg70" />
  <path
     id="path68"
     d="m 25.6,28.8 q 0.75,0 1.275,-0.5 0.525,-0.5 0.525,-1.25 0,-0.75 -0.525,-1.25 -0.525,-0.5 -1.275,-0.5 -0.75,0 -1.225,0.5 -0.475,0.5 -0.475,1.25 0,0.75 0.475,1.25 0.475,0.5 1.225,0.5 z M 24.35,24 h 2.5 q 0,-0.8 0.15,-1.225 0.15,-0.425 0.7,-1.075 0.15,-0.1 0.45,-0.45 0.3,-0.35 0.5,-0.55 0.85,-0.95 1.175,-1.675 0.325,-0.725 0.325,-1.575 0,-1.8 -1.2,-2.925 -1.2,-1.125 -3.15,-1.125 -1.7,0 -2.95,0.9 -1.25,0.9 -1.8,2.45 l 2.3,1 q 0.3,-0.95 0.925,-1.475 0.625,-0.525 1.425,-0.525 0.9,0 1.425,0.5 0.525,0.5 0.525,1.35 0,0.45 -0.225,0.9 -0.225,0.45 -0.725,0.95 -0.45,0.45 -0.9,0.825 -0.45,0.375 -0.75,0.825 -0.4,0.55 -0.55,1.25 -0.15,0.7 -0.15,1.65 z M 17.3,44.3 v -6.95 h -2.4 q -2,0 -3.35,-1.35 -1.35,-1.35 -1.35,-3.35 v -4.4 H 9.25 q -1.7,0 -2.5,-1.525 Q 5.95,25.2 6.8,23.65 l 3.4,-6.2 Q 11.65,11.8 15.95,8.025 20.25,4.25 26,4.25 q 6.55,0 11.15,4.575 4.6,4.575 4.6,11.075 0,4.45 -2.4,8.125 Q 36.95,31.7 33,33.65 V 44.3 Z" />
</svg>
