<?xml version="1.0" encoding="utf-8"?>
<!-- Generator: Adobe Illustrator 26.5.0, SVG Export Plug-In . SVG Version: 6.00 Build 0)  -->
<svg version="1.1" id="Ebene_1" xmlns="http://www.w3.org/2000/svg" xmlns:xlink="http://www.w3.org/1999/xlink" x="0px" y="0px"
	 viewBox="0 0 48 48" style="enable-background:new 0 0 48 48;" xml:space="preserve">
<g>
	<rect x="35" y="15.2" transform="matrix(0.7344 0.6788 -0.6788 0.7344 25.1826 -18.461)" width="2.4" height="15.6"/>
	<rect x="35.7" y="18.1" transform="matrix(-0.6788 0.7344 -0.7344 -0.6788 78.2569 9.9961)" width="2.4" height="7.9"/>
	<circle cx="41.5" cy="17.1" r="1.8"/>
</g>
<g>
	<rect x="10.6" y="15.2" transform="matrix(-0.7344 0.6788 -0.6788 -0.7344 36.0781 31.7652)" width="2.4" height="15.6"/>
	<rect x="9.8" y="18.1" transform="matrix(0.6788 0.7344 -0.7344 0.6788 19.7923 -1.0164)" width="2.4" height="7.9"/>
	<circle cx="6.5" cy="17.1" r="1.8"/>
</g>
<g>
	<path d="M15.2,14.5c0,2.6,0.8,4.7,2.5,6.3c1.6,1.6,3.7,2.5,6.3,2.5s4.7-0.8,6.3-2.5c1.6-1.6,2.5-3.7,2.5-6.3c0-0.3,0-0.6,0-0.8
		H15.3C15.3,14,15.2,14.3,15.2,14.5z"/>
	<path d="M32.2,11.1c-0.4-1.1-1-2-1.9-2.8c-1.7-1.6-3.8-2.5-6.3-2.5s-4.7,0.8-6.3,2.5c-0.8,0.8-1.4,1.8-1.8,2.8H32.2z"/>
	<path d="M40.2,31.9c-0.8-1.1-1.8-1.9-3.1-2.5c-2.3-1-4.5-1.8-6.6-2.3c-2.1-0.5-4.3-0.8-6.5-0.8c-2.2,0-4.3,0.3-6.5,0.8
		c-2.2,0.5-4.4,1.3-6.7,2.3C9.7,30,8.7,30.9,7.9,32c-0.8,1.1-1.2,2.4-1.2,3.9v6.1h34.5v-6.1C41.3,34.3,40.9,33,40.2,31.9z"/>
</g>
</svg>
