<?xml version="1.0" encoding="UTF-8" standalone="no"?>
<!-- Generator: Adobe Illustrator 27.0.0, SVG Export Plug-In . SVG Version: 6.00 Build 0)  -->

<svg
   version="1.1"
   id="Ebene_1"
   x="0px"
   y="0px"
   viewBox="0 0 48 48"
   style="enable-background:new 0 0 48 48;"
   xml:space="preserve"
   sodipodi:docname="samurai.svg"
   inkscape:version="1.2.1 (9c6d41e410, 2022-07-14)"
   xmlns:inkscape="http://www.inkscape.org/namespaces/inkscape"
   xmlns:sodipodi="http://sodipodi.sourceforge.net/DTD/sodipodi-0.dtd"
   xmlns="http://www.w3.org/2000/svg"
   xmlns:svg="http://www.w3.org/2000/svg"><defs
   id="defs13" /><sodipodi:namedview
   id="namedview11"
   pagecolor="#505050"
   bordercolor="#eeeeee"
   borderopacity="1"
   inkscape:showpageshadow="0"
   inkscape:pageopacity="0"
   inkscape:pagecheckerboard="0"
   inkscape:deskcolor="#505050"
   showgrid="false"
   inkscape:zoom="4.9166667"
   inkscape:cx="24"
   inkscape:cy="24.101695"
   inkscape:window-width="1500"
   inkscape:window-height="930"
   inkscape:window-x="-6"
   inkscape:window-y="-6"
   inkscape:window-maximized="1"
   inkscape:current-layer="Ebene_1" />
<g
   id="g8">
	
	
	<path
   id="path6"
   d="M 30.3,8.3 C 28.6,6.7 26.5,5.8 24,5.8 c -2.5,0 -4.7,0.8 -6.3,2.5 -0.8,0.8 -1.4,1.8 -1.8,2.8 h 16.3 c -0.4,-1.1 -1,-2 -1.9,-2.8 z m -6.3,15 c 2.6,0 4.7,-0.8 6.3,-2.5 1.6,-1.6 2.5,-3.7 2.5,-6.3 0,-0.3 0,-0.6 0,-0.8 H 15.3 c 0,0.3 -0.1,0.6 -0.1,0.8 0,2.6 0.8,4.7 2.5,6.3 1.6,1.6 3.7,2.5 6.3,2.5 z m 17.5,-8 c -1,0 -1.8,0.8 -1.8,1.8 0,0.1 0,0.2 0,0.3 l -2.8,3 -2,-1.8 -1.6,1.8 2,1.8 -4.6,5 c -0.1,0 -0.1,0 -0.2,-0.1 -2.1,-0.5 -4.3,-0.8 -6.5,-0.8 -2.2,0 -4.3,0.3 -6.5,0.8 0,0 -0.1,0 -0.1,0 l -4.6,-5 2,-1.9 -1.6,-1.8 -2,1.9 -2.8,-3.1 c 0,-0.1 0,-0.1 0,-0.2 0,-1 -0.8,-1.8 -1.8,-1.8 -1,0 -1.8,0.8 -1.8,1.8 0,1 0.8,1.8 1.8,1.8 l 2.7,3.2 -2,1.8 1.7,1.8 2,-1.8 3.8,4.1 c -1.3,0.4 -2.6,0.9 -4,1.5 C 9.7,30 8.7,30.9 7.9,32 7.1,33.1 6.7,34.4 6.7,35.9 V 42 h 34.5 v -6.1 c 0.1,-1.6 -0.3,-2.9 -1,-4 -0.8,-1.1 -1.8,-1.9 -3.1,-2.5 -1.3,-0.6 -2.6,-1.1 -3.8,-1.5 l 3.8,-4.1 2,1.9 1.6,-1.8 -2,-1.9 2.9,-3.1 c 1,0 1.7,-0.8 1.7,-1.8 0,-1 -0.8,-1.8 -1.8,-1.8 z" />
</g>
</svg>
