<?xml version="1.0" encoding="UTF-8" standalone="no"?>
<svg
   height="48"
   width="48"
   version="1.1"
   id="svg4"
   sodipodi:docname="save.svg"
   inkscape:version="1.2.1 (9c6d41e410, 2022-07-14)"
   xmlns:inkscape="http://www.inkscape.org/namespaces/inkscape"
   xmlns:sodipodi="http://sodipodi.sourceforge.net/DTD/sodipodi-0.dtd"
   xmlns="http://www.w3.org/2000/svg"
   xmlns:svg="http://www.w3.org/2000/svg">
  <defs
     id="defs8" />
  <sodipodi:namedview
     id="namedview6"
     pagecolor="#505050"
     bordercolor="#eeeeee"
     borderopacity="1"
     inkscape:showpageshadow="0"
     inkscape:pageopacity="0"
     inkscape:pagecheckerboard="0"
     inkscape:deskcolor="#505050"
     showgrid="false"
     inkscape:zoom="4.9166667"
     inkscape:cx="24"
     inkscape:cy="24.101695"
     inkscape:window-width="1500"
     inkscape:window-height="930"
     inkscape:window-x="-6"
     inkscape:window-y="-6"
     inkscape:window-maximized="1"
     inkscape:current-layer="svg4" />
  <path
     id="path2"
     d="m 43.3,13.3 v 25.25 q 0,1.95 -1.4,3.325 -1.4,1.375 -3.35,1.375 H 9.45 Q 7.5,43.25 6.125,41.875 4.75,40.5 4.75,38.55 V 9.45 Q 4.75,7.5 6.125,6.1 7.5,4.7 9.45,4.7 H 34.7 Z M 24,35.3 q 2.15,0 3.675,-1.525 Q 29.2,32.25 29.2,30.1 29.2,27.95 27.675,26.425 26.15,24.9 24,24.9 21.85,24.9 20.325,26.425 18.8,27.95 18.8,30.1 q 0,2.15 1.525,3.675 Q 21.85,35.3 24,35.3 Z M 12.1,19.25 H 30 V 12.1 H 12.1 Z" />
</svg>
