<?xml version="1.0" encoding="UTF-8" standalone="no"?>
<!-- Generator: Adobe Illustrator 19.0.0, SVG Export Plug-In . SVG Version: 6.00 Build 0)  -->

<svg
   version="1.1"
   id="Layer_1"
   x="0px"
   y="0px"
   viewBox="0 0 512 512"
   style="enable-background:new 0 0 512 512;"
   xml:space="preserve"
   sodipodi:docname="science-fiction.svg"
   inkscape:version="1.2.1 (9c6d41e410, 2022-07-14)"
   xmlns:inkscape="http://www.inkscape.org/namespaces/inkscape"
   xmlns:sodipodi="http://sodipodi.sourceforge.net/DTD/sodipodi-0.dtd"
   xmlns="http://www.w3.org/2000/svg"
   xmlns:svg="http://www.w3.org/2000/svg"><defs
   id="defs111" /><sodipodi:namedview
   id="namedview109"
   pagecolor="#505050"
   bordercolor="#eeeeee"
   borderopacity="1"
   inkscape:showpageshadow="0"
   inkscape:pageopacity="0"
   inkscape:pagecheckerboard="0"
   inkscape:deskcolor="#505050"
   showgrid="false"
   inkscape:zoom="0.4609375"
   inkscape:cx="256"
   inkscape:cy="257.08475"
   inkscape:window-width="1500"
   inkscape:window-height="930"
   inkscape:window-x="-6"
   inkscape:window-y="-6"
   inkscape:window-maximized="1"
   inkscape:current-layer="Layer_1" />
<g
   id="g52">
	<g
   id="g50">
		
	</g>
</g>
<g
   id="g58">
	<g
   id="g56">
		
	</g>
</g>
<g
   id="g64">
	<g
   id="g62">
		
	</g>
</g>
<g
   id="g70">
	<g
   id="g68">
		
	</g>
</g>
<g
   id="g76">
	<g
   id="g74">
		<path
   id="path72"
   d="m 353.079,157.802 c -2.924,-6.176 -6.424,-12.024 -10.435,-17.475 -4.13,-5.608 -8.789,-10.801 -13.917,-15.492 -18.85,-17.236 -43.944,-27.756 -71.499,-27.756 -27.449,0 -52.461,10.433 -71.285,27.551 -5.125,4.659 -9.785,9.821 -13.916,15.396 -4.033,5.439 -7.556,11.277 -10.501,17.446 -6.594,13.813 -10.293,29.273 -10.293,45.599 0,0 47.456,21.113 105.995,21.113 58.538,0 105.993,-21.113 105.993,-21.113 0,-16.197 -3.647,-31.538 -10.142,-45.269 z m 44.997,5.077 c 3.663,12.909 5.565,26.403 5.565,40.192 0,15.968 -9.401,30.44 -23.99,36.93 -2.258,1.004 -56.063,24.604 -122.425,24.604 -66.363,0 -120.169,-23.601 -122.426,-24.604 -14.589,-6.49 -23.99,-20.964 -23.99,-36.93 0,-13.982 1.956,-27.66 5.721,-40.732 C 62.612,173.158 0,194.879 0,237.392 c 0,28.656 28.164,51.246 83.712,67.141 15.937,4.561 33.641,8.416 52.648,11.511 13.087,2.13 26.799,3.898 40.974,5.29 18.78,1.845 38.378,3.025 58.456,3.5 6.69,0.158 13.429,0.244 20.211,0.244 6.782,0 13.521,-0.085 20.211,-0.244 20.076,-0.474 39.676,-1.656 58.456,-3.5 14.176,-1.392 27.886,-3.158 40.973,-5.29 19.009,-3.095 36.713,-6.95 52.65,-11.511 C 483.836,288.638 512,266.048 512,237.392 512,195.486 450.928,173.799 398.076,162.879 Z m 2.754,225.15 -11.651,-33.298 c -13.059,2.281 -26.703,4.217 -40.798,5.791 l 14.297,40.858 c 2.914,8.328 10.726,13.541 19.076,13.541 2.214,0 4.467,-0.366 6.675,-1.14 10.535,-3.686 16.087,-15.217 12.401,-25.752 z M 122.822,354.732 111.17,388.03 c -3.686,10.535 1.866,22.066 12.401,25.752 2.208,0.773 4.46,1.14 6.675,1.14 8.35,0 16.162,-5.214 19.076,-13.541 l 14.297,-40.858 c -14.095,-1.574 -27.738,-3.509 -40.797,-5.791 z M 256,365.497 c -6.773,0 -13.513,-0.081 -20.211,-0.233 v 29.441 c 0,11.16 9.049,20.211 20.211,20.211 11.162,0 20.211,-9.05 20.211,-20.211 v -29.441 c -6.698,0.152 -13.438,0.233 -20.211,0.233 z" />
	</g>
</g>
<g
   id="g78">
</g>
<g
   id="g80">
</g>
<g
   id="g82">
</g>
<g
   id="g84">
</g>
<g
   id="g86">
</g>
<g
   id="g88">
</g>
<g
   id="g90">
</g>
<g
   id="g92">
</g>
<g
   id="g94">
</g>
<g
   id="g96">
</g>
<g
   id="g98">
</g>
<g
   id="g100">
</g>
<g
   id="g102">
</g>
<g
   id="g104">
</g>
<g
   id="g106">
</g>
</svg>
