<?xml version="1.0" encoding="UTF-8" standalone="no"?>
<svg
   height="48"
   width="48"
   version="1.1"
   id="svg139"
   sodipodi:docname="screenplay.svg"
   inkscape:version="1.2.1 (9c6d41e410, 2022-07-14)"
   xmlns:inkscape="http://www.inkscape.org/namespaces/inkscape"
   xmlns:sodipodi="http://sodipodi.sourceforge.net/DTD/sodipodi-0.dtd"
   xmlns="http://www.w3.org/2000/svg"
   xmlns:svg="http://www.w3.org/2000/svg">
  <defs
     id="defs143" />
  <sodipodi:namedview
     id="namedview141"
     pagecolor="#505050"
     bordercolor="#eeeeee"
     borderopacity="1"
     inkscape:showpageshadow="0"
     inkscape:pageopacity="0"
     inkscape:pagecheckerboard="0"
     inkscape:deskcolor="#505050"
     showgrid="false"
     inkscape:zoom="4.9166667"
     inkscape:cx="24"
     inkscape:cy="24.101695"
     inkscape:window-width="1500"
     inkscape:window-height="930"
     inkscape:window-x="-6"
     inkscape:window-y="-6"
     inkscape:window-maximized="1"
     inkscape:current-layer="svg139" />
  <path
     id="path137"
     d="M 17.4,26.8 H 29.25 V 23.35 H 17.4 Z m 0,-4.95 h 21 V 18.4 h -21 z m 0,-4.95 h 21 v -3.45 h -21 z m -3.1,21.5 q -1.95,0 -3.325,-1.375 Q 9.6,35.65 9.6,33.7 V 6.6 q 0,-1.95 1.375,-3.35 1.375,-1.4 3.325,-1.4 h 27.1 q 1.95,0 3.35,1.4 1.4,1.4 1.4,3.35 v 27.1 q 0,1.95 -1.4,3.325 -1.4,1.375 -3.35,1.375 z m -7.7,7.75 q -1.95,0 -3.35,-1.4 -1.4,-1.4 -1.4,-3.35 V 9.6 H 6.6 v 31.8 h 31.8 v 4.75 z" />
</svg>
