<?xml version="1.0" encoding="UTF-8" standalone="no"?>
<svg
   height="48"
   width="48"
   version="1.1"
   id="svg155"
   sodipodi:docname="sex.svg"
   inkscape:version="1.2.1 (9c6d41e410, 2022-07-14)"
   xmlns:inkscape="http://www.inkscape.org/namespaces/inkscape"
   xmlns:sodipodi="http://sodipodi.sourceforge.net/DTD/sodipodi-0.dtd"
   xmlns="http://www.w3.org/2000/svg"
   xmlns:svg="http://www.w3.org/2000/svg">
  <defs
     id="defs159" />
  <sodipodi:namedview
     id="namedview157"
     pagecolor="#505050"
     bordercolor="#eeeeee"
     borderopacity="1"
     inkscape:showpageshadow="0"
     inkscape:pageopacity="0"
     inkscape:pagecheckerboard="0"
     inkscape:deskcolor="#505050"
     showgrid="false"
     inkscape:zoom="4.9166667"
     inkscape:cx="24"
     inkscape:cy="24.101695"
     inkscape:window-width="1500"
     inkscape:window-height="930"
     inkscape:window-x="-6"
     inkscape:window-y="-6"
     inkscape:window-maximized="1"
     inkscape:current-layer="svg155" />
  <path
     id="path153"
     d="M 2.75,40 V 26 q 0,-1.4 0.475,-2.7 Q 3.7,22 4.75,21.35 v -5.3 q 0,-2.75 1.9,-4.675 Q 8.55,9.45 11.3,9.45 h 9 q 1.05,0 2,0.45 0.95,0.45 1.7,1.15 0.75,-0.7 1.675,-1.15 Q 26.6,9.45 27.65,9.45 h 9 q 2.75,0 4.7,1.925 1.95,1.925 1.95,4.675 v 5.3 q 1,0.65 1.5,1.95 0.5,1.3 0.5,2.7 V 40 H 40.55 V 36 H 7.45 v 4 z M 25.5,21 H 38.55 V 16.05 Q 38.55,15.25 38,14.725 37.45,14.2 36.65,14.2 h -9.6 q -0.7,0 -1.125,0.55 Q 25.5,15.3 25.5,16.05 Z M 9.45,21 H 22.5 v -4.95 q 0,-0.75 -0.425,-1.3 Q 21.65,14.2 20.95,14.2 H 11.3 q -0.75,0 -1.3,0.55 -0.55,0.55 -0.55,1.3 z" />
</svg>
