<?xml version="1.0" encoding="UTF-8" standalone="no"?>
<!-- Generator: Adobe Illustrator 19.0.0, SVG Export Plug-In . SVG Version: 6.00 Build 0)  -->

<svg
   version="1.1"
   id="Capa_1"
   x="0px"
   y="0px"
   viewBox="0 0 297.1 297.1"
   style="enable-background:new 0 0 297.1 297.1;"
   xml:space="preserve"
   sodipodi:docname="spy.svg"
   inkscape:version="1.2.1 (9c6d41e410, 2022-07-14)"
   xmlns:inkscape="http://www.inkscape.org/namespaces/inkscape"
   xmlns:sodipodi="http://sodipodi.sourceforge.net/DTD/sodipodi-0.dtd"
   xmlns="http://www.w3.org/2000/svg"
   xmlns:svg="http://www.w3.org/2000/svg"><defs
   id="defs103" /><sodipodi:namedview
   id="namedview101"
   pagecolor="#505050"
   bordercolor="#eeeeee"
   borderopacity="1"
   inkscape:showpageshadow="0"
   inkscape:pageopacity="0"
   inkscape:pagecheckerboard="0"
   inkscape:deskcolor="#505050"
   showgrid="false"
   inkscape:zoom="0.79434532"
   inkscape:cx="148.55"
   inkscape:cy="149.17945"
   inkscape:window-width="1500"
   inkscape:window-height="930"
   inkscape:window-x="-6"
   inkscape:window-y="-6"
   inkscape:window-maximized="1"
   inkscape:current-layer="Capa_1" />
<g
   id="g68">
	
	
	<path
   id="path66"
   d="M 58.114,69.1 H 35.716 c -9.649,0 -17.5,7.851 -17.5,17.5 0,9.649 7.851,17.5 17.5,17.5 h 227 c 9.649,0 17.5,-7.851 17.5,-17.5 0,-9.649 -7.851,-17.5 -17.5,-17.5 H 240.318 L 231.6,54.1 208.704,14.707 C 203.589,5.91 193.11,0 182.628,0 c -1.385,0 -2.766,0.105 -4.103,0.313 l -22.063,3.429 c -1.808,0.281 -4.6,0.449 -7.469,0.449 -2.938,0 -5.796,-0.175 -7.647,-0.467 L 119.941,0.342 C 118.582,0.128 117.18,0.019 115.774,0.019 105.303,0.019 94.836,5.92 89.729,14.705 L 66.831,54.1 Z m 91.102,161.394 c 53.065,0 96.235,-43.171 96.235,-96.234 0,-5.157 -0.413,-10.22 -1.198,-15.16 h -16.37 v 3.5 c 0,13.785 -10.382,25.5 -24.167,25.5 h -21 c -13.785,0 -25.833,-11.715 -25.833,-25.5 v -3.5 h -15 v 3.5 c 0,13.785 -10.382,25.5 -24.167,25.5 h -21 c -13.785,0 -25.833,-11.715 -25.833,-25.5 v -3.5 H 54.18 c -0.785,4.94 -1.198,10.003 -1.198,15.16 0,53.063 43.171,96.234 96.234,96.234 z m 16.029,-31.961 c 14.196,-3.54 27.026,-11.884 36.127,-23.492 2.557,-3.26 7.27,-3.831 10.529,-1.275 3.26,2.556 3.831,7.27 1.275,10.529 -11.15,14.223 -26.883,24.448 -44.301,28.793 -0.609,0.151 -1.221,0.225 -1.821,0.225 -3.362,0 -6.421,-2.277 -7.271,-5.686 -1.002,-4.021 1.443,-8.091 5.462,-9.094 z M 254.281,229.1 H 206.5 c -16.742,11 -36.346,15.918 -57.283,15.918 -20.937,0 -40.54,-4.918 -57.283,-15.918 H 43.239 c -14.223,0 -26.355,16.891 -26.355,31.118 V 297.1 h 263 V 260.218 C 279.883,245.99 268.5,229.1 254.281,229.1 Z" />
</g>
<g
   id="g70">
</g>
<g
   id="g72">
</g>
<g
   id="g74">
</g>
<g
   id="g76">
</g>
<g
   id="g78">
</g>
<g
   id="g80">
</g>
<g
   id="g82">
</g>
<g
   id="g84">
</g>
<g
   id="g86">
</g>
<g
   id="g88">
</g>
<g
   id="g90">
</g>
<g
   id="g92">
</g>
<g
   id="g94">
</g>
<g
   id="g96">
</g>
<g
   id="g98">
</g>
</svg>
