<?xml version="1.0" encoding="UTF-8" standalone="no"?>
<svg
   height="48"
   viewBox="0 96 960 960"
   width="48"
   version="1.1"
   id="svg167"
   sodipodi:docname="status.svg"
   inkscape:version="1.2.2 (732a01da63, 2022-12-09)"
   xmlns:inkscape="http://www.inkscape.org/namespaces/inkscape"
   xmlns:sodipodi="http://sodipodi.sourceforge.net/DTD/sodipodi-0.dtd"
   xmlns="http://www.w3.org/2000/svg"
   xmlns:svg="http://www.w3.org/2000/svg">
  <defs
     id="defs171" />
  <sodipodi:namedview
     id="namedview169"
     pagecolor="#ffffff"
     bordercolor="#000000"
     borderopacity="0.25"
     inkscape:showpageshadow="2"
     inkscape:pageopacity="0.0"
     inkscape:pagecheckerboard="0"
     inkscape:deskcolor="#d1d1d1"
     showgrid="false"
     inkscape:zoom="17.270833"
     inkscape:cx="24.028951"
     inkscape:cy="24.028951"
     inkscape:window-width="1920"
     inkscape:window-height="1009"
     inkscape:window-x="-8"
     inkscape:window-y="-8"
     inkscape:window-maximized="1"
     inkscape:current-layer="svg167" />
  <path
     id="path165"
     d="M 483.808,961 Q 404.334,961 333.167,930.5 262,900 209.5,847.5 157,795 126,724.5 95,654 95,574 95,494 126,424.5 157,355 209.5,303 262,251 333.228,220.5 404.456,190 484,190 q 81,0 153.5,34 72.5,34 128.5,93 v -95 h 71 V 449 H 608 v -73 h 84 Q 649.727,333.733 596.363,309.367 543,285 484,285 q -122,0 -208,82.821 -86,82.821 -86,203 Q 190,694 275.373,780.5 360.746,867 484,867 604,867 687.377,781.65 770.754,696.3 772,575 h 94 Q 866,736 755,848.5 644,961 483.808,961 Z M 600,745 446,593 V 373 h 71 v 189 l 135,131 z" />
</svg>
