<?xml version="1.0" encoding="UTF-8" standalone="no"?>
<!-- Generator: Adobe Illustrator 27.0.0, SVG Export Plug-In . SVG Version: 6.00 Build 0)  -->

<svg
   version="1.1"
   id="Ebene_1"
   x="0px"
   y="0px"
   viewBox="0 0 48 48"
   style="enable-background:new 0 0 48 48;"
   xml:space="preserve"
   sodipodi:docname="studio.svg"
   inkscape:version="1.2.1 (9c6d41e410, 2022-07-14)"
   xmlns:inkscape="http://www.inkscape.org/namespaces/inkscape"
   xmlns:sodipodi="http://sodipodi.sourceforge.net/DTD/sodipodi-0.dtd"
   xmlns="http://www.w3.org/2000/svg"
   xmlns:svg="http://www.w3.org/2000/svg"><defs
   id="defs37" /><sodipodi:namedview
   id="namedview35"
   pagecolor="#505050"
   bordercolor="#eeeeee"
   borderopacity="1"
   inkscape:showpageshadow="0"
   inkscape:pageopacity="0"
   inkscape:pagecheckerboard="0"
   inkscape:deskcolor="#505050"
   showgrid="false"
   inkscape:zoom="4.9166667"
   inkscape:cx="24"
   inkscape:cy="24.101695"
   inkscape:window-width="1500"
   inkscape:window-height="930"
   inkscape:window-x="-6"
   inkscape:window-y="-6"
   inkscape:window-maximized="1"
   inkscape:current-layer="Ebene_1" />
<g
   transform="matrix(1, 0, 0, 1, 0, 0)"
   id="g32">
	<path
   id="Icon_awesome-building-2"
   d="M 42.6,43.7 H 40.8 V 3.6 c 0,-1.2 -0.9,-2.1 -2.1,-2.1 0,0 0,0 0,0 H 9.2 C 8,1.5 7.1,2.4 7.1,3.6 V 43.7 H 5.4 c -0.6,0 -1.1,0.5 -1.1,1.1 v 1.8 h 39.4 v -1.8 c 0,-0.6 -0.5,-1.1 -1.1,-1.1 z M 15.6,8.2 c 0,-0.6 0.5,-1.1 1.1,-1.1 v 0 h 3.5 c 0.6,0 1.1,0.5 1.1,1.1 0,0 0,0 0,0 v 3.5 c 0,0.6 -0.5,1.1 -1.1,1.1 v 0 h -3.5 c -0.6,0 -1.1,-0.5 -1.1,-1.1 v 0 z m 0,8.4 c 0,-0.6 0.5,-1.1 1.1,-1.1 v 0 h 3.5 c 0.6,0 1.1,0.5 1.1,1.1 v 0 3.5 c 0,0.6 -0.5,1.1 -1.1,1.1 v 0 h -3.5 c -0.6,0 -1.1,-0.5 -1.1,-1.1 v 0 z m 4.5,13 h -3.5 c -0.6,0 -1.1,-0.5 -1.1,-1.1 v 0 -3.5 c 0,-0.6 0.5,-1.1 1.1,-1.1 v 0 h 3.5 c 0.6,0 1.1,0.5 1.1,1.1 v 0 3.5 c 0,0.7 -0.5,1.1 -1.1,1.1 0,0 0,0 0,0 z m 6.7,14.1 h -5.6 v -7.4 c 0,-0.6 0.5,-1.1 1.1,-1.1 v 0 h 3.5 c 0.6,0 1.1,0.5 1.1,1.1 v 0 z m 5.6,-15.1 c 0,0.6 -0.5,1.1 -1.1,1.1 v 0 h -3.5 c -0.6,0 -1.1,-0.5 -1.1,-1.1 v 0 -3.5 c 0,-0.6 0.5,-1.1 1.1,-1.1 v 0 h 3.5 c 0.6,0 1.1,0.5 1.1,1.1 v 0 z m 0,-8.5 c 0,0.6 -0.5,1.1 -1.1,1.1 v 0 h -3.5 c -0.6,0 -1.1,-0.5 -1.1,-1.1 v 0 -3.5 c 0,-0.6 0.5,-1.1 1.1,-1.1 v 0 h 3.5 c 0.6,0 1.1,0.5 1.1,1.1 v 0 z m 0,-8.4 c 0,0.6 -0.5,1.1 -1.1,1.1 v 0 h -3.5 c -0.6,0 -1.1,-0.5 -1.1,-1.1 v 0 -3.5 c 0,-0.6 0.5,-1.1 1.1,-1.1 v 0 h 3.5 c 0.6,0 1.1,0.5 1.1,1.1 0,0 0,0 0,0 z" />
</g>
</svg>
