<?xml version="1.0" encoding="utf-8"?>
<!-- Generator: Adobe Illustrator 27.0.0, SVG Export Plug-In . SVG Version: 6.00 Build 0)  -->
<svg version="1.1" id="Ebene_1" xmlns="http://www.w3.org/2000/svg" xmlns:xlink="http://www.w3.org/1999/xlink" x="0px" y="0px"
	 viewBox="0 0 48 48" style="enable-background:new 0 0 48 48;" xml:space="preserve">
<g transform="matrix(1, 0, 0, 1, 0, 0)">
	<path id="Icon_awesome-building-2" d="M42.6,43.7h-1.8V3.6c0-1.2-0.9-2.1-2.1-2.1c0,0,0,0,0,0H9.2c-1.2,0-2.1,0.9-2.1,2.1v40.1H5.4
		c-0.6,0-1.1,0.5-1.1,1.1v1.8h39.4v-1.8C43.7,44.2,43.2,43.7,42.6,43.7z M15.6,8.2c0-0.6,0.5-1.1,1.1-1.1l0,0h3.5
		c0.6,0,1.1,0.5,1.1,1.1c0,0,0,0,0,0v3.5c0,0.6-0.5,1.1-1.1,1.1h0h-3.5c-0.6,0-1.1-0.5-1.1-1.1v0V8.2z M15.6,16.6
		c0-0.6,0.5-1.1,1.1-1.1h0h3.5c0.6,0,1.1,0.5,1.1,1.1v0v3.5c0,0.6-0.5,1.1-1.1,1.1h0h-3.5c-0.6,0-1.1-0.5-1.1-1.1l0,0V16.6z
		 M20.1,29.6h-3.5c-0.6,0-1.1-0.5-1.1-1.1l0,0v-3.5c0-0.6,0.5-1.1,1.1-1.1h0h3.5c0.6,0,1.1,0.5,1.1,1.1l0,0v3.5
		C21.2,29.2,20.7,29.6,20.1,29.6C20.1,29.6,20.1,29.6,20.1,29.6L20.1,29.6z M26.8,43.7h-5.6v-7.4c0-0.6,0.5-1.1,1.1-1.1h0h3.5
		c0.6,0,1.1,0.5,1.1,1.1l0,0L26.8,43.7z M32.4,28.6c0,0.6-0.5,1.1-1.1,1.1l0,0h-3.5c-0.6,0-1.1-0.5-1.1-1.1l0,0v-3.5
		c0-0.6,0.5-1.1,1.1-1.1l0,0h3.5c0.6,0,1.1,0.5,1.1,1.1l0,0V28.6z M32.4,20.1c0,0.6-0.5,1.1-1.1,1.1l0,0h-3.5
		c-0.6,0-1.1-0.5-1.1-1.1l0,0v-3.5c0-0.6,0.5-1.1,1.1-1.1l0,0h3.5c0.6,0,1.1,0.5,1.1,1.1v0V20.1z M32.4,11.7c0,0.6-0.5,1.1-1.1,1.1
		l0,0h-3.5c-0.6,0-1.1-0.5-1.1-1.1v0V8.2c0-0.6,0.5-1.1,1.1-1.1l0,0h3.5c0.6,0,1.1,0.5,1.1,1.1c0,0,0,0,0,0V11.7z"/>
</g>
</svg>
