<?xml version="1.0" encoding="UTF-8" standalone="no"?>
<!-- Generator: Adobe Illustrator 26.5.0, SVG Export Plug-In . SVG Version: 6.00 Build 0)  -->

<svg
   version="1.1"
   id="Ebene_1"
   x="0px"
   y="0px"
   viewBox="0 0 48 48"
   style="enable-background:new 0 0 48 48;"
   xml:space="preserve"
   sodipodi:docname="suicide.svg"
   inkscape:version="1.2.1 (9c6d41e410, 2022-07-14)"
   xmlns:inkscape="http://www.inkscape.org/namespaces/inkscape"
   xmlns:sodipodi="http://sodipodi.sourceforge.net/DTD/sodipodi-0.dtd"
   xmlns="http://www.w3.org/2000/svg"
   xmlns:svg="http://www.w3.org/2000/svg"><defs
   id="defs21" /><sodipodi:namedview
   id="namedview19"
   pagecolor="#505050"
   bordercolor="#eeeeee"
   borderopacity="1"
   inkscape:showpageshadow="0"
   inkscape:pageopacity="0"
   inkscape:pagecheckerboard="0"
   inkscape:deskcolor="#505050"
   showgrid="false"
   inkscape:zoom="4.9166667"
   inkscape:cx="24"
   inkscape:cy="24.101695"
   inkscape:window-width="1500"
   inkscape:window-height="930"
   inkscape:window-x="-6"
   inkscape:window-y="-6"
   inkscape:window-maximized="1"
   inkscape:current-layer="Ebene_1" />
<g
   id="g16">
	
	
	<path
   id="path14"
   d="m 20.6,7.6 5.5,2 C 27,9.9 28,9.5 28.4,8.5 28.7,7.6 28.3,6.6 27.3,6.2 L 25.7,5.6 V 3.8 C 25.8,2.8 25,2 24,2 23,2 22.2,2.8 22.2,3.8 V 4.5 L 21.8,4.4 c -0.9,-0.3 -1.9,0.1 -2.3,1.1 -0.2,0.8 0.2,1.8 1.1,2.1 z m 0,4.3 5.5,2 c 0.9,0.3 1.9,-0.1 2.3,-1.1 0.3,-0.9 -0.1,-1.9 -1.1,-2.3 l -5.5,-2 c -0.9,-0.3 -1.9,0.1 -2.3,1.1 -0.2,1 0.2,2 1.1,2.3 z m 14.7,17.2 c -0.6,-1.3 -1.5,-2.6 -2.6,-3.8 l -6.8,-6.8 v -0.4 l 0.4,0.1 c 0.9,0.3 1.9,-0.1 2.3,-1.1 0.3,-0.9 -0.1,-1.9 -1.1,-2.3 l -5.5,-2 c -0.9,-0.3 -1.9,0.1 -2.3,1.1 v 0 c -0.3,0.9 0.1,1.9 1.1,2.3 l 1.6,0.6 v 1.8 l -6.8,6.7 c -1.1,1.1 -2.1,2.3 -2.6,3.8 -0.6,1.5 -0.9,3 -0.9,4.7 0,3.2 1.1,6.2 3.6,8.5 2.5,2.5 5.3,3.6 8.7,3.6 3.2,0 6.2,-1.1 8.5,-3.6 2.5,-2.3 3.6,-5.1 3.6,-8.5 -0.3,-1.7 -0.7,-3.2 -1.2,-4.7 z m -5.2,10.8 c -1.6,1.7 -3.8,2.5 -6,2.5 -2.4,0 -4.4,-0.8 -6.2,-2.5 -1.7,-1.6 -2.5,-3.8 -2.5,-6 0,-1.2 0.3,-2.3 0.7,-3.4 0.4,-1.1 1.1,-1.9 1.9,-2.7 l 6.2,-6 6,6 c 0.8,0.8 1.5,1.7 1.9,2.7 0.4,1.1 0.7,2.1 0.7,3.4 -0.2,2.4 -1,4.4 -2.7,6 z" />
</g>
</svg>
