<?xml version="1.0" encoding="utf-8"?>
<!-- Generator: Adobe Illustrator 26.5.0, SVG Export Plug-In . SVG Version: 6.00 Build 0)  -->
<svg version="1.1" id="Ebene_1" xmlns="http://www.w3.org/2000/svg" xmlns:xlink="http://www.w3.org/1999/xlink" x="0px" y="0px"
	 viewBox="0 0 48 48" style="enable-background:new 0 0 48 48;" xml:space="preserve">
<g>
	<path d="M35.3,29.1c-0.6-1.3-1.5-2.6-2.6-3.8l-6.8-6.8v-0.4l0.4,0.1c0.9,0.3,1.9-0.1,2.3-1.1c0.3-0.9-0.1-1.9-1.1-2.3l-5.5-2
		c-0.9-0.3-1.9,0.1-2.3,1.1v0c-0.3,0.9,0.1,1.9,1.1,2.3l1.6,0.6v1.8l-6.8,6.7c-1.1,1.1-2.1,2.3-2.6,3.8c-0.6,1.5-0.9,3-0.9,4.7
		c0,3.2,1.1,6.2,3.6,8.5c2.5,2.5,5.3,3.6,8.7,3.6c3.2,0,6.2-1.1,8.5-3.6c2.5-2.3,3.6-5.1,3.6-8.5C36.2,32.1,35.8,30.6,35.3,29.1z
		 M30.1,39.9c-1.6,1.7-3.8,2.5-6,2.5c-2.4,0-4.4-0.8-6.2-2.5c-1.7-1.6-2.5-3.8-2.5-6c0-1.2,0.3-2.3,0.7-3.4c0.4-1.1,1.1-1.9,1.9-2.7
		l6.2-6l6,6c0.8,0.8,1.5,1.7,1.9,2.7c0.4,1.1,0.7,2.1,0.7,3.4C32.6,36.3,31.8,38.3,30.1,39.9z"/>
	<path d="M20.6,11.9l5.5,2c0.9,0.3,1.9-0.1,2.3-1.1c0.3-0.9-0.1-1.9-1.1-2.3l-5.5-2c-0.9-0.3-1.9,0.1-2.3,1.1
		C19.3,10.6,19.7,11.6,20.6,11.9z"/>
	<path d="M20.6,7.6l5.5,2c0.9,0.3,1.9-0.1,2.3-1.1c0.3-0.9-0.1-1.9-1.1-2.3l-1.6-0.6V3.8C25.8,2.8,25,2,24,2s-1.8,0.8-1.8,1.8v0.7
		l-0.4-0.1c-0.9-0.3-1.9,0.1-2.3,1.1C19.3,6.3,19.7,7.3,20.6,7.6z"/>
</g>
</svg>
