<?xml version="1.0" encoding="UTF-8" standalone="no"?>
<!-- Generator: Adobe Illustrator 19.0.0, SVG Export Plug-In . SVG Version: 6.00 Build 0)  -->

<svg
   version="1.1"
   id="Layer_1"
   x="0px"
   y="0px"
   viewBox="0 0 512.002 512.002"
   style="enable-background:new 0 0 512.002 512.002;"
   xml:space="preserve"
   sodipodi:docname="surgery.svg"
   inkscape:version="1.2.1 (9c6d41e410, 2022-07-14)"
   xmlns:inkscape="http://www.inkscape.org/namespaces/inkscape"
   xmlns:sodipodi="http://sodipodi.sourceforge.net/DTD/sodipodi-0.dtd"
   xmlns="http://www.w3.org/2000/svg"
   xmlns:svg="http://www.w3.org/2000/svg"><defs
   id="defs78" /><sodipodi:namedview
   id="namedview76"
   pagecolor="#505050"
   bordercolor="#eeeeee"
   borderopacity="1"
   inkscape:showpageshadow="0"
   inkscape:pageopacity="0"
   inkscape:pagecheckerboard="0"
   inkscape:deskcolor="#505050"
   showgrid="false"
   inkscape:zoom="0.46093569"
   inkscape:cx="256.00101"
   inkscape:cy="257.08576"
   inkscape:window-width="1500"
   inkscape:window-height="930"
   inkscape:window-x="-6"
   inkscape:window-y="-6"
   inkscape:window-maximized="1"
   inkscape:current-layer="Layer_1" />
<g
   id="g43">
	<g
   id="g41">
		<path
   id="path39"
   d="m 438.608,6.667 c -442.059,442.059 10.16,-10.151 -406.5,406.509 -22.619,22.617 -22.623,59.238 0,81.859 22.619,22.62 59.239,22.623 81.859,0 214.088,-214.089 161.441,-161.446 232.698,-232.683 8.473,-8.469 8.479,-22.225 10e-4,-30.701 l -35.82,-35.82 19.053,-19.053 35.817,35.817 c 8.472,8.474 22.225,8.476 30.7,0 C 470.997,138.014 496.861,122.178 496.861,73.185 496.86,31.772 463.532,-18.26 438.608,6.667 Z M 282.823,264.785 262.358,244.321 280.144,226.53 300.614,247 Z m 98.243,-98.242 -20.468,-20.467 89.925,-89.925 c 13.459,37.798 -13.119,54.055 -69.457,110.392 z" />
	</g>
</g>
<g
   id="g45">
</g>
<g
   id="g47">
</g>
<g
   id="g49">
</g>
<g
   id="g51">
</g>
<g
   id="g53">
</g>
<g
   id="g55">
</g>
<g
   id="g57">
</g>
<g
   id="g59">
</g>
<g
   id="g61">
</g>
<g
   id="g63">
</g>
<g
   id="g65">
</g>
<g
   id="g67">
</g>
<g
   id="g69">
</g>
<g
   id="g71">
</g>
<g
   id="g73">
</g>
</svg>
