<?xml version="1.0" encoding="UTF-8" standalone="no"?>
<svg
   height="48"
   width="48"
   version="1.1"
   id="svg141"
   sodipodi:docname="survival.svg"
   inkscape:version="1.2.1 (9c6d41e410, 2022-07-14)"
   xmlns:inkscape="http://www.inkscape.org/namespaces/inkscape"
   xmlns:sodipodi="http://sodipodi.sourceforge.net/DTD/sodipodi-0.dtd"
   xmlns="http://www.w3.org/2000/svg"
   xmlns:svg="http://www.w3.org/2000/svg">
  <defs
     id="defs145" />
  <sodipodi:namedview
     id="namedview143"
     pagecolor="#505050"
     bordercolor="#eeeeee"
     borderopacity="1"
     inkscape:showpageshadow="0"
     inkscape:pageopacity="0"
     inkscape:pagecheckerboard="0"
     inkscape:deskcolor="#505050"
     showgrid="false"
     inkscape:zoom="4.9166667"
     inkscape:cx="24"
     inkscape:cy="24.101695"
     inkscape:window-width="1500"
     inkscape:window-height="930"
     inkscape:window-x="-6"
     inkscape:window-y="-6"
     inkscape:window-maximized="1"
     inkscape:current-layer="svg141" />
  <path
     id="path139"
     d="m 24,44.25 q -4.15,0 -7.825,-1.575 Q 12.5,41.1 9.775,38.375 7.05,35.65 5.475,31.975 3.9,28.3 3.9,24.15 3.9,20 5.475,16.325 7.05,12.65 9.775,9.925 12.5,7.2 16.175,5.625 19.85,4.05 24,4.05 v -5.3 L 32.45,7.2 24,15.7 v -5.3 q -5.7,0 -9.725,4.025 -4.025,4.025 -4.025,9.725 0,3.5 1.625,6.475 Q 13.5,33.6 16.2,35.45 17.05,34 18.7,32.975 20.35,31.95 22.55,31.65 22.35,30.55 22.075,29.425 21.8,28.3 21.45,27.35 q -0.55,0.5 -1.25,0.75 -0.7,0.25 -1.5,0.25 -1.75,0 -2.975,-1.225 Q 14.5,25.9 14.5,24.15 v -2.1 q 0,-0.9 -0.3,-1.7 -0.3,-0.8 -0.75,-1.5 2.6,-0.05 4.7,0.5 1.75,0.45 3.25,1.55 1.5,1.1 1.55,3.25 0,0.5 -0.075,0.875 Q 22.8,25.4 22.6,25.8 21.9,25.3 21.225,24.9 20.55,24.5 19.8,24.15 q 0.9,0.7 2.05,2.1 1.15,1.4 2.15,3.35 1.1,-2.6 2.65,-5.075 1.55,-2.475 3.7,-4.625 -1.2,0.85 -2.325,1.8 -1.125,0.95 -2.175,2 -0.35,-0.6 -0.55,-1.275 -0.2,-0.675 -0.2,-1.475 0,-2.2 1.525,-3.725 Q 28.15,15.7 30.35,15.7 h 2.1 q 1.2,0 2,-0.325 0.8,-0.325 1.3,-0.775 0.6,-0.45 0.95,-1.05 0.2,3.55 -0.4,6.35 -0.45,2.4 -1.8,4.375 -1.35,1.975 -4.15,1.975 -0.8,0 -1.5,-0.225 -0.7,-0.225 -1.3,-0.575 -0.4,1 -0.85,2.675 -0.45,1.675 -0.75,3.575 2,0.4 3.55,1.375 1.55,0.975 2.35,2.375 2.65,-1.85 4.275,-4.8 1.625,-2.95 1.625,-6.5 h 6.35 q 0,4.15 -1.575,7.825 -1.575,3.675 -4.3,6.4 -2.725,2.725 -6.4,4.3 Q 28.15,44.25 24,44.25 Z" />
</svg>
