<?xml version="1.0" encoding="UTF-8" standalone="no"?>
<!-- Generator: Adobe Illustrator 19.0.0, SVG Export Plug-In . SVG Version: 6.00 Build 0)  -->

<svg
   version="1.1"
   id="Layer_1"
   x="0px"
   y="0px"
   viewBox="0 0 512.001 512.001"
   style="enable-background:new 0 0 512.001 512.001;"
   xml:space="preserve"
   sodipodi:docname="terrorism.svg"
   inkscape:version="1.2.1 (9c6d41e410, 2022-07-14)"
   xmlns:inkscape="http://www.inkscape.org/namespaces/inkscape"
   xmlns:sodipodi="http://sodipodi.sourceforge.net/DTD/sodipodi-0.dtd"
   xmlns="http://www.w3.org/2000/svg"
   xmlns:svg="http://www.w3.org/2000/svg"><defs
   id="defs137" /><sodipodi:namedview
   id="namedview135"
   pagecolor="#505050"
   bordercolor="#eeeeee"
   borderopacity="1"
   inkscape:showpageshadow="0"
   inkscape:pageopacity="0"
   inkscape:pagecheckerboard="0"
   inkscape:deskcolor="#505050"
   showgrid="false"
   inkscape:zoom="0.46093662"
   inkscape:cx="256.00049"
   inkscape:cy="257.08524"
   inkscape:window-width="1500"
   inkscape:window-height="930"
   inkscape:window-x="-6"
   inkscape:window-y="-6"
   inkscape:window-maximized="1"
   inkscape:current-layer="Layer_1" />
<g
   id="g84">
	<g
   id="g82">
		
	</g>
</g>
<g
   id="g90">
	<g
   id="g88">
		
	</g>
</g>
<g
   id="g96">
	<g
   id="g94">
		
	</g>
</g>
<g
   id="g102">
	<g
   id="g100">
		<path
   id="path98"
   d="M 441.658,104.515 418.049,80.906 c -19.527,-19.538 -51.316,-19.527 -70.832,0 l -7.869,7.869 -23.614,-23.614 c -6.521,-6.521 -17.087,-6.521 -23.609,0 l -44.575,44.575 c -21.699,-9.182 -45.244,-14.01 -69.55,-14.01 -47.625,0 -92.343,18.494 -125.924,52.076 -69.435,69.435 -69.435,182.419 0,251.853 33.582,33.582 78.299,52.076 125.924,52.076 47.625,0 92.348,-18.494 125.93,-52.076 33.582,-33.582 52.076,-78.299 52.076,-125.924 0,-24.306 -4.828,-47.851 -14.01,-69.551 l 44.575,-44.575 c 6.521,-6.516 6.521,-17.092 0,-23.609 l -23.614,-23.614 7.869,-7.869 c 6.506,-6.506 17.097,-6.516 23.614,0 l 23.609,23.609 c 3.261,3.261 7.533,4.892 11.804,4.892 4.271,0 8.544,-1.631 11.804,-4.892 6.522,-6.515 6.522,-17.092 0.001,-23.607 z M 256.762,352.319 c -21.038,21.043 -48.978,32.63 -78.674,32.63 -29.696,0 -57.636,-11.587 -78.674,-32.63 -6.521,-6.516 -6.521,-17.092 0,-23.609 6.521,-6.521 17.087,-6.521 23.609,0 14.733,14.733 34.294,22.847 55.066,22.847 20.772,0 40.331,-8.114 55.066,-22.847 6.521,-6.521 17.087,-6.521 23.609,0 6.519,6.516 6.519,17.092 -0.002,23.609 z m 250.348,-263 c -3.261,-3.261 -7.533,-4.892 -11.805,-4.892 -4.272,0 -8.544,1.631 -11.804,4.892 l -11.13,11.13 c -6.521,6.521 -6.521,17.092 0,23.609 6.521,6.521 17.097,6.521 23.609,0 l 11.13,-11.13 c 6.521,-6.521 6.521,-17.092 0,-23.609 z m -66.784,66.783 c -6.521,-6.522 -17.097,-6.522 -23.608,0 l -11.13,11.13 c -6.521,6.521 -6.521,17.092 0,23.609 3.261,3.261 7.533,4.892 11.804,4.892 4.271,0 8.544,-1.631 11.804,-4.892 l 11.13,-11.13 c 6.521,-6.522 6.521,-17.092 0,-23.609 z m 66.781,11.13 -11.129,-11.13 c -6.511,-6.521 -17.087,-6.521 -23.609,0 -6.521,6.516 -6.521,17.087 0,23.609 l 11.13,11.13 c 3.261,3.261 7.533,4.892 11.804,4.892 4.271,0 8.544,-1.631 11.804,-4.892 6.522,-6.516 6.522,-17.087 0,-23.609 z" />
	</g>
</g>
<g
   id="g104">
</g>
<g
   id="g106">
</g>
<g
   id="g108">
</g>
<g
   id="g110">
</g>
<g
   id="g112">
</g>
<g
   id="g114">
</g>
<g
   id="g116">
</g>
<g
   id="g118">
</g>
<g
   id="g120">
</g>
<g
   id="g122">
</g>
<g
   id="g124">
</g>
<g
   id="g126">
</g>
<g
   id="g128">
</g>
<g
   id="g130">
</g>
<g
   id="g132">
</g>
</svg>
