<?xml version="1.0" encoding="utf-8"?>
<!-- Generator: Adobe Illustrator 26.5.0, SVG Export Plug-In . SVG Version: 6.00 Build 0)  -->
<svg version="1.1" id="Ebene_1" xmlns="http://www.w3.org/2000/svg" xmlns:xlink="http://www.w3.org/1999/xlink" x="0px" y="0px"
	 viewBox="0 0 48 48" style="enable-background:new 0 0 48 48;" xml:space="preserve">
<path d="M17.7,11.5c-0.7,0-1.4-0.3-1.9-0.8C15.3,10.2,15,9.5,15,8.8V6c0-0.7,0.3-1.4,0.8-1.9c0.5-0.5,1.1-0.8,1.9-0.8h12.7
	c0.7,0,1.4,0.3,1.9,0.8C32.7,4.6,33,5.2,33,6v2.8c0,0.7-0.3,1.4-0.8,1.9c-0.5,0.5-1.1,0.8-1.9,0.8H17.7z M17.4,9.1h13.3V5.7H17.4
	C17.4,5.7,17.4,9.1,17.4,9.1z M14.2,28.3c-0.7,0-1.4-0.3-1.9-0.8c-0.5-0.5-0.8-1.1-0.8-1.9v-1.5h25v1.5c0,0.7-0.3,1.4-0.8,1.9
	s-1.1,0.8-1.9,0.8H14.2z M11.5,23.3l4.3-9.5c0.2-0.5,0.5-0.8,1-1.1c0.4-0.3,0.9-0.4,1.4-0.4h11.6c0.5,0,1,0.1,1.4,0.4
	c0.4,0.3,0.8,0.7,1,1.1l4.3,9.5H11.5z M19.8,21.1h1.1c0.2,0,0.4-0.1,0.5-0.2c0.1-0.1,0.2-0.3,0.2-0.5c0-0.2-0.1-0.4-0.2-0.5
	c-0.1-0.1-0.3-0.2-0.5-0.2h-1.1c-0.2,0-0.4,0.1-0.5,0.2S19,20.2,19,20.4c0,0.2,0.1,0.4,0.2,0.5C19.4,21,19.6,21.1,19.8,21.1z
	 M19.8,18.6h1.1c0.2,0,0.4-0.1,0.5-0.2c0.1-0.1,0.2-0.3,0.2-0.5c0-0.2-0.1-0.4-0.2-0.5c-0.1-0.1-0.3-0.2-0.5-0.2h-1.1
	c-0.2,0-0.4,0.1-0.5,0.2S19,17.6,19,17.8c0,0.2,0.1,0.4,0.2,0.5C19.4,18.5,19.6,18.6,19.8,18.6z M19.8,16h1.1c0.2,0,0.4-0.1,0.5-0.2
	c0.1-0.1,0.2-0.3,0.2-0.5c0-0.2-0.1-0.4-0.2-0.5c-0.1-0.1-0.3-0.2-0.5-0.2h-1.1c-0.2,0-0.4,0.1-0.5,0.2c-0.1,0.1-0.2,0.3-0.2,0.5
	c0,0.2,0.1,0.4,0.2,0.5C19.4,15.9,19.6,16,19.8,16z M23.4,21.1h1.1c0.2,0,0.4-0.1,0.5-0.2c0.1-0.1,0.2-0.3,0.2-0.5
	c0-0.2-0.1-0.4-0.2-0.5c-0.1-0.1-0.3-0.2-0.5-0.2h-1.1c-0.2,0-0.4,0.1-0.5,0.2s-0.2,0.3-0.2,0.5c0,0.2,0.1,0.4,0.2,0.5
	C23.1,21,23.2,21.1,23.4,21.1z M23.4,18.6h1.1c0.2,0,0.4-0.1,0.5-0.2c0.1-0.1,0.2-0.3,0.2-0.5c0-0.2-0.1-0.4-0.2-0.5
	c-0.1-0.1-0.3-0.2-0.5-0.2h-1.1c-0.2,0-0.4,0.1-0.5,0.2c-0.1,0.1-0.2,0.3-0.2,0.5c0,0.2,0.1,0.4,0.2,0.5
	C23.1,18.5,23.2,18.6,23.4,18.6z M23.4,16h1.1c0.2,0,0.4-0.1,0.5-0.2c0.1-0.1,0.2-0.3,0.2-0.5c0-0.2-0.1-0.4-0.2-0.5
	c-0.1-0.1-0.3-0.2-0.5-0.2h-1.1c-0.2,0-0.4,0.1-0.5,0.2c-0.1,0.1-0.2,0.3-0.2,0.5c0,0.2,0.1,0.4,0.2,0.5C23.1,15.9,23.2,16,23.4,16z
	 M27.1,21.1h1.1c0.2,0,0.4-0.1,0.5-0.2c0.1-0.1,0.2-0.3,0.2-0.5c0-0.2-0.1-0.4-0.2-0.5c-0.1-0.1-0.3-0.2-0.5-0.2h-1.1
	c-0.2,0-0.4,0.1-0.5,0.2s-0.2,0.3-0.2,0.5c0,0.2,0.1,0.4,0.2,0.5C26.8,21,26.9,21.1,27.1,21.1z M27.1,18.6h1.1
	c0.2,0,0.4-0.1,0.5-0.2c0.1-0.1,0.2-0.3,0.2-0.5c0-0.2-0.1-0.4-0.2-0.5c-0.1-0.1-0.3-0.2-0.5-0.2h-1.1c-0.2,0-0.4,0.1-0.5,0.2
	s-0.2,0.3-0.2,0.5c0,0.2,0.1,0.4,0.2,0.5C26.8,18.5,26.9,18.6,27.1,18.6z M27.1,16h1.1c0.2,0,0.4-0.1,0.5-0.2
	c0.1-0.1,0.2-0.3,0.2-0.5c0-0.2-0.1-0.4-0.2-0.5c-0.1-0.1-0.3-0.2-0.5-0.2h-1.1c-0.2,0-0.4,0.1-0.5,0.2c-0.1,0.1-0.2,0.3-0.2,0.5
	c0,0.2,0.1,0.4,0.2,0.5C26.8,15.9,26.9,16,27.1,16z"/>
<path d="M24.9,44.6c1.6,0,2.9-0.5,3.9-1.4s1.6-2.2,1.6-3.7v-6.9c0-0.3-0.1-0.5-0.3-0.7s-0.4-0.3-0.7-0.3c-0.3,0-0.5,0.1-0.7,0.3
	c-0.2,0.2-0.3,0.4-0.3,0.7v4h-0.6v-5.8c0-0.3-0.1-0.5-0.3-0.7c-0.2-0.2-0.4-0.3-0.7-0.3c-0.3,0-0.5,0.1-0.7,0.3
	c-0.2,0.2-0.3,0.4-0.3,0.7v5.8h-0.6v-6.5c0-0.3-0.1-0.5-0.3-0.7c-0.2-0.2-0.4-0.3-0.7-0.3c-0.3,0-0.5,0.1-0.7,0.3
	c-0.2,0.2-0.3,0.4-0.3,0.7v6.5h-0.6v-5.1c0-0.3-0.1-0.5-0.3-0.7c-0.2-0.2-0.4-0.3-0.7-0.3c-0.3,0-0.5,0.1-0.7,0.3
	c-0.2,0.2-0.3,0.4-0.3,0.7v7.1h-0.1l-0.5-1.4c-0.2-0.5-0.4-0.8-0.7-1.2c-0.2-0.3-0.6-0.5-1.1-0.5c-0.4,0-0.6,0.2-0.7,0.5
	c-0.1,0.3,0,0.8,0.2,1.4l1.5,3.8c0.4,1.1,1.1,2,2.1,2.5S23.6,44.6,24.9,44.6z"/>
</svg>
