<?xml version="1.0" encoding="UTF-8" standalone="no"?>
<!-- Generator: Adobe Illustrator 26.5.0, SVG Export Plug-In . SVG Version: 6.00 Build 0)  -->

<svg
   version="1.1"
   id="Ebene_1"
   x="0px"
   y="0px"
   viewBox="0 0 48 48"
   style="enable-background:new 0 0 48 48;"
   xml:space="preserve"
   sodipodi:docname="theft.svg"
   inkscape:version="1.2.1 (9c6d41e410, 2022-07-14)"
   xmlns:inkscape="http://www.inkscape.org/namespaces/inkscape"
   xmlns:sodipodi="http://sodipodi.sourceforge.net/DTD/sodipodi-0.dtd"
   xmlns="http://www.w3.org/2000/svg"
   xmlns:svg="http://www.w3.org/2000/svg"><defs
   id="defs154" /><sodipodi:namedview
   id="namedview152"
   pagecolor="#505050"
   bordercolor="#eeeeee"
   borderopacity="1"
   inkscape:showpageshadow="0"
   inkscape:pageopacity="0"
   inkscape:pagecheckerboard="0"
   inkscape:deskcolor="#505050"
   showgrid="false"
   inkscape:zoom="4.9166667"
   inkscape:cx="24"
   inkscape:cy="24.101695"
   inkscape:window-width="1500"
   inkscape:window-height="930"
   inkscape:window-x="-6"
   inkscape:window-y="-6"
   inkscape:window-maximized="1"
   inkscape:current-layer="Ebene_1" />

<path
   id="path149"
   d="m 24.9,44.6 c 1.6,0 2.9,-0.5 3.9,-1.4 1,-0.9 1.6,-2.2 1.6,-3.7 v -6.9 c 0,-0.3 -0.1,-0.5 -0.3,-0.7 -0.2,-0.2 -0.4,-0.3 -0.7,-0.3 -0.3,0 -0.5,0.1 -0.7,0.3 -0.2,0.2 -0.3,0.4 -0.3,0.7 v 4 h -0.6 v -5.8 c 0,-0.3 -0.1,-0.5 -0.3,-0.7 -0.2,-0.2 -0.4,-0.3 -0.7,-0.3 -0.3,0 -0.5,0.1 -0.7,0.3 -0.2,0.2 -0.3,0.4 -0.3,0.7 v 5.8 h -0.6 v -6.5 c 0,-0.3 -0.1,-0.5 -0.3,-0.7 -0.2,-0.2 -0.4,-0.3 -0.7,-0.3 -0.3,0 -0.5,0.1 -0.7,0.3 -0.2,0.2 -0.3,0.4 -0.3,0.7 v 6.5 h -0.6 v -5.1 c 0,-0.3 -0.1,-0.5 -0.3,-0.7 -0.2,-0.2 -0.4,-0.3 -0.7,-0.3 -0.3,0 -0.5,0.1 -0.7,0.3 -0.2,0.2 -0.3,0.4 -0.3,0.7 v 7.1 H 20.5 L 20,37.2 c -0.2,-0.5 -0.4,-0.8 -0.7,-1.2 -0.2,-0.3 -0.6,-0.5 -1.1,-0.5 -0.4,0 -0.6,0.2 -0.7,0.5 -0.1,0.3 0,0.8 0.2,1.4 l 1.5,3.8 c 0.4,1.1 1.1,2 2.1,2.5 1,0.5 2.3,0.9 3.6,0.9 z M 17.7,11.5 C 17,11.5 16.3,11.2 15.8,10.7 15.3,10.2 15,9.5 15,8.8 V 6 c 0,-0.7 0.3,-1.4 0.8,-1.9 0.5,-0.5 1.1,-0.8 1.9,-0.8 h 12.7 c 0.7,0 1.4,0.3 1.9,0.8 C 32.7,4.6 33,5.2 33,6 v 2.8 c 0,0.7 -0.3,1.4 -0.8,1.9 -0.5,0.5 -1.1,0.8 -1.9,0.8 H 17.7 Z M 17.4,9.1 H 30.7 V 5.7 H 17.4 c 0,0 0,3.4 0,3.4 z M 14.2,28.3 C 13.5,28.3 12.8,28 12.3,27.5 11.8,27 11.5,26.4 11.5,25.6 v -1.5 h 25 v 1.5 c 0,0.7 -0.3,1.4 -0.8,1.9 -0.5,0.5 -1.1,0.8 -1.9,0.8 z m -2.7,-5 4.3,-9.5 c 0.2,-0.5 0.5,-0.8 1,-1.1 0.4,-0.3 0.9,-0.4 1.4,-0.4 h 11.6 c 0.5,0 1,0.1 1.4,0.4 0.4,0.3 0.8,0.7 1,1.1 l 4.3,9.5 z m 8.3,-2.2 h 1.1 c 0.2,0 0.4,-0.1 0.5,-0.2 0.1,-0.1 0.2,-0.3 0.2,-0.5 0,-0.2 -0.1,-0.4 -0.2,-0.5 -0.1,-0.1 -0.3,-0.2 -0.5,-0.2 h -1.1 c -0.2,0 -0.4,0.1 -0.5,0.2 -0.1,0.1 -0.3,0.3 -0.3,0.5 0,0.2 0.1,0.4 0.2,0.5 0.2,0.1 0.4,0.2 0.6,0.2 z m 0,-2.5 h 1.1 c 0.2,0 0.4,-0.1 0.5,-0.2 0.1,-0.1 0.2,-0.3 0.2,-0.5 0,-0.2 -0.1,-0.4 -0.2,-0.5 -0.1,-0.1 -0.3,-0.2 -0.5,-0.2 h -1.1 c -0.2,0 -0.4,0.1 -0.5,0.2 -0.1,0.1 -0.3,0.2 -0.3,0.4 0,0.2 0.1,0.4 0.2,0.5 0.2,0.2 0.4,0.3 0.6,0.3 z m 0,-2.6 h 1.1 c 0.2,0 0.4,-0.1 0.5,-0.2 0.1,-0.1 0.2,-0.3 0.2,-0.5 0,-0.2 -0.1,-0.4 -0.2,-0.5 -0.1,-0.1 -0.3,-0.2 -0.5,-0.2 h -1.1 c -0.2,0 -0.4,0.1 -0.5,0.2 -0.1,0.1 -0.2,0.3 -0.2,0.5 0,0.2 0.1,0.4 0.2,0.5 0.1,0.1 0.3,0.2 0.5,0.2 z m 3.6,5.1 h 1.1 c 0.2,0 0.4,-0.1 0.5,-0.2 0.1,-0.1 0.2,-0.3 0.2,-0.5 0,-0.2 -0.1,-0.4 -0.2,-0.5 -0.1,-0.1 -0.3,-0.2 -0.5,-0.2 h -1.1 c -0.2,0 -0.4,0.1 -0.5,0.2 -0.1,0.1 -0.2,0.3 -0.2,0.5 0,0.2 0.1,0.4 0.2,0.5 0.2,0.1 0.3,0.2 0.5,0.2 z m 0,-2.5 h 1.1 c 0.2,0 0.4,-0.1 0.5,-0.2 0.1,-0.1 0.2,-0.3 0.2,-0.5 0,-0.2 -0.1,-0.4 -0.2,-0.5 -0.1,-0.1 -0.3,-0.2 -0.5,-0.2 h -1.1 c -0.2,0 -0.4,0.1 -0.5,0.2 -0.1,0.1 -0.2,0.3 -0.2,0.5 0,0.2 0.1,0.4 0.2,0.5 0.2,0.1 0.3,0.2 0.5,0.2 z m 0,-2.6 h 1.1 c 0.2,0 0.4,-0.1 0.5,-0.2 0.1,-0.1 0.2,-0.3 0.2,-0.5 0,-0.2 -0.1,-0.4 -0.2,-0.5 -0.1,-0.1 -0.3,-0.2 -0.5,-0.2 h -1.1 c -0.2,0 -0.4,0.1 -0.5,0.2 -0.1,0.1 -0.2,0.3 -0.2,0.5 0,0.2 0.1,0.4 0.2,0.5 0.2,0.1 0.3,0.2 0.5,0.2 z m 3.7,5.1 h 1.1 c 0.2,0 0.4,-0.1 0.5,-0.2 0.1,-0.1 0.2,-0.3 0.2,-0.5 0,-0.2 -0.1,-0.4 -0.2,-0.5 -0.1,-0.1 -0.3,-0.2 -0.5,-0.2 h -1.1 c -0.2,0 -0.4,0.1 -0.5,0.2 -0.1,0.1 -0.2,0.3 -0.2,0.5 0,0.2 0.1,0.4 0.2,0.5 0.2,0.1 0.3,0.2 0.5,0.2 z m 0,-2.5 h 1.1 c 0.2,0 0.4,-0.1 0.5,-0.2 0.1,-0.1 0.2,-0.3 0.2,-0.5 0,-0.2 -0.1,-0.4 -0.2,-0.5 -0.1,-0.1 -0.3,-0.2 -0.5,-0.2 h -1.1 c -0.2,0 -0.4,0.1 -0.5,0.2 -0.1,0.1 -0.2,0.3 -0.2,0.5 0,0.2 0.1,0.4 0.2,0.5 0.2,0.1 0.3,0.2 0.5,0.2 z m 0,-2.6 h 1.1 c 0.2,0 0.4,-0.1 0.5,-0.2 0.1,-0.1 0.2,-0.3 0.2,-0.5 0,-0.2 -0.1,-0.4 -0.2,-0.5 -0.1,-0.1 -0.3,-0.2 -0.5,-0.2 h -1.1 c -0.2,0 -0.4,0.1 -0.5,0.2 -0.1,0.1 -0.2,0.3 -0.2,0.5 0,0.2 0.1,0.4 0.2,0.5 0.2,0.1 0.3,0.2 0.5,0.2 z" />
</svg>
