<?xml version="1.0" encoding="UTF-8" standalone="no"?>
<!-- Generator: Adobe Illustrator 27.0.0, SVG Export Plug-In . SVG Version: 6.00 Build 0)  -->

<svg
   version="1.1"
   id="Ebene_1"
   x="0px"
   y="0px"
   viewBox="0 0 48 48"
   style="enable-background:new 0 0 48 48;"
   xml:space="preserve"
   sodipodi:docname="thriller.svg"
   inkscape:version="1.2.1 (9c6d41e410, 2022-07-14)"
   xmlns:inkscape="http://www.inkscape.org/namespaces/inkscape"
   xmlns:sodipodi="http://sodipodi.sourceforge.net/DTD/sodipodi-0.dtd"
   xmlns="http://www.w3.org/2000/svg"
   xmlns:svg="http://www.w3.org/2000/svg"><defs
   id="defs161" /><sodipodi:namedview
   id="namedview159"
   pagecolor="#505050"
   bordercolor="#eeeeee"
   borderopacity="1"
   inkscape:showpageshadow="0"
   inkscape:pageopacity="0"
   inkscape:pagecheckerboard="0"
   inkscape:deskcolor="#505050"
   showgrid="false"
   inkscape:lockguides="true"
   inkscape:zoom="4.9166667"
   inkscape:cx="24"
   inkscape:cy="24.101695"
   inkscape:window-width="1500"
   inkscape:window-height="930"
   inkscape:window-x="-6"
   inkscape:window-y="-6"
   inkscape:window-maximized="1"
   inkscape:current-layer="Ebene_1" />
<path
   id="path156"
   d="m 17.8,48 h 3.3 L 25.5,35.9 41,41.5 34.7,6.1 7.1,29.2 22.6,34.8 Z m 11.3,-29.7 2.2,0.8 -2.8,7.9 -2.2,-0.8 z m -4,10.6 c 0.1,-0.3 0.3,-0.6 0.7,-0.7 0.3,-0.2 0.7,-0.2 1,0 0.3,0.1 0.6,0.3 0.7,0.7 0.1,0.4 0.2,0.7 0.1,1 -0.1,0.3 -0.3,0.6 -0.7,0.7 -0.4,0.1 -0.7,0.2 -1,0.1 C 25.6,30.6 25.3,30.4 25.2,30 25,29.6 25,29.3 25.1,28.9 Z" />
</svg>
