<?xml version="1.0" encoding="utf-8"?>
<!-- Generator: Adobe Illustrator 27.0.0, SVG Export Plug-In . SVG Version: 6.00 Build 0)  -->
<svg version="1.1" id="Ebene_1" xmlns="http://www.w3.org/2000/svg" xmlns:xlink="http://www.w3.org/1999/xlink" x="0px" y="0px"
	 viewBox="0 0 48 48" style="enable-background:new 0 0 48 48;" xml:space="preserve">
<path d="M17.8,48h3.3l4.4-12.1l15.5,5.6L34.7,6.1L7.1,29.2l15.5,5.6L17.8,48z M29.1,18.3l2.2,0.8L28.5,27l-2.2-0.8L29.1,18.3z
	 M25.1,28.9c0.1-0.3,0.3-0.6,0.7-0.7c0.3-0.2,0.7-0.2,1,0c0.3,0.1,0.6,0.3,0.7,0.7s0.2,0.7,0.1,1c-0.1,0.3-0.3,0.6-0.7,0.7
	s-0.7,0.2-1,0.1c-0.3-0.1-0.6-0.3-0.7-0.7C25,29.6,25,29.3,25.1,28.9z"/>
</svg>
