<?xml version="1.0" encoding="UTF-8" standalone="no"?>
<svg
   height="48"
   width="48"
   version="1.1"
   id="svg12"
   sodipodi:docname="time-travel.svg"
   inkscape:version="1.2.1 (9c6d41e410, 2022-07-14)"
   xmlns:inkscape="http://www.inkscape.org/namespaces/inkscape"
   xmlns:sodipodi="http://sodipodi.sourceforge.net/DTD/sodipodi-0.dtd"
   xmlns="http://www.w3.org/2000/svg"
   xmlns:svg="http://www.w3.org/2000/svg">
  <defs
     id="defs16" />
  <sodipodi:namedview
     id="namedview14"
     pagecolor="#505050"
     bordercolor="#eeeeee"
     borderopacity="1"
     inkscape:showpageshadow="0"
     inkscape:pageopacity="0"
     inkscape:pagecheckerboard="0"
     inkscape:deskcolor="#505050"
     showgrid="false"
     inkscape:zoom="4.9166667"
     inkscape:cx="24"
     inkscape:cy="24.101695"
     inkscape:window-width="1500"
     inkscape:window-height="930"
     inkscape:window-x="-6"
     inkscape:window-y="-6"
     inkscape:window-maximized="1"
     inkscape:current-layer="svg12" />
  <path
     id="path10"
     d="m 23.8,43.25 q -8.05,0 -13.6,-5.625 Q 4.65,32 4.7,23.95 h 4.7 q 0.05,6.05 4.2,10.325 4.15,4.275 10.2,4.275 6.1,0 10.4,-4.325 4.3,-4.325 4.3,-10.475 0,-6 -4.325,-10.15 Q 29.85,9.45 23.8,9.45 q -3,0 -5.675,1.225 Q 15.45,11.9 13.4,14 h 4.2 v 3.65 H 6.15 V 6.3 H 9.7 v 4.75 Q 12.45,8.1 16.075,6.4 19.7,4.7 23.8,4.7 q 4,0 7.525,1.525 3.525,1.525 6.175,4.125 2.65,2.6 4.175,6.075 1.525,3.475 1.525,7.475 0,4 -1.525,7.525 Q 40.15,34.95 37.5,37.575 34.85,40.2 31.325,41.725 27.8,43.25 23.8,43.25 Z m 6.2,-10.8 -7.7,-7.6 v -11 h 3.55 v 9.45 l 6.75,6.55 z" />
</svg>
