<?xml version="1.0" encoding="utf-8"?>
<!-- Generator: Adobe Illustrator 26.5.0, SVG Export Plug-In . SVG Version: 6.00 Build 0)  -->
<svg version="1.1" id="Ebene_1" xmlns="http://www.w3.org/2000/svg" xmlns:xlink="http://www.w3.org/1999/xlink" x="0px" y="0px"
	 viewBox="0 0 48 48" style="enable-background:new 0 0 48 48;" xml:space="preserve">
<path d="M41.9,6C41,5.5,40,5.4,39,5.8l-8.5,3.5L17.5,4.7L7,8.3C6.3,8.6,5.8,9,5.3,9.5c-0.4,0.6-0.6,1.2-0.6,1.9v27.9
	c0,1.1,0.5,2,1.3,2.6C7,42.5,8,42.6,9,42.1l8.5-3.4l13.1,4.6l10.5-3.7c0.6-0.2,1.2-0.5,1.6-1c0.4-0.5,0.6-1.1,0.6-1.7V8.6
	C43.3,7.5,42.8,6.6,41.9,6z M28.9,37.7l-9.8-3.3V10.2l9.8,3.3V37.7z M40.1,16.4l-1,1l-1.7-1.7l-1.7,1.7l-1-1l1.7-1.7L34.8,13l1-1
	l1.7,1.7l1.7-1.7l1,1l-1.7,1.7L40.1,16.4z"/>
</svg>
