<?xml version="1.0" encoding="UTF-8" standalone="no"?>
<!-- Generator: Adobe Illustrator 26.5.0, SVG Export Plug-In . SVG Version: 6.00 Build 0)  -->

<svg
   version="1.1"
   id="Ebene_1"
   x="0px"
   y="0px"
   viewBox="0 0 48 48"
   style="enable-background:new 0 0 48 48;"
   xml:space="preserve"
   sodipodi:docname="treasure-hunting.svg"
   inkscape:version="1.2.1 (9c6d41e410, 2022-07-14)"
   xmlns:inkscape="http://www.inkscape.org/namespaces/inkscape"
   xmlns:sodipodi="http://sodipodi.sourceforge.net/DTD/sodipodi-0.dtd"
   xmlns="http://www.w3.org/2000/svg"
   xmlns:svg="http://www.w3.org/2000/svg"><defs
   id="defs23" /><sodipodi:namedview
   id="namedview21"
   pagecolor="#505050"
   bordercolor="#eeeeee"
   borderopacity="1"
   inkscape:showpageshadow="0"
   inkscape:pageopacity="0"
   inkscape:pagecheckerboard="0"
   inkscape:deskcolor="#505050"
   showgrid="false"
   inkscape:zoom="4.9166667"
   inkscape:cx="24"
   inkscape:cy="24.101695"
   inkscape:window-width="1500"
   inkscape:window-height="930"
   inkscape:window-x="-6"
   inkscape:window-y="-6"
   inkscape:window-maximized="1"
   inkscape:current-layer="Ebene_1" />
<path
   id="path18"
   d="M 41.9,6 C 41,5.5 40,5.4 39,5.8 L 30.5,9.3 17.5,4.7 7,8.3 C 6.3,8.6 5.8,9 5.3,9.5 4.9,10.1 4.7,10.7 4.7,11.4 v 27.9 c 0,1.1 0.5,2 1.3,2.6 1,0.6 2,0.7 3,0.2 l 8.5,-3.4 13.1,4.6 10.5,-3.7 c 0.6,-0.2 1.2,-0.5 1.6,-1 0.4,-0.5 0.6,-1.1 0.6,-1.7 V 8.6 c 0,-1.1 -0.5,-2 -1.4,-2.6 z m -13,31.7 -9.8,-3.3 V 10.2 l 9.8,3.3 z m 11.2,-21.3 -1,1 -1.7,-1.7 -1.7,1.7 -1,-1 1.7,-1.7 -1.6,-1.7 1,-1 1.7,1.7 1.7,-1.7 1,1 -1.7,1.7 z" />
</svg>
