<?xml version="1.0" encoding="UTF-8" standalone="no"?>
<svg
   version="1.1"
   id="Layer_1"
   x="0px"
   y="0px"
   viewBox="0 0 32 32"
   style="enable-background:new 0 0 32 32;"
   xml:space="preserve"
   sodipodi:docname="undercover.svg"
   inkscape:version="1.2.1 (9c6d41e410, 2022-07-14)"
   xmlns:inkscape="http://www.inkscape.org/namespaces/inkscape"
   xmlns:sodipodi="http://sodipodi.sourceforge.net/DTD/sodipodi-0.dtd"
   xmlns="http://www.w3.org/2000/svg"
   xmlns:svg="http://www.w3.org/2000/svg"><defs
   id="defs67" /><sodipodi:namedview
   id="namedview65"
   pagecolor="#505050"
   bordercolor="#eeeeee"
   borderopacity="1"
   inkscape:showpageshadow="0"
   inkscape:pageopacity="0"
   inkscape:pagecheckerboard="0"
   inkscape:deskcolor="#505050"
   showgrid="false"
   inkscape:zoom="7.375"
   inkscape:cx="16"
   inkscape:cy="16.067797"
   inkscape:window-width="1500"
   inkscape:window-height="930"
   inkscape:window-x="-6"
   inkscape:window-y="-6"
   inkscape:window-maximized="1"
   inkscape:current-layer="Layer_1" />





<path
   id="path62"
   style="fill:none;stroke:#000000;stroke-width:2;stroke-linecap:round;stroke-miterlimit:10;"
   d="M 18.939,5 C 18.269,5 17.23,5.5 16,5.5 14.77,5.5 13.75,5 13.061,5 10.877,5 9.817,9.295 9,12.337 9,13.938 13.125,14 16,14 c 2.875,0 7,0 7,-1.662 C 22.063,9.122 21.123,5 18.939,5 Z M 9.154,11.763 C 6.625,12.405 5,13.391 5,14.5 5,16.433 9.925,18 16,18 c 6.075,0 11,-1.567 11,-3.5 0,-1.111 -1.631,-2.098 -4.166,-2.74 m -2.604,6.608 c 0.031,1.019 -0.666,2.029 -1.915,2.105 -0.881,0.054 -1.891,-0.39 -1.891,-1.635 0,-0.864 0.678,-0.995 1.891,-1.088 1.213,-0.093 1.891,-0.172 1.915,0.618 z m -8.46,0 c -0.031,1.019 0.666,2.029 1.915,2.105 0.881,0.054 1.891,-0.39 1.891,-1.635 0,-0.864 -0.678,-0.995 -1.891,-1.088 -1.213,-0.093 -1.891,-0.172 -1.915,0.618 z m -2.93,0.598 c 0,0 -1.958,0.699 -3.84,3.264 L 9,25 8,27 h 16 l -1,-2 4,-2.769 C 25.118,19.666 23.16,18.967 23.16,18.967 M 8.383,17.101 c 0,0.877 0.669,2.185 1.524,2.271 0.718,3.611 3.089,6.585 6.093,6.628 2.982,0.042 5.417,-3.017 6.094,-6.629 0.853,-0.087 1.52,-1.395 1.52,-2.271" />
</svg>
