<?xml version="1.0" encoding="UTF-8" standalone="no"?>
<svg
   height="48"
   width="48"
   version="1.1"
   id="svg71"
   sodipodi:docname="video-games.svg"
   inkscape:version="1.2.1 (9c6d41e410, 2022-07-14)"
   xmlns:inkscape="http://www.inkscape.org/namespaces/inkscape"
   xmlns:sodipodi="http://sodipodi.sourceforge.net/DTD/sodipodi-0.dtd"
   xmlns="http://www.w3.org/2000/svg"
   xmlns:svg="http://www.w3.org/2000/svg">
  <defs
     id="defs75" />
  <sodipodi:namedview
     id="namedview73"
     pagecolor="#505050"
     bordercolor="#eeeeee"
     borderopacity="1"
     inkscape:showpageshadow="0"
     inkscape:pageopacity="0"
     inkscape:pagecheckerboard="0"
     inkscape:deskcolor="#505050"
     showgrid="false"
     inkscape:zoom="4.9166667"
     inkscape:cx="24"
     inkscape:cy="24.101695"
     inkscape:window-width="1500"
     inkscape:window-height="930"
     inkscape:window-x="-6"
     inkscape:window-y="-6"
     inkscape:window-maximized="1"
     inkscape:current-layer="svg71" />
  <path
     id="path69"
     d="M 7.35,39.25 Q 4.8,39.25 3.4,37.425 2,35.6 2.35,32.9 L 4.7,16.25 Q 5.1,13.15 7.6,10.925 10.1,8.7 13.25,8.7 H 34.8 q 3.15,0 5.65,2.225 2.5,2.225 2.9,5.325 l 2.3,16.65 q 0.35,2.75 -1.1,4.55 -1.45,1.8 -3.85,1.8 -1.35,0 -2.4,-0.45 -1.05,-0.45 -1.75,-1.15 l -4.9,-4.9 H 16.4 l -4.9,4.9 q -0.7,0.7 -1.75,1.15 -1.05,0.45 -2.4,0.45 z M 34.8,25.75 q 0.8,0 1.4,-0.6 0.6,-0.6 0.6,-1.4 0,-0.75 -0.6,-1.375 -0.6,-0.625 -1.4,-0.625 -0.8,0 -1.4,0.625 -0.6,0.625 -0.6,1.375 0,0.8 0.6,1.4 0.6,0.6 1.4,0.6 z M 30.95,19.7 q 0.8,0 1.4,-0.6 0.6,-0.6 0.6,-1.4 0,-0.8 -0.6,-1.4 -0.6,-0.6 -1.4,-0.6 -0.8,0 -1.4,0.6 -0.6,0.6 -0.6,1.4 0,0.8 0.6,1.4 0.6,0.6 1.4,0.6 z m -15.9,5.75 h 2.5 V 22 H 21 v -2.5 h -3.45 v -3.45 h -2.5 v 3.45 h -3.5 V 22 h 3.5 z" />
</svg>
