<?xml version="1.0" encoding="UTF-8" standalone="no"?>
<svg
   width="512px"
   height="512px"
   viewBox="0 0 512 512"
   version="1.1"
   id="svg4"
   sodipodi:docname="western.svg"
   inkscape:version="1.2.1 (9c6d41e410, 2022-07-14)"
   xmlns:inkscape="http://www.inkscape.org/namespaces/inkscape"
   xmlns:sodipodi="http://sodipodi.sourceforge.net/DTD/sodipodi-0.dtd"
   xmlns="http://www.w3.org/2000/svg"
   xmlns:svg="http://www.w3.org/2000/svg">
  <defs
     id="defs8" />
  <sodipodi:namedview
     id="namedview6"
     pagecolor="#505050"
     bordercolor="#eeeeee"
     borderopacity="1"
     inkscape:showpageshadow="0"
     inkscape:pageopacity="0"
     inkscape:pagecheckerboard="0"
     inkscape:deskcolor="#505050"
     showgrid="false"
     inkscape:zoom="0.4609375"
     inkscape:cx="256"
     inkscape:cy="257.08475"
     inkscape:window-width="1500"
     inkscape:window-height="930"
     inkscape:window-x="-6"
     inkscape:window-y="-6"
     inkscape:window-maximized="1"
     inkscape:current-layer="svg4" />
  <path
     id="path2"
     d="m 481.14,125.357 c -18.78,5.476 -34.912,14.487 -46.952,32.973 h 46.953 v -32.973 z m -188.915,50.01 -13.125,0.002 -0.116,35.74 H 491.47 l -0.343,-35.74 H 292.225 v -0.003 z m -29.125,0.002 -33.07,0.003 -97.298,0.008 c -16.018,27.973 -16.89,57.78 1.04,94.07 H 262.8 l 0.063,-20.22 H 168.09 a 8,8 0 1 1 0,-16 h 94.8 v -22.68 h -95.15 a 8,8 0 1 1 0,-16 h 95.3 l 0.06,-19.18 z m -161.377,0.01 c -7.834,28.723 -12.348,45.61 -18.73,58.69 -6.78,13.893 -15.75,23.88 -32.3,41.7 -39.616,75.435 -33.213,113.647 -30.233,156.314 12.07,14.128 29.67,21.282 48.724,23.54 17.703,2.097 36.135,-0.286 50.816,-4.597 -0.272,-47.016 8.213,-93.296 40.84,-139.84 l 5.264,-7.507 6.724,6.23 c 18.24,16.9 40.922,21.272 63.205,17.717 22.283,-3.555 43.756,-15.464 57.254,-30.285 9.92,-10.894 12.492,-23.074 11.66,-37.932 h -26.115 l -0.084,26.04 h -0.695 c -9.56,10.992 -33.904,24.083 -47.803,24.146 -13.556,0.06 -35.84,-13.197 -47.896,-24.145 H 123.88 l -2.253,-4.266 c -20.284,-38.435 -21.828,-74.208 -7.06,-105.803 h -12.844 z m -74.88,2.47 c 7.33,23.547 19.127,43.547 34.825,60.796 2.733,-3.822 4.952,-7.508 6.945,-11.593 2.33,-4.772 4.44,-10.37 6.715,-17.44 -0.225,-0.142 -0.403,-0.248 -0.635,-0.394 -7.68,-4.854 -17.46,-11.227 -27.117,-17.58 -10.508,-6.916 -13.477,-8.943 -20.734,-13.79 z m 252.09,49.26 -0.042,13.66 v 2.638 h 82.72 V 227.11 H 278.935 Z M 88.642,293.9 c 16.474,0 30,13.525 30,29.998 0,16.474 -13.526,30 -30,30 -16.473,0 -30,-13.526 -30,-30 0,-16.473 13.527,-29.998 30,-29.998 z m 0,15.998 c -7.826,0 -14,6.174 -14,14 0,7.827 6.174,14 14,14 7.827,0 14,-6.173 14,-14 0,-7.826 -6.173,-14 -14,-14 z m -18.025,67.676 a 13,13 0 0 1 12.625,12.998 13,13 0 1 1 -26,0 13,13 0 0 1 13.375,-12.998 z" />
</svg>
