<?xml version="1.0" encoding="utf-8"?>
<!-- Generator: Adobe Illustrator 26.5.0, SVG Export Plug-In . SVG Version: 6.00 Build 0)  -->
<svg version="1.1" id="Ebene_1" xmlns="http://www.w3.org/2000/svg" xmlns:xlink="http://www.w3.org/1999/xlink" x="0px" y="0px"
	 viewBox="0 0 48 48" style="enable-background:new 0 0 48 48;" xml:space="preserve">
<path d="M24,27.3c-2.6,0-4.7-0.8-6.3-2.5s-2.4-3.7-2.4-6.3s0.8-4.7,2.4-6.3c1.6-1.6,3.7-2.4,6.3-2.4c2.6,0,4.7,0.8,6.3,2.4
	s2.5,3.7,2.5,6.3c0,2.6-0.8,4.7-2.5,6.3C28.7,26.5,26.6,27.3,24,27.3z M6.8,45.9v-6c0-1.5,0.4-2.8,1.2-3.9c0.8-1.1,1.8-2,3-2.5
	c2.3-1,4.5-1.8,6.7-2.3c2.1-0.5,4.3-0.8,6.5-0.8c2.2,0,4.4,0.3,6.5,0.8s4.3,1.3,6.6,2.3c1.3,0.5,2.3,1.4,3,2.5
	c0.8,1.1,1.2,2.4,1.2,3.9v6L6.8,45.9z"/>
<polygon points="24,1.2 17.6,12.3 30.4,12.3 "/>
<polygon points="24,9.8 5.3,17.2 42.7,17.2 "/>
</svg>
