<?xml version="1.0" encoding="UTF-8" standalone="no"?>
<!-- Generator: Adobe Illustrator 27.0.0, SVG Export Plug-In . SVG Version: 6.00 Build 0)  -->

<svg
   version="1.1"
   id="Ebene_1"
   x="0px"
   y="0px"
   viewBox="0 0 48 48"
   style="enable-background:new 0 0 48 48;"
   xml:space="preserve"
   sodipodi:docname="witches.svg"
   inkscape:version="1.2.1 (9c6d41e410, 2022-07-14)"
   xmlns:inkscape="http://www.inkscape.org/namespaces/inkscape"
   xmlns:sodipodi="http://sodipodi.sourceforge.net/DTD/sodipodi-0.dtd"
   xmlns="http://www.w3.org/2000/svg"
   xmlns:svg="http://www.w3.org/2000/svg"><defs
   id="defs11" /><sodipodi:namedview
   id="namedview9"
   pagecolor="#505050"
   bordercolor="#eeeeee"
   borderopacity="1"
   inkscape:showpageshadow="0"
   inkscape:pageopacity="0"
   inkscape:pagecheckerboard="0"
   inkscape:deskcolor="#505050"
   showgrid="false"
   inkscape:zoom="4.9166667"
   inkscape:cx="24"
   inkscape:cy="24.101695"
   inkscape:window-width="1500"
   inkscape:window-height="930"
   inkscape:window-x="-6"
   inkscape:window-y="-6"
   inkscape:window-maximized="1"
   inkscape:current-layer="Ebene_1" />
<g
   id="g6">
	
	<path
   id="path4"
   d="m 5.3,17.2 h 10.1 c 0,0.4 -0.1,0.8 -0.1,1.3 0,2.6 0.8,4.6 2.4,6.3 1.6,1.7 3.7,2.5 6.3,2.5 2.6,0 4.7,-0.8 6.3,-2.5 1.7,-1.6 2.5,-3.7 2.5,-6.3 0,-0.5 0,-0.9 -0.1,-1.3 h 10 L 30.4,12.3 c 0,0 0,0 0,0 v 0 L 24,1.2 17.6,12.3 v 0 c 0,0 0,0 0,0 z m 32,16.3 c -2.3,-1 -4.5,-1.8 -6.6,-2.3 -2.1,-0.5 -4.3,-0.8 -6.5,-0.8 -2.2,0 -4.4,0.3 -6.5,0.8 -2.2,0.5 -4.4,1.3 -6.7,2.3 C 9.8,34 8.8,34.9 8,36 7.2,37.1 6.8,38.4 6.8,39.9 v 6 h 34.7 v -6 c 0,-1.5 -0.4,-2.8 -1.2,-3.9 -0.7,-1.1 -1.7,-2 -3,-2.5 z" />
</g>
</svg>
