<svg xmlns="http://www.w3.org/2000/svg" xmlns:xlink="http://www.w3.org/1999/xlink" width="120" height="160" viewBox="0 0 120 160">
  <defs>
    <filter id="path73" x="24.212" y="50.167" width="71.576" height="69.667" filterUnits="userSpaceOnUse">
      <feOffset dy="5" input="SourceAlpha"/>
      <feGaussianBlur stdDeviation="3" result="blur"/>
      <feFlood flood-opacity="0.161"/>
      <feComposite operator="in" in2="blur"/>
      <feComposite in="SourceGraphic"/>
    </filter>
    <filter id="path73-2" x="24.212" y="50.167" width="71.576" height="69.667" filterUnits="userSpaceOnUse">
      <feOffset dx="5" dy="5" input="SourceAlpha"/>
      <feGaussianBlur stdDeviation="3" result="blur-2"/>
      <feFlood flood-opacity="0.161" result="color"/>
      <feComposite operator="out" in="SourceGraphic" in2="blur-2"/>
      <feComposite operator="in" in="color"/>
      <feComposite operator="in" in2="SourceGraphic"/>
    </filter>
    <clipPath id="clip-dramaMoviePoster">
      <rect width="120" height="160"/>
    </clipPath>
  </defs>
  <g id="dramaMoviePoster" clip-path="url(#clip-dramaMoviePoster)">
    <rect width="120" height="160" fill="#ff8f9a"/>
    <g data-type="innerShadowGroup">
      <g transform="matrix(1, 0, 0, 1, 0, 0)" filter="url(#path73)">
        <path id="path73-3" data-name="path73" d="M15.719,53.317A14.092,14.092,0,0,1,5.218,48.8,14.535,14.535,0,0,1,.85,38.389V21.611h29.8V38.389A14.535,14.535,0,0,1,26.278,48.8a14.157,14.157,0,0,1-10.559,4.513ZM10.8,34.571a2.237,2.237,0,0,0,1.562-.579A2.007,2.007,0,0,0,13,32.43a2.173,2.173,0,0,0-2.2-2.2,2.173,2.173,0,0,0-2.2,2.2,2.007,2.007,0,0,0,.636,1.562A2.237,2.237,0,0,0,10.8,34.571Zm5.091,8.679a8.6,8.6,0,0,0,4.281-1.07,3.292,3.292,0,0,0,1.909-2.98H9.7a3.292,3.292,0,0,0,1.909,2.98,8.6,8.6,0,0,0,4.281,1.07Zm4.918-8.679a2.237,2.237,0,0,0,1.562-.579,2.007,2.007,0,0,0,.636-1.562,2.2,2.2,0,1,0-4.4,0,2.007,2.007,0,0,0,.636,1.562A2.237,2.237,0,0,0,20.811,34.571Zm18.746-1.215a12.948,12.948,0,0,1-3.1-.376,13.933,13.933,0,0,1-2.922-1.07V18.776H24.514V1.65H54.426V19.007a13.587,13.587,0,0,1-4.368,10.125,14.567,14.567,0,0,1-10.5,4.224ZM34.639,15.189a2.078,2.078,0,0,0,1.562-.665,2.153,2.153,0,0,0,.636-1.533A2.1,2.1,0,0,0,36.2,11.4a2.177,2.177,0,0,0-1.562-.608,2.173,2.173,0,0,0-2.2,2.2,2.153,2.153,0,0,0,.636,1.533,2.078,2.078,0,0,0,1.562.665Zm.058,8.1H45.747a3.288,3.288,0,0,0-1.938-2.98,8.65,8.65,0,0,0-4.253-1.07,9.986,9.986,0,0,0-2.748.492A3.15,3.15,0,0,0,34.7,21.206Zm9.894-8.1a2.078,2.078,0,0,0,1.562-.665,2.153,2.153,0,0,0,.636-1.533,2.1,2.1,0,0,0-.636-1.591,2.177,2.177,0,0,0-1.562-.608,2.173,2.173,0,0,0-2.2,2.2,2.153,2.153,0,0,0,.636,1.533,2.078,2.078,0,0,0,1.562.665Z" transform="translate(32.36 52.52)"/>
      </g>
      <g transform="matrix(1, 0, 0, 1, 0, 0)" filter="url(#path73-2)">
        <path id="path73-4" data-name="path73" d="M15.719,53.317A14.092,14.092,0,0,1,5.218,48.8,14.535,14.535,0,0,1,.85,38.389V21.611h29.8V38.389A14.535,14.535,0,0,1,26.278,48.8a14.157,14.157,0,0,1-10.559,4.513ZM10.8,34.571a2.237,2.237,0,0,0,1.562-.579A2.007,2.007,0,0,0,13,32.43a2.173,2.173,0,0,0-2.2-2.2,2.173,2.173,0,0,0-2.2,2.2,2.007,2.007,0,0,0,.636,1.562A2.237,2.237,0,0,0,10.8,34.571Zm5.091,8.679a8.6,8.6,0,0,0,4.281-1.07,3.292,3.292,0,0,0,1.909-2.98H9.7a3.292,3.292,0,0,0,1.909,2.98,8.6,8.6,0,0,0,4.281,1.07Zm4.918-8.679a2.237,2.237,0,0,0,1.562-.579,2.007,2.007,0,0,0,.636-1.562,2.2,2.2,0,1,0-4.4,0,2.007,2.007,0,0,0,.636,1.562A2.237,2.237,0,0,0,20.811,34.571Zm18.746-1.215a12.948,12.948,0,0,1-3.1-.376,13.933,13.933,0,0,1-2.922-1.07V18.776H24.514V1.65H54.426V19.007a13.587,13.587,0,0,1-4.368,10.125,14.567,14.567,0,0,1-10.5,4.224ZM34.639,15.189a2.078,2.078,0,0,0,1.562-.665,2.153,2.153,0,0,0,.636-1.533A2.1,2.1,0,0,0,36.2,11.4a2.177,2.177,0,0,0-1.562-.608,2.173,2.173,0,0,0-2.2,2.2,2.153,2.153,0,0,0,.636,1.533,2.078,2.078,0,0,0,1.562.665Zm.058,8.1H45.747a3.288,3.288,0,0,0-1.938-2.98,8.65,8.65,0,0,0-4.253-1.07,9.986,9.986,0,0,0-2.748.492A3.15,3.15,0,0,0,34.7,21.206Zm9.894-8.1a2.078,2.078,0,0,0,1.562-.665,2.153,2.153,0,0,0,.636-1.533,2.1,2.1,0,0,0-.636-1.591,2.177,2.177,0,0,0-1.562-.608,2.173,2.173,0,0,0-2.2,2.2,2.153,2.153,0,0,0,.636,1.533,2.078,2.078,0,0,0,1.562.665Z" transform="translate(32.36 52.52)" fill="#fff"/>
      </g>
    </g>
  </g>
</svg>
