<svg xmlns="http://www.w3.org/2000/svg" xmlns:xlink="http://www.w3.org/1999/xlink" width="120" height="160" viewBox="0 0 120 160">
  <defs>
    <filter id="path30" x="25.667" y="50.667" width="68.667" height="68.667" filterUnits="userSpaceOnUse">
      <feOffset dy="5" input="SourceAlpha"/>
      <feGaussianBlur stdDeviation="3" result="blur"/>
      <feFlood flood-opacity="0.161"/>
      <feComposite operator="in" in2="blur"/>
      <feComposite in="SourceGraphic"/>
    </filter>
    <filter id="path30-2" x="25.667" y="50.667" width="68.667" height="68.667" filterUnits="userSpaceOnUse">
      <feOffset dx="5" dy="5" input="SourceAlpha"/>
      <feGaussianBlur stdDeviation="3" result="blur-2"/>
      <feFlood flood-opacity="0.161" result="color"/>
      <feComposite operator="out" in="SourceGraphic" in2="blur-2"/>
      <feComposite operator="in" in="color"/>
      <feComposite operator="in" in2="SourceGraphic"/>
    </filter>
    <clipPath id="clip-horrorScreenplayPoster">
      <rect width="120" height="160"/>
    </clipPath>
  </defs>
  <g id="horrorScreenplayPoster" clip-path="url(#clip-horrorScreenplayPoster)">
    <rect width="120" height="160" fill="#8fd5ff"/>
    <g data-type="innerShadowGroup">
      <g transform="matrix(1, 0, 0, 1, 0, 0)" filter="url(#path30)">
        <path id="path30-3" data-name="path30" d="M12.956,53.917V43.234a16.563,16.563,0,0,1-3.724-2.747A19.252,19.252,0,0,1,6.119,36.55,20.365,20.365,0,0,1,4.013,31.7a19.806,19.806,0,0,1-.763-5.555A21.223,21.223,0,0,1,10.331,9.66q7.081-6.41,18.252-6.41T46.836,9.66a21.223,21.223,0,0,1,7.081,16.482,19.806,19.806,0,0,1-.763,5.555,20.365,20.365,0,0,1-2.106,4.853,19.252,19.252,0,0,1-3.113,3.937,16.563,16.563,0,0,1-3.724,2.747V53.917Zm5.8-4.884h1.831v4.884h4.09V49.033H32.49v4.884h4.09V49.033h1.831V40.06a18.518,18.518,0,0,0,4.059-2.381A15,15,0,0,0,45.523,34.5a14.76,14.76,0,0,0,1.953-3.876,14.1,14.1,0,0,0,.7-4.487,15.677,15.677,0,0,0-5.433-12.422Q37.313,8.988,28.583,8.988T14.452,13.719a15.717,15.717,0,0,0-5.4,12.422,14.685,14.685,0,0,0,.671,4.487A14.083,14.083,0,0,0,11.644,34.5,15,15,0,0,0,14.7,37.679a18.518,18.518,0,0,0,4.059,2.381Zm5.25-10.194h9.157l-4.578-9.157Zm-3.968-8.607a4.742,4.742,0,0,0,4.761-4.7,4.691,4.691,0,0,0-4.761-4.761,4.531,4.531,0,0,0-3.327,1.373,4.6,4.6,0,0,0-1.373,3.388,4.482,4.482,0,0,0,1.4,3.327A4.562,4.562,0,0,0,20.037,30.232Zm17.092,0a4.742,4.742,0,0,0,4.761-4.7,4.691,4.691,0,0,0-4.761-4.761A4.531,4.531,0,0,0,33.8,22.143a4.6,4.6,0,0,0-1.373,3.388,4.482,4.482,0,0,0,1.4,3.327A4.562,4.562,0,0,0,37.129,30.232Zm-18.374,18.8V40.06A18.518,18.518,0,0,1,14.7,37.679,15,15,0,0,1,11.644,34.5a14.083,14.083,0,0,1-1.923-3.876,14.685,14.685,0,0,1-.671-4.487,15.717,15.717,0,0,1,5.4-12.422q5.4-4.731,14.132-4.731t14.162,4.731a15.677,15.677,0,0,1,5.433,12.422,14.1,14.1,0,0,1-.7,4.487A14.76,14.76,0,0,1,45.523,34.5a15,15,0,0,1-3.052,3.174,18.518,18.518,0,0,1-4.059,2.381v8.973H36.58V45.37H32.49v3.663H24.676V45.37h-4.09v3.663Z" transform="translate(31.42 51.42)"/>
      </g>
      <g transform="matrix(1, 0, 0, 1, 0, 0)" filter="url(#path30-2)">
        <path id="path30-4" data-name="path30" d="M12.956,53.917V43.234a16.563,16.563,0,0,1-3.724-2.747A19.252,19.252,0,0,1,6.119,36.55,20.365,20.365,0,0,1,4.013,31.7a19.806,19.806,0,0,1-.763-5.555A21.223,21.223,0,0,1,10.331,9.66q7.081-6.41,18.252-6.41T46.836,9.66a21.223,21.223,0,0,1,7.081,16.482,19.806,19.806,0,0,1-.763,5.555,20.365,20.365,0,0,1-2.106,4.853,19.252,19.252,0,0,1-3.113,3.937,16.563,16.563,0,0,1-3.724,2.747V53.917Zm5.8-4.884h1.831v4.884h4.09V49.033H32.49v4.884h4.09V49.033h1.831V40.06a18.518,18.518,0,0,0,4.059-2.381A15,15,0,0,0,45.523,34.5a14.76,14.76,0,0,0,1.953-3.876,14.1,14.1,0,0,0,.7-4.487,15.677,15.677,0,0,0-5.433-12.422Q37.313,8.988,28.583,8.988T14.452,13.719a15.717,15.717,0,0,0-5.4,12.422,14.685,14.685,0,0,0,.671,4.487A14.083,14.083,0,0,0,11.644,34.5,15,15,0,0,0,14.7,37.679a18.518,18.518,0,0,0,4.059,2.381Zm5.25-10.194h9.157l-4.578-9.157Zm-3.968-8.607a4.742,4.742,0,0,0,4.761-4.7,4.691,4.691,0,0,0-4.761-4.761,4.531,4.531,0,0,0-3.327,1.373,4.6,4.6,0,0,0-1.373,3.388,4.482,4.482,0,0,0,1.4,3.327A4.562,4.562,0,0,0,20.037,30.232Zm17.092,0a4.742,4.742,0,0,0,4.761-4.7,4.691,4.691,0,0,0-4.761-4.761A4.531,4.531,0,0,0,33.8,22.143a4.6,4.6,0,0,0-1.373,3.388,4.482,4.482,0,0,0,1.4,3.327A4.562,4.562,0,0,0,37.129,30.232Zm-18.374,18.8V40.06A18.518,18.518,0,0,1,14.7,37.679,15,15,0,0,1,11.644,34.5a14.083,14.083,0,0,1-1.923-3.876,14.685,14.685,0,0,1-.671-4.487,15.717,15.717,0,0,1,5.4-12.422q5.4-4.731,14.132-4.731t14.162,4.731a15.677,15.677,0,0,1,5.433,12.422,14.1,14.1,0,0,1-.7,4.487A14.76,14.76,0,0,1,45.523,34.5a15,15,0,0,1-3.052,3.174,18.518,18.518,0,0,1-4.059,2.381v8.973H36.58V45.37H32.49v3.663H24.676V45.37h-4.09v3.663Z" transform="translate(31.42 51.42)" fill="#fff"/>
      </g>
    </g>
  </g>
</svg>
