<svg xmlns="http://www.w3.org/2000/svg" xmlns:xlink="http://www.w3.org/1999/xlink" width="120" height="160" viewBox="0 0 120 160">
  <defs>
    <filter id="path72" x="17.44" y="55.167" width="85.119" height="59.667" filterUnits="userSpaceOnUse">
      <feOffset dy="5" input="SourceAlpha"/>
      <feGaussianBlur stdDeviation="3" result="blur"/>
      <feFlood flood-opacity="0.161"/>
      <feComposite operator="in" in2="blur"/>
      <feComposite in="SourceGraphic"/>
    </filter>
    <filter id="path72-2" x="17.44" y="55.167" width="85.119" height="59.667" filterUnits="userSpaceOnUse">
      <feOffset dx="5" dy="5" input="SourceAlpha"/>
      <feGaussianBlur stdDeviation="3" result="blur-2"/>
      <feFlood flood-opacity="0.161" result="color"/>
      <feComposite operator="out" in="SourceGraphic" in2="blur-2"/>
      <feComposite operator="in" in="color"/>
      <feComposite operator="in" in2="SourceGraphic"/>
    </filter>
    <clipPath id="clip-science-fictionMoviePoster">
      <rect width="120" height="160"/>
    </clipPath>
  </defs>
  <g id="science-fictionMoviePoster" clip-path="url(#clip-science-fictionMoviePoster)">
    <rect width="120" height="160" fill="#ff8f9a"/>
    <g id="g76" transform="translate(26.44 -37.912)">
      <g id="g74" transform="translate(0 97.079)">
        <g data-type="innerShadowGroup">
          <g transform="matrix(1, 0, 0, 1, -26.44, -59.17)" filter="url(#path72)">
            <path id="path72-3" data-name="path72" d="M46.286,105.039a13.895,13.895,0,0,0-26.46,5.934,37.935,37.935,0,0,0,13.9,2.768,37.934,37.934,0,0,0,13.895-2.768A13.841,13.841,0,0,0,46.286,105.039Zm5.9.666a19.281,19.281,0,0,1,.73,5.269,5.3,5.3,0,0,1-3.145,4.841A43.405,43.405,0,0,1,33.72,119.04a43.407,43.407,0,0,1-16.049-3.225,5.3,5.3,0,0,1-3.145-4.841,19.271,19.271,0,0,1,.75-5.34C8.208,107.052,0,109.9,0,115.473c0,3.757,3.692,6.718,10.974,8.8a60.743,60.743,0,0,0,6.9,1.509c1.716.279,3.513.511,5.371.693,2.462.242,5.031.4,7.663.459q1.316.031,2.649.032t2.65-.032c2.632-.062,5.2-.217,7.663-.459,1.858-.182,3.656-.414,5.371-.693a60.736,60.736,0,0,0,6.9-1.509c7.282-2.084,10.974-5.045,10.974-8.8,0-5.494-8.006-8.337-14.935-9.768Zm.361,29.515-1.527-4.365c-1.712.3-3.5.553-5.348.759l1.874,5.356a2.649,2.649,0,1,0,5-1.75ZM16.1,130.855l-1.527,4.365a2.649,2.649,0,1,0,5,1.75l1.874-5.356c-1.848-.206-3.636-.46-5.348-.759Zm17.459,1.411q-1.332,0-2.649-.031V136.1a2.649,2.649,0,1,0,5.3,0v-3.859Q34.892,132.266,33.56,132.266Z" transform="translate(26.44 -37.91)"/>
          </g>
          <g transform="matrix(1, 0, 0, 1, -26.44, -59.17)" filter="url(#path72-2)">
            <path id="path72-4" data-name="path72" d="M46.286,105.039a13.895,13.895,0,0,0-26.46,5.934,37.935,37.935,0,0,0,13.9,2.768,37.934,37.934,0,0,0,13.895-2.768A13.841,13.841,0,0,0,46.286,105.039Zm5.9.666a19.281,19.281,0,0,1,.73,5.269,5.3,5.3,0,0,1-3.145,4.841A43.405,43.405,0,0,1,33.72,119.04a43.407,43.407,0,0,1-16.049-3.225,5.3,5.3,0,0,1-3.145-4.841,19.271,19.271,0,0,1,.75-5.34C8.208,107.052,0,109.9,0,115.473c0,3.757,3.692,6.718,10.974,8.8a60.743,60.743,0,0,0,6.9,1.509c1.716.279,3.513.511,5.371.693,2.462.242,5.031.4,7.663.459q1.316.031,2.649.032t2.65-.032c2.632-.062,5.2-.217,7.663-.459,1.858-.182,3.656-.414,5.371-.693a60.736,60.736,0,0,0,6.9-1.509c7.282-2.084,10.974-5.045,10.974-8.8,0-5.494-8.006-8.337-14.935-9.768Zm.361,29.515-1.527-4.365c-1.712.3-3.5.553-5.348.759l1.874,5.356a2.649,2.649,0,1,0,5-1.75ZM16.1,130.855l-1.527,4.365a2.649,2.649,0,1,0,5,1.75l1.874-5.356c-1.848-.206-3.636-.46-5.348-.759Zm17.459,1.411q-1.332,0-2.649-.031V136.1a2.649,2.649,0,1,0,5.3,0v-3.859Q34.892,132.266,33.56,132.266Z" transform="translate(26.44 -37.91)" fill="#fff"/>
          </g>
        </g>
      </g>
    </g>
  </g>
</svg>
