<svg xmlns="http://www.w3.org/2000/svg" xmlns:xlink="http://www.w3.org/1999/xlink" width="232.256" height="229.201" viewBox="0 0 232.256 229.201">
  <defs>
    <filter id="Differenzmenge_206" x="0" y="0" width="232.256" height="229.201" filterUnits="userSpaceOnUse">
      <feOffset input="SourceAlpha"/>
      <feGaussianBlur stdDeviation="12.5" result="blur"/>
      <feFlood flood-color="#ff3a4d" flood-opacity="0.502"/>
      <feComposite operator="in" in2="blur"/>
      <feComposite in="SourceGraphic"/>
    </filter>
  </defs>
  <g transform="matrix(1, 0, 0, 1, 0, 0)" filter="url(#Differenzmenge_206)">
    <path id="Differenzmenge_206-2" data-name="Differenzmenge 206" d="M-11154.153-5490.8h-99.436a28.4,28.4,0,0,1-5.732-.583,28.071,28.071,0,0,1-5.325-1.668,28.308,28.308,0,0,1-4.827-2.642,28.639,28.639,0,0,1-4.205-3.5,28.779,28.779,0,0,1-3.469-4.24,28.745,28.745,0,0,1-2.619-4.867,28.588,28.588,0,0,1-1.655-5.379,29.173,29.173,0,0,1-.578-5.774v-95.895a29.2,29.2,0,0,1,.578-5.781,28.886,28.886,0,0,1,1.654-5.373,28.838,28.838,0,0,1,2.62-4.867,28.809,28.809,0,0,1,3.469-4.241,28.744,28.744,0,0,1,4.2-3.5,28.408,28.408,0,0,1,4.826-2.642,28.152,28.152,0,0,1,5.333-1.67,28.416,28.416,0,0,1,5.727-.582h99.436a28.429,28.429,0,0,1,5.731.583,28.127,28.127,0,0,1,5.327,1.668,28.362,28.362,0,0,1,4.825,2.642,28.7,28.7,0,0,1,4.205,3.5,28.776,28.776,0,0,1,3.469,4.241,28.6,28.6,0,0,1,2.619,4.867,28.652,28.652,0,0,1,1.656,5.379,29.032,29.032,0,0,1,.576,5.774v95.895a29.111,29.111,0,0,1-.578,5.78,28.734,28.734,0,0,1-1.654,5.373,28.681,28.681,0,0,1-2.62,4.867,28.711,28.711,0,0,1-3.468,4.24,28.639,28.639,0,0,1-4.205,3.5,28.379,28.379,0,0,1-4.827,2.642,28.027,28.027,0,0,1-5.332,1.669A28.369,28.369,0,0,1-11154.153-5490.8Zm-79.732-112.322a13.514,13.514,0,0,0-5.311,1.079,13.576,13.576,0,0,0-4.336,2.942,13.682,13.682,0,0,0-2.924,4.364,13.735,13.735,0,0,0-1.073,5.345v44.108a13.853,13.853,0,0,0,1.073,5.369,13.721,13.721,0,0,0,2.924,4.385,13.573,13.573,0,0,0,4.338,2.957,13.4,13.4,0,0,0,5.3,1.083h60.034a13.417,13.417,0,0,0,5.31-1.084,13.6,13.6,0,0,0,4.337-2.957,13.7,13.7,0,0,0,2.923-4.385,13.8,13.8,0,0,0,1.073-5.37v-44.108h0a13.677,13.677,0,0,0-1.072-5.344,13.709,13.709,0,0,0-2.924-4.364,13.609,13.609,0,0,0-4.336-2.942,13.469,13.469,0,0,0-3.529-.964l-1.78,5.375-2.34,7.061-1.347,4.067h-10.914l3.686-11.128,1.818-5.491h-10.913l-1.819,5.492-3.274,9.885-.412,1.242h-10.914l3.686-11.128,1.818-5.491h-10.914l-1.817,5.491-2.339,7.061-1.348,4.067h-10.914l3.686-11.128,1.819-5.491Zm51.843,46.249a6.475,6.475,0,0,1-4.632-1.939,6.616,6.616,0,0,1-1.916-4.682,6.615,6.615,0,0,1,1.916-4.683,6.558,6.558,0,0,1,1.789-1.288,6.442,6.442,0,0,1,2.092-.61h1.5a6.436,6.436,0,0,1,2.093.61,6.589,6.589,0,0,1,1.787,1.288,6.614,6.614,0,0,1,1.918,4.683,6.615,6.615,0,0,1-1.919,4.682A6.465,6.465,0,0,1-11182.043-5556.872Zm-21.829,0a6.47,6.47,0,0,1-4.63-1.939,6.609,6.609,0,0,1-1.918-4.682,6.622,6.622,0,0,1,1.918-4.683,6.559,6.559,0,0,1,1.787-1.288,6.448,6.448,0,0,1,2.093-.61h1.5a6.449,6.449,0,0,1,2.092.61,6.579,6.579,0,0,1,1.788,1.288,6.615,6.615,0,0,1,1.916,4.683,6.616,6.616,0,0,1-1.916,4.682A6.469,6.469,0,0,1-11203.872-5556.872Zm-21.827,0a6.467,6.467,0,0,1-4.631-1.939,6.614,6.614,0,0,1-1.918-4.682,6.613,6.613,0,0,1,1.918-4.683,6.529,6.529,0,0,1,1.787-1.288,6.43,6.43,0,0,1,2.092-.61h1.5a6.437,6.437,0,0,1,2.092.61,6.544,6.544,0,0,1,1.786,1.288,6.606,6.606,0,0,1,1.919,4.683,6.609,6.609,0,0,1-1.918,4.682A6.468,6.468,0,0,1-11225.7-5556.872Z" transform="translate(11320 5682)" fill="#ff3a4d" stroke="rgba(0,0,0,0)" stroke-miterlimit="10" stroke-width="1"/>
  </g>
</svg>
