<svg xmlns="http://www.w3.org/2000/svg" xmlns:xlink="http://www.w3.org/1999/xlink" width="1920" height="1080" viewBox="0 0 1920 1080"><defs><linearGradient id="linear-gradient" x1="0.5" x2="0.5" y2="1" gradientUnits="objectBoundingBox"><stop offset="0" stop-color="#161b25"/><stop offset="0.271" stop-color="#161b25"/><stop offset="0.517" stop-color="#1c222f"/><stop offset="0.803" stop-color="#161b25"/><stop offset="1" stop-color="#161b25"/></linearGradient><clipPath id="clip-Background"><rect width="1920" height="1080"/></clipPath></defs><g id="Background" clip-path="url(#clip-Background)"><rect width="1920" height="1080" fill="url(#linear-gradient)"/><path id="backgroundIcon0" d="M24264,22330c0-8.291,13.43-15,30-15s30,6.707,30,15-13.43,15-30,15S24264,22338.285,24264,22330Zm0-30c0-8.283,13.43-15,30-15s30,6.715,30,15-13.43,15.006-30,15.006S24264,22308.287,24264,22300Z" transform="translate(-24233.5 -21824.191)" fill="#161b25"/><path id="backgroundIcon1" d="M-7903,2284v-30h60v30Zm0-30a29.8,29.8,0,0,1,2.357-11.677,29.914,29.914,0,0,1,6.429-9.536,29.9,29.9,0,0,1,9.537-6.429A29.828,29.828,0,0,1-7873,2224a29.824,29.824,0,0,1,11.677,2.356,29.908,29.908,0,0,1,9.535,6.429,29.886,29.886,0,0,1,6.431,9.536A29.82,29.82,0,0,1-7843,2254v0Z" transform="translate(8133.5 -1763.189)" fill="#161b25"/><path id="backgroundIcon2" d="M-7903,2264h60v60A60,60,0,0,1-7903,2264Z" transform="translate(-1733.5 -7382.191) rotate(-90)" fill="#161b25"/><path id="backgroundIcon3" d="M-7903.5,2263.5h61v61h-.5a60.117,60.117,0,0,1-23.549-4.755,60.513,60.513,0,0,1-10.277-5.578,60.94,60.94,0,0,1-8.953-7.387,60.911,60.911,0,0,1-7.387-8.953,60.531,60.531,0,0,1-5.579-10.277A60.119,60.119,0,0,1-7903.5,2264Zm60,1h-59a59.1,59.1,0,0,0,4.674,22.659,59.513,59.513,0,0,0,5.486,10.106,59.893,59.893,0,0,0,7.266,8.806,59.914,59.914,0,0,0,8.806,7.266,59.5,59.5,0,0,0,10.106,5.486,59.09,59.09,0,0,0,22.659,4.674Z" transform="translate(-1733.5 -7382.191) rotate(-90)" fill="rgba(0,0,0,0)"/><path id="backgroundIcon4" d="M-7843,2284h-60v-60h60v60Zm-45-45a30.034,30.034,0,0,0,30,30v-30Z" transform="translate(-7712.5 2744.809) rotate(180)" fill="#161b25"/><path id="backgroundIcon5" d="M-7843,2284.5h-60.5v-61h61V2284h-.5Zm-59.5-1h59v-59h-59Zm45-14h-.5a30.535,30.535,0,0,1-30.5-30.5v-.5h31Zm-30-30a29.535,29.535,0,0,0,29,29v-29Z" transform="translate(-7712.5 2744.809) rotate(180)" fill="rgba(0,0,0,0)"/><path id="backgroundIcon6" d="M-7843,2284h-60v-60h60v60Zm-45-45a30.034,30.034,0,0,0,30,30v-30Z" transform="translate(-1393.5 -7382.191) rotate(-90)" fill="#161b25"/><path id="backgroundIcon7" d="M-7843,2284.5h-60.5v-61h61V2284h-.5Zm-59.5-1h59v-59h-59Zm45-14h-.5a30.535,30.535,0,0,1-30.5-30.5v-.5h31Zm-30-30a29.535,29.535,0,0,0,29,29v-29Z" transform="translate(-1393.5 -7382.191) rotate(-90)" fill="rgba(0,0,0,0)"/><path id="backgroundIcon8" d="M-7873,2284a29.809,29.809,0,0,1-11.677-2.358,29.9,29.9,0,0,1-9.535-6.429,29.891,29.891,0,0,1-6.43-9.536A29.81,29.81,0,0,1-7903,2254a29.808,29.808,0,0,1,2.357-11.677,29.884,29.884,0,0,1,6.43-9.535,29.9,29.9,0,0,1,9.535-6.429A29.815,29.815,0,0,1-7873,2224a29.813,29.813,0,0,1,11.677,2.357,29.9,29.9,0,0,1,9.535,6.429,29.9,29.9,0,0,1,6.429,9.535A29.817,29.817,0,0,1-7843,2254a29.821,29.821,0,0,1-2.357,11.677,29.9,29.9,0,0,1-6.429,9.536,29.9,29.9,0,0,1-9.535,6.429A29.807,29.807,0,0,1-7873,2284Zm-15-45v30h30v-30Z" transform="translate(8533.5 -1763.189)" fill="#161b25"/><path id="backgroundIcon9" d="M-7873,2284.5a30.307,30.307,0,0,1-11.872-2.4,30.391,30.391,0,0,1-9.694-6.536,30.391,30.391,0,0,1-6.537-9.694,30.311,30.311,0,0,1-2.4-11.872,30.308,30.308,0,0,1,2.4-11.872,30.378,30.378,0,0,1,6.537-9.694,30.389,30.389,0,0,1,9.694-6.536,30.312,30.312,0,0,1,11.872-2.4,30.309,30.309,0,0,1,11.872,2.4,30.4,30.4,0,0,1,9.694,6.536,30.394,30.394,0,0,1,6.536,9.694,30.317,30.317,0,0,1,2.4,11.872,30.321,30.321,0,0,1-2.4,11.872,30.4,30.4,0,0,1-6.536,9.694,30.391,30.391,0,0,1-9.694,6.536A30.306,30.306,0,0,1-7873,2284.5Zm0-60a29.316,29.316,0,0,0-11.482,2.318,29.4,29.4,0,0,0-9.376,6.322,29.392,29.392,0,0,0-6.323,9.376A29.31,29.31,0,0,0-7902.5,2254a29.313,29.313,0,0,0,2.318,11.482,29.4,29.4,0,0,0,6.323,9.377,29.4,29.4,0,0,0,9.376,6.322A29.313,29.313,0,0,0-7873,2283.5a29.313,29.313,0,0,0,11.482-2.318,29.4,29.4,0,0,0,9.376-6.322,29.407,29.407,0,0,0,6.322-9.377A29.322,29.322,0,0,0-7843.5,2254a29.318,29.318,0,0,0-2.318-11.482,29.4,29.4,0,0,0-6.322-9.376,29.41,29.41,0,0,0-9.376-6.322A29.316,29.316,0,0,0-7873,2224.5Zm15.5,45h-31v-31h31Zm-30-1h29v-29h-29Z" transform="translate(8533.5 -1763.189)" fill="rgba(0,0,0,0)"/><path id="backgroundIcon10" d="M24282.326,22342.645A29.969,29.969,0,0,1,24264,22315v-30h60v30a30.018,30.018,0,0,1-41.674,27.641Z" transform="translate(-23533.5 -21824.191)" fill="#161b25"/><path id="backgroundIcon11" d="M24312.322,22342.645A30,30,0,0,1,24324,22285v60A29.838,29.838,0,0,1,24312.322,22342.645ZM24264,22285a30,30,0,1,1,0,60Z" transform="translate(-23833.5 -21824.191)" fill="#161b25"/><path id="backgroundIcon12" d="M7547-1229a29.82,29.82,0,0,1-11.678-2.357,29.9,29.9,0,0,1-9.535-6.429,29.911,29.911,0,0,1-6.43-9.536A29.81,29.81,0,0,1,7517-1259a29.81,29.81,0,0,1,2.357-11.677,29.9,29.9,0,0,1,6.43-9.536,29.9,29.9,0,0,1,9.535-6.429A29.817,29.817,0,0,1,7547-1289a29.81,29.81,0,0,1,11.678,2.358,29.894,29.894,0,0,1,9.536,6.429,29.914,29.914,0,0,1,6.43,9.536A29.81,29.81,0,0,1,7577-1259a29.81,29.81,0,0,1-2.357,11.677,29.911,29.911,0,0,1-6.43,9.536,29.894,29.894,0,0,1-9.536,6.429A29.812,29.812,0,0,1,7547-1229Zm0-52.5-22.5,22.5,22.5,22.5,22.5-22.5-22.5-22.5Z" transform="translate(-7186.5 1749.809)" fill="#161b25"/><path id="backgroundIcon13" d="M7547-1228.5a30.318,30.318,0,0,1-11.873-2.4,30.394,30.394,0,0,1-9.694-6.536,30.41,30.41,0,0,1-6.537-9.695,30.31,30.31,0,0,1-2.4-11.872,30.311,30.311,0,0,1,2.4-11.872,30.387,30.387,0,0,1,6.537-9.695,30.4,30.4,0,0,1,9.694-6.536,30.316,30.316,0,0,1,11.873-2.4,30.309,30.309,0,0,1,11.873,2.4,30.392,30.392,0,0,1,9.695,6.536,30.412,30.412,0,0,1,6.537,9.695,30.311,30.311,0,0,1,2.4,11.872,30.31,30.31,0,0,1-2.4,11.872,30.41,30.41,0,0,1-6.537,9.695,30.39,30.39,0,0,1-9.695,6.536A30.311,30.311,0,0,1,7547-1228.5Zm0-60a29.319,29.319,0,0,0-11.483,2.318,29.4,29.4,0,0,0-9.376,6.322,29.4,29.4,0,0,0-6.323,9.377A29.313,29.313,0,0,0,7517.5-1259a29.311,29.311,0,0,0,2.318,11.483,29.415,29.415,0,0,0,6.323,9.377,29.4,29.4,0,0,0,9.376,6.323A29.325,29.325,0,0,0,7547-1229.5a29.317,29.317,0,0,0,11.483-2.318,29.4,29.4,0,0,0,9.377-6.323,29.415,29.415,0,0,0,6.323-9.377A29.311,29.311,0,0,0,7576.5-1259a29.312,29.312,0,0,0-2.318-11.483,29.418,29.418,0,0,0-6.323-9.377,29.394,29.394,0,0,0-9.377-6.322A29.312,29.312,0,0,0,7547-1288.5Zm0,52.708-.354-.354L7523.792-1259l22.5-22.5-.372-.372,1.019-.125.061.5.353-.353L7570.207-1259ZM7525.206-1259,7547-1237.207,7568.793-1259,7547-1280.793Z" transform="translate(-7186.5 1749.809)" fill="rgba(0,0,0,0)"/><path id="backgroundIcon14" d="M24294,22315h30v30A30,30,0,0,1,24294,22315Zm-30,0h30a30,30,0,0,1-30-30h30v60A30,30,0,0,1,24264,22315Zm30-30h30v30A30.008,30.008,0,0,1,24294,22285Z" transform="translate(-23933.5 -22024.191)" fill="#161b25"/><path id="backgroundIcon15" d="M24264,22345a30.157,30.157,0,0,1,2.318-11.678,29.815,29.815,0,0,1,6.318-9.533,29.42,29.42,0,0,1,9.377-6.436,29.165,29.165,0,0,1,22.965,0,29.35,29.35,0,0,1,9.381,6.436,29.75,29.75,0,0,1,6.318,9.533A30.231,30.231,0,0,1,24323,22345Zm0-30a30.178,30.178,0,0,1,8.637-21.213,29.334,29.334,0,0,1,9.377-6.428,29.1,29.1,0,0,1,22.965,0,29.265,29.265,0,0,1,9.381,6.428,29.844,29.844,0,0,1,6.318,9.535A30.231,30.231,0,0,1,24323,22315Z" transform="translate(-23833.5 -22024.191)" fill="#161b25"/><path id="backgroundIcon16" d="M24294,22330a15,15,0,1,1,15,15A14.994,14.994,0,0,1,24294,22330Zm-30,0a15,15,0,1,1,15,15A14.993,14.993,0,0,1,24264,22330Zm30-30a15,15,0,1,1,15,15.006A15,15,0,0,1,24294,22300Zm-30,0a15,15,0,1,1,15,15.006A15,15,0,0,1,24264,22300Z" transform="translate(-23733.5 -22024.193)" fill="#161b25"/><path id="backgroundIcon17" d="M24264,22345v-15h60v15Zm0-22v-15h60v15Zm0-23v-15h60v15Z" transform="translate(-24033.5 -22024.191)" fill="#161b25"/><path id="backgroundIcon18" d="M24264,22345a22.313,22.313,0,1,0,18.326-32.359A29.956,29.956,0,0,1,24264,22285h60a22.322,22.322,0,1,0-18.324,32.359A29.958,29.958,0,0,1,24324,22345Z" transform="translate(-23933.5 -21924.191)" fill="#161b25"/><path id="backgroundIcon19" d="M30-.5A30.508,30.508,0,0,1,41.872,58.1,30.508,30.508,0,0,1,18.128,1.9,30.309,30.309,0,0,1,30-.5Zm0,60A29.508,29.508,0,0,0,41.483,2.818,29.508,29.508,0,0,0,18.517,57.182,29.315,29.315,0,0,0,30,59.5Z" transform="translate(430.5 160.809)" fill="rgba(0,0,0,0)"/><path id="backgroundIcon20" d="M24294,22345a30,30,0,0,1,30-30v30Zm-30-30h30v30A30,30,0,0,1,24264,22315Zm30,0v-30a30,30,0,0,1,30,30Zm-30-30h30a30,30,0,0,1-30,30Z" transform="translate(-24033.5 -22124.191)" fill="#161b25"/><path id="backgroundIcon21" d="M24294,22345a30,30,0,0,1,30-30v30Zm-30,0v-30a30,30,0,0,1,30,30Zm30-60h30v30A30.008,30.008,0,0,1,24294,22285Zm-30,0h30a30,30,0,0,1-30,30Z" transform="translate(-23533.5 -22124.191)" fill="#161b25"/><path id="backgroundIcon22" d="M-7903,2264h60v60A60,60,0,0,1-7903,2264Z" transform="translate(-7212.498 2584.811) rotate(180)" fill="#161b25"/><path id="backgroundIcon23" d="M-7903.5,2263.5h61v61h-.5a60.121,60.121,0,0,1-23.549-4.755,60.513,60.513,0,0,1-10.277-5.578,60.932,60.932,0,0,1-8.954-7.388,60.929,60.929,0,0,1-7.388-8.954,60.535,60.535,0,0,1-5.579-10.277A60.114,60.114,0,0,1-7903.5,2264Zm60,1h-59a59.1,59.1,0,0,0,4.674,22.66,59.52,59.52,0,0,0,5.486,10.107,59.925,59.925,0,0,0,7.266,8.806,59.982,59.982,0,0,0,8.806,7.266,59.545,59.545,0,0,0,10.107,5.486,59.1,59.1,0,0,0,22.66,4.674Z" transform="translate(-7212.498 2584.811) rotate(180)" fill="rgba(0,0,0,0)"/><path id="backgroundIcon24" d="M-7903,2264h60v60A60,60,0,0,1-7903,2264Z" transform="translate(3154.5 8163.809) rotate(90)" fill="#161b25"/><path id="backgroundIcon25" d="M-7903.5,2263.5h61v61h-.5a60.121,60.121,0,0,1-23.549-4.755,60.513,60.513,0,0,1-10.277-5.578,60.932,60.932,0,0,1-8.954-7.388,60.929,60.929,0,0,1-7.388-8.954,60.535,60.535,0,0,1-5.579-10.277A60.114,60.114,0,0,1-7903.5,2264Zm60,1h-59a59.1,59.1,0,0,0,4.674,22.66,59.52,59.52,0,0,0,5.486,10.107,59.925,59.925,0,0,0,7.266,8.806,59.982,59.982,0,0,0,8.806,7.266,59.545,59.545,0,0,0,10.107,5.486,59.1,59.1,0,0,0,22.66,4.674Z" transform="translate(3154.5 8163.809) rotate(90)" fill="rgba(0,0,0,0)"/><path id="backgroundIcon26" d="M-7903,2264h60v60A60,60,0,0,1-7903,2264Z" transform="translate(8033.5 -1903.191)" fill="#161b25"/><path id="backgroundIcon27" d="M-7903.5,2263.5h61v61h-.5a60.121,60.121,0,0,1-23.549-4.755,60.513,60.513,0,0,1-10.277-5.578,60.932,60.932,0,0,1-8.954-7.388,60.929,60.929,0,0,1-7.388-8.954,60.535,60.535,0,0,1-5.579-10.277A60.114,60.114,0,0,1-7903.5,2264Zm60,1h-59a59.1,59.1,0,0,0,4.674,22.66,59.52,59.52,0,0,0,5.486,10.107,59.925,59.925,0,0,0,7.266,8.806,59.982,59.982,0,0,0,8.806,7.266,59.545,59.545,0,0,0,10.107,5.486,59.1,59.1,0,0,0,22.66,4.674Z" transform="translate(8033.5 -1903.191)" fill="rgba(0,0,0,0)"/><path id="backgroundIcon28" d="M24294,22315h30a30,30,0,0,1-30,30Zm-30,30v-30a30,30,0,0,1,30,30Zm30-60h30v30A30.008,30.008,0,0,1,24294,22285Zm-29,30a1,1,0,0,1-.988-.85,30.006,30.006,0,0,1,29.148-29.148,1,1,0,0,1,.844.988V22314a1,1,0,0,1-1,1Z" transform="translate(-23733.5 -22124.191)" fill="#161b25"/><path id="backgroundIcon29" d="M24309,22345v-60h15v60Zm-22,0v-60h15v60Zm-23,0v-60h15v60Z" transform="translate(-23533.5 -21924.191)" fill="#161b25"/><path id="backgroundIcon30" d="M24264,22345l30-30,30,30Zm0-60h60l-30,30Z" transform="translate(-23433.5 -22124.191)" fill="#161b25"/><path id="backgroundIcon31" d="M24264,22315h60l-30,30Zm0,0,30-30,30,30Z" transform="translate(-24133.5 -22024.191)" fill="#161b25"/><path id="backgroundIcon32" d="M24294,22315l30-30v60Zm-30-30,30,30-30,30Z" transform="translate(-23433.5 -21924.191)" fill="#161b25"/><path id="backgroundIcon33" d="M-7843,2284h-60v-60h60v60Zm-45-45v30h30v-30Z" transform="translate(8133.5 -1863.191)" fill="#161b25"/><path id="backgroundIcon34" d="M-7843,2284.5h-60.5v-61h61V2284h-.5Zm-59.5-1h59v-59h-59Zm45-14h-31v-31h31Zm-30-1h29v-29h-29Z" transform="translate(8133.5 -1863.191)" fill="rgba(0,0,0,0)"/><path id="backgroundIcon35" d="M-7843,2284h-60v-60h60v60Zm-45-45a30.034,30.034,0,0,0,30,30v-30Z" transform="translate(7933.5 -1863.191)" fill="#161b25"/><path id="backgroundIcon36" d="M-7843,2284.5h-60.5v-61h61V2284h-.5Zm-59.5-1h59v-59h-59Zm45-14h-.5a30.534,30.534,0,0,1-30.5-30.5v-.5h31Zm-30-30a29.535,29.535,0,0,0,29,29v-29Z" transform="translate(7933.5 -1863.191)" fill="rgba(0,0,0,0)"/><path id="backgroundIcon37" d="M-7843,2284h-60v-60h60v60Zm-45-45a30.036,30.036,0,0,0,30,30v-30Z" transform="translate(3014.502 8163.809) rotate(90)" fill="#161b25"/><path id="backgroundIcon38" d="M-7843,2284.5h-60.5v-61h61V2284h-.5Zm-59.5-1h59v-59h-59Zm45-14h-.5a30.536,30.536,0,0,1-30.5-30.5v-.5h31Zm-30-30a29.536,29.536,0,0,0,29,29v-29Z" transform="translate(3014.502 8163.809) rotate(90)" fill="rgba(0,0,0,0)"/><path id="backgroundIcon39" d="M-7843,2284h-60v-60h60v60Zm-30-52.5-22.5,22.5,22.5,22.5,22.5-22.5-22.5-22.5Z" transform="translate(8033.5 -2063.191)" fill="#161b25"/><path id="backgroundIcon40" d="M-7843,2284.5h-60.5v-61h61V2284h-.5Zm-59.5-1h59v-59h-59Zm29.5-6.292L-7896.208,2254l22.5-22.5-.141-.141.629-.308.22.449.353-.353,22.853,22.853ZM-7894.794,2254l21.793,21.792,21.792-21.792L-7873,2232.207Z" transform="translate(8033.5 -2063.191)" fill="rgba(0,0,0,0)"/><path id="backgroundIcon41" d="M24294,22345v-60h30v60Zm-11.672-2.355A30,30,0,0,1,24294,22285v60A29.8,29.8,0,0,1,24282.326,22342.645Z" transform="translate(-24233.496 -22124.191)" fill="#161b25"/><path id="backgroundIcon42" d="M24324.5,22345.5h-31v0a30.5,30.5,0,0,1,0-60.992v0h31Zm-30-1h29v-59h-29Zm-1-59a29.5,29.5,0,0,0,0,58.992Z" transform="translate(-24233.496 -22124.191)" fill="rgba(0,0,0,0)"/><path id="backgroundIcon43" d="M24264,22345v-60h30a30,30,0,1,1,0,60Z" transform="translate(-23833.5 -21924.191)" fill="#161b25"/><path id="backgroundIcon44" d="M30,0,60,60H0Z" transform="translate(90.5 260.807) rotate(90)" fill="#161b25"/><path id="backgroundIcon45" d="M30-1.118,60.809,60.5H-.809ZM59.191,59.5,30,1.118.809,59.5Z" transform="translate(90.5 260.807) rotate(90)" fill="rgba(0,0,0,0)"/><path id="backgroundIcon46" d="M30,0,60,60H0Z" transform="translate(630.5 220.809) rotate(-90)" fill="#161b25"/><path id="backgroundIcon47" d="M30-1.118,60.809,60.5H-.809ZM59.191,59.5,30,1.118.809,59.5Z" transform="translate(630.5 220.809) rotate(-90)" fill="rgba(0,0,0,0)"/><path id="backgroundIcon48" d="M7547-1229a29.82,29.82,0,0,1-11.678-2.357,29.9,29.9,0,0,1-9.535-6.429,29.911,29.911,0,0,1-6.43-9.536A29.81,29.81,0,0,1,7517-1259a29.81,29.81,0,0,1,2.357-11.677,29.9,29.9,0,0,1,6.43-9.536,29.9,29.9,0,0,1,9.535-6.429A29.817,29.817,0,0,1,7547-1289a29.81,29.81,0,0,1,11.678,2.358,29.894,29.894,0,0,1,9.536,6.429,29.914,29.914,0,0,1,6.43,9.536A29.81,29.81,0,0,1,7577-1259a29.81,29.81,0,0,1-2.357,11.677,29.911,29.911,0,0,1-6.43,9.536,29.894,29.894,0,0,1-9.536,6.429A29.812,29.812,0,0,1,7547-1229Zm0-45a14.9,14.9,0,0,0-5.838,1.179,14.952,14.952,0,0,0-4.769,3.214,14.958,14.958,0,0,0-3.215,4.768A14.907,14.907,0,0,0,7532-1259a14.9,14.9,0,0,0,1.179,5.839,14.955,14.955,0,0,0,3.215,4.768,14.949,14.949,0,0,0,4.769,3.215A14.9,14.9,0,0,0,7547-1244a14.9,14.9,0,0,0,5.839-1.179,14.938,14.938,0,0,0,4.769-3.215,14.947,14.947,0,0,0,3.215-4.768A14.9,14.9,0,0,0,7562-1259a14.907,14.907,0,0,0-1.179-5.839,14.945,14.945,0,0,0-3.215-4.768,14.937,14.937,0,0,0-4.769-3.214A14.9,14.9,0,0,0,7547-1274Z" transform="translate(-6886.5 1649.809)" fill="#161b25"/><path id="backgroundIcon49" d="M7547-1228.5a30.318,30.318,0,0,1-11.873-2.4,30.394,30.394,0,0,1-9.694-6.536,30.41,30.41,0,0,1-6.537-9.695,30.31,30.31,0,0,1-2.4-11.872,30.311,30.311,0,0,1,2.4-11.872,30.387,30.387,0,0,1,6.537-9.695,30.4,30.4,0,0,1,9.694-6.536,30.316,30.316,0,0,1,11.873-2.4,30.309,30.309,0,0,1,11.873,2.4,30.392,30.392,0,0,1,9.695,6.536,30.412,30.412,0,0,1,6.537,9.695,30.311,30.311,0,0,1,2.4,11.872,30.31,30.31,0,0,1-2.4,11.872,30.41,30.41,0,0,1-6.537,9.695,30.39,30.39,0,0,1-9.695,6.536A30.311,30.311,0,0,1,7547-1228.5Zm0-60a29.319,29.319,0,0,0-11.483,2.318,29.4,29.4,0,0,0-9.376,6.322,29.4,29.4,0,0,0-6.323,9.377A29.313,29.313,0,0,0,7517.5-1259a29.311,29.311,0,0,0,2.318,11.483,29.415,29.415,0,0,0,6.323,9.377,29.4,29.4,0,0,0,9.376,6.323A29.325,29.325,0,0,0,7547-1229.5a29.317,29.317,0,0,0,11.483-2.318,29.4,29.4,0,0,0,9.377-6.323,29.415,29.415,0,0,0,6.323-9.377A29.311,29.311,0,0,0,7576.5-1259a29.312,29.312,0,0,0-2.318-11.483,29.418,29.418,0,0,0-6.323-9.377,29.394,29.394,0,0,0-9.377-6.322A29.312,29.312,0,0,0,7547-1288.5Zm0,45a15.4,15.4,0,0,1-6.033-1.218,15.446,15.446,0,0,1-4.927-3.322,15.449,15.449,0,0,1-3.322-4.927A15.4,15.4,0,0,1,7531.5-1259a15.4,15.4,0,0,1,1.218-6.034,15.45,15.45,0,0,1,3.322-4.927,15.454,15.454,0,0,1,4.927-3.321A15.405,15.405,0,0,1,7547-1274.5a15.4,15.4,0,0,1,6.034,1.218,15.434,15.434,0,0,1,4.927,3.321,15.436,15.436,0,0,1,3.322,4.927A15.4,15.4,0,0,1,7562.5-1259a15.4,15.4,0,0,1-1.218,6.033,15.441,15.441,0,0,1-3.322,4.927,15.437,15.437,0,0,1-4.927,3.322A15.4,15.4,0,0,1,7547-1243.5Zm0-30a14.406,14.406,0,0,0-5.643,1.139,14.454,14.454,0,0,0-4.61,3.107,14.463,14.463,0,0,0-3.108,4.609A14.41,14.41,0,0,0,7532.5-1259a14.408,14.408,0,0,0,1.139,5.644,14.462,14.462,0,0,0,3.108,4.609,14.456,14.456,0,0,0,4.61,3.108A14.4,14.4,0,0,0,7547-1244.5a14.4,14.4,0,0,0,5.644-1.139,14.443,14.443,0,0,0,4.61-3.108,14.454,14.454,0,0,0,3.108-4.609A14.408,14.408,0,0,0,7561.5-1259a14.41,14.41,0,0,0-1.139-5.644,14.449,14.449,0,0,0-3.108-4.609,14.434,14.434,0,0,0-4.61-3.107A14.4,14.4,0,0,0,7547-1273.5Z" transform="translate(-6886.5 1649.809)" fill="rgba(0,0,0,0)"/><path id="backgroundIcon50" d="M7547-1229h0l-30-30,30-30,30,30-30,30Zm0-45a14.9,14.9,0,0,0-5.838,1.179,14.948,14.948,0,0,0-4.769,3.214,14.958,14.958,0,0,0-3.215,4.768A14.907,14.907,0,0,0,7532-1259a14.906,14.906,0,0,0,1.179,5.839,14.956,14.956,0,0,0,3.215,4.768,14.947,14.947,0,0,0,4.769,3.215A14.9,14.9,0,0,0,7547-1244a14.9,14.9,0,0,0,5.839-1.179,14.937,14.937,0,0,0,4.769-3.215,14.948,14.948,0,0,0,3.215-4.768A14.906,14.906,0,0,0,7562-1259a14.907,14.907,0,0,0-1.179-5.839,14.945,14.945,0,0,0-3.215-4.768,14.937,14.937,0,0,0-4.769-3.214A14.9,14.9,0,0,0,7547-1274Z" transform="translate(-7186.5 1449.809)" fill="#161b25"/><path id="backgroundIcon51" d="M7547.353-1228.646,7547-1229l-.354.353L7516.292-1259,7547-1289.707l.354.354L7577.707-1259ZM7517.706-1259,7547-1229.706,7576.293-1259,7547-1288.293ZM7547-1243.5a15.392,15.392,0,0,1-6.033-1.219,15.45,15.45,0,0,1-4.927-3.322,15.448,15.448,0,0,1-3.322-4.927A15.4,15.4,0,0,1,7531.5-1259a15.4,15.4,0,0,1,1.218-6.034,15.45,15.45,0,0,1,3.322-4.927,15.45,15.45,0,0,1,4.927-3.321A15.405,15.405,0,0,1,7547-1274.5a15.4,15.4,0,0,1,6.034,1.218,15.434,15.434,0,0,1,4.927,3.321,15.436,15.436,0,0,1,3.322,4.927A15.4,15.4,0,0,1,7562.5-1259a15.4,15.4,0,0,1-1.218,6.033,15.44,15.44,0,0,1-3.322,4.927,15.434,15.434,0,0,1-4.927,3.322A15.4,15.4,0,0,1,7547-1243.5Zm0-30a14.406,14.406,0,0,0-5.643,1.139,14.45,14.45,0,0,0-4.61,3.107,14.463,14.463,0,0,0-3.108,4.609A14.41,14.41,0,0,0,7532.5-1259a14.409,14.409,0,0,0,1.139,5.644,14.462,14.462,0,0,0,3.108,4.609,14.455,14.455,0,0,0,4.61,3.108,14.4,14.4,0,0,0,5.643,1.14,14.4,14.4,0,0,0,5.644-1.139,14.439,14.439,0,0,0,4.61-3.108,14.453,14.453,0,0,0,3.108-4.609A14.409,14.409,0,0,0,7561.5-1259a14.41,14.41,0,0,0-1.139-5.644,14.449,14.449,0,0,0-3.108-4.609,14.434,14.434,0,0,0-4.61-3.107A14.4,14.4,0,0,0,7547-1273.5Z" transform="translate(-7186.5 1449.809)" fill="rgba(0,0,0,0)"/><path id="backgroundIcon52" d="M24264,22330c0-8.291,13.43-15,30-15s30,6.707,30,15-13.43,15-30,15S24264,22338.285,24264,22330Zm0-30c0-8.283,13.43-15,30-15s30,6.715,30,15-13.43,15.006-30,15.006S24264,22308.287,24264,22300Z" transform="translate(-23333 -21823.383)" fill="#161b25"/><path id="backgroundIcon53" d="M-7903,2284v-30h60v30Zm0-30a29.8,29.8,0,0,1,2.357-11.677,29.914,29.914,0,0,1,6.429-9.536,29.9,29.9,0,0,1,9.537-6.429A29.828,29.828,0,0,1-7873,2224a29.824,29.824,0,0,1,11.677,2.356,29.908,29.908,0,0,1,9.535,6.429,29.886,29.886,0,0,1,6.431,9.536A29.82,29.82,0,0,1-7843,2254v0Z" transform="translate(9034 -1762.381)" fill="#161b25"/><path id="backgroundIcon54" d="M-7903,2264h60v60A60,60,0,0,1-7903,2264Z" transform="translate(-833 -7381.383) rotate(-90)" fill="#161b25"/><path id="backgroundIcon55" d="M-7903.5,2263.5h61v61h-.5a60.117,60.117,0,0,1-23.549-4.755,60.513,60.513,0,0,1-10.277-5.578,60.94,60.94,0,0,1-8.953-7.387,60.911,60.911,0,0,1-7.387-8.953,60.531,60.531,0,0,1-5.579-10.277A60.119,60.119,0,0,1-7903.5,2264Zm60,1h-59a59.1,59.1,0,0,0,4.674,22.659,59.513,59.513,0,0,0,5.486,10.106,59.893,59.893,0,0,0,7.266,8.806,59.914,59.914,0,0,0,8.806,7.266,59.5,59.5,0,0,0,10.106,5.486,59.09,59.09,0,0,0,22.659,4.674Z" transform="translate(-833 -7381.383) rotate(-90)" fill="rgba(0,0,0,0)"/><path id="backgroundIcon56" d="M-7843,2284h-60v-60h60v60Zm-45-45a30.034,30.034,0,0,0,30,30v-30Z" transform="translate(-6812 2745.617) rotate(180)" fill="#161b25"/><path id="backgroundIcon57" d="M-7843,2284.5h-60.5v-61h61V2284h-.5Zm-59.5-1h59v-59h-59Zm45-14h-.5a30.535,30.535,0,0,1-30.5-30.5v-.5h31Zm-30-30a29.535,29.535,0,0,0,29,29v-29Z" transform="translate(-6812 2745.617) rotate(180)" fill="rgba(0,0,0,0)"/><path id="backgroundIcon58" d="M-7843,2284h-60v-60h60v60Zm-45-45a30.034,30.034,0,0,0,30,30v-30Z" transform="translate(-493 -7381.383) rotate(-90)" fill="#161b25"/><path id="backgroundIcon59" d="M-7843,2284.5h-60.5v-61h61V2284h-.5Zm-59.5-1h59v-59h-59Zm45-14h-.5a30.535,30.535,0,0,1-30.5-30.5v-.5h31Zm-30-30a29.535,29.535,0,0,0,29,29v-29Z" transform="translate(-493 -7381.383) rotate(-90)" fill="rgba(0,0,0,0)"/><path id="backgroundIcon60" d="M-7873,2284a29.809,29.809,0,0,1-11.677-2.358,29.9,29.9,0,0,1-9.535-6.429,29.891,29.891,0,0,1-6.43-9.536A29.81,29.81,0,0,1-7903,2254a29.808,29.808,0,0,1,2.357-11.677,29.884,29.884,0,0,1,6.43-9.535,29.9,29.9,0,0,1,9.535-6.429A29.815,29.815,0,0,1-7873,2224a29.813,29.813,0,0,1,11.677,2.357,29.9,29.9,0,0,1,9.535,6.429,29.9,29.9,0,0,1,6.429,9.535A29.817,29.817,0,0,1-7843,2254a29.821,29.821,0,0,1-2.357,11.677,29.9,29.9,0,0,1-6.429,9.536,29.9,29.9,0,0,1-9.535,6.429A29.807,29.807,0,0,1-7873,2284Zm-15-45v30h30v-30Z" transform="translate(9434 -1762.381)" fill="#161b25"/><path id="backgroundIcon61" d="M-7873,2284.5a30.307,30.307,0,0,1-11.872-2.4,30.391,30.391,0,0,1-9.694-6.536,30.391,30.391,0,0,1-6.537-9.694,30.311,30.311,0,0,1-2.4-11.872,30.308,30.308,0,0,1,2.4-11.872,30.378,30.378,0,0,1,6.537-9.694,30.389,30.389,0,0,1,9.694-6.536,30.312,30.312,0,0,1,11.872-2.4,30.309,30.309,0,0,1,11.872,2.4,30.4,30.4,0,0,1,9.694,6.536,30.394,30.394,0,0,1,6.536,9.694,30.317,30.317,0,0,1,2.4,11.872,30.321,30.321,0,0,1-2.4,11.872,30.4,30.4,0,0,1-6.536,9.694,30.391,30.391,0,0,1-9.694,6.536A30.306,30.306,0,0,1-7873,2284.5Zm0-60a29.316,29.316,0,0,0-11.482,2.318,29.4,29.4,0,0,0-9.376,6.322,29.392,29.392,0,0,0-6.323,9.376A29.31,29.31,0,0,0-7902.5,2254a29.313,29.313,0,0,0,2.318,11.482,29.4,29.4,0,0,0,6.323,9.377,29.4,29.4,0,0,0,9.376,6.322A29.313,29.313,0,0,0-7873,2283.5a29.313,29.313,0,0,0,11.482-2.318,29.4,29.4,0,0,0,9.376-6.322,29.407,29.407,0,0,0,6.322-9.377A29.322,29.322,0,0,0-7843.5,2254a29.318,29.318,0,0,0-2.318-11.482,29.4,29.4,0,0,0-6.322-9.376,29.41,29.41,0,0,0-9.376-6.322A29.316,29.316,0,0,0-7873,2224.5Zm15.5,45h-31v-31h31Zm-30-1h29v-29h-29Z" transform="translate(9434 -1762.381)" fill="rgba(0,0,0,0)"/><path id="backgroundIcon62" d="M24282.326,22342.645A29.969,29.969,0,0,1,24264,22315v-30h60v30a30.018,30.018,0,0,1-41.674,27.641Z" transform="translate(-22633 -21823.383)" fill="#161b25"/><path id="backgroundIcon63" d="M24312.322,22342.645A30,30,0,0,1,24324,22285v60A29.838,29.838,0,0,1,24312.322,22342.645ZM24264,22285a30,30,0,1,1,0,60Z" transform="translate(-22933 -21823.383)" fill="#161b25"/><path id="backgroundIcon64" d="M7547-1229a29.82,29.82,0,0,1-11.678-2.357,29.9,29.9,0,0,1-9.535-6.429,29.911,29.911,0,0,1-6.43-9.536A29.81,29.81,0,0,1,7517-1259a29.81,29.81,0,0,1,2.357-11.677,29.9,29.9,0,0,1,6.43-9.536,29.9,29.9,0,0,1,9.535-6.429A29.817,29.817,0,0,1,7547-1289a29.81,29.81,0,0,1,11.678,2.358,29.894,29.894,0,0,1,9.536,6.429,29.914,29.914,0,0,1,6.43,9.536A29.81,29.81,0,0,1,7577-1259a29.81,29.81,0,0,1-2.357,11.677,29.911,29.911,0,0,1-6.43,9.536,29.894,29.894,0,0,1-9.536,6.429A29.812,29.812,0,0,1,7547-1229Zm0-52.5-22.5,22.5,22.5,22.5,22.5-22.5-22.5-22.5Z" transform="translate(-6286 1750.617)" fill="#161b25"/><path id="backgroundIcon65" d="M7547-1228.5a30.318,30.318,0,0,1-11.873-2.4,30.394,30.394,0,0,1-9.694-6.536,30.41,30.41,0,0,1-6.537-9.695,30.31,30.31,0,0,1-2.4-11.872,30.311,30.311,0,0,1,2.4-11.872,30.387,30.387,0,0,1,6.537-9.695,30.4,30.4,0,0,1,9.694-6.536,30.316,30.316,0,0,1,11.873-2.4,30.309,30.309,0,0,1,11.873,2.4,30.392,30.392,0,0,1,9.695,6.536,30.412,30.412,0,0,1,6.537,9.695,30.311,30.311,0,0,1,2.4,11.872,30.31,30.31,0,0,1-2.4,11.872,30.41,30.41,0,0,1-6.537,9.695,30.39,30.39,0,0,1-9.695,6.536A30.311,30.311,0,0,1,7547-1228.5Zm0-60a29.319,29.319,0,0,0-11.483,2.318,29.4,29.4,0,0,0-9.376,6.322,29.4,29.4,0,0,0-6.323,9.377A29.313,29.313,0,0,0,7517.5-1259a29.311,29.311,0,0,0,2.318,11.483,29.415,29.415,0,0,0,6.323,9.377,29.4,29.4,0,0,0,9.376,6.323A29.325,29.325,0,0,0,7547-1229.5a29.317,29.317,0,0,0,11.483-2.318,29.4,29.4,0,0,0,9.377-6.323,29.415,29.415,0,0,0,6.323-9.377A29.311,29.311,0,0,0,7576.5-1259a29.312,29.312,0,0,0-2.318-11.483,29.418,29.418,0,0,0-6.323-9.377,29.394,29.394,0,0,0-9.377-6.322A29.312,29.312,0,0,0,7547-1288.5Zm0,52.708-.354-.354L7523.792-1259l22.5-22.5-.372-.372,1.019-.125.061.5.353-.353L7570.207-1259ZM7525.206-1259,7547-1237.207,7568.793-1259,7547-1280.793Z" transform="translate(-6286 1750.617)" fill="rgba(0,0,0,0)"/><path id="backgroundIcon66" d="M24294,22315h30v30A30,30,0,0,1,24294,22315Zm-30,0h30a30,30,0,0,1-30-30h30v60A30,30,0,0,1,24264,22315Zm30-30h30v30A30.008,30.008,0,0,1,24294,22285Z" transform="translate(-23033 -22023.383)" fill="#161b25"/><path id="backgroundIcon67" d="M24264,22345a30.157,30.157,0,0,1,2.318-11.678,29.815,29.815,0,0,1,6.318-9.533,29.42,29.42,0,0,1,9.377-6.436,29.165,29.165,0,0,1,22.965,0,29.35,29.35,0,0,1,9.381,6.436,29.75,29.75,0,0,1,6.318,9.533A30.231,30.231,0,0,1,24323,22345Zm0-30a30.178,30.178,0,0,1,8.637-21.213,29.334,29.334,0,0,1,9.377-6.428,29.1,29.1,0,0,1,22.965,0,29.265,29.265,0,0,1,9.381,6.428,29.844,29.844,0,0,1,6.318,9.535A30.231,30.231,0,0,1,24323,22315Z" transform="translate(-22933 -22023.383)" fill="#161b25"/><path id="backgroundIcon68" d="M24294,22330a15,15,0,1,1,15,15A14.994,14.994,0,0,1,24294,22330Zm-30,0a15,15,0,1,1,15,15A14.993,14.993,0,0,1,24264,22330Zm30-30a15,15,0,1,1,15,15.006A15,15,0,0,1,24294,22300Zm-30,0a15,15,0,1,1,15,15.006A15,15,0,0,1,24264,22300Z" transform="translate(-22833 -22023.383)" fill="#161b25"/><path id="backgroundIcon69" d="M24264,22345v-15h60v15Zm0-22v-15h60v15Zm0-23v-15h60v15Z" transform="translate(-23133 -22023.383)" fill="#161b25"/><path id="backgroundIcon70" d="M24264,22345a22.313,22.313,0,1,0,18.326-32.359A29.956,29.956,0,0,1,24264,22285h60a22.322,22.322,0,1,0-18.324,32.359A29.958,29.958,0,0,1,24324,22345Z" transform="translate(-23033 -21923.383)" fill="#161b25"/><path id="backgroundIcon71" d="M30-.5A30.508,30.508,0,0,1,41.872,58.1,30.508,30.508,0,0,1,18.128,1.9,30.309,30.309,0,0,1,30-.5Zm0,60A29.508,29.508,0,0,0,41.483,2.818,29.508,29.508,0,0,0,18.517,57.182,29.315,29.315,0,0,0,30,59.5Z" transform="translate(1331 161.617)" fill="rgba(0,0,0,0)"/><path id="backgroundIcon72" d="M24294,22345a30,30,0,0,1,30-30v30Zm-30-30h30v30A30,30,0,0,1,24264,22315Zm30,0v-30a30,30,0,0,1,30,30Zm-30-30h30a30,30,0,0,1-30,30Z" transform="translate(-23133 -22123.383)" fill="#161b25"/><path id="backgroundIcon73" d="M24294,22345a30,30,0,0,1,30-30v30Zm-30,0v-30a30,30,0,0,1,30,30Zm30-60h30v30A30.008,30.008,0,0,1,24294,22285Zm-30,0h30a30,30,0,0,1-30,30Z" transform="translate(-22633 -22123.383)" fill="#161b25"/><path id="backgroundIcon74" d="M-7903,2264h60v60A60,60,0,0,1-7903,2264Z" transform="translate(-6311.998 2585.619) rotate(180)" fill="#161b25"/><path id="backgroundIcon75" d="M-7903.5,2263.5h61v61h-.5a60.121,60.121,0,0,1-23.549-4.755,60.513,60.513,0,0,1-10.277-5.578,60.932,60.932,0,0,1-8.954-7.388,60.929,60.929,0,0,1-7.388-8.954,60.535,60.535,0,0,1-5.579-10.277A60.114,60.114,0,0,1-7903.5,2264Zm60,1h-59a59.1,59.1,0,0,0,4.674,22.66,59.52,59.52,0,0,0,5.486,10.107,59.925,59.925,0,0,0,7.266,8.806,59.982,59.982,0,0,0,8.806,7.266,59.545,59.545,0,0,0,10.107,5.486,59.1,59.1,0,0,0,22.66,4.674Z" transform="translate(-6311.998 2585.619) rotate(180)" fill="rgba(0,0,0,0)"/><path id="backgroundIcon76" d="M-7903,2264h60v60A60,60,0,0,1-7903,2264Z" transform="translate(4055 8164.617) rotate(90)" fill="#161b25"/><path id="backgroundIcon77" d="M-7903.5,2263.5h61v61h-.5a60.121,60.121,0,0,1-23.549-4.755,60.513,60.513,0,0,1-10.277-5.578,60.932,60.932,0,0,1-8.954-7.388,60.929,60.929,0,0,1-7.388-8.954,60.535,60.535,0,0,1-5.579-10.277A60.114,60.114,0,0,1-7903.5,2264Zm60,1h-59a59.1,59.1,0,0,0,4.674,22.66,59.52,59.52,0,0,0,5.486,10.107,59.925,59.925,0,0,0,7.266,8.806,59.982,59.982,0,0,0,8.806,7.266,59.545,59.545,0,0,0,10.107,5.486,59.1,59.1,0,0,0,22.66,4.674Z" transform="translate(4055 8164.617) rotate(90)" fill="rgba(0,0,0,0)"/><path id="backgroundIcon78" d="M-7903,2264h60v60A60,60,0,0,1-7903,2264Z" transform="translate(8934 -1902.383)" fill="#161b25"/><path id="backgroundIcon79" d="M-7903.5,2263.5h61v61h-.5a60.121,60.121,0,0,1-23.549-4.755,60.513,60.513,0,0,1-10.277-5.578,60.932,60.932,0,0,1-8.954-7.388,60.929,60.929,0,0,1-7.388-8.954,60.535,60.535,0,0,1-5.579-10.277A60.114,60.114,0,0,1-7903.5,2264Zm60,1h-59a59.1,59.1,0,0,0,4.674,22.66,59.52,59.52,0,0,0,5.486,10.107,59.925,59.925,0,0,0,7.266,8.806,59.982,59.982,0,0,0,8.806,7.266,59.545,59.545,0,0,0,10.107,5.486,59.1,59.1,0,0,0,22.66,4.674Z" transform="translate(8934 -1902.383)" fill="rgba(0,0,0,0)"/><path id="backgroundIcon80" d="M24294,22315h30a30,30,0,0,1-30,30Zm-30,30v-30a30,30,0,0,1,30,30Zm30-60h30v30A30.008,30.008,0,0,1,24294,22285Zm-29,30a1,1,0,0,1-.988-.85,30.006,30.006,0,0,1,29.148-29.148,1,1,0,0,1,.844.988V22314a1,1,0,0,1-1,1Z" transform="translate(-22833 -22123.383)" fill="#161b25"/><path id="backgroundIcon81" d="M24309,22345v-60h15v60Zm-22,0v-60h15v60Zm-23,0v-60h15v60Z" transform="translate(-22633 -21923.383)" fill="#161b25"/><path id="backgroundIcon82" d="M24264,22345l30-30,30,30Zm0-60h60l-30,30Z" transform="translate(-22533 -22123.383)" fill="#161b25"/><path id="backgroundIcon83" d="M24264,22315h60l-30,30Zm0,0,30-30,30,30Z" transform="translate(-23233 -22023.383)" fill="#161b25"/><path id="backgroundIcon84" d="M24294,22315l30-30v60Zm-30-30,30,30-30,30Z" transform="translate(-22533 -21923.383)" fill="#161b25"/><path id="backgroundIcon85" d="M-7843,2284h-60v-60h60v60Zm-45-45v30h30v-30Z" transform="translate(9034 -1862.383)" fill="#161b25"/><path id="backgroundIcon86" d="M-7843,2284.5h-60.5v-61h61V2284h-.5Zm-59.5-1h59v-59h-59Zm45-14h-31v-31h31Zm-30-1h29v-29h-29Z" transform="translate(9034 -1862.383)" fill="rgba(0,0,0,0)"/><path id="backgroundIcon87" d="M-7843,2284h-60v-60h60v60Zm-45-45a30.034,30.034,0,0,0,30,30v-30Z" transform="translate(8834 -1862.383)" fill="#161b25"/><path id="backgroundIcon88" d="M-7843,2284.5h-60.5v-61h61V2284h-.5Zm-59.5-1h59v-59h-59Zm45-14h-.5a30.534,30.534,0,0,1-30.5-30.5v-.5h31Zm-30-30a29.535,29.535,0,0,0,29,29v-29Z" transform="translate(8834 -1862.383)" fill="rgba(0,0,0,0)"/><path id="backgroundIcon89" d="M-7843,2284h-60v-60h60v60Zm-45-45a30.036,30.036,0,0,0,30,30v-30Z" transform="translate(3915.002 8164.617) rotate(90)" fill="#161b25"/><path id="backgroundIcon90" d="M-7843,2284.5h-60.5v-61h61V2284h-.5Zm-59.5-1h59v-59h-59Zm45-14h-.5a30.536,30.536,0,0,1-30.5-30.5v-.5h31Zm-30-30a29.536,29.536,0,0,0,29,29v-29Z" transform="translate(3915.002 8164.617) rotate(90)" fill="rgba(0,0,0,0)"/><path id="backgroundIcon91" d="M-7843,2284h-60v-60h60v60Zm-30-52.5-22.5,22.5,22.5,22.5,22.5-22.5-22.5-22.5Z" transform="translate(8934 -2062.383)" fill="#161b25"/><path id="backgroundIcon92" d="M-7843,2284.5h-60.5v-61h61V2284h-.5Zm-59.5-1h59v-59h-59Zm29.5-6.292L-7896.208,2254l22.5-22.5-.141-.141.629-.308.22.449.353-.353,22.853,22.853ZM-7894.794,2254l21.793,21.792,21.792-21.792L-7873,2232.207Z" transform="translate(8934 -2062.383)" fill="rgba(0,0,0,0)"/><path id="backgroundIcon93" d="M24294,22345v-60h30v60Zm-11.672-2.355A30,30,0,0,1,24294,22285v60A29.8,29.8,0,0,1,24282.326,22342.645Z" transform="translate(-23332.996 -22123.383)" fill="#161b25"/><path id="backgroundIcon94" d="M24324.5,22345.5h-31v0a30.5,30.5,0,0,1,0-60.992v0h31Zm-30-1h29v-59h-29Zm-1-59a29.5,29.5,0,0,0,0,58.992Z" transform="translate(-23332.996 -22123.383)" fill="rgba(0,0,0,0)"/><path id="backgroundIcon95" d="M24264,22345v-60h30a30,30,0,1,1,0,60Z" transform="translate(-22933 -21923.383)" fill="#161b25"/><path id="backgroundIcon96" d="M30,0,60,60H0Z" transform="translate(991 261.615) rotate(90)" fill="#161b25"/><path id="backgroundIcon97" d="M30-1.118,60.809,60.5H-.809ZM59.191,59.5,30,1.118.809,59.5Z" transform="translate(991 261.615) rotate(90)" fill="rgba(0,0,0,0)"/><path id="backgroundIcon98" d="M30,0,60,60H0Z" transform="translate(1531 221.617) rotate(-90)" fill="#161b25"/><path id="backgroundIcon99" d="M30-1.118,60.809,60.5H-.809ZM59.191,59.5,30,1.118.809,59.5Z" transform="translate(1531 221.617) rotate(-90)" fill="rgba(0,0,0,0)"/><path id="backgroundIcon100" d="M7547-1229a29.82,29.82,0,0,1-11.678-2.357,29.9,29.9,0,0,1-9.535-6.429,29.911,29.911,0,0,1-6.43-9.536A29.81,29.81,0,0,1,7517-1259a29.81,29.81,0,0,1,2.357-11.677,29.9,29.9,0,0,1,6.43-9.536,29.9,29.9,0,0,1,9.535-6.429A29.817,29.817,0,0,1,7547-1289a29.81,29.81,0,0,1,11.678,2.358,29.894,29.894,0,0,1,9.536,6.429,29.914,29.914,0,0,1,6.43,9.536A29.81,29.81,0,0,1,7577-1259a29.81,29.81,0,0,1-2.357,11.677,29.911,29.911,0,0,1-6.43,9.536,29.894,29.894,0,0,1-9.536,6.429A29.812,29.812,0,0,1,7547-1229Zm0-45a14.9,14.9,0,0,0-5.838,1.179,14.952,14.952,0,0,0-4.769,3.214,14.958,14.958,0,0,0-3.215,4.768A14.907,14.907,0,0,0,7532-1259a14.9,14.9,0,0,0,1.179,5.839,14.955,14.955,0,0,0,3.215,4.768,14.949,14.949,0,0,0,4.769,3.215A14.9,14.9,0,0,0,7547-1244a14.9,14.9,0,0,0,5.839-1.179,14.938,14.938,0,0,0,4.769-3.215,14.947,14.947,0,0,0,3.215-4.768A14.9,14.9,0,0,0,7562-1259a14.907,14.907,0,0,0-1.179-5.839,14.945,14.945,0,0,0-3.215-4.768,14.937,14.937,0,0,0-4.769-3.214A14.9,14.9,0,0,0,7547-1274Z" transform="translate(-5986 1650.617)" fill="#161b25"/><path id="backgroundIcon101" d="M7547-1228.5a30.318,30.318,0,0,1-11.873-2.4,30.394,30.394,0,0,1-9.694-6.536,30.41,30.41,0,0,1-6.537-9.695,30.31,30.31,0,0,1-2.4-11.872,30.311,30.311,0,0,1,2.4-11.872,30.387,30.387,0,0,1,6.537-9.695,30.4,30.4,0,0,1,9.694-6.536,30.316,30.316,0,0,1,11.873-2.4,30.309,30.309,0,0,1,11.873,2.4,30.392,30.392,0,0,1,9.695,6.536,30.412,30.412,0,0,1,6.537,9.695,30.311,30.311,0,0,1,2.4,11.872,30.31,30.31,0,0,1-2.4,11.872,30.41,30.41,0,0,1-6.537,9.695,30.39,30.39,0,0,1-9.695,6.536A30.311,30.311,0,0,1,7547-1228.5Zm0-60a29.319,29.319,0,0,0-11.483,2.318,29.4,29.4,0,0,0-9.376,6.322,29.4,29.4,0,0,0-6.323,9.377A29.313,29.313,0,0,0,7517.5-1259a29.311,29.311,0,0,0,2.318,11.483,29.415,29.415,0,0,0,6.323,9.377,29.4,29.4,0,0,0,9.376,6.323A29.325,29.325,0,0,0,7547-1229.5a29.317,29.317,0,0,0,11.483-2.318,29.4,29.4,0,0,0,9.377-6.323,29.415,29.415,0,0,0,6.323-9.377A29.311,29.311,0,0,0,7576.5-1259a29.312,29.312,0,0,0-2.318-11.483,29.418,29.418,0,0,0-6.323-9.377,29.394,29.394,0,0,0-9.377-6.322A29.312,29.312,0,0,0,7547-1288.5Zm0,45a15.4,15.4,0,0,1-6.033-1.218,15.446,15.446,0,0,1-4.927-3.322,15.449,15.449,0,0,1-3.322-4.927A15.4,15.4,0,0,1,7531.5-1259a15.4,15.4,0,0,1,1.218-6.034,15.45,15.45,0,0,1,3.322-4.927,15.454,15.454,0,0,1,4.927-3.321A15.405,15.405,0,0,1,7547-1274.5a15.4,15.4,0,0,1,6.034,1.218,15.434,15.434,0,0,1,4.927,3.321,15.436,15.436,0,0,1,3.322,4.927A15.4,15.4,0,0,1,7562.5-1259a15.4,15.4,0,0,1-1.218,6.033,15.441,15.441,0,0,1-3.322,4.927,15.437,15.437,0,0,1-4.927,3.322A15.4,15.4,0,0,1,7547-1243.5Zm0-30a14.406,14.406,0,0,0-5.643,1.139,14.454,14.454,0,0,0-4.61,3.107,14.463,14.463,0,0,0-3.108,4.609A14.41,14.41,0,0,0,7532.5-1259a14.408,14.408,0,0,0,1.139,5.644,14.462,14.462,0,0,0,3.108,4.609,14.456,14.456,0,0,0,4.61,3.108A14.4,14.4,0,0,0,7547-1244.5a14.4,14.4,0,0,0,5.644-1.139,14.443,14.443,0,0,0,4.61-3.108,14.454,14.454,0,0,0,3.108-4.609A14.408,14.408,0,0,0,7561.5-1259a14.41,14.41,0,0,0-1.139-5.644,14.449,14.449,0,0,0-3.108-4.609,14.434,14.434,0,0,0-4.61-3.107A14.4,14.4,0,0,0,7547-1273.5Z" transform="translate(-5986 1650.617)" fill="rgba(0,0,0,0)"/><path id="backgroundIcon102" d="M7547-1229h0l-30-30,30-30,30,30-30,30Zm0-45a14.9,14.9,0,0,0-5.838,1.179,14.948,14.948,0,0,0-4.769,3.214,14.958,14.958,0,0,0-3.215,4.768A14.907,14.907,0,0,0,7532-1259a14.906,14.906,0,0,0,1.179,5.839,14.956,14.956,0,0,0,3.215,4.768,14.947,14.947,0,0,0,4.769,3.215A14.9,14.9,0,0,0,7547-1244a14.9,14.9,0,0,0,5.839-1.179,14.937,14.937,0,0,0,4.769-3.215,14.948,14.948,0,0,0,3.215-4.768A14.906,14.906,0,0,0,7562-1259a14.907,14.907,0,0,0-1.179-5.839,14.945,14.945,0,0,0-3.215-4.768,14.937,14.937,0,0,0-4.769-3.214A14.9,14.9,0,0,0,7547-1274Z" transform="translate(-6286 1450.617)" fill="#161b25"/><path id="backgroundIcon103" d="M7547.353-1228.646,7547-1229l-.354.353L7516.292-1259,7547-1289.707l.354.354L7577.707-1259ZM7517.706-1259,7547-1229.706,7576.293-1259,7547-1288.293ZM7547-1243.5a15.392,15.392,0,0,1-6.033-1.219,15.45,15.45,0,0,1-4.927-3.322,15.448,15.448,0,0,1-3.322-4.927A15.4,15.4,0,0,1,7531.5-1259a15.4,15.4,0,0,1,1.218-6.034,15.45,15.45,0,0,1,3.322-4.927,15.45,15.45,0,0,1,4.927-3.321A15.405,15.405,0,0,1,7547-1274.5a15.4,15.4,0,0,1,6.034,1.218,15.434,15.434,0,0,1,4.927,3.321,15.436,15.436,0,0,1,3.322,4.927A15.4,15.4,0,0,1,7562.5-1259a15.4,15.4,0,0,1-1.218,6.033,15.44,15.44,0,0,1-3.322,4.927,15.434,15.434,0,0,1-4.927,3.322A15.4,15.4,0,0,1,7547-1243.5Zm0-30a14.406,14.406,0,0,0-5.643,1.139,14.45,14.45,0,0,0-4.61,3.107,14.463,14.463,0,0,0-3.108,4.609A14.41,14.41,0,0,0,7532.5-1259a14.409,14.409,0,0,0,1.139,5.644,14.462,14.462,0,0,0,3.108,4.609,14.455,14.455,0,0,0,4.61,3.108,14.4,14.4,0,0,0,5.643,1.14,14.4,14.4,0,0,0,5.644-1.139,14.439,14.439,0,0,0,4.61-3.108,14.453,14.453,0,0,0,3.108-4.609A14.409,14.409,0,0,0,7561.5-1259a14.41,14.41,0,0,0-1.139-5.644,14.449,14.449,0,0,0-3.108-4.609,14.434,14.434,0,0,0-4.61-3.107A14.4,14.4,0,0,0,7547-1273.5Z" transform="translate(-6286 1450.617)" fill="rgba(0,0,0,0)"/><path id="backgroundIcon104" d="M24264,22330c0-8.291,13.43-15,30-15s30,6.707,30,15-13.43,15-30,15S24264,22338.285,24264,22330Zm0-30c0-8.283,13.43-15,30-15s30,6.715,30,15-13.43,15.006-30,15.006S24264,22308.287,24264,22300Z" transform="translate(-24233 -21423.383)" fill="#161b25"/><path id="backgroundIcon105" d="M-7903,2284v-30h60v30Zm0-30a29.8,29.8,0,0,1,2.357-11.677,29.914,29.914,0,0,1,6.429-9.536,29.9,29.9,0,0,1,9.537-6.429A29.828,29.828,0,0,1-7873,2224a29.824,29.824,0,0,1,11.677,2.356,29.908,29.908,0,0,1,9.535,6.429,29.886,29.886,0,0,1,6.431,9.536A29.82,29.82,0,0,1-7843,2254v0Z" transform="translate(8134 -1362.381)" fill="#161b25"/><path id="backgroundIcon106" d="M-7903,2264h60v60A60,60,0,0,1-7903,2264Z" transform="translate(-1733 -6981.383) rotate(-90)" fill="#161b25"/><path id="backgroundIcon107" d="M-7903.5,2263.5h61v61h-.5a60.117,60.117,0,0,1-23.549-4.755,60.513,60.513,0,0,1-10.277-5.578,60.94,60.94,0,0,1-8.953-7.387,60.911,60.911,0,0,1-7.387-8.953,60.531,60.531,0,0,1-5.579-10.277A60.119,60.119,0,0,1-7903.5,2264Zm60,1h-59a59.1,59.1,0,0,0,4.674,22.659,59.513,59.513,0,0,0,5.486,10.106,59.893,59.893,0,0,0,7.266,8.806,59.914,59.914,0,0,0,8.806,7.266,59.5,59.5,0,0,0,10.106,5.486,59.09,59.09,0,0,0,22.659,4.674Z" transform="translate(-1733 -6981.383) rotate(-90)" fill="rgba(0,0,0,0)"/><path id="backgroundIcon108" d="M-7843,2284h-60v-60h60v60Zm-45-45a30.034,30.034,0,0,0,30,30v-30Z" transform="translate(-7712 3145.617) rotate(180)" fill="#161b25"/><path id="backgroundIcon109" d="M-7843,2284.5h-60.5v-61h61V2284h-.5Zm-59.5-1h59v-59h-59Zm45-14h-.5a30.535,30.535,0,0,1-30.5-30.5v-.5h31Zm-30-30a29.535,29.535,0,0,0,29,29v-29Z" transform="translate(-7712 3145.617) rotate(180)" fill="rgba(0,0,0,0)"/><path id="backgroundIcon110" d="M-7843,2284h-60v-60h60v60Zm-45-45a30.034,30.034,0,0,0,30,30v-30Z" transform="translate(-1393 -6981.383) rotate(-90)" fill="#161b25"/><path id="backgroundIcon111" d="M-7843,2284.5h-60.5v-61h61V2284h-.5Zm-59.5-1h59v-59h-59Zm45-14h-.5a30.535,30.535,0,0,1-30.5-30.5v-.5h31Zm-30-30a29.535,29.535,0,0,0,29,29v-29Z" transform="translate(-1393 -6981.383) rotate(-90)" fill="rgba(0,0,0,0)"/><path id="backgroundIcon112" d="M-7873,2284a29.809,29.809,0,0,1-11.677-2.358,29.9,29.9,0,0,1-9.535-6.429,29.891,29.891,0,0,1-6.43-9.536A29.81,29.81,0,0,1-7903,2254a29.808,29.808,0,0,1,2.357-11.677,29.884,29.884,0,0,1,6.43-9.535,29.9,29.9,0,0,1,9.535-6.429A29.815,29.815,0,0,1-7873,2224a29.813,29.813,0,0,1,11.677,2.357,29.9,29.9,0,0,1,9.535,6.429,29.9,29.9,0,0,1,6.429,9.535A29.817,29.817,0,0,1-7843,2254a29.821,29.821,0,0,1-2.357,11.677,29.9,29.9,0,0,1-6.429,9.536,29.9,29.9,0,0,1-9.535,6.429A29.807,29.807,0,0,1-7873,2284Zm-15-45v30h30v-30Z" transform="translate(8534 -1362.381)" fill="#161b25"/><path id="backgroundIcon113" d="M-7873,2284.5a30.307,30.307,0,0,1-11.872-2.4,30.391,30.391,0,0,1-9.694-6.536,30.391,30.391,0,0,1-6.537-9.694,30.311,30.311,0,0,1-2.4-11.872,30.308,30.308,0,0,1,2.4-11.872,30.378,30.378,0,0,1,6.537-9.694,30.389,30.389,0,0,1,9.694-6.536,30.312,30.312,0,0,1,11.872-2.4,30.309,30.309,0,0,1,11.872,2.4,30.4,30.4,0,0,1,9.694,6.536,30.394,30.394,0,0,1,6.536,9.694,30.317,30.317,0,0,1,2.4,11.872,30.321,30.321,0,0,1-2.4,11.872,30.4,30.4,0,0,1-6.536,9.694,30.391,30.391,0,0,1-9.694,6.536A30.306,30.306,0,0,1-7873,2284.5Zm0-60a29.316,29.316,0,0,0-11.482,2.318,29.4,29.4,0,0,0-9.376,6.322,29.392,29.392,0,0,0-6.323,9.376A29.31,29.31,0,0,0-7902.5,2254a29.313,29.313,0,0,0,2.318,11.482,29.4,29.4,0,0,0,6.323,9.377,29.4,29.4,0,0,0,9.376,6.322A29.313,29.313,0,0,0-7873,2283.5a29.313,29.313,0,0,0,11.482-2.318,29.4,29.4,0,0,0,9.376-6.322,29.407,29.407,0,0,0,6.322-9.377A29.322,29.322,0,0,0-7843.5,2254a29.318,29.318,0,0,0-2.318-11.482,29.4,29.4,0,0,0-6.322-9.376,29.41,29.41,0,0,0-9.376-6.322A29.316,29.316,0,0,0-7873,2224.5Zm15.5,45h-31v-31h31Zm-30-1h29v-29h-29Z" transform="translate(8534 -1362.381)" fill="rgba(0,0,0,0)"/><path id="backgroundIcon114" d="M24282.326,22342.645A29.969,29.969,0,0,1,24264,22315v-30h60v30a30.018,30.018,0,0,1-41.674,27.641Z" transform="translate(-23533 -21423.383)" fill="#161b25"/><path id="backgroundIcon115" d="M24312.322,22342.645A30,30,0,0,1,24324,22285v60A29.838,29.838,0,0,1,24312.322,22342.645ZM24264,22285a30,30,0,1,1,0,60Z" transform="translate(-23833 -21423.383)" fill="#161b25"/><path id="backgroundIcon116" d="M7547-1229a29.82,29.82,0,0,1-11.678-2.357,29.9,29.9,0,0,1-9.535-6.429,29.911,29.911,0,0,1-6.43-9.536A29.81,29.81,0,0,1,7517-1259a29.81,29.81,0,0,1,2.357-11.677,29.9,29.9,0,0,1,6.43-9.536,29.9,29.9,0,0,1,9.535-6.429A29.817,29.817,0,0,1,7547-1289a29.81,29.81,0,0,1,11.678,2.358,29.894,29.894,0,0,1,9.536,6.429,29.914,29.914,0,0,1,6.43,9.536A29.81,29.81,0,0,1,7577-1259a29.81,29.81,0,0,1-2.357,11.677,29.911,29.911,0,0,1-6.43,9.536,29.894,29.894,0,0,1-9.536,6.429A29.812,29.812,0,0,1,7547-1229Zm0-52.5-22.5,22.5,22.5,22.5,22.5-22.5-22.5-22.5Z" transform="translate(-7186 2150.617)" fill="#161b25"/><path id="backgroundIcon117" d="M7547-1228.5a30.318,30.318,0,0,1-11.873-2.4,30.394,30.394,0,0,1-9.694-6.536,30.41,30.41,0,0,1-6.537-9.695,30.31,30.31,0,0,1-2.4-11.872,30.311,30.311,0,0,1,2.4-11.872,30.387,30.387,0,0,1,6.537-9.695,30.4,30.4,0,0,1,9.694-6.536,30.316,30.316,0,0,1,11.873-2.4,30.309,30.309,0,0,1,11.873,2.4,30.392,30.392,0,0,1,9.695,6.536,30.412,30.412,0,0,1,6.537,9.695,30.311,30.311,0,0,1,2.4,11.872,30.31,30.31,0,0,1-2.4,11.872,30.41,30.41,0,0,1-6.537,9.695,30.39,30.39,0,0,1-9.695,6.536A30.311,30.311,0,0,1,7547-1228.5Zm0-60a29.319,29.319,0,0,0-11.483,2.318,29.4,29.4,0,0,0-9.376,6.322,29.4,29.4,0,0,0-6.323,9.377A29.313,29.313,0,0,0,7517.5-1259a29.311,29.311,0,0,0,2.318,11.483,29.415,29.415,0,0,0,6.323,9.377,29.4,29.4,0,0,0,9.376,6.323A29.325,29.325,0,0,0,7547-1229.5a29.317,29.317,0,0,0,11.483-2.318,29.4,29.4,0,0,0,9.377-6.323,29.415,29.415,0,0,0,6.323-9.377A29.311,29.311,0,0,0,7576.5-1259a29.312,29.312,0,0,0-2.318-11.483,29.418,29.418,0,0,0-6.323-9.377,29.394,29.394,0,0,0-9.377-6.322A29.312,29.312,0,0,0,7547-1288.5Zm0,52.708-.354-.354L7523.792-1259l22.5-22.5-.372-.372,1.019-.125.061.5.353-.353L7570.207-1259ZM7525.206-1259,7547-1237.207,7568.793-1259,7547-1280.793Z" transform="translate(-7186 2150.617)" fill="rgba(0,0,0,0)"/><path id="backgroundIcon118" d="M24294,22315h30v30A30,30,0,0,1,24294,22315Zm-30,0h30a30,30,0,0,1-30-30h30v60A30,30,0,0,1,24264,22315Zm30-30h30v30A30.008,30.008,0,0,1,24294,22285Z" transform="translate(-23933 -21623.383)" fill="#161b25"/><path id="backgroundIcon119" d="M24264,22345a30.157,30.157,0,0,1,2.318-11.678,29.815,29.815,0,0,1,6.318-9.533,29.42,29.42,0,0,1,9.377-6.436,29.165,29.165,0,0,1,22.965,0,29.35,29.35,0,0,1,9.381,6.436,29.75,29.75,0,0,1,6.318,9.533A30.231,30.231,0,0,1,24323,22345Zm0-30a30.178,30.178,0,0,1,8.637-21.213,29.334,29.334,0,0,1,9.377-6.428,29.1,29.1,0,0,1,22.965,0,29.265,29.265,0,0,1,9.381,6.428,29.844,29.844,0,0,1,6.318,9.535A30.231,30.231,0,0,1,24323,22315Z" transform="translate(-23833 -21623.383)" fill="#161b25"/><path id="backgroundIcon120" d="M24294,22330a15,15,0,1,1,15,15A14.994,14.994,0,0,1,24294,22330Zm-30,0a15,15,0,1,1,15,15A14.993,14.993,0,0,1,24264,22330Zm30-30a15,15,0,1,1,15,15.006A15,15,0,0,1,24294,22300Zm-30,0a15,15,0,1,1,15,15.006A15,15,0,0,1,24264,22300Z" transform="translate(-23733 -21623.383)" fill="#161b25"/><path id="backgroundIcon121" d="M24264,22345v-15h60v15Zm0-22v-15h60v15Zm0-23v-15h60v15Z" transform="translate(-24033 -21623.383)" fill="#161b25"/><path id="backgroundIcon122" d="M24264,22345a22.313,22.313,0,1,0,18.326-32.359A29.956,29.956,0,0,1,24264,22285h60a22.322,22.322,0,1,0-18.324,32.359A29.958,29.958,0,0,1,24324,22345Z" transform="translate(-23933 -21523.383)" fill="#161b25"/><path id="backgroundIcon123" d="M30-.5A30.508,30.508,0,0,1,41.872,58.1,30.508,30.508,0,0,1,18.128,1.9,30.309,30.309,0,0,1,30-.5Zm0,60A29.508,29.508,0,0,0,41.483,2.818,29.508,29.508,0,0,0,18.517,57.182,29.315,29.315,0,0,0,30,59.5Z" transform="translate(431 561.617)" fill="rgba(0,0,0,0)"/><path id="backgroundIcon124" d="M24294,22345a30,30,0,0,1,30-30v30Zm-30-30h30v30A30,30,0,0,1,24264,22315Zm30,0v-30a30,30,0,0,1,30,30Zm-30-30h30a30,30,0,0,1-30,30Z" transform="translate(-24033 -21723.383)" fill="#161b25"/><path id="backgroundIcon125" d="M24294,22345a30,30,0,0,1,30-30v30Zm-30,0v-30a30,30,0,0,1,30,30Zm30-60h30v30A30.008,30.008,0,0,1,24294,22285Zm-30,0h30a30,30,0,0,1-30,30Z" transform="translate(-23533 -21723.383)" fill="#161b25"/><path id="backgroundIcon126" d="M-7903,2264h60v60A60,60,0,0,1-7903,2264Z" transform="translate(-7211.998 2985.619) rotate(180)" fill="#161b25"/><path id="backgroundIcon127" d="M-7903.5,2263.5h61v61h-.5a60.121,60.121,0,0,1-23.549-4.755,60.513,60.513,0,0,1-10.277-5.578,60.932,60.932,0,0,1-8.954-7.388,60.929,60.929,0,0,1-7.388-8.954,60.535,60.535,0,0,1-5.579-10.277A60.114,60.114,0,0,1-7903.5,2264Zm60,1h-59a59.1,59.1,0,0,0,4.674,22.66,59.52,59.52,0,0,0,5.486,10.107,59.925,59.925,0,0,0,7.266,8.806,59.982,59.982,0,0,0,8.806,7.266,59.545,59.545,0,0,0,10.107,5.486,59.1,59.1,0,0,0,22.66,4.674Z" transform="translate(-7211.998 2985.619) rotate(180)" fill="rgba(0,0,0,0)"/><path id="backgroundIcon128" d="M-7903,2264h60v60A60,60,0,0,1-7903,2264Z" transform="translate(3155 8564.617) rotate(90)" fill="#161b25"/><path id="backgroundIcon129" d="M-7903.5,2263.5h61v61h-.5a60.121,60.121,0,0,1-23.549-4.755,60.513,60.513,0,0,1-10.277-5.578,60.932,60.932,0,0,1-8.954-7.388,60.929,60.929,0,0,1-7.388-8.954,60.535,60.535,0,0,1-5.579-10.277A60.114,60.114,0,0,1-7903.5,2264Zm60,1h-59a59.1,59.1,0,0,0,4.674,22.66,59.52,59.52,0,0,0,5.486,10.107,59.925,59.925,0,0,0,7.266,8.806,59.982,59.982,0,0,0,8.806,7.266,59.545,59.545,0,0,0,10.107,5.486,59.1,59.1,0,0,0,22.66,4.674Z" transform="translate(3155 8564.617) rotate(90)" fill="rgba(0,0,0,0)"/><path id="backgroundIcon130" d="M-7903,2264h60v60A60,60,0,0,1-7903,2264Z" transform="translate(8034 -1502.383)" fill="#161b25"/><path id="backgroundIcon131" d="M-7903.5,2263.5h61v61h-.5a60.121,60.121,0,0,1-23.549-4.755,60.513,60.513,0,0,1-10.277-5.578,60.932,60.932,0,0,1-8.954-7.388,60.929,60.929,0,0,1-7.388-8.954,60.535,60.535,0,0,1-5.579-10.277A60.114,60.114,0,0,1-7903.5,2264Zm60,1h-59a59.1,59.1,0,0,0,4.674,22.66,59.52,59.52,0,0,0,5.486,10.107,59.925,59.925,0,0,0,7.266,8.806,59.982,59.982,0,0,0,8.806,7.266,59.545,59.545,0,0,0,10.107,5.486,59.1,59.1,0,0,0,22.66,4.674Z" transform="translate(8034 -1502.383)" fill="rgba(0,0,0,0)"/><path id="backgroundIcon132" d="M24294,22315h30a30,30,0,0,1-30,30Zm-30,30v-30a30,30,0,0,1,30,30Zm30-60h30v30A30.008,30.008,0,0,1,24294,22285Zm-29,30a1,1,0,0,1-.988-.85,30.006,30.006,0,0,1,29.148-29.148,1,1,0,0,1,.844.988V22314a1,1,0,0,1-1,1Z" transform="translate(-23733 -21723.383)" fill="#161b25"/><path id="backgroundIcon133" d="M24309,22345v-60h15v60Zm-22,0v-60h15v60Zm-23,0v-60h15v60Z" transform="translate(-23533 -21523.383)" fill="#161b25"/><path id="backgroundIcon134" d="M24264,22345l30-30,30,30Zm0-60h60l-30,30Z" transform="translate(-23433 -21723.383)" fill="#161b25"/><path id="backgroundIcon135" d="M24264,22315h60l-30,30Zm0,0,30-30,30,30Z" transform="translate(-24133 -21623.383)" fill="#161b25"/><path id="backgroundIcon136" d="M24294,22315l30-30v60Zm-30-30,30,30-30,30Z" transform="translate(-23433 -21523.383)" fill="#161b25"/><path id="backgroundIcon137" d="M-7843,2284h-60v-60h60v60Zm-45-45v30h30v-30Z" transform="translate(8134 -1462.383)" fill="#161b25"/><path id="backgroundIcon138" d="M-7843,2284.5h-60.5v-61h61V2284h-.5Zm-59.5-1h59v-59h-59Zm45-14h-31v-31h31Zm-30-1h29v-29h-29Z" transform="translate(8134 -1462.383)" fill="rgba(0,0,0,0)"/><path id="backgroundIcon139" d="M-7843,2284h-60v-60h60v60Zm-45-45a30.034,30.034,0,0,0,30,30v-30Z" transform="translate(7934 -1462.383)" fill="#161b25"/><path id="backgroundIcon140" d="M-7843,2284.5h-60.5v-61h61V2284h-.5Zm-59.5-1h59v-59h-59Zm45-14h-.5a30.534,30.534,0,0,1-30.5-30.5v-.5h31Zm-30-30a29.535,29.535,0,0,0,29,29v-29Z" transform="translate(7934 -1462.383)" fill="rgba(0,0,0,0)"/><path id="backgroundIcon141" d="M-7843,2284h-60v-60h60v60Zm-45-45a30.036,30.036,0,0,0,30,30v-30Z" transform="translate(3015.002 8564.617) rotate(90)" fill="#161b25"/><path id="backgroundIcon142" d="M-7843,2284.5h-60.5v-61h61V2284h-.5Zm-59.5-1h59v-59h-59Zm45-14h-.5a30.536,30.536,0,0,1-30.5-30.5v-.5h31Zm-30-30a29.536,29.536,0,0,0,29,29v-29Z" transform="translate(3015.002 8564.617) rotate(90)" fill="rgba(0,0,0,0)"/><path id="backgroundIcon143" d="M-7843,2284h-60v-60h60v60Zm-30-52.5-22.5,22.5,22.5,22.5,22.5-22.5-22.5-22.5Z" transform="translate(8034 -1662.383)" fill="#161b25"/><path id="backgroundIcon144" d="M-7843,2284.5h-60.5v-61h61V2284h-.5Zm-59.5-1h59v-59h-59Zm29.5-6.292L-7896.208,2254l22.5-22.5-.141-.141.629-.308.22.449.353-.353,22.853,22.853ZM-7894.794,2254l21.793,21.792,21.792-21.792L-7873,2232.207Z" transform="translate(8034 -1662.383)" fill="rgba(0,0,0,0)"/><path id="backgroundIcon145" d="M24294,22345v-60h30v60Zm-11.672-2.355A30,30,0,0,1,24294,22285v60A29.8,29.8,0,0,1,24282.326,22342.645Z" transform="translate(-24232.996 -21723.383)" fill="#161b25"/><path id="backgroundIcon146" d="M24324.5,22345.5h-31v0a30.5,30.5,0,0,1,0-60.992v0h31Zm-30-1h29v-59h-29Zm-1-59a29.5,29.5,0,0,0,0,58.992Z" transform="translate(-24232.996 -21723.383)" fill="rgba(0,0,0,0)"/><path id="backgroundIcon147" d="M24264,22345v-60h30a30,30,0,1,1,0,60Z" transform="translate(-23833 -21523.383)" fill="#161b25"/><path id="backgroundIcon148" d="M30,0,60,60H0Z" transform="translate(91 661.615) rotate(90)" fill="#161b25"/><path id="backgroundIcon149" d="M30-1.118,60.809,60.5H-.809ZM59.191,59.5,30,1.118.809,59.5Z" transform="translate(91 661.615) rotate(90)" fill="rgba(0,0,0,0)"/><path id="backgroundIcon150" d="M30,0,60,60H0Z" transform="translate(631 621.617) rotate(-90)" fill="#161b25"/><path id="backgroundIcon151" d="M30-1.118,60.809,60.5H-.809ZM59.191,59.5,30,1.118.809,59.5Z" transform="translate(631 621.617) rotate(-90)" fill="rgba(0,0,0,0)"/><path id="backgroundIcon152" d="M7547-1229a29.82,29.82,0,0,1-11.678-2.357,29.9,29.9,0,0,1-9.535-6.429,29.911,29.911,0,0,1-6.43-9.536A29.81,29.81,0,0,1,7517-1259a29.81,29.81,0,0,1,2.357-11.677,29.9,29.9,0,0,1,6.43-9.536,29.9,29.9,0,0,1,9.535-6.429A29.817,29.817,0,0,1,7547-1289a29.81,29.81,0,0,1,11.678,2.358,29.894,29.894,0,0,1,9.536,6.429,29.914,29.914,0,0,1,6.43,9.536A29.81,29.81,0,0,1,7577-1259a29.81,29.81,0,0,1-2.357,11.677,29.911,29.911,0,0,1-6.43,9.536,29.894,29.894,0,0,1-9.536,6.429A29.812,29.812,0,0,1,7547-1229Zm0-45a14.9,14.9,0,0,0-5.838,1.179,14.952,14.952,0,0,0-4.769,3.214,14.958,14.958,0,0,0-3.215,4.768A14.907,14.907,0,0,0,7532-1259a14.9,14.9,0,0,0,1.179,5.839,14.955,14.955,0,0,0,3.215,4.768,14.949,14.949,0,0,0,4.769,3.215A14.9,14.9,0,0,0,7547-1244a14.9,14.9,0,0,0,5.839-1.179,14.938,14.938,0,0,0,4.769-3.215,14.947,14.947,0,0,0,3.215-4.768A14.9,14.9,0,0,0,7562-1259a14.907,14.907,0,0,0-1.179-5.839,14.945,14.945,0,0,0-3.215-4.768,14.937,14.937,0,0,0-4.769-3.214A14.9,14.9,0,0,0,7547-1274Z" transform="translate(-6886 2050.617)" fill="#161b25"/><path id="backgroundIcon153" d="M7547-1228.5a30.318,30.318,0,0,1-11.873-2.4,30.394,30.394,0,0,1-9.694-6.536,30.41,30.41,0,0,1-6.537-9.695,30.31,30.31,0,0,1-2.4-11.872,30.311,30.311,0,0,1,2.4-11.872,30.387,30.387,0,0,1,6.537-9.695,30.4,30.4,0,0,1,9.694-6.536,30.316,30.316,0,0,1,11.873-2.4,30.309,30.309,0,0,1,11.873,2.4,30.392,30.392,0,0,1,9.695,6.536,30.412,30.412,0,0,1,6.537,9.695,30.311,30.311,0,0,1,2.4,11.872,30.31,30.31,0,0,1-2.4,11.872,30.41,30.41,0,0,1-6.537,9.695,30.39,30.39,0,0,1-9.695,6.536A30.311,30.311,0,0,1,7547-1228.5Zm0-60a29.319,29.319,0,0,0-11.483,2.318,29.4,29.4,0,0,0-9.376,6.322,29.4,29.4,0,0,0-6.323,9.377A29.313,29.313,0,0,0,7517.5-1259a29.311,29.311,0,0,0,2.318,11.483,29.415,29.415,0,0,0,6.323,9.377,29.4,29.4,0,0,0,9.376,6.323A29.325,29.325,0,0,0,7547-1229.5a29.317,29.317,0,0,0,11.483-2.318,29.4,29.4,0,0,0,9.377-6.323,29.415,29.415,0,0,0,6.323-9.377A29.311,29.311,0,0,0,7576.5-1259a29.312,29.312,0,0,0-2.318-11.483,29.418,29.418,0,0,0-6.323-9.377,29.394,29.394,0,0,0-9.377-6.322A29.312,29.312,0,0,0,7547-1288.5Zm0,45a15.4,15.4,0,0,1-6.033-1.218,15.446,15.446,0,0,1-4.927-3.322,15.449,15.449,0,0,1-3.322-4.927A15.4,15.4,0,0,1,7531.5-1259a15.4,15.4,0,0,1,1.218-6.034,15.45,15.45,0,0,1,3.322-4.927,15.454,15.454,0,0,1,4.927-3.321A15.405,15.405,0,0,1,7547-1274.5a15.4,15.4,0,0,1,6.034,1.218,15.434,15.434,0,0,1,4.927,3.321,15.436,15.436,0,0,1,3.322,4.927A15.4,15.4,0,0,1,7562.5-1259a15.4,15.4,0,0,1-1.218,6.033,15.441,15.441,0,0,1-3.322,4.927,15.437,15.437,0,0,1-4.927,3.322A15.4,15.4,0,0,1,7547-1243.5Zm0-30a14.406,14.406,0,0,0-5.643,1.139,14.454,14.454,0,0,0-4.61,3.107,14.463,14.463,0,0,0-3.108,4.609A14.41,14.41,0,0,0,7532.5-1259a14.408,14.408,0,0,0,1.139,5.644,14.462,14.462,0,0,0,3.108,4.609,14.456,14.456,0,0,0,4.61,3.108A14.4,14.4,0,0,0,7547-1244.5a14.4,14.4,0,0,0,5.644-1.139,14.443,14.443,0,0,0,4.61-3.108,14.454,14.454,0,0,0,3.108-4.609A14.408,14.408,0,0,0,7561.5-1259a14.41,14.41,0,0,0-1.139-5.644,14.449,14.449,0,0,0-3.108-4.609,14.434,14.434,0,0,0-4.61-3.107A14.4,14.4,0,0,0,7547-1273.5Z" transform="translate(-6886 2050.617)" fill="rgba(0,0,0,0)"/><path id="backgroundIcon154" d="M7547-1229h0l-30-30,30-30,30,30-30,30Zm0-45a14.9,14.9,0,0,0-5.838,1.179,14.948,14.948,0,0,0-4.769,3.214,14.958,14.958,0,0,0-3.215,4.768A14.907,14.907,0,0,0,7532-1259a14.906,14.906,0,0,0,1.179,5.839,14.956,14.956,0,0,0,3.215,4.768,14.947,14.947,0,0,0,4.769,3.215A14.9,14.9,0,0,0,7547-1244a14.9,14.9,0,0,0,5.839-1.179,14.937,14.937,0,0,0,4.769-3.215,14.948,14.948,0,0,0,3.215-4.768A14.906,14.906,0,0,0,7562-1259a14.907,14.907,0,0,0-1.179-5.839,14.945,14.945,0,0,0-3.215-4.768,14.937,14.937,0,0,0-4.769-3.214A14.9,14.9,0,0,0,7547-1274Z" transform="translate(-7186 1850.617)" fill="#161b25"/><path id="backgroundIcon155" d="M7547.353-1228.646,7547-1229l-.354.353L7516.292-1259,7547-1289.707l.354.354L7577.707-1259ZM7517.706-1259,7547-1229.706,7576.293-1259,7547-1288.293ZM7547-1243.5a15.392,15.392,0,0,1-6.033-1.219,15.45,15.45,0,0,1-4.927-3.322,15.448,15.448,0,0,1-3.322-4.927A15.4,15.4,0,0,1,7531.5-1259a15.4,15.4,0,0,1,1.218-6.034,15.45,15.45,0,0,1,3.322-4.927,15.45,15.45,0,0,1,4.927-3.321A15.405,15.405,0,0,1,7547-1274.5a15.4,15.4,0,0,1,6.034,1.218,15.434,15.434,0,0,1,4.927,3.321,15.436,15.436,0,0,1,3.322,4.927A15.4,15.4,0,0,1,7562.5-1259a15.4,15.4,0,0,1-1.218,6.033,15.44,15.44,0,0,1-3.322,4.927,15.434,15.434,0,0,1-4.927,3.322A15.4,15.4,0,0,1,7547-1243.5Zm0-30a14.406,14.406,0,0,0-5.643,1.139,14.45,14.45,0,0,0-4.61,3.107,14.463,14.463,0,0,0-3.108,4.609A14.41,14.41,0,0,0,7532.5-1259a14.409,14.409,0,0,0,1.139,5.644,14.462,14.462,0,0,0,3.108,4.609,14.455,14.455,0,0,0,4.61,3.108,14.4,14.4,0,0,0,5.643,1.14,14.4,14.4,0,0,0,5.644-1.139,14.439,14.439,0,0,0,4.61-3.108,14.453,14.453,0,0,0,3.108-4.609A14.409,14.409,0,0,0,7561.5-1259a14.41,14.41,0,0,0-1.139-5.644,14.449,14.449,0,0,0-3.108-4.609,14.434,14.434,0,0,0-4.61-3.107A14.4,14.4,0,0,0,7547-1273.5Z" transform="translate(-7186 1850.617)" fill="rgba(0,0,0,0)"/><path id="backgroundIcon156" d="M24264,22330c0-8.291,13.43-15,30-15s30,6.707,30,15-13.43,15-30,15S24264,22338.285,24264,22330Zm0-30c0-8.283,13.43-15,30-15s30,6.715,30,15-13.43,15.006-30,15.006S24264,22308.287,24264,22300Z" transform="translate(-23333 -21423.383)" fill="#161b25"/><path id="backgroundIcon157" d="M-7903,2284v-30h60v30Zm0-30a29.8,29.8,0,0,1,2.357-11.677,29.914,29.914,0,0,1,6.429-9.536,29.9,29.9,0,0,1,9.537-6.429A29.828,29.828,0,0,1-7873,2224a29.824,29.824,0,0,1,11.677,2.356,29.908,29.908,0,0,1,9.535,6.429,29.886,29.886,0,0,1,6.431,9.536A29.82,29.82,0,0,1-7843,2254v0Z" transform="translate(9034 -1362.381)" fill="#161b25"/><path id="backgroundIcon158" d="M-7903,2264h60v60A60,60,0,0,1-7903,2264Z" transform="translate(-833 -6981.383) rotate(-90)" fill="#161b25"/><path id="backgroundIcon159" d="M-7903.5,2263.5h61v61h-.5a60.117,60.117,0,0,1-23.549-4.755,60.513,60.513,0,0,1-10.277-5.578,60.94,60.94,0,0,1-8.953-7.387,60.911,60.911,0,0,1-7.387-8.953,60.531,60.531,0,0,1-5.579-10.277A60.119,60.119,0,0,1-7903.5,2264Zm60,1h-59a59.1,59.1,0,0,0,4.674,22.659,59.513,59.513,0,0,0,5.486,10.106,59.893,59.893,0,0,0,7.266,8.806,59.914,59.914,0,0,0,8.806,7.266,59.5,59.5,0,0,0,10.106,5.486,59.09,59.09,0,0,0,22.659,4.674Z" transform="translate(-833 -6981.383) rotate(-90)" fill="rgba(0,0,0,0)"/><path id="backgroundIcon160" d="M-7843,2284h-60v-60h60v60Zm-45-45a30.034,30.034,0,0,0,30,30v-30Z" transform="translate(-6812 3145.617) rotate(180)" fill="#161b25"/><path id="backgroundIcon161" d="M-7843,2284.5h-60.5v-61h61V2284h-.5Zm-59.5-1h59v-59h-59Zm45-14h-.5a30.535,30.535,0,0,1-30.5-30.5v-.5h31Zm-30-30a29.535,29.535,0,0,0,29,29v-29Z" transform="translate(-6812 3145.617) rotate(180)" fill="rgba(0,0,0,0)"/><path id="backgroundIcon162" d="M-7843,2284h-60v-60h60v60Zm-45-45a30.034,30.034,0,0,0,30,30v-30Z" transform="translate(-493 -6981.383) rotate(-90)" fill="#161b25"/><path id="backgroundIcon163" d="M-7843,2284.5h-60.5v-61h61V2284h-.5Zm-59.5-1h59v-59h-59Zm45-14h-.5a30.535,30.535,0,0,1-30.5-30.5v-.5h31Zm-30-30a29.535,29.535,0,0,0,29,29v-29Z" transform="translate(-493 -6981.383) rotate(-90)" fill="rgba(0,0,0,0)"/><path id="backgroundIcon164" d="M-7873,2284a29.809,29.809,0,0,1-11.677-2.358,29.9,29.9,0,0,1-9.535-6.429,29.891,29.891,0,0,1-6.43-9.536A29.81,29.81,0,0,1-7903,2254a29.808,29.808,0,0,1,2.357-11.677,29.884,29.884,0,0,1,6.43-9.535,29.9,29.9,0,0,1,9.535-6.429A29.815,29.815,0,0,1-7873,2224a29.813,29.813,0,0,1,11.677,2.357,29.9,29.9,0,0,1,9.535,6.429,29.9,29.9,0,0,1,6.429,9.535A29.817,29.817,0,0,1-7843,2254a29.821,29.821,0,0,1-2.357,11.677,29.9,29.9,0,0,1-6.429,9.536,29.9,29.9,0,0,1-9.535,6.429A29.807,29.807,0,0,1-7873,2284Zm-15-45v30h30v-30Z" transform="translate(9434 -1362.381)" fill="#161b25"/><path id="backgroundIcon165" d="M-7873,2284.5a30.307,30.307,0,0,1-11.872-2.4,30.391,30.391,0,0,1-9.694-6.536,30.391,30.391,0,0,1-6.537-9.694,30.311,30.311,0,0,1-2.4-11.872,30.308,30.308,0,0,1,2.4-11.872,30.378,30.378,0,0,1,6.537-9.694,30.389,30.389,0,0,1,9.694-6.536,30.312,30.312,0,0,1,11.872-2.4,30.309,30.309,0,0,1,11.872,2.4,30.4,30.4,0,0,1,9.694,6.536,30.394,30.394,0,0,1,6.536,9.694,30.317,30.317,0,0,1,2.4,11.872,30.321,30.321,0,0,1-2.4,11.872,30.4,30.4,0,0,1-6.536,9.694,30.391,30.391,0,0,1-9.694,6.536A30.306,30.306,0,0,1-7873,2284.5Zm0-60a29.316,29.316,0,0,0-11.482,2.318,29.4,29.4,0,0,0-9.376,6.322,29.392,29.392,0,0,0-6.323,9.376A29.31,29.31,0,0,0-7902.5,2254a29.313,29.313,0,0,0,2.318,11.482,29.4,29.4,0,0,0,6.323,9.377,29.4,29.4,0,0,0,9.376,6.322A29.313,29.313,0,0,0-7873,2283.5a29.313,29.313,0,0,0,11.482-2.318,29.4,29.4,0,0,0,9.376-6.322,29.407,29.407,0,0,0,6.322-9.377A29.322,29.322,0,0,0-7843.5,2254a29.318,29.318,0,0,0-2.318-11.482,29.4,29.4,0,0,0-6.322-9.376,29.41,29.41,0,0,0-9.376-6.322A29.316,29.316,0,0,0-7873,2224.5Zm15.5,45h-31v-31h31Zm-30-1h29v-29h-29Z" transform="translate(9434 -1362.381)" fill="rgba(0,0,0,0)"/><path id="backgroundIcon166" d="M24282.326,22342.645A29.969,29.969,0,0,1,24264,22315v-30h60v30a30.018,30.018,0,0,1-41.674,27.641Z" transform="translate(-22633 -21423.383)" fill="#161b25"/><path id="backgroundIcon167" d="M24312.322,22342.645A30,30,0,0,1,24324,22285v60A29.838,29.838,0,0,1,24312.322,22342.645ZM24264,22285a30,30,0,1,1,0,60Z" transform="translate(-22933 -21423.383)" fill="#161b25"/><path id="backgroundIcon168" d="M7547-1229a29.82,29.82,0,0,1-11.678-2.357,29.9,29.9,0,0,1-9.535-6.429,29.911,29.911,0,0,1-6.43-9.536A29.81,29.81,0,0,1,7517-1259a29.81,29.81,0,0,1,2.357-11.677,29.9,29.9,0,0,1,6.43-9.536,29.9,29.9,0,0,1,9.535-6.429A29.817,29.817,0,0,1,7547-1289a29.81,29.81,0,0,1,11.678,2.358,29.894,29.894,0,0,1,9.536,6.429,29.914,29.914,0,0,1,6.43,9.536A29.81,29.81,0,0,1,7577-1259a29.81,29.81,0,0,1-2.357,11.677,29.911,29.911,0,0,1-6.43,9.536,29.894,29.894,0,0,1-9.536,6.429A29.812,29.812,0,0,1,7547-1229Zm0-52.5-22.5,22.5,22.5,22.5,22.5-22.5-22.5-22.5Z" transform="translate(-6286 2150.617)" fill="#161b25"/><path id="backgroundIcon169" d="M7547-1228.5a30.318,30.318,0,0,1-11.873-2.4,30.394,30.394,0,0,1-9.694-6.536,30.41,30.41,0,0,1-6.537-9.695,30.31,30.31,0,0,1-2.4-11.872,30.311,30.311,0,0,1,2.4-11.872,30.387,30.387,0,0,1,6.537-9.695,30.4,30.4,0,0,1,9.694-6.536,30.316,30.316,0,0,1,11.873-2.4,30.309,30.309,0,0,1,11.873,2.4,30.392,30.392,0,0,1,9.695,6.536,30.412,30.412,0,0,1,6.537,9.695,30.311,30.311,0,0,1,2.4,11.872,30.31,30.31,0,0,1-2.4,11.872,30.41,30.41,0,0,1-6.537,9.695,30.39,30.39,0,0,1-9.695,6.536A30.311,30.311,0,0,1,7547-1228.5Zm0-60a29.319,29.319,0,0,0-11.483,2.318,29.4,29.4,0,0,0-9.376,6.322,29.4,29.4,0,0,0-6.323,9.377A29.313,29.313,0,0,0,7517.5-1259a29.311,29.311,0,0,0,2.318,11.483,29.415,29.415,0,0,0,6.323,9.377,29.4,29.4,0,0,0,9.376,6.323A29.325,29.325,0,0,0,7547-1229.5a29.317,29.317,0,0,0,11.483-2.318,29.4,29.4,0,0,0,9.377-6.323,29.415,29.415,0,0,0,6.323-9.377A29.311,29.311,0,0,0,7576.5-1259a29.312,29.312,0,0,0-2.318-11.483,29.418,29.418,0,0,0-6.323-9.377,29.394,29.394,0,0,0-9.377-6.322A29.312,29.312,0,0,0,7547-1288.5Zm0,52.708-.354-.354L7523.792-1259l22.5-22.5-.372-.372,1.019-.125.061.5.353-.353L7570.207-1259ZM7525.206-1259,7547-1237.207,7568.793-1259,7547-1280.793Z" transform="translate(-6286 2150.617)" fill="rgba(0,0,0,0)"/><path id="backgroundIcon170" d="M24294,22315h30v30A30,30,0,0,1,24294,22315Zm-30,0h30a30,30,0,0,1-30-30h30v60A30,30,0,0,1,24264,22315Zm30-30h30v30A30.008,30.008,0,0,1,24294,22285Z" transform="translate(-23033 -21623.383)" fill="#161b25"/><path id="backgroundIcon171" d="M24264,22345a30.157,30.157,0,0,1,2.318-11.678,29.815,29.815,0,0,1,6.318-9.533,29.42,29.42,0,0,1,9.377-6.436,29.165,29.165,0,0,1,22.965,0,29.35,29.35,0,0,1,9.381,6.436,29.75,29.75,0,0,1,6.318,9.533A30.231,30.231,0,0,1,24323,22345Zm0-30a30.178,30.178,0,0,1,8.637-21.213,29.334,29.334,0,0,1,9.377-6.428,29.1,29.1,0,0,1,22.965,0,29.265,29.265,0,0,1,9.381,6.428,29.844,29.844,0,0,1,6.318,9.535A30.231,30.231,0,0,1,24323,22315Z" transform="translate(-22933 -21623.383)" fill="#161b25"/><path id="backgroundIcon172" d="M24294,22330a15,15,0,1,1,15,15A14.994,14.994,0,0,1,24294,22330Zm-30,0a15,15,0,1,1,15,15A14.993,14.993,0,0,1,24264,22330Zm30-30a15,15,0,1,1,15,15.006A15,15,0,0,1,24294,22300Zm-30,0a15,15,0,1,1,15,15.006A15,15,0,0,1,24264,22300Z" transform="translate(-22833 -21623.383)" fill="#161b25"/><path id="backgroundIcon173" d="M24264,22345v-15h60v15Zm0-22v-15h60v15Zm0-23v-15h60v15Z" transform="translate(-23133 -21623.383)" fill="#161b25"/><path id="backgroundIcon174" d="M24264,22345a22.313,22.313,0,1,0,18.326-32.359A29.956,29.956,0,0,1,24264,22285h60a22.322,22.322,0,1,0-18.324,32.359A29.958,29.958,0,0,1,24324,22345Z" transform="translate(-23033 -21523.383)" fill="#161b25"/><path id="backgroundIcon175" d="M30-.5A30.508,30.508,0,0,1,41.872,58.1,30.508,30.508,0,0,1,18.128,1.9,30.309,30.309,0,0,1,30-.5Zm0,60A29.508,29.508,0,0,0,41.483,2.818,29.508,29.508,0,0,0,18.517,57.182,29.315,29.315,0,0,0,30,59.5Z" transform="translate(1331 561.617)" fill="rgba(0,0,0,0)"/><path id="backgroundIcon176" d="M24294,22345a30,30,0,0,1,30-30v30Zm-30-30h30v30A30,30,0,0,1,24264,22315Zm30,0v-30a30,30,0,0,1,30,30Zm-30-30h30a30,30,0,0,1-30,30Z" transform="translate(-23133 -21723.383)" fill="#161b25"/><path id="backgroundIcon177" d="M24294,22345a30,30,0,0,1,30-30v30Zm-30,0v-30a30,30,0,0,1,30,30Zm30-60h30v30A30.008,30.008,0,0,1,24294,22285Zm-30,0h30a30,30,0,0,1-30,30Z" transform="translate(-22633 -21723.383)" fill="#161b25"/><path id="backgroundIcon178" d="M-7903,2264h60v60A60,60,0,0,1-7903,2264Z" transform="translate(-6311.998 2985.619) rotate(180)" fill="#161b25"/><path id="backgroundIcon179" d="M-7903.5,2263.5h61v61h-.5a60.121,60.121,0,0,1-23.549-4.755,60.513,60.513,0,0,1-10.277-5.578,60.932,60.932,0,0,1-8.954-7.388,60.929,60.929,0,0,1-7.388-8.954,60.535,60.535,0,0,1-5.579-10.277A60.114,60.114,0,0,1-7903.5,2264Zm60,1h-59a59.1,59.1,0,0,0,4.674,22.66,59.52,59.52,0,0,0,5.486,10.107,59.925,59.925,0,0,0,7.266,8.806,59.982,59.982,0,0,0,8.806,7.266,59.545,59.545,0,0,0,10.107,5.486,59.1,59.1,0,0,0,22.66,4.674Z" transform="translate(-6311.998 2985.619) rotate(180)" fill="rgba(0,0,0,0)"/><path id="backgroundIcon180" d="M-7903,2264h60v60A60,60,0,0,1-7903,2264Z" transform="translate(4055 8564.617) rotate(90)" fill="#161b25"/><path id="backgroundIcon181" d="M-7903.5,2263.5h61v61h-.5a60.121,60.121,0,0,1-23.549-4.755,60.513,60.513,0,0,1-10.277-5.578,60.932,60.932,0,0,1-8.954-7.388,60.929,60.929,0,0,1-7.388-8.954,60.535,60.535,0,0,1-5.579-10.277A60.114,60.114,0,0,1-7903.5,2264Zm60,1h-59a59.1,59.1,0,0,0,4.674,22.66,59.52,59.52,0,0,0,5.486,10.107,59.925,59.925,0,0,0,7.266,8.806,59.982,59.982,0,0,0,8.806,7.266,59.545,59.545,0,0,0,10.107,5.486,59.1,59.1,0,0,0,22.66,4.674Z" transform="translate(4055 8564.617) rotate(90)" fill="rgba(0,0,0,0)"/><path id="backgroundIcon182" d="M-7903,2264h60v60A60,60,0,0,1-7903,2264Z" transform="translate(8934 -1502.383)" fill="#161b25"/><path id="backgroundIcon183" d="M-7903.5,2263.5h61v61h-.5a60.121,60.121,0,0,1-23.549-4.755,60.513,60.513,0,0,1-10.277-5.578,60.932,60.932,0,0,1-8.954-7.388,60.929,60.929,0,0,1-7.388-8.954,60.535,60.535,0,0,1-5.579-10.277A60.114,60.114,0,0,1-7903.5,2264Zm60,1h-59a59.1,59.1,0,0,0,4.674,22.66,59.52,59.52,0,0,0,5.486,10.107,59.925,59.925,0,0,0,7.266,8.806,59.982,59.982,0,0,0,8.806,7.266,59.545,59.545,0,0,0,10.107,5.486,59.1,59.1,0,0,0,22.66,4.674Z" transform="translate(8934 -1502.383)" fill="rgba(0,0,0,0)"/><path id="backgroundIcon184" d="M24294,22315h30a30,30,0,0,1-30,30Zm-30,30v-30a30,30,0,0,1,30,30Zm30-60h30v30A30.008,30.008,0,0,1,24294,22285Zm-29,30a1,1,0,0,1-.988-.85,30.006,30.006,0,0,1,29.148-29.148,1,1,0,0,1,.844.988V22314a1,1,0,0,1-1,1Z" transform="translate(-22833 -21723.383)" fill="#161b25"/><path id="backgroundIcon185" d="M24309,22345v-60h15v60Zm-22,0v-60h15v60Zm-23,0v-60h15v60Z" transform="translate(-22633 -21523.383)" fill="#161b25"/><path id="backgroundIcon186" d="M24264,22345l30-30,30,30Zm0-60h60l-30,30Z" transform="translate(-22533 -21723.383)" fill="#161b25"/><path id="backgroundIcon187" d="M24264,22315h60l-30,30Zm0,0,30-30,30,30Z" transform="translate(-23233 -21623.383)" fill="#161b25"/><path id="backgroundIcon188" d="M24294,22315l30-30v60Zm-30-30,30,30-30,30Z" transform="translate(-22533 -21523.383)" fill="#161b25"/><path id="backgroundIcon189" d="M-7843,2284h-60v-60h60v60Zm-45-45v30h30v-30Z" transform="translate(9034 -1462.383)" fill="#161b25"/><path id="backgroundIcon190" d="M-7843,2284.5h-60.5v-61h61V2284h-.5Zm-59.5-1h59v-59h-59Zm45-14h-31v-31h31Zm-30-1h29v-29h-29Z" transform="translate(9034 -1462.383)" fill="rgba(0,0,0,0)"/><path id="backgroundIcon191" d="M-7843,2284h-60v-60h60v60Zm-45-45a30.034,30.034,0,0,0,30,30v-30Z" transform="translate(8834 -1462.383)" fill="#161b25"/><path id="backgroundIcon192" d="M-7843,2284.5h-60.5v-61h61V2284h-.5Zm-59.5-1h59v-59h-59Zm45-14h-.5a30.534,30.534,0,0,1-30.5-30.5v-.5h31Zm-30-30a29.535,29.535,0,0,0,29,29v-29Z" transform="translate(8834 -1462.383)" fill="rgba(0,0,0,0)"/><path id="backgroundIcon193" d="M-7843,2284h-60v-60h60v60Zm-45-45a30.036,30.036,0,0,0,30,30v-30Z" transform="translate(3915.002 8564.617) rotate(90)" fill="#161b25"/><path id="backgroundIcon194" d="M-7843,2284.5h-60.5v-61h61V2284h-.5Zm-59.5-1h59v-59h-59Zm45-14h-.5a30.536,30.536,0,0,1-30.5-30.5v-.5h31Zm-30-30a29.536,29.536,0,0,0,29,29v-29Z" transform="translate(3915.002 8564.617) rotate(90)" fill="rgba(0,0,0,0)"/><path id="backgroundIcon195" d="M-7843,2284h-60v-60h60v60Zm-30-52.5-22.5,22.5,22.5,22.5,22.5-22.5-22.5-22.5Z" transform="translate(8934 -1662.383)" fill="#161b25"/><path id="backgroundIcon196" d="M-7843,2284.5h-60.5v-61h61V2284h-.5Zm-59.5-1h59v-59h-59Zm29.5-6.292L-7896.208,2254l22.5-22.5-.141-.141.629-.308.22.449.353-.353,22.853,22.853ZM-7894.794,2254l21.793,21.792,21.792-21.792L-7873,2232.207Z" transform="translate(8934 -1662.383)" fill="rgba(0,0,0,0)"/><path id="backgroundIcon197" d="M24294,22345v-60h30v60Zm-11.672-2.355A30,30,0,0,1,24294,22285v60A29.8,29.8,0,0,1,24282.326,22342.645Z" transform="translate(-23332.996 -21723.383)" fill="#161b25"/><path id="backgroundIcon198" d="M24324.5,22345.5h-31v0a30.5,30.5,0,0,1,0-60.992v0h31Zm-30-1h29v-59h-29Zm-1-59a29.5,29.5,0,0,0,0,58.992Z" transform="translate(-23332.996 -21723.383)" fill="rgba(0,0,0,0)"/><path id="backgroundIcon199" d="M24264,22345v-60h30a30,30,0,1,1,0,60Z" transform="translate(-22933 -21523.383)" fill="#161b25"/><path id="backgroundIcon200" d="M30,0,60,60H0Z" transform="translate(991 661.615) rotate(90)" fill="#161b25"/><path id="backgroundIcon201" d="M30-1.118,60.809,60.5H-.809ZM59.191,59.5,30,1.118.809,59.5Z" transform="translate(991 661.615) rotate(90)" fill="rgba(0,0,0,0)"/><path id="backgroundIcon202" d="M30,0,60,60H0Z" transform="translate(1531 621.617) rotate(-90)" fill="#161b25"/><path id="backgroundIcon203" d="M30-1.118,60.809,60.5H-.809ZM59.191,59.5,30,1.118.809,59.5Z" transform="translate(1531 621.617) rotate(-90)" fill="rgba(0,0,0,0)"/><path id="backgroundIcon204" d="M7547-1229a29.82,29.82,0,0,1-11.678-2.357,29.9,29.9,0,0,1-9.535-6.429,29.911,29.911,0,0,1-6.43-9.536A29.81,29.81,0,0,1,7517-1259a29.81,29.81,0,0,1,2.357-11.677,29.9,29.9,0,0,1,6.43-9.536,29.9,29.9,0,0,1,9.535-6.429A29.817,29.817,0,0,1,7547-1289a29.81,29.81,0,0,1,11.678,2.358,29.894,29.894,0,0,1,9.536,6.429,29.914,29.914,0,0,1,6.43,9.536A29.81,29.81,0,0,1,7577-1259a29.81,29.81,0,0,1-2.357,11.677,29.911,29.911,0,0,1-6.43,9.536,29.894,29.894,0,0,1-9.536,6.429A29.812,29.812,0,0,1,7547-1229Zm0-45a14.9,14.9,0,0,0-5.838,1.179,14.952,14.952,0,0,0-4.769,3.214,14.958,14.958,0,0,0-3.215,4.768A14.907,14.907,0,0,0,7532-1259a14.9,14.9,0,0,0,1.179,5.839,14.955,14.955,0,0,0,3.215,4.768,14.949,14.949,0,0,0,4.769,3.215A14.9,14.9,0,0,0,7547-1244a14.9,14.9,0,0,0,5.839-1.179,14.938,14.938,0,0,0,4.769-3.215,14.947,14.947,0,0,0,3.215-4.768A14.9,14.9,0,0,0,7562-1259a14.907,14.907,0,0,0-1.179-5.839,14.945,14.945,0,0,0-3.215-4.768,14.937,14.937,0,0,0-4.769-3.214A14.9,14.9,0,0,0,7547-1274Z" transform="translate(-5986 2050.617)" fill="#161b25"/><path id="backgroundIcon205" d="M7547-1228.5a30.318,30.318,0,0,1-11.873-2.4,30.394,30.394,0,0,1-9.694-6.536,30.41,30.41,0,0,1-6.537-9.695,30.31,30.31,0,0,1-2.4-11.872,30.311,30.311,0,0,1,2.4-11.872,30.387,30.387,0,0,1,6.537-9.695,30.4,30.4,0,0,1,9.694-6.536,30.316,30.316,0,0,1,11.873-2.4,30.309,30.309,0,0,1,11.873,2.4,30.392,30.392,0,0,1,9.695,6.536,30.412,30.412,0,0,1,6.537,9.695,30.311,30.311,0,0,1,2.4,11.872,30.31,30.31,0,0,1-2.4,11.872,30.41,30.41,0,0,1-6.537,9.695,30.39,30.39,0,0,1-9.695,6.536A30.311,30.311,0,0,1,7547-1228.5Zm0-60a29.319,29.319,0,0,0-11.483,2.318,29.4,29.4,0,0,0-9.376,6.322,29.4,29.4,0,0,0-6.323,9.377A29.313,29.313,0,0,0,7517.5-1259a29.311,29.311,0,0,0,2.318,11.483,29.415,29.415,0,0,0,6.323,9.377,29.4,29.4,0,0,0,9.376,6.323A29.325,29.325,0,0,0,7547-1229.5a29.317,29.317,0,0,0,11.483-2.318,29.4,29.4,0,0,0,9.377-6.323,29.415,29.415,0,0,0,6.323-9.377A29.311,29.311,0,0,0,7576.5-1259a29.312,29.312,0,0,0-2.318-11.483,29.418,29.418,0,0,0-6.323-9.377,29.394,29.394,0,0,0-9.377-6.322A29.312,29.312,0,0,0,7547-1288.5Zm0,45a15.4,15.4,0,0,1-6.033-1.218,15.446,15.446,0,0,1-4.927-3.322,15.449,15.449,0,0,1-3.322-4.927A15.4,15.4,0,0,1,7531.5-1259a15.4,15.4,0,0,1,1.218-6.034,15.45,15.45,0,0,1,3.322-4.927,15.454,15.454,0,0,1,4.927-3.321A15.405,15.405,0,0,1,7547-1274.5a15.4,15.4,0,0,1,6.034,1.218,15.434,15.434,0,0,1,4.927,3.321,15.436,15.436,0,0,1,3.322,4.927A15.4,15.4,0,0,1,7562.5-1259a15.4,15.4,0,0,1-1.218,6.033,15.441,15.441,0,0,1-3.322,4.927,15.437,15.437,0,0,1-4.927,3.322A15.4,15.4,0,0,1,7547-1243.5Zm0-30a14.406,14.406,0,0,0-5.643,1.139,14.454,14.454,0,0,0-4.61,3.107,14.463,14.463,0,0,0-3.108,4.609A14.41,14.41,0,0,0,7532.5-1259a14.408,14.408,0,0,0,1.139,5.644,14.462,14.462,0,0,0,3.108,4.609,14.456,14.456,0,0,0,4.61,3.108A14.4,14.4,0,0,0,7547-1244.5a14.4,14.4,0,0,0,5.644-1.139,14.443,14.443,0,0,0,4.61-3.108,14.454,14.454,0,0,0,3.108-4.609A14.408,14.408,0,0,0,7561.5-1259a14.41,14.41,0,0,0-1.139-5.644,14.449,14.449,0,0,0-3.108-4.609,14.434,14.434,0,0,0-4.61-3.107A14.4,14.4,0,0,0,7547-1273.5Z" transform="translate(-5986 2050.617)" fill="rgba(0,0,0,0)"/><path id="backgroundIcon206" d="M7547-1229h0l-30-30,30-30,30,30-30,30Zm0-45a14.9,14.9,0,0,0-5.838,1.179,14.948,14.948,0,0,0-4.769,3.214,14.958,14.958,0,0,0-3.215,4.768A14.907,14.907,0,0,0,7532-1259a14.906,14.906,0,0,0,1.179,5.839,14.956,14.956,0,0,0,3.215,4.768,14.947,14.947,0,0,0,4.769,3.215A14.9,14.9,0,0,0,7547-1244a14.9,14.9,0,0,0,5.839-1.179,14.937,14.937,0,0,0,4.769-3.215,14.948,14.948,0,0,0,3.215-4.768A14.906,14.906,0,0,0,7562-1259a14.907,14.907,0,0,0-1.179-5.839,14.945,14.945,0,0,0-3.215-4.768,14.937,14.937,0,0,0-4.769-3.214A14.9,14.9,0,0,0,7547-1274Z" transform="translate(-6286 1850.617)" fill="#161b25"/><path id="backgroundIcon207" d="M7547.353-1228.646,7547-1229l-.354.353L7516.292-1259,7547-1289.707l.354.354L7577.707-1259ZM7517.706-1259,7547-1229.706,7576.293-1259,7547-1288.293ZM7547-1243.5a15.392,15.392,0,0,1-6.033-1.219,15.45,15.45,0,0,1-4.927-3.322,15.448,15.448,0,0,1-3.322-4.927A15.4,15.4,0,0,1,7531.5-1259a15.4,15.4,0,0,1,1.218-6.034,15.45,15.45,0,0,1,3.322-4.927,15.45,15.45,0,0,1,4.927-3.321A15.405,15.405,0,0,1,7547-1274.5a15.4,15.4,0,0,1,6.034,1.218,15.434,15.434,0,0,1,4.927,3.321,15.436,15.436,0,0,1,3.322,4.927A15.4,15.4,0,0,1,7562.5-1259a15.4,15.4,0,0,1-1.218,6.033,15.44,15.44,0,0,1-3.322,4.927,15.434,15.434,0,0,1-4.927,3.322A15.4,15.4,0,0,1,7547-1243.5Zm0-30a14.406,14.406,0,0,0-5.643,1.139,14.45,14.45,0,0,0-4.61,3.107,14.463,14.463,0,0,0-3.108,4.609A14.41,14.41,0,0,0,7532.5-1259a14.409,14.409,0,0,0,1.139,5.644,14.462,14.462,0,0,0,3.108,4.609,14.455,14.455,0,0,0,4.61,3.108,14.4,14.4,0,0,0,5.643,1.14,14.4,14.4,0,0,0,5.644-1.139,14.439,14.439,0,0,0,4.61-3.108,14.453,14.453,0,0,0,3.108-4.609A14.409,14.409,0,0,0,7561.5-1259a14.41,14.41,0,0,0-1.139-5.644,14.449,14.449,0,0,0-3.108-4.609,14.434,14.434,0,0,0-4.61-3.107A14.4,14.4,0,0,0,7547-1273.5Z" transform="translate(-6286 1850.617)" fill="rgba(0,0,0,0)"/><path id="backgroundIcon208" d="M24264,22330c0-8.291,13.43-15,30-15s30,6.707,30,15-13.43,15-30,15S24264,22338.285,24264,22330Zm0-30c0-8.283,13.43-15,30-15s30,6.715,30,15-13.43,15.006-30,15.006S24264,22308.287,24264,22300Z" transform="translate(-22433.5 -21823.75)" fill="#161b25"/><path id="backgroundIcon209" d="M-7843,2284h-60v-60h60v60Zm-45-45a30.034,30.034,0,0,0,30,30v-30Z" transform="translate(9733.5 -1862.75)" fill="#161b25"/><path id="backgroundIcon210" d="M-7843,2284.5h-60.5v-61h61V2284h-.5Zm-59.5-1h59v-59h-59Zm45-14h-.5a30.534,30.534,0,0,1-30.5-30.5v-.5h31Zm-30-30a29.535,29.535,0,0,0,29,29v-29Z" transform="translate(9733.5 -1862.75)" fill="rgba(0,0,0,0)"/><path id="backgroundIcon211" d="M24294,22345v-60h30v60Zm-11.672-2.355A30,30,0,0,1,24294,22285v60A29.8,29.8,0,0,1,24282.326,22342.645Z" transform="translate(-22433.496 -22123.75)" fill="#161b25"/><path id="backgroundIcon212" d="M24324.5,22345.5h-31v0a30.5,30.5,0,0,1,0-60.992v0h31Zm-30-1h29v-59h-29Zm-1-59a29.5,29.5,0,0,0,0,58.992Z" transform="translate(-22433.496 -22123.75)" fill="rgba(0,0,0,0)"/><path id="backgroundIcon213" d="M30,0,60,60H0Z" transform="translate(1890.5 261.248) rotate(90)" fill="#161b25"/><path id="backgroundIcon214" d="M30-1.118,60.809,60.5H-.809ZM59.191,59.5,30,1.118.809,59.5Z" transform="translate(1890.5 261.248) rotate(90)" fill="rgba(0,0,0,0)"/><path id="backgroundIcon215" d="M24264,22330c0-8.291,13.43-15,30-15s30,6.707,30,15-13.43,15-30,15S24264,22338.285,24264,22330Zm0-30c0-8.283,13.43-15,30-15s30,6.715,30,15-13.43,15.006-30,15.006S24264,22308.287,24264,22300Z" transform="translate(-22433.5 -21423.75)" fill="#161b25"/><path id="backgroundIcon216" d="M-7843,2284h-60v-60h60v60Zm-45-45a30.034,30.034,0,0,0,30,30v-30Z" transform="translate(9733.5 -1462.75)" fill="#161b25"/><path id="backgroundIcon217" d="M-7843,2284.5h-60.5v-61h61V2284h-.5Zm-59.5-1h59v-59h-59Zm45-14h-.5a30.534,30.534,0,0,1-30.5-30.5v-.5h31Zm-30-30a29.535,29.535,0,0,0,29,29v-29Z" transform="translate(9733.5 -1462.75)" fill="rgba(0,0,0,0)"/><path id="backgroundIcon218" d="M24294,22345v-60h30v60Zm-11.672-2.355A30,30,0,0,1,24294,22285v60A29.8,29.8,0,0,1,24282.326,22342.645Z" transform="translate(-22433.496 -21723.75)" fill="#161b25"/><path id="backgroundIcon219" d="M24324.5,22345.5h-31v0a30.5,30.5,0,0,1,0-60.992v0h31Zm-30-1h29v-59h-29Zm-1-59a29.5,29.5,0,0,0,0,58.992Z" transform="translate(-22433.496 -21723.75)" fill="rgba(0,0,0,0)"/><path id="backgroundIcon220" d="M30,0,60,60H0Z" transform="translate(1890.5 661.248) rotate(90)" fill="#161b25"/><path id="backgroundIcon221" d="M30-1.118,60.809,60.5H-.809ZM59.191,59.5,30,1.118.809,59.5Z" transform="translate(1890.5 661.248) rotate(90)" fill="rgba(0,0,0,0)"/><path id="backgroundIcon222" d="M30.45,0c40,.7,40,59.3,0,60C-9.55,59.3-9.55.7,30.45,0Z" transform="translate(429.551 160)" fill="#161b25"/><path id="backgroundIcon223" d="M30.45,0c40,.7,40,59.3,0,60C-9.55,59.3-9.55.7,30.45,0Z" transform="translate(429.551 560)" fill="#161b25"/><path id="backgroundIcon224" d="M30.45,0c40,.7,40,59.3,0,60C-9.55,59.3-9.55.7,30.45,0Z" transform="translate(1329.551 560)" fill="#161b25"/><path id="backgroundIcon225" d="M30.45,0c40,.7,40,59.3,0,60C-9.55,59.3-9.55.7,30.45,0Z" transform="translate(1329.551 160)" fill="#161b25"/><path id="backgroundIcon226" d="M0,0H60V60H0Z" transform="translate(530 360)" fill="#161b25"/><path id="backgroundIcon227" d="M0,0H60V60H0Z" transform="translate(530 760)" fill="#161b25"/><path id="backgroundIcon228" d="M0,0H60V60H0Z" transform="translate(1430 760)" fill="#161b25"/><path id="backgroundIcon229" d="M0,0H60V60H0Z" transform="translate(1430 360)" fill="#161b25"/></g></svg>