<svg xmlns="http://www.w3.org/2000/svg" xmlns:xlink="http://www.w3.org/1999/xlink" width="1920" height="1080" viewBox="0 0 1920 1080">
  <defs>
    <linearGradient id="linear-gradient" x1="0.5" x2="0.5" y2="1" gradientUnits="objectBoundingBox">
      <stop offset="0" stop-color="#161b25"/>
      <stop offset="0.271" stop-color="#161b25"/>
      <stop offset="0.517" stop-color="#1c222f"/>
      <stop offset="0.803" stop-color="#161b25"/>
      <stop offset="1" stop-color="#161b25"/>
    </linearGradient>
    <filter id="Vereinigungsmenge_163" x="192" y="422.002" width="136" height="135.998" filterUnits="userSpaceOnUse">
      <feOffset input="SourceAlpha"/>
      <feGaussianBlur stdDeviation="12.5" result="blur"/>
      <feFlood flood-color="#ff3a4d" flood-opacity="0.502"/>
      <feComposite operator="in" in2="blur"/>
      <feComposite in="SourceGraphic"/>
    </filter>
    <filter id="Differenzmenge_46" x="292.5" y="352.5" width="135" height="105" filterUnits="userSpaceOnUse">
      <feOffset input="SourceAlpha"/>
      <feGaussianBlur stdDeviation="12.5" result="blur-2"/>
      <feFlood flood-color="#ff3a4d" flood-opacity="0.502"/>
      <feComposite operator="in" in2="blur-2"/>
      <feComposite in="SourceGraphic"/>
    </filter>
    <filter id="Differenzmenge_47" x="292.5" y="322.5" width="135" height="105" filterUnits="userSpaceOnUse">
      <feOffset input="SourceAlpha"/>
      <feGaussianBlur stdDeviation="12.5" result="blur-3"/>
      <feFlood flood-color="#ff3a4d" flood-opacity="0.502"/>
      <feComposite operator="in" in2="blur-3"/>
      <feComposite in="SourceGraphic"/>
    </filter>
    <filter id="Differenzmenge_43" x="392.5" y="622.5" width="134" height="105" filterUnits="userSpaceOnUse">
      <feOffset input="SourceAlpha"/>
      <feGaussianBlur stdDeviation="12.5" result="blur-4"/>
      <feFlood flood-color="#ff3a4d" flood-opacity="0.502"/>
      <feComposite operator="in" in2="blur-4"/>
      <feComposite in="SourceGraphic"/>
    </filter>
    <filter id="Differenzmenge_44" x="392.5" y="622.5" width="134" height="105" filterUnits="userSpaceOnUse">
      <feOffset input="SourceAlpha"/>
      <feGaussianBlur stdDeviation="12.5" result="blur-5"/>
      <feFlood flood-color="#ff3a4d" flood-opacity="0.502"/>
      <feComposite operator="in" in2="blur-5"/>
      <feComposite in="SourceGraphic"/>
    </filter>
    <filter id="Differenzmenge_45" x="392.5" y="652.5" width="134" height="105" filterUnits="userSpaceOnUse">
      <feOffset input="SourceAlpha"/>
      <feGaussianBlur stdDeviation="12.5" result="blur-6"/>
      <feFlood flood-color="#ff3a4d" flood-opacity="0.502"/>
      <feComposite operator="in" in2="blur-6"/>
      <feComposite in="SourceGraphic"/>
    </filter>
    <filter id="Schnittmenge_810" x="592" y="622" width="136.001" height="136.002" filterUnits="userSpaceOnUse">
      <feOffset input="SourceAlpha"/>
      <feGaussianBlur stdDeviation="12.5" result="blur-7"/>
      <feFlood flood-color="#ff3a4d" flood-opacity="0.502"/>
      <feComposite operator="in" in2="blur-7"/>
      <feComposite in="SourceGraphic"/>
    </filter>
    <filter id="Schnittmenge_811" x="791.999" y="622" width="136.001" height="136" filterUnits="userSpaceOnUse">
      <feOffset input="SourceAlpha"/>
      <feGaussianBlur stdDeviation="12.5" result="blur-8"/>
      <feFlood flood-color="#ff3a4d" flood-opacity="0.502"/>
      <feComposite operator="in" in2="blur-8"/>
      <feComposite in="SourceGraphic"/>
    </filter>
    <filter id="Polygon_6" x="92.499" y="622.5" width="135" height="105" filterUnits="userSpaceOnUse">
      <feOffset input="SourceAlpha"/>
      <feGaussianBlur stdDeviation="12.5" result="blur-9"/>
      <feFlood flood-color="#ff3a4d" flood-opacity="0.502"/>
      <feComposite operator="in" in2="blur-9"/>
      <feComposite in="SourceGraphic"/>
    </filter>
    <filter id="Polygon_7" x="92.499" y="652.5" width="135" height="105" filterUnits="userSpaceOnUse">
      <feOffset input="SourceAlpha"/>
      <feGaussianBlur stdDeviation="12.5" result="blur-10"/>
      <feFlood flood-color="#ff3a4d" flood-opacity="0.502"/>
      <feComposite operator="in" in2="blur-10"/>
      <feComposite in="SourceGraphic"/>
    </filter>
    <filter id="Schnittmenge_815" x="1392.001" y="422" width="135.999" height="136" filterUnits="userSpaceOnUse">
      <feOffset input="SourceAlpha"/>
      <feGaussianBlur stdDeviation="12.5" result="blur-11"/>
      <feFlood flood-color="#ff3a4d" flood-opacity="0.502"/>
      <feComposite operator="in" in2="blur-11"/>
      <feComposite in="SourceGraphic"/>
    </filter>
    <filter id="Rechteck_3669" x="1637.501" y="322.5" width="90" height="135" filterUnits="userSpaceOnUse">
      <feOffset input="SourceAlpha"/>
      <feGaussianBlur stdDeviation="12.5" result="blur-12"/>
      <feFlood flood-color="#ff3a4d" flood-opacity="0.502"/>
      <feComposite operator="in" in2="blur-12"/>
      <feComposite in="SourceGraphic"/>
    </filter>
    <filter id="Rechteck_3670" x="1592.501" y="322.5" width="90" height="135" filterUnits="userSpaceOnUse">
      <feOffset input="SourceAlpha"/>
      <feGaussianBlur stdDeviation="12.5" result="blur-13"/>
      <feFlood flood-color="#ff3a4d" flood-opacity="0.502"/>
      <feComposite operator="in" in2="blur-13"/>
      <feComposite in="SourceGraphic"/>
    </filter>
    <filter id="Rechteck_3671" x="1615.501" y="322.5" width="90" height="135" filterUnits="userSpaceOnUse">
      <feOffset input="SourceAlpha"/>
      <feGaussianBlur stdDeviation="12.5" result="blur-14"/>
      <feFlood flood-color="#ff3a4d" flood-opacity="0.502"/>
      <feComposite operator="in" in2="blur-14"/>
      <feComposite in="SourceGraphic"/>
    </filter>
    <filter id="Schnittmenge_1" x="1192.499" y="652.5" width="105" height="105" filterUnits="userSpaceOnUse">
      <feOffset input="SourceAlpha"/>
      <feGaussianBlur stdDeviation="12.5" result="blur-15"/>
      <feFlood flood-color="#ff3a4d" flood-opacity="0.502"/>
      <feComposite operator="in" in2="blur-15"/>
      <feComposite in="SourceGraphic"/>
    </filter>
    <filter id="Schnittmenge_2" x="1192.499" y="652.5" width="105" height="105" filterUnits="userSpaceOnUse">
      <feOffset input="SourceAlpha"/>
      <feGaussianBlur stdDeviation="12.5" result="blur-16"/>
      <feFlood flood-color="#ff3a4d" flood-opacity="0.502"/>
      <feComposite operator="in" in2="blur-16"/>
      <feComposite in="SourceGraphic"/>
    </filter>
    <filter id="Schnittmenge_3" x="1192.499" y="622.5" width="105" height="105" filterUnits="userSpaceOnUse">
      <feOffset input="SourceAlpha"/>
      <feGaussianBlur stdDeviation="12.5" result="blur-17"/>
      <feFlood flood-color="#ff3a4d" flood-opacity="0.502"/>
      <feComposite operator="in" in2="blur-17"/>
      <feComposite in="SourceGraphic"/>
    </filter>
    <filter id="Schnittmenge_4" x="1222.499" y="622.5" width="105" height="105" filterUnits="userSpaceOnUse">
      <feOffset input="SourceAlpha"/>
      <feGaussianBlur stdDeviation="12.5" result="blur-18"/>
      <feFlood flood-color="#ff3a4d" flood-opacity="0.502"/>
      <feComposite operator="in" in2="blur-18"/>
      <feComposite in="SourceGraphic"/>
    </filter>
    <filter id="Schnittmenge_5" x="1222.499" y="652.5" width="105" height="105" filterUnits="userSpaceOnUse">
      <feOffset input="SourceAlpha"/>
      <feGaussianBlur stdDeviation="12.5" result="blur-19"/>
      <feFlood flood-color="#ff3a4d" flood-opacity="0.502"/>
      <feComposite operator="in" in2="blur-19"/>
      <feComposite in="SourceGraphic"/>
    </filter>
    <filter id="Schnittmenge_826" x="1492" y="622" width="136.001" height="136.002" filterUnits="userSpaceOnUse">
      <feOffset input="SourceAlpha"/>
      <feGaussianBlur stdDeviation="12.5" result="blur-20"/>
      <feFlood flood-color="#ff3a4d" flood-opacity="0.502"/>
      <feComposite operator="in" in2="blur-20"/>
      <feComposite in="SourceGraphic"/>
    </filter>
    <filter id="Schnittmenge_828" x="992" y="722" width="136.001" height="136" filterUnits="userSpaceOnUse">
      <feOffset input="SourceAlpha"/>
      <feGaussianBlur stdDeviation="12.5" result="blur-21"/>
      <feFlood flood-color="#ff3a4d" flood-opacity="0.502"/>
      <feComposite operator="in" in2="blur-21"/>
      <feComposite in="SourceGraphic"/>
    </filter>
    <filter id="Polygon_8" x="1722.5" y="722.5" width="105" height="135" filterUnits="userSpaceOnUse">
      <feOffset input="SourceAlpha"/>
      <feGaussianBlur stdDeviation="12.5" result="blur-22"/>
      <feFlood flood-color="#ff3a4d" flood-opacity="0.502"/>
      <feComposite operator="in" in2="blur-22"/>
      <feComposite in="SourceGraphic"/>
    </filter>
    <filter id="Polygon_9" x="1692.5" y="722.5" width="105" height="135" filterUnits="userSpaceOnUse">
      <feOffset input="SourceAlpha"/>
      <feGaussianBlur stdDeviation="12.5" result="blur-23"/>
      <feFlood flood-color="#ff3a4d" flood-opacity="0.502"/>
      <feComposite operator="in" in2="blur-23"/>
      <feComposite in="SourceGraphic"/>
    </filter>
    <filter id="Differenzmenge_1431" x="1791.995" y="322" width="135.998" height="135.998" filterUnits="userSpaceOnUse">
      <feOffset input="SourceAlpha"/>
      <feGaussianBlur stdDeviation="12.5" result="blur-24"/>
      <feFlood flood-color="#ff3a4d" flood-opacity="0.502"/>
      <feComposite operator="in" in2="blur-24"/>
      <feComposite in="SourceGraphic"/>
    </filter>
    <clipPath id="clip-Background">
      <rect width="1920" height="1080"/>
    </clipPath>
  </defs>
  <g id="Background" clip-path="url(#clip-Background)">
    <rect width="1920" height="1080" fill="url(#linear-gradient)"/>
    <g id="Gruppe_2630" data-name="Gruppe 2630">
      <g id="Gruppe_2556" data-name="Gruppe 2556" transform="translate(-489.999 440)">
        <ellipse id="Ellipse_21" data-name="Ellipse 21" cx="30" cy="15" rx="30" ry="15" transform="translate(520 19.999)" fill="#161b25"/>
        <ellipse id="Ellipse_22" data-name="Ellipse 22" cx="30" cy="15" rx="30" ry="15" transform="translate(520 49.999)" fill="#161b25"/>
      </g>
      <g transform="matrix(1, 0, 0, 1, 0, 0)" filter="url(#Vereinigungsmenge_163)">
        <path id="Vereinigungsmenge_163-2" data-name="Vereinigungsmenge 163" d="M-7903,2284v-30h60v30Zm0-30a29.8,29.8,0,0,1,2.357-11.677,29.914,29.914,0,0,1,6.429-9.536,29.9,29.9,0,0,1,9.537-6.429A29.828,29.828,0,0,1-7873,2224a29.824,29.824,0,0,1,11.677,2.356,29.908,29.908,0,0,1,9.535,6.429,29.886,29.886,0,0,1,6.431,9.536A29.82,29.82,0,0,1-7843,2254v0Z" transform="translate(8133 -1764)" fill="#ff3a4d" stroke="rgba(0,0,0,0)" stroke-miterlimit="10" stroke-width="1"/>
      </g>
      <path id="Schnittmenge_802" data-name="Schnittmenge 802" d="M-7903,2264h60v60A60,60,0,0,1-7903,2264Z" transform="translate(-1734 -7383) rotate(-90)" fill="#161b25"/>
      <path id="Differenzmenge_1387" data-name="Differenzmenge 1387" d="M-7843,2284h-60v-60h60v60Zm-45-45a30.034,30.034,0,0,0,30,30v-30Z" transform="translate(-7713.001 2744) rotate(180)" fill="#161b25"/>
      <path id="Differenzmenge_1388" data-name="Differenzmenge 1388" d="M-7843,2284h-60v-60h60v60Zm-45-45a30.034,30.034,0,0,0,30,30v-30Z" transform="translate(-1394.001 -7383) rotate(-90)" fill="#161b25"/>
      <path id="Differenzmenge_1389" data-name="Differenzmenge 1389" d="M-7873,2284a29.809,29.809,0,0,1-11.677-2.358,29.9,29.9,0,0,1-9.535-6.429,29.891,29.891,0,0,1-6.43-9.536A29.81,29.81,0,0,1-7903,2254a29.808,29.808,0,0,1,2.357-11.677,29.884,29.884,0,0,1,6.43-9.535,29.9,29.9,0,0,1,9.535-6.429A29.815,29.815,0,0,1-7873,2224a29.813,29.813,0,0,1,11.677,2.357,29.9,29.9,0,0,1,9.535,6.429,29.9,29.9,0,0,1,6.429,9.535A29.817,29.817,0,0,1-7843,2254a29.821,29.821,0,0,1-2.357,11.677,29.9,29.9,0,0,1-6.429,9.536,29.9,29.9,0,0,1-9.535,6.429A29.807,29.807,0,0,1-7873,2284Zm-15-45v30h30v-30Z" transform="translate(8533 -1763.998)" fill="#161b25"/>
      <g id="Gruppe_2569" data-name="Gruppe 2569" transform="translate(10 140)">
        <path id="Vereinigungsmenge_2" data-name="Vereinigungsmenge 2" d="M0,60V30H60V60ZM0,30A30.009,30.009,0,0,1,57.644,18.323,29.822,29.822,0,0,1,60,30v0Z" transform="translate(780 379.999) rotate(180)" fill="#161b25"/>
      </g>
      <g id="Gruppe_2571" data-name="Gruppe 2571" transform="translate(10 140)">
        <path id="Differenzmenge_66" data-name="Differenzmenge 66" d="M60,30H0A30.008,30.008,0,0,1,57.643,18.323,29.809,29.809,0,0,1,60,30Z" transform="translate(450 379.999) rotate(-90)" fill="#161b25"/>
        <path id="Differenzmenge_67" data-name="Differenzmenge 67" d="M60,30H0A30.008,30.008,0,0,1,57.643,18.323,29.809,29.809,0,0,1,60,30Z" transform="translate(450 319.999) rotate(90)" fill="#161b25"/>
      </g>
      <path id="Differenzmenge_1393" data-name="Differenzmenge 1393" d="M7547-1229a29.82,29.82,0,0,1-11.678-2.357,29.9,29.9,0,0,1-9.535-6.429,29.911,29.911,0,0,1-6.43-9.536A29.81,29.81,0,0,1,7517-1259a29.81,29.81,0,0,1,2.357-11.677,29.9,29.9,0,0,1,6.43-9.536,29.9,29.9,0,0,1,9.535-6.429A29.817,29.817,0,0,1,7547-1289a29.81,29.81,0,0,1,11.678,2.358,29.894,29.894,0,0,1,9.536,6.429,29.914,29.914,0,0,1,6.43,9.536A29.81,29.81,0,0,1,7577-1259a29.81,29.81,0,0,1-2.357,11.677,29.911,29.911,0,0,1-6.43,9.536,29.894,29.894,0,0,1-9.536,6.429A29.812,29.812,0,0,1,7547-1229Zm0-52.5-22.5,22.5,22.5,22.5,22.5-22.5-22.5-22.5Z" transform="translate(-7186.999 1749)" fill="#161b25"/>
      <rect id="Rechteck_10703" data-name="Rechteck 10703" width="60" height="60" transform="translate(530.001 360)" fill="#161b25"/>
      <g id="Gruppe_2557" data-name="Gruppe 2557" transform="translate(10.001 140)">
        <path id="Schnittmenge_1-2" data-name="Schnittmenge 1" d="M0,0H30V30A30,30,0,0,1,0,0Z" transform="translate(320 150)" fill="#161b25"/>
        <path id="Schnittmenge_2-2" data-name="Schnittmenge 2" d="M0,0H30V30A30,30,0,0,1,0,0Z" transform="translate(320 150)" fill="#161b25"/>
        <path id="Schnittmenge_3-2" data-name="Schnittmenge 3" d="M0,0H30V30A30,30,0,0,1,0,0Z" transform="translate(320 120)" fill="#161b25"/>
        <path id="Schnittmenge_4-2" data-name="Schnittmenge 4" d="M0,0H30V30A30,30,0,0,1,0,0Z" transform="translate(350 120)" fill="#161b25"/>
        <path id="Schnittmenge_5-2" data-name="Schnittmenge 5" d="M0,0H30V30A30,30,0,0,1,0,0Z" transform="translate(350 150)" fill="#161b25"/>
      </g>
      <g id="Gruppe_2558" data-name="Gruppe 2558" transform="translate(10.001 140)">
        <path id="Differenzmenge_43-2" data-name="Differenzmenge 43" d="M59,30H0A30.249,30.249,0,0,1,2.318,18.323,29.929,29.929,0,0,1,8.641,8.787a29.375,29.375,0,0,1,9.376-6.429,29.144,29.144,0,0,1,22.966,0A29.374,29.374,0,0,1,50.36,8.787a29.943,29.943,0,0,1,6.323,9.536A30.251,30.251,0,0,1,59,30Z" transform="translate(420 120)" fill="#161b25"/>
        <path id="Differenzmenge_44-2" data-name="Differenzmenge 44" d="M59,30H0A30.249,30.249,0,0,1,2.318,18.323,29.929,29.929,0,0,1,8.641,8.787a29.375,29.375,0,0,1,9.376-6.429,29.144,29.144,0,0,1,22.966,0A29.374,29.374,0,0,1,50.36,8.787a29.943,29.943,0,0,1,6.323,9.536A30.251,30.251,0,0,1,59,30Z" transform="translate(420 120)" fill="#161b25"/>
        <path id="Differenzmenge_45-2" data-name="Differenzmenge 45" d="M59,30H0A30.249,30.249,0,0,1,2.318,18.323,29.929,29.929,0,0,1,8.641,8.787a29.375,29.375,0,0,1,9.376-6.429,29.144,29.144,0,0,1,22.966,0A29.374,29.374,0,0,1,50.36,8.787a29.943,29.943,0,0,1,6.323,9.536A30.251,30.251,0,0,1,59,30Z" transform="translate(420 150)" fill="#161b25"/>
      </g>
      <g id="Gruppe_2559" data-name="Gruppe 2559" transform="translate(10.001 139.998)">
        <circle id="Ellipse_31" data-name="Ellipse 31" cx="15" cy="15" r="15" transform="translate(520 120)" fill="#161b25"/>
        <circle id="Ellipse_32" data-name="Ellipse 32" cx="15" cy="15" r="15" transform="translate(550 120)" fill="#161b25"/>
        <circle id="Ellipse_33" data-name="Ellipse 33" cx="15" cy="15" r="15" transform="translate(550 150)" fill="#161b25"/>
        <circle id="Ellipse_34" data-name="Ellipse 34" cx="15" cy="15" r="15" transform="translate(520 150)" fill="#161b25"/>
      </g>
      <g id="Gruppe_2560" data-name="Gruppe 2560" transform="translate(-390 140)">
        <rect id="Rechteck_3643" data-name="Rechteck 3643" width="60" height="15" transform="translate(620 120)" fill="#161b25"/>
        <rect id="Rechteck_3644" data-name="Rechteck 3644" width="60" height="15" transform="translate(620 165)" fill="#161b25"/>
        <rect id="Rechteck_3645" data-name="Rechteck 3645" width="60" height="15" transform="translate(620 143)" fill="#161b25"/>
      </g>
      <g id="Gruppe_2561" data-name="Gruppe 2561" transform="translate(10.001 140)">
        <g transform="matrix(1, 0, 0, 1, -10, -140)" filter="url(#Differenzmenge_46)">
          <path id="Differenzmenge_46-2" data-name="Differenzmenge 46" d="M60,30H0A30.008,30.008,0,0,1,57.643,18.323,29.818,29.818,0,0,1,60,30Z" transform="translate(330 390)" fill="#ff3a4d"/>
        </g>
        <g transform="matrix(1, 0, 0, 1, -10, -140)" filter="url(#Differenzmenge_47)">
          <path id="Differenzmenge_47-2" data-name="Differenzmenge 47" d="M60,30H0A30.008,30.008,0,0,1,57.643,18.323,29.818,29.818,0,0,1,60,30Z" transform="translate(390 390) rotate(180)" fill="#ff3a4d"/>
        </g>
      </g>
      <circle id="Ellipse_6674" data-name="Ellipse 6674" cx="30" cy="30" r="30" transform="translate(430 160)" fill="#161b25"/>
      <g id="Gruppe_2562" data-name="Gruppe 2562" transform="translate(10.001 140)">
        <path id="Schnittmenge_6" data-name="Schnittmenge 6" d="M0,0H30V30A30,30,0,0,1,0,0Z" transform="translate(220 50) rotate(-90)" fill="#161b25"/>
        <path id="Schnittmenge_7" data-name="Schnittmenge 7" d="M0,0H30V30A30,30,0,0,1,0,0Z" transform="translate(220 50)" fill="#161b25"/>
        <path id="Schnittmenge_8" data-name="Schnittmenge 8" d="M0,0H30V30A30,30,0,0,1,0,0Z" transform="translate(280 50) rotate(90)" fill="#161b25"/>
        <path id="Schnittmenge_9" data-name="Schnittmenge 9" d="M0,0H30V30A30,30,0,0,1,0,0Z" transform="translate(280 50) rotate(180)" fill="#161b25"/>
      </g>
      <g id="Gruppe_2563" data-name="Gruppe 2563" transform="translate(10 140)">
        <path id="Schnittmenge_10" data-name="Schnittmenge 10" d="M0,0H30V30A30,30,0,0,1,0,0Z" transform="translate(720 50) rotate(-90)" fill="#161b25"/>
        <path id="Schnittmenge_11" data-name="Schnittmenge 11" d="M0,0H30V30A30,30,0,0,1,0,0Z" transform="translate(750 20)" fill="#161b25"/>
        <path id="Schnittmenge_12" data-name="Schnittmenge 12" d="M0,0H30V30A30,30,0,0,1,0,0Z" transform="translate(780 50) rotate(90)" fill="#161b25"/>
        <path id="Schnittmenge_13" data-name="Schnittmenge 13" d="M0,0H30V30A30,30,0,0,1,0,0Z" transform="translate(750 80) rotate(180)" fill="#161b25"/>
      </g>
      <path id="Schnittmenge_799" data-name="Schnittmenge 799" d="M-7903,2264h60v60A60,60,0,0,1-7903,2264Z" transform="translate(-7212.998 2584.002) rotate(180)" fill="#161b25"/>
      <path id="Schnittmenge_800" data-name="Schnittmenge 800" d="M-7903,2264h60v60A60,60,0,0,1-7903,2264Z" transform="translate(3154.001 8163) rotate(90)" fill="#161b25"/>
      <path id="Schnittmenge_801" data-name="Schnittmenge 801" d="M-7903,2264h60v60A60,60,0,0,1-7903,2264Z" transform="translate(8033 -1904)" fill="#161b25"/>
      <g id="Gruppe_2564" data-name="Gruppe 2564" transform="translate(-190 40)">
        <path id="Schnittmenge_18" data-name="Schnittmenge 18" d="M0,0H30V30A30,30,0,0,1,0,0Z" transform="translate(750 120)" fill="#161b25"/>
        <path id="Schnittmenge_19" data-name="Schnittmenge 19" d="M.005.846A1,1,0,0,1,.994,0H29a1,1,0,0,1,1,1V29.006a1,1,0,0,1-.846.988A30.008,30.008,0,0,1,.005.846Z" transform="translate(750 120) rotate(90)" fill="#161b25"/>
        <path id="Schnittmenge_20" data-name="Schnittmenge 20" d="M0,0H30V30A30,30,0,0,1,0,0Z" transform="translate(750 180) rotate(180)" fill="#161b25"/>
        <path id="Schnittmenge_21" data-name="Schnittmenge 21" d="M0,0H30V30A30,30,0,0,1,0,0Z" transform="translate(750 180) rotate(-90)" fill="#161b25"/>
      </g>
      <g id="Gruppe_2565" data-name="Gruppe 2565" transform="translate(10.001 140)">
        <rect id="Rechteck_3669-2" data-name="Rechteck 3669" width="60" height="15" transform="translate(780 220) rotate(90)" fill="#161b25"/>
        <rect id="Rechteck_3670-2" data-name="Rechteck 3670" width="60" height="15" transform="translate(735 220) rotate(90)" fill="#161b25"/>
        <rect id="Rechteck_3671-2" data-name="Rechteck 3671" width="60" height="15" transform="translate(758 220) rotate(90)" fill="#161b25"/>
      </g>
      <g id="Gruppe_2566" data-name="Gruppe 2566" transform="translate(10 140)">
        <path id="Polygon_4" data-name="Polygon 4" d="M30,0,60,30H0Z" transform="translate(880 50) rotate(180)" fill="#161b25"/>
        <path id="Polygon_5" data-name="Polygon 5" d="M30,0,60,30H0Z" transform="translate(820 50)" fill="#161b25"/>
      </g>
      <g id="Gruppe_2567" data-name="Gruppe 2567" transform="translate(-690 140)">
        <path id="Polygon_6-2" data-name="Polygon 6" d="M30,0,60,30H0Z" transform="translate(820 120)" fill="#161b25"/>
        <path id="Polygon_7-2" data-name="Polygon 7" d="M30,0,60,30H0Z" transform="translate(880 180) rotate(180)" fill="#161b25"/>
      </g>
      <g id="Gruppe_2568" data-name="Gruppe 2568" transform="translate(10.001 140)">
        <path id="Polygon_8-2" data-name="Polygon 8" d="M30,0,60,30H0Z" transform="translate(850 280) rotate(-90)" fill="#161b25"/>
        <path id="Polygon_9-2" data-name="Polygon 9" d="M30,0,60,30H0Z" transform="translate(850 220) rotate(90)" fill="#161b25"/>
      </g>
      <path id="Differenzmenge_1384" data-name="Differenzmenge 1384" d="M-7843,2284h-60v-60h60v60Zm-45-45v30h30v-30Z" transform="translate(8133 -1864)" fill="#161b25"/>
      <path id="Differenzmenge_1385" data-name="Differenzmenge 1385" d="M-7843,2284h-60v-60h60v60Zm-45-45a30.034,30.034,0,0,0,30,30v-30Z" transform="translate(7933 -1864)" fill="#161b25"/>
      <path id="Differenzmenge_1386" data-name="Differenzmenge 1386" d="M-7843,2284h-60v-60h60v60Zm-45-45a30.036,30.036,0,0,0,30,30v-30Z" transform="translate(3014.002 8163) rotate(90)" fill="#161b25"/>
      <path id="Differenzmenge_1390" data-name="Differenzmenge 1390" d="M-7843,2284h-60v-60h60v60Zm-30-52.5-22.5,22.5,22.5,22.5,22.5-22.5-22.5-22.5Z" transform="translate(8033 -2064)" fill="#161b25"/>
      <path id="Vereinigungsmenge_164" data-name="Vereinigungsmenge 164" d="M-7903,2284v-30h60v30Zm0-30a29.8,29.8,0,0,1,2.358-11.677,29.91,29.91,0,0,1,6.429-9.537,29.9,29.9,0,0,1,9.537-6.429A29.828,29.828,0,0,1-7873,2224a29.824,29.824,0,0,1,11.677,2.356,29.91,29.91,0,0,1,9.535,6.429,29.906,29.906,0,0,1,6.431,9.537A29.822,29.822,0,0,1-7843,2254h-60Z" transform="translate(-2193.997 -7683) rotate(-90)" fill="#161b25"/>
      <g id="Gruppe_2570" data-name="Gruppe 2570" transform="translate(-389.999 40)">
        <path id="Vereinigungsmenge_4" data-name="Vereinigungsmenge 4" d="M0,60V30H60V60ZM0,30A30.009,30.009,0,0,1,57.644,18.323,29.822,29.822,0,0,1,60,30v0Z" transform="translate(880 320) rotate(90)" fill="#161b25"/>
      </g>
      <path id="Polygon_442" data-name="Polygon 442" d="M30,0,60,60H0Z" transform="translate(90 259.998) rotate(90)" fill="#161b25"/>
      <path id="Polygon_443" data-name="Polygon 443" d="M30,0,60,60H0Z" transform="translate(630 220) rotate(-90)" fill="#161b25"/>
      <path id="Differenzmenge_1392" data-name="Differenzmenge 1392" d="M7547-1229a29.82,29.82,0,0,1-11.678-2.357,29.9,29.9,0,0,1-9.535-6.429,29.911,29.911,0,0,1-6.43-9.536A29.81,29.81,0,0,1,7517-1259a29.81,29.81,0,0,1,2.357-11.677,29.9,29.9,0,0,1,6.43-9.536,29.9,29.9,0,0,1,9.535-6.429A29.817,29.817,0,0,1,7547-1289a29.81,29.81,0,0,1,11.678,2.358,29.894,29.894,0,0,1,9.536,6.429,29.914,29.914,0,0,1,6.43,9.536A29.81,29.81,0,0,1,7577-1259a29.81,29.81,0,0,1-2.357,11.677,29.911,29.911,0,0,1-6.43,9.536,29.894,29.894,0,0,1-9.536,6.429A29.812,29.812,0,0,1,7547-1229Zm0-45a14.9,14.9,0,0,0-5.838,1.179,14.952,14.952,0,0,0-4.769,3.214,14.958,14.958,0,0,0-3.215,4.768A14.907,14.907,0,0,0,7532-1259a14.9,14.9,0,0,0,1.179,5.839,14.955,14.955,0,0,0,3.215,4.768,14.949,14.949,0,0,0,4.769,3.215A14.9,14.9,0,0,0,7547-1244a14.9,14.9,0,0,0,5.839-1.179,14.938,14.938,0,0,0,4.769-3.215,14.947,14.947,0,0,0,3.215-4.768A14.9,14.9,0,0,0,7562-1259a14.907,14.907,0,0,0-1.179-5.839,14.945,14.945,0,0,0-3.215-4.768,14.937,14.937,0,0,0-4.769-3.214A14.9,14.9,0,0,0,7547-1274Z" transform="translate(-6886.999 1649)" fill="#161b25"/>
      <path id="Differenzmenge_1394" data-name="Differenzmenge 1394" d="M7547-1229h0l-30-30,30-30,30,30-30,30Zm0-45a14.9,14.9,0,0,0-5.838,1.179,14.948,14.948,0,0,0-4.769,3.214,14.958,14.958,0,0,0-3.215,4.768A14.907,14.907,0,0,0,7532-1259a14.906,14.906,0,0,0,1.179,5.839,14.956,14.956,0,0,0,3.215,4.768,14.947,14.947,0,0,0,4.769,3.215A14.9,14.9,0,0,0,7547-1244a14.9,14.9,0,0,0,5.839-1.179,14.937,14.937,0,0,0,4.769-3.215,14.948,14.948,0,0,0,3.215-4.768A14.906,14.906,0,0,0,7562-1259a14.907,14.907,0,0,0-1.179-5.839,14.945,14.945,0,0,0-3.215-4.768,14.937,14.937,0,0,0-4.769-3.214A14.9,14.9,0,0,0,7547-1274Z" transform="translate(-7186.999 1449)" fill="#161b25"/>
      <g id="Gruppe_2574" data-name="Gruppe 2574" transform="translate(-490 840)">
        <ellipse id="Ellipse_21-2" data-name="Ellipse 21" cx="30" cy="15" rx="30" ry="15" transform="translate(520 19.999)" fill="#161b25"/>
        <ellipse id="Ellipse_22-2" data-name="Ellipse 22" cx="30" cy="15" rx="30" ry="15" transform="translate(520 49.999)" fill="#161b25"/>
      </g>
      <path id="Vereinigungsmenge_165" data-name="Vereinigungsmenge 165" d="M-7903,2284v-30h60v30Zm0-30a29.8,29.8,0,0,1,2.357-11.677,29.914,29.914,0,0,1,6.429-9.536,29.9,29.9,0,0,1,9.537-6.429A29.828,29.828,0,0,1-7873,2224a29.824,29.824,0,0,1,11.677,2.356,29.908,29.908,0,0,1,9.535,6.429,29.886,29.886,0,0,1,6.431,9.536A29.82,29.82,0,0,1-7843,2254v0Z" transform="translate(8133 -1363.998)" fill="#161b25"/>
      <path id="Schnittmenge_807" data-name="Schnittmenge 807" d="M-7903,2264h60v60A60,60,0,0,1-7903,2264Z" transform="translate(-1734.001 -6983) rotate(-90)" fill="#161b25"/>
      <path id="Differenzmenge_1396" data-name="Differenzmenge 1396" d="M-7843,2284h-60v-60h60v60Zm-45-45a30.034,30.034,0,0,0,30,30v-30Z" transform="translate(-7713.002 3144) rotate(180)" fill="#161b25"/>
      <path id="Differenzmenge_1397" data-name="Differenzmenge 1397" d="M-7843,2284h-60v-60h60v60Zm-45-45a30.034,30.034,0,0,0,30,30v-30Z" transform="translate(-1394.002 -6983) rotate(-90)" fill="#161b25"/>
      <path id="Differenzmenge_1398" data-name="Differenzmenge 1398" d="M-7873,2284a29.809,29.809,0,0,1-11.677-2.358,29.9,29.9,0,0,1-9.535-6.429,29.891,29.891,0,0,1-6.43-9.536A29.81,29.81,0,0,1-7903,2254a29.808,29.808,0,0,1,2.357-11.677,29.884,29.884,0,0,1,6.43-9.535,29.9,29.9,0,0,1,9.535-6.429A29.815,29.815,0,0,1-7873,2224a29.813,29.813,0,0,1,11.677,2.357,29.9,29.9,0,0,1,9.535,6.429,29.9,29.9,0,0,1,6.429,9.535A29.817,29.817,0,0,1-7843,2254a29.821,29.821,0,0,1-2.357,11.677,29.9,29.9,0,0,1-6.429,9.536,29.9,29.9,0,0,1-9.535,6.429A29.807,29.807,0,0,1-7873,2284Zm-15-45v30h30v-30Z" transform="translate(8533 -1363.998)" fill="#161b25"/>
      <g id="Gruppe_2575" data-name="Gruppe 2575" transform="translate(9.999 540)">
        <path id="Vereinigungsmenge_2-2" data-name="Vereinigungsmenge 2" d="M0,60V30H60V60ZM0,30A30.009,30.009,0,0,1,57.644,18.323,29.822,29.822,0,0,1,60,30v0Z" transform="translate(780 379.999) rotate(180)" fill="#161b25"/>
      </g>
      <g id="Gruppe_2576" data-name="Gruppe 2576" transform="translate(9.999 540)">
        <path id="Differenzmenge_66-2" data-name="Differenzmenge 66" d="M60,30H0A30.008,30.008,0,0,1,57.643,18.323,29.809,29.809,0,0,1,60,30Z" transform="translate(450 379.999) rotate(-90)" fill="#161b25"/>
        <path id="Differenzmenge_67-2" data-name="Differenzmenge 67" d="M60,30H0A30.008,30.008,0,0,1,57.643,18.323,29.809,29.809,0,0,1,60,30Z" transform="translate(450 319.999) rotate(90)" fill="#161b25"/>
      </g>
      <path id="Differenzmenge_1399" data-name="Differenzmenge 1399" d="M7547-1229a29.82,29.82,0,0,1-11.678-2.357,29.9,29.9,0,0,1-9.535-6.429,29.911,29.911,0,0,1-6.43-9.536A29.81,29.81,0,0,1,7517-1259a29.81,29.81,0,0,1,2.357-11.677,29.9,29.9,0,0,1,6.43-9.536,29.9,29.9,0,0,1,9.535-6.429A29.817,29.817,0,0,1,7547-1289a29.81,29.81,0,0,1,11.678,2.358,29.894,29.894,0,0,1,9.536,6.429,29.914,29.914,0,0,1,6.43,9.536A29.81,29.81,0,0,1,7577-1259a29.81,29.81,0,0,1-2.357,11.677,29.911,29.911,0,0,1-6.43,9.536,29.894,29.894,0,0,1-9.536,6.429A29.812,29.812,0,0,1,7547-1229Zm0-52.5-22.5,22.5,22.5,22.5,22.5-22.5-22.5-22.5Z" transform="translate(-7187 2149)" fill="#161b25"/>
      <rect id="Rechteck_10732" data-name="Rechteck 10732" width="60" height="60" transform="translate(530 760)" fill="#161b25"/>
      <g id="Gruppe_2578" data-name="Gruppe 2578" transform="translate(10 540)">
        <path id="Schnittmenge_1-3" data-name="Schnittmenge 1" d="M0,0H30V30A30,30,0,0,1,0,0Z" transform="translate(320 150)" fill="#161b25"/>
        <path id="Schnittmenge_2-3" data-name="Schnittmenge 2" d="M0,0H30V30A30,30,0,0,1,0,0Z" transform="translate(320 150)" fill="#161b25"/>
        <path id="Schnittmenge_3-3" data-name="Schnittmenge 3" d="M0,0H30V30A30,30,0,0,1,0,0Z" transform="translate(320 120)" fill="#161b25"/>
        <path id="Schnittmenge_4-3" data-name="Schnittmenge 4" d="M0,0H30V30A30,30,0,0,1,0,0Z" transform="translate(350 120)" fill="#161b25"/>
        <path id="Schnittmenge_5-3" data-name="Schnittmenge 5" d="M0,0H30V30A30,30,0,0,1,0,0Z" transform="translate(350 150)" fill="#161b25"/>
      </g>
      <g id="Gruppe_2579" data-name="Gruppe 2579" transform="translate(10 540)">
        <g transform="matrix(1, 0, 0, 1, -10, -540)" filter="url(#Differenzmenge_43)">
          <path id="Differenzmenge_43-3" data-name="Differenzmenge 43" d="M59,30H0A30.249,30.249,0,0,1,2.318,18.323,29.929,29.929,0,0,1,8.641,8.787a29.375,29.375,0,0,1,9.376-6.429,29.144,29.144,0,0,1,22.966,0A29.374,29.374,0,0,1,50.36,8.787a29.943,29.943,0,0,1,6.323,9.536A30.251,30.251,0,0,1,59,30Z" transform="translate(430 660)" fill="#ff3a4d"/>
        </g>
        <g transform="matrix(1, 0, 0, 1, -10, -540)" filter="url(#Differenzmenge_44)">
          <path id="Differenzmenge_44-3" data-name="Differenzmenge 44" d="M59,30H0A30.249,30.249,0,0,1,2.318,18.323,29.929,29.929,0,0,1,8.641,8.787a29.375,29.375,0,0,1,9.376-6.429,29.144,29.144,0,0,1,22.966,0A29.374,29.374,0,0,1,50.36,8.787a29.943,29.943,0,0,1,6.323,9.536A30.251,30.251,0,0,1,59,30Z" transform="translate(430 660)" fill="#ff3a4d"/>
        </g>
        <g transform="matrix(1, 0, 0, 1, -10, -540)" filter="url(#Differenzmenge_45)">
          <path id="Differenzmenge_45-3" data-name="Differenzmenge 45" d="M59,30H0A30.249,30.249,0,0,1,2.318,18.323,29.929,29.929,0,0,1,8.641,8.787a29.375,29.375,0,0,1,9.376-6.429,29.144,29.144,0,0,1,22.966,0A29.374,29.374,0,0,1,50.36,8.787a29.943,29.943,0,0,1,6.323,9.536A30.251,30.251,0,0,1,59,30Z" transform="translate(430 690)" fill="#ff3a4d"/>
        </g>
      </g>
      <g id="Gruppe_2580" data-name="Gruppe 2580" transform="translate(10 539.998)">
        <circle id="Ellipse_31-2" data-name="Ellipse 31" cx="15" cy="15" r="15" transform="translate(520 120)" fill="#161b25"/>
        <circle id="Ellipse_32-2" data-name="Ellipse 32" cx="15" cy="15" r="15" transform="translate(550 120)" fill="#161b25"/>
        <circle id="Ellipse_33-2" data-name="Ellipse 33" cx="15" cy="15" r="15" transform="translate(550 150)" fill="#161b25"/>
        <circle id="Ellipse_34-2" data-name="Ellipse 34" cx="15" cy="15" r="15" transform="translate(520 150)" fill="#161b25"/>
      </g>
      <g id="Gruppe_2581" data-name="Gruppe 2581" transform="translate(-390.001 540)">
        <rect id="Rechteck_3643-2" data-name="Rechteck 3643" width="60" height="15" transform="translate(620 120)" fill="#161b25"/>
        <rect id="Rechteck_3644-2" data-name="Rechteck 3644" width="60" height="15" transform="translate(620 165)" fill="#161b25"/>
        <rect id="Rechteck_3645-2" data-name="Rechteck 3645" width="60" height="15" transform="translate(620 143)" fill="#161b25"/>
      </g>
      <g id="Gruppe_2582" data-name="Gruppe 2582" transform="translate(10 540)">
        <path id="Differenzmenge_46-3" data-name="Differenzmenge 46" d="M60,30H0A30.008,30.008,0,0,1,57.643,18.323,29.818,29.818,0,0,1,60,30Z" transform="translate(320 250)" fill="#161b25"/>
        <path id="Differenzmenge_47-3" data-name="Differenzmenge 47" d="M60,30H0A30.008,30.008,0,0,1,57.643,18.323,29.818,29.818,0,0,1,60,30Z" transform="translate(380 250) rotate(180)" fill="#161b25"/>
      </g>
      <circle id="Ellipse_6695" data-name="Ellipse 6695" cx="30" cy="30" r="30" transform="translate(429.999 560)" fill="#161b25"/>
      <g id="Gruppe_2583" data-name="Gruppe 2583" transform="translate(10 540)">
        <path id="Schnittmenge_6-2" data-name="Schnittmenge 6" d="M0,0H30V30A30,30,0,0,1,0,0Z" transform="translate(220 50) rotate(-90)" fill="#161b25"/>
        <path id="Schnittmenge_7-2" data-name="Schnittmenge 7" d="M0,0H30V30A30,30,0,0,1,0,0Z" transform="translate(220 50)" fill="#161b25"/>
        <path id="Schnittmenge_8-2" data-name="Schnittmenge 8" d="M0,0H30V30A30,30,0,0,1,0,0Z" transform="translate(280 50) rotate(90)" fill="#161b25"/>
        <path id="Schnittmenge_9-2" data-name="Schnittmenge 9" d="M0,0H30V30A30,30,0,0,1,0,0Z" transform="translate(280 50) rotate(180)" fill="#161b25"/>
      </g>
      <g id="Gruppe_2584" data-name="Gruppe 2584" transform="translate(9.999 540)">
        <path id="Schnittmenge_10-2" data-name="Schnittmenge 10" d="M0,0H30V30A30,30,0,0,1,0,0Z" transform="translate(720 50) rotate(-90)" fill="#161b25"/>
        <path id="Schnittmenge_11-2" data-name="Schnittmenge 11" d="M0,0H30V30A30,30,0,0,1,0,0Z" transform="translate(750 20)" fill="#161b25"/>
        <path id="Schnittmenge_12-2" data-name="Schnittmenge 12" d="M0,0H30V30A30,30,0,0,1,0,0Z" transform="translate(780 50) rotate(90)" fill="#161b25"/>
        <path id="Schnittmenge_13-2" data-name="Schnittmenge 13" d="M0,0H30V30A30,30,0,0,1,0,0Z" transform="translate(750 80) rotate(180)" fill="#161b25"/>
      </g>
      <g transform="matrix(1, 0, 0, 1, 0, 0)" filter="url(#Schnittmenge_810)">
        <path id="Schnittmenge_810-2" data-name="Schnittmenge 810" d="M-7903,2264h60v60A60,60,0,0,1-7903,2264Z" transform="translate(-7213 2984) rotate(180)" fill="#ff3a4d" stroke="rgba(0,0,0,0)" stroke-miterlimit="10" stroke-width="1"/>
      </g>
      <g transform="matrix(1, 0, 0, 1, 0, 0)" filter="url(#Schnittmenge_811)">
        <path id="Schnittmenge_811-2" data-name="Schnittmenge 811" d="M-7903,2264h60v60A60,60,0,0,1-7903,2264Z" transform="translate(3154 8563) rotate(90)" fill="#ff3a4d" stroke="rgba(0,0,0,0)" stroke-miterlimit="10" stroke-width="1"/>
      </g>
      <path id="Schnittmenge_812" data-name="Schnittmenge 812" d="M-7903,2264h60v60A60,60,0,0,1-7903,2264Z" transform="translate(8033 -1504)" fill="#161b25"/>
      <g id="Gruppe_2585" data-name="Gruppe 2585" transform="translate(-190.001 440)">
        <path id="Schnittmenge_18-2" data-name="Schnittmenge 18" d="M0,0H30V30A30,30,0,0,1,0,0Z" transform="translate(750 120)" fill="#161b25"/>
        <path id="Schnittmenge_19-2" data-name="Schnittmenge 19" d="M.005.846A1,1,0,0,1,.994,0H29a1,1,0,0,1,1,1V29.006a1,1,0,0,1-.846.988A30.008,30.008,0,0,1,.005.846Z" transform="translate(750 120) rotate(90)" fill="#161b25"/>
        <path id="Schnittmenge_20-2" data-name="Schnittmenge 20" d="M0,0H30V30A30,30,0,0,1,0,0Z" transform="translate(750 180) rotate(180)" fill="#161b25"/>
        <path id="Schnittmenge_21-2" data-name="Schnittmenge 21" d="M0,0H30V30A30,30,0,0,1,0,0Z" transform="translate(750 180) rotate(-90)" fill="#161b25"/>
      </g>
      <g id="Gruppe_2586" data-name="Gruppe 2586" transform="translate(10 540)">
        <rect id="Rechteck_3669-3" data-name="Rechteck 3669" width="60" height="15" transform="translate(780 220) rotate(90)" fill="#161b25"/>
        <rect id="Rechteck_3670-3" data-name="Rechteck 3670" width="60" height="15" transform="translate(735 220) rotate(90)" fill="#161b25"/>
        <rect id="Rechteck_3671-3" data-name="Rechteck 3671" width="60" height="15" transform="translate(758 220) rotate(90)" fill="#161b25"/>
      </g>
      <g id="Gruppe_2587" data-name="Gruppe 2587" transform="translate(9.999 540)">
        <path id="Polygon_4-2" data-name="Polygon 4" d="M30,0,60,30H0Z" transform="translate(880 50) rotate(180)" fill="#161b25"/>
        <path id="Polygon_5-2" data-name="Polygon 5" d="M30,0,60,30H0Z" transform="translate(820 50)" fill="#161b25"/>
      </g>
      <g id="Gruppe_2588" data-name="Gruppe 2588" transform="translate(-690.001 540)">
        <g transform="matrix(1, 0, 0, 1, 690, -540)" filter="url(#Polygon_6)">
          <path id="Polygon_6-3" data-name="Polygon 6" d="M30,0,60,30H0Z" transform="translate(130 660)" fill="#ff3a4d"/>
        </g>
        <g transform="matrix(1, 0, 0, 1, 690, -540)" filter="url(#Polygon_7)">
          <path id="Polygon_7-3" data-name="Polygon 7" d="M30,0,60,30H0Z" transform="translate(190 720) rotate(180)" fill="#ff3a4d"/>
        </g>
      </g>
      <g id="Gruppe_2589" data-name="Gruppe 2589" transform="translate(10 540)">
        <path id="Polygon_8-3" data-name="Polygon 8" d="M30,0,60,30H0Z" transform="translate(850 280) rotate(-90)" fill="#161b25"/>
        <path id="Polygon_9-3" data-name="Polygon 9" d="M30,0,60,30H0Z" transform="translate(850 220) rotate(90)" fill="#161b25"/>
      </g>
      <path id="Differenzmenge_1400" data-name="Differenzmenge 1400" d="M-7843,2284h-60v-60h60v60Zm-45-45v30h30v-30Z" transform="translate(8133 -1464)" fill="#161b25"/>
      <path id="Differenzmenge_1401" data-name="Differenzmenge 1401" d="M-7843,2284h-60v-60h60v60Zm-45-45a30.034,30.034,0,0,0,30,30v-30Z" transform="translate(7933 -1464)" fill="#161b25"/>
      <path id="Differenzmenge_1402" data-name="Differenzmenge 1402" d="M-7843,2284h-60v-60h60v60Zm-45-45a30.036,30.036,0,0,0,30,30v-30Z" transform="translate(3014.001 8563) rotate(90)" fill="#161b25"/>
      <path id="Differenzmenge_1403" data-name="Differenzmenge 1403" d="M-7843,2284h-60v-60h60v60Zm-30-52.5-22.5,22.5,22.5,22.5,22.5-22.5-22.5-22.5Z" transform="translate(8033 -1664)" fill="#161b25"/>
      <path id="Vereinigungsmenge_166" data-name="Vereinigungsmenge 166" d="M-7903,2284v-30h60v30Zm0-30a29.8,29.8,0,0,1,2.358-11.677,29.91,29.91,0,0,1,6.429-9.537,29.9,29.9,0,0,1,9.537-6.429A29.828,29.828,0,0,1-7873,2224a29.824,29.824,0,0,1,11.677,2.356,29.91,29.91,0,0,1,9.535,6.429,29.906,29.906,0,0,1,6.431,9.537A29.822,29.822,0,0,1-7843,2254h-60Z" transform="translate(-2193.998 -7283) rotate(-90)" fill="#161b25"/>
      <g id="Gruppe_2590" data-name="Gruppe 2590" transform="translate(-390 440)">
        <path id="Vereinigungsmenge_4-2" data-name="Vereinigungsmenge 4" d="M0,60V30H60V60ZM0,30A30.009,30.009,0,0,1,57.644,18.323,29.822,29.822,0,0,1,60,30v0Z" transform="translate(880 320) rotate(90)" fill="#161b25"/>
      </g>
      <path id="Polygon_452" data-name="Polygon 452" d="M30,0,60,60H0Z" transform="translate(89.999 659.998) rotate(90)" fill="#161b25"/>
      <path id="Polygon_453" data-name="Polygon 453" d="M30,0,60,60H0Z" transform="translate(629.999 620) rotate(-90)" fill="#161b25"/>
      <path id="Differenzmenge_1405" data-name="Differenzmenge 1405" d="M7547-1229a29.82,29.82,0,0,1-11.678-2.357,29.9,29.9,0,0,1-9.535-6.429,29.911,29.911,0,0,1-6.43-9.536A29.81,29.81,0,0,1,7517-1259a29.81,29.81,0,0,1,2.357-11.677,29.9,29.9,0,0,1,6.43-9.536,29.9,29.9,0,0,1,9.535-6.429A29.817,29.817,0,0,1,7547-1289a29.81,29.81,0,0,1,11.678,2.358,29.894,29.894,0,0,1,9.536,6.429,29.914,29.914,0,0,1,6.43,9.536A29.81,29.81,0,0,1,7577-1259a29.81,29.81,0,0,1-2.357,11.677,29.911,29.911,0,0,1-6.43,9.536,29.894,29.894,0,0,1-9.536,6.429A29.812,29.812,0,0,1,7547-1229Zm0-45a14.9,14.9,0,0,0-5.838,1.179,14.952,14.952,0,0,0-4.769,3.214,14.958,14.958,0,0,0-3.215,4.768A14.907,14.907,0,0,0,7532-1259a14.9,14.9,0,0,0,1.179,5.839,14.955,14.955,0,0,0,3.215,4.768,14.949,14.949,0,0,0,4.769,3.215A14.9,14.9,0,0,0,7547-1244a14.9,14.9,0,0,0,5.839-1.179,14.938,14.938,0,0,0,4.769-3.215,14.947,14.947,0,0,0,3.215-4.768A14.9,14.9,0,0,0,7562-1259a14.907,14.907,0,0,0-1.179-5.839,14.945,14.945,0,0,0-3.215-4.768,14.937,14.937,0,0,0-4.769-3.214A14.9,14.9,0,0,0,7547-1274Z" transform="translate(-6887 2049)" fill="#161b25"/>
      <path id="Differenzmenge_1406" data-name="Differenzmenge 1406" d="M7547-1229h0l-30-30,30-30,30,30-30,30Zm0-45a14.9,14.9,0,0,0-5.838,1.179,14.948,14.948,0,0,0-4.769,3.214,14.958,14.958,0,0,0-3.215,4.768A14.907,14.907,0,0,0,7532-1259a14.906,14.906,0,0,0,1.179,5.839,14.956,14.956,0,0,0,3.215,4.768,14.947,14.947,0,0,0,4.769,3.215A14.9,14.9,0,0,0,7547-1244a14.9,14.9,0,0,0,5.839-1.179,14.937,14.937,0,0,0,4.769-3.215,14.948,14.948,0,0,0,3.215-4.768A14.906,14.906,0,0,0,7562-1259a14.907,14.907,0,0,0-1.179-5.839,14.945,14.945,0,0,0-3.215-4.768,14.937,14.937,0,0,0-4.769-3.214A14.9,14.9,0,0,0,7547-1274Z" transform="translate(-7187 1849)" fill="#161b25"/>
      <g id="Gruppe_2592" data-name="Gruppe 2592" transform="translate(410.002 440)">
        <ellipse id="Ellipse_21-3" data-name="Ellipse 21" cx="30" cy="15" rx="30" ry="15" transform="translate(520 19.999)" fill="#161b25"/>
        <ellipse id="Ellipse_22-3" data-name="Ellipse 22" cx="30" cy="15" rx="30" ry="15" transform="translate(520 49.999)" fill="#161b25"/>
      </g>
      <path id="Vereinigungsmenge_167" data-name="Vereinigungsmenge 167" d="M-7903,2284v-30h60v30Zm0-30a29.8,29.8,0,0,1,2.357-11.677,29.914,29.914,0,0,1,6.429-9.536,29.9,29.9,0,0,1,9.537-6.429A29.828,29.828,0,0,1-7873,2224a29.824,29.824,0,0,1,11.677,2.356,29.908,29.908,0,0,1,9.535,6.429,29.886,29.886,0,0,1,6.431,9.536A29.82,29.82,0,0,1-7843,2254v0Z" transform="translate(9033 -1763.998)" fill="#161b25" stroke="rgba(0,0,0,0)" stroke-miterlimit="10" stroke-width="1"/>
      <g transform="matrix(1, 0, 0, 1, 0, 0)" filter="url(#Schnittmenge_815)">
        <path id="Schnittmenge_815-2" data-name="Schnittmenge 815" d="M-7903,2264h60v60A60,60,0,0,1-7903,2264Z" transform="translate(-834 -7383) rotate(-90)" fill="#ff3a4d" stroke="rgba(0,0,0,0)" stroke-miterlimit="10" stroke-width="1"/>
      </g>
      <path id="Differenzmenge_1408" data-name="Differenzmenge 1408" d="M-7843,2284h-60v-60h60v60Zm-45-45a30.034,30.034,0,0,0,30,30v-30Z" transform="translate(-6813 2744) rotate(180)" fill="#161b25"/>
      <path id="Differenzmenge_1409" data-name="Differenzmenge 1409" d="M-7843,2284h-60v-60h60v60Zm-45-45a30.034,30.034,0,0,0,30,30v-30Z" transform="translate(-494 -7383) rotate(-90)" fill="#161b25"/>
      <path id="Differenzmenge_1410" data-name="Differenzmenge 1410" d="M-7873,2284a29.809,29.809,0,0,1-11.677-2.358,29.9,29.9,0,0,1-9.535-6.429,29.891,29.891,0,0,1-6.43-9.536A29.81,29.81,0,0,1-7903,2254a29.808,29.808,0,0,1,2.357-11.677,29.884,29.884,0,0,1,6.43-9.535,29.9,29.9,0,0,1,9.535-6.429A29.815,29.815,0,0,1-7873,2224a29.813,29.813,0,0,1,11.677,2.357,29.9,29.9,0,0,1,9.535,6.429,29.9,29.9,0,0,1,6.429,9.535A29.817,29.817,0,0,1-7843,2254a29.821,29.821,0,0,1-2.357,11.677,29.9,29.9,0,0,1-6.429,9.536,29.9,29.9,0,0,1-9.535,6.429A29.807,29.807,0,0,1-7873,2284Zm-15-45v30h30v-30Z" transform="translate(9433 -1763.998)" fill="#161b25"/>
      <g id="Gruppe_2593" data-name="Gruppe 2593" transform="translate(910.001 140)">
        <path id="Vereinigungsmenge_2-3" data-name="Vereinigungsmenge 2" d="M0,60V30H60V60ZM0,30A30.009,30.009,0,0,1,57.644,18.323,29.822,29.822,0,0,1,60,30v0Z" transform="translate(780 379.999) rotate(180)" fill="#161b25"/>
      </g>
      <g id="Gruppe_2594" data-name="Gruppe 2594" transform="translate(910.001 140)">
        <path id="Differenzmenge_66-3" data-name="Differenzmenge 66" d="M60,30H0A30.008,30.008,0,0,1,57.643,18.323,29.809,29.809,0,0,1,60,30Z" transform="translate(450 379.999) rotate(-90)" fill="#161b25"/>
        <path id="Differenzmenge_67-3" data-name="Differenzmenge 67" d="M60,30H0A30.008,30.008,0,0,1,57.643,18.323,29.809,29.809,0,0,1,60,30Z" transform="translate(450 319.999) rotate(90)" fill="#161b25"/>
      </g>
      <path id="Differenzmenge_1411" data-name="Differenzmenge 1411" d="M7547-1229a29.82,29.82,0,0,1-11.678-2.357,29.9,29.9,0,0,1-9.535-6.429,29.911,29.911,0,0,1-6.43-9.536A29.81,29.81,0,0,1,7517-1259a29.81,29.81,0,0,1,2.357-11.677,29.9,29.9,0,0,1,6.43-9.536,29.9,29.9,0,0,1,9.535-6.429A29.817,29.817,0,0,1,7547-1289a29.81,29.81,0,0,1,11.678,2.358,29.894,29.894,0,0,1,9.536,6.429,29.914,29.914,0,0,1,6.43,9.536A29.81,29.81,0,0,1,7577-1259a29.81,29.81,0,0,1-2.357,11.677,29.911,29.911,0,0,1-6.43,9.536,29.894,29.894,0,0,1-9.536,6.429A29.812,29.812,0,0,1,7547-1229Zm0-52.5-22.5,22.5,22.5,22.5,22.5-22.5-22.5-22.5Z" transform="translate(-6286.998 1749)" fill="#161b25"/>
      <rect id="Rechteck_10753" data-name="Rechteck 10753" width="60" height="60" transform="translate(1430.002 360)" fill="#161b25"/>
      <g id="Gruppe_2596" data-name="Gruppe 2596" transform="translate(910.002 140)">
        <path id="Schnittmenge_1-4" data-name="Schnittmenge 1" d="M0,0H30V30A30,30,0,0,1,0,0Z" transform="translate(320 150)" fill="#161b25"/>
        <path id="Schnittmenge_2-4" data-name="Schnittmenge 2" d="M0,0H30V30A30,30,0,0,1,0,0Z" transform="translate(320 150)" fill="#161b25"/>
        <path id="Schnittmenge_3-4" data-name="Schnittmenge 3" d="M0,0H30V30A30,30,0,0,1,0,0Z" transform="translate(320 120)" fill="#161b25"/>
        <path id="Schnittmenge_4-4" data-name="Schnittmenge 4" d="M0,0H30V30A30,30,0,0,1,0,0Z" transform="translate(350 120)" fill="#161b25"/>
        <path id="Schnittmenge_5-4" data-name="Schnittmenge 5" d="M0,0H30V30A30,30,0,0,1,0,0Z" transform="translate(350 150)" fill="#161b25"/>
      </g>
      <g id="Gruppe_2597" data-name="Gruppe 2597" transform="translate(910.002 140)">
        <path id="Differenzmenge_43-4" data-name="Differenzmenge 43" d="M59,30H0A30.249,30.249,0,0,1,2.318,18.323,29.929,29.929,0,0,1,8.641,8.787a29.375,29.375,0,0,1,9.376-6.429,29.144,29.144,0,0,1,22.966,0A29.374,29.374,0,0,1,50.36,8.787a29.943,29.943,0,0,1,6.323,9.536A30.251,30.251,0,0,1,59,30Z" transform="translate(420 120)" fill="#161b25"/>
        <path id="Differenzmenge_44-4" data-name="Differenzmenge 44" d="M59,30H0A30.249,30.249,0,0,1,2.318,18.323,29.929,29.929,0,0,1,8.641,8.787a29.375,29.375,0,0,1,9.376-6.429,29.144,29.144,0,0,1,22.966,0A29.374,29.374,0,0,1,50.36,8.787a29.943,29.943,0,0,1,6.323,9.536A30.251,30.251,0,0,1,59,30Z" transform="translate(420 120)" fill="#161b25"/>
        <path id="Differenzmenge_45-4" data-name="Differenzmenge 45" d="M59,30H0A30.249,30.249,0,0,1,2.318,18.323,29.929,29.929,0,0,1,8.641,8.787a29.375,29.375,0,0,1,9.376-6.429,29.144,29.144,0,0,1,22.966,0A29.374,29.374,0,0,1,50.36,8.787a29.943,29.943,0,0,1,6.323,9.536A30.251,30.251,0,0,1,59,30Z" transform="translate(420 150)" fill="#161b25"/>
      </g>
      <g id="Gruppe_2598" data-name="Gruppe 2598" transform="translate(910.002 139.998)">
        <circle id="Ellipse_31-3" data-name="Ellipse 31" cx="15" cy="15" r="15" transform="translate(520 120)" fill="#161b25"/>
        <circle id="Ellipse_32-3" data-name="Ellipse 32" cx="15" cy="15" r="15" transform="translate(550 120)" fill="#161b25"/>
        <circle id="Ellipse_33-3" data-name="Ellipse 33" cx="15" cy="15" r="15" transform="translate(550 150)" fill="#161b25"/>
        <circle id="Ellipse_34-3" data-name="Ellipse 34" cx="15" cy="15" r="15" transform="translate(520 150)" fill="#161b25"/>
      </g>
      <g id="Gruppe_2599" data-name="Gruppe 2599" transform="translate(510.001 140)">
        <rect id="Rechteck_3643-3" data-name="Rechteck 3643" width="60" height="15" transform="translate(620 120)" fill="#161b25"/>
        <rect id="Rechteck_3644-3" data-name="Rechteck 3644" width="60" height="15" transform="translate(620 165)" fill="#161b25"/>
        <rect id="Rechteck_3645-3" data-name="Rechteck 3645" width="60" height="15" transform="translate(620 143)" fill="#161b25"/>
      </g>
      <g id="Gruppe_2600" data-name="Gruppe 2600" transform="translate(910.002 140)">
        <path id="Differenzmenge_46-4" data-name="Differenzmenge 46" d="M60,30H0A30.008,30.008,0,0,1,57.643,18.323,29.818,29.818,0,0,1,60,30Z" transform="translate(320 250)" fill="#161b25"/>
        <path id="Differenzmenge_47-4" data-name="Differenzmenge 47" d="M60,30H0A30.008,30.008,0,0,1,57.643,18.323,29.818,29.818,0,0,1,60,30Z" transform="translate(380 250) rotate(180)" fill="#161b25"/>
      </g>
      <circle id="Ellipse_6711" data-name="Ellipse 6711" cx="30" cy="30" r="30" transform="translate(1330.001 160)" fill="#161b25"/>
      <g id="Gruppe_2601" data-name="Gruppe 2601" transform="translate(910.002 140)">
        <path id="Schnittmenge_6-3" data-name="Schnittmenge 6" d="M0,0H30V30A30,30,0,0,1,0,0Z" transform="translate(220 50) rotate(-90)" fill="#161b25"/>
        <path id="Schnittmenge_7-3" data-name="Schnittmenge 7" d="M0,0H30V30A30,30,0,0,1,0,0Z" transform="translate(220 50)" fill="#161b25"/>
        <path id="Schnittmenge_8-3" data-name="Schnittmenge 8" d="M0,0H30V30A30,30,0,0,1,0,0Z" transform="translate(280 50) rotate(90)" fill="#161b25"/>
        <path id="Schnittmenge_9-3" data-name="Schnittmenge 9" d="M0,0H30V30A30,30,0,0,1,0,0Z" transform="translate(280 50) rotate(180)" fill="#161b25"/>
      </g>
      <g id="Gruppe_2602" data-name="Gruppe 2602" transform="translate(910.001 140)">
        <path id="Schnittmenge_10-3" data-name="Schnittmenge 10" d="M0,0H30V30A30,30,0,0,1,0,0Z" transform="translate(720 50) rotate(-90)" fill="#161b25"/>
        <path id="Schnittmenge_11-3" data-name="Schnittmenge 11" d="M0,0H30V30A30,30,0,0,1,0,0Z" transform="translate(750 20)" fill="#161b25"/>
        <path id="Schnittmenge_12-3" data-name="Schnittmenge 12" d="M0,0H30V30A30,30,0,0,1,0,0Z" transform="translate(780 50) rotate(90)" fill="#161b25"/>
        <path id="Schnittmenge_13-3" data-name="Schnittmenge 13" d="M0,0H30V30A30,30,0,0,1,0,0Z" transform="translate(750 80) rotate(180)" fill="#161b25"/>
      </g>
      <path id="Schnittmenge_818" data-name="Schnittmenge 818" d="M-7903,2264h60v60A60,60,0,0,1-7903,2264Z" transform="translate(-6312.997 2584.002) rotate(180)" fill="#161b25"/>
      <path id="Schnittmenge_819" data-name="Schnittmenge 819" d="M-7903,2264h60v60A60,60,0,0,1-7903,2264Z" transform="translate(4054.002 8163) rotate(90)" fill="#161b25"/>
      <path id="Schnittmenge_820" data-name="Schnittmenge 820" d="M-7903,2264h60v60A60,60,0,0,1-7903,2264Z" transform="translate(8933 -1904)" fill="#161b25"/>
      <g id="Gruppe_2603" data-name="Gruppe 2603" transform="translate(710.001 40)">
        <path id="Schnittmenge_18-3" data-name="Schnittmenge 18" d="M0,0H30V30A30,30,0,0,1,0,0Z" transform="translate(750 120)" fill="#161b25"/>
        <path id="Schnittmenge_19-3" data-name="Schnittmenge 19" d="M.005.846A1,1,0,0,1,.994,0H29a1,1,0,0,1,1,1V29.006a1,1,0,0,1-.846.988A30.008,30.008,0,0,1,.005.846Z" transform="translate(750 120) rotate(90)" fill="#161b25"/>
        <path id="Schnittmenge_20-3" data-name="Schnittmenge 20" d="M0,0H30V30A30,30,0,0,1,0,0Z" transform="translate(750 180) rotate(180)" fill="#161b25"/>
        <path id="Schnittmenge_21-3" data-name="Schnittmenge 21" d="M0,0H30V30A30,30,0,0,1,0,0Z" transform="translate(750 180) rotate(-90)" fill="#161b25"/>
      </g>
      <g id="Gruppe_2604" data-name="Gruppe 2604" transform="translate(910.002 140)">
        <g transform="matrix(1, 0, 0, 1, -910, -140)" filter="url(#Rechteck_3669)">
          <rect id="Rechteck_3669-4" data-name="Rechteck 3669" width="60" height="15" transform="translate(1690 360) rotate(90)" fill="#ff3a4d"/>
        </g>
        <g transform="matrix(1, 0, 0, 1, -910, -140)" filter="url(#Rechteck_3670)">
          <rect id="Rechteck_3670-4" data-name="Rechteck 3670" width="60" height="15" transform="translate(1645 360) rotate(90)" fill="#ff3a4d"/>
        </g>
        <g transform="matrix(1, 0, 0, 1, -910, -140)" filter="url(#Rechteck_3671)">
          <rect id="Rechteck_3671-4" data-name="Rechteck 3671" width="60" height="15" transform="translate(1668 360) rotate(90)" fill="#ff3a4d"/>
        </g>
      </g>
      <g id="Gruppe_2605" data-name="Gruppe 2605" transform="translate(910.001 140)">
        <path id="Polygon_4-3" data-name="Polygon 4" d="M30,0,60,30H0Z" transform="translate(880 50) rotate(180)" fill="#161b25"/>
        <path id="Polygon_5-3" data-name="Polygon 5" d="M30,0,60,30H0Z" transform="translate(820 50)" fill="#161b25"/>
      </g>
      <g id="Gruppe_2606" data-name="Gruppe 2606" transform="translate(210.001 140)">
        <path id="Polygon_6-4" data-name="Polygon 6" d="M30,0,60,30H0Z" transform="translate(820 120)" fill="#161b25"/>
        <path id="Polygon_7-4" data-name="Polygon 7" d="M30,0,60,30H0Z" transform="translate(880 180) rotate(180)" fill="#161b25"/>
      </g>
      <g id="Gruppe_2607" data-name="Gruppe 2607" transform="translate(910.002 140)">
        <path id="Polygon_8-4" data-name="Polygon 8" d="M30,0,60,30H0Z" transform="translate(850 280) rotate(-90)" fill="#161b25"/>
        <path id="Polygon_9-4" data-name="Polygon 9" d="M30,0,60,30H0Z" transform="translate(850 220) rotate(90)" fill="#161b25"/>
      </g>
      <path id="Differenzmenge_1412" data-name="Differenzmenge 1412" d="M-7843,2284h-60v-60h60v60Zm-45-45v30h30v-30Z" transform="translate(9033 -1864)" fill="#161b25"/>
      <path id="Differenzmenge_1413" data-name="Differenzmenge 1413" d="M-7843,2284h-60v-60h60v60Zm-45-45a30.034,30.034,0,0,0,30,30v-30Z" transform="translate(8833 -1864)" fill="#161b25"/>
      <path id="Differenzmenge_1414" data-name="Differenzmenge 1414" d="M-7843,2284h-60v-60h60v60Zm-45-45a30.036,30.036,0,0,0,30,30v-30Z" transform="translate(3914.003 8163) rotate(90)" fill="#161b25"/>
      <path id="Differenzmenge_1415" data-name="Differenzmenge 1415" d="M-7843,2284h-60v-60h60v60Zm-30-52.5-22.5,22.5,22.5,22.5,22.5-22.5-22.5-22.5Z" transform="translate(8933 -2064)" fill="#161b25"/>
      <path id="Vereinigungsmenge_168" data-name="Vereinigungsmenge 168" d="M-7903,2284v-30h60v30Zm0-30a29.8,29.8,0,0,1,2.358-11.677,29.91,29.91,0,0,1,6.429-9.537,29.9,29.9,0,0,1,9.537-6.429A29.828,29.828,0,0,1-7873,2224a29.824,29.824,0,0,1,11.677,2.356,29.91,29.91,0,0,1,9.535,6.429,29.906,29.906,0,0,1,6.431,9.537A29.822,29.822,0,0,1-7843,2254h-60Z" transform="translate(-1293.996 -7683) rotate(-90)" fill="#161b25"/>
      <g id="Gruppe_2608" data-name="Gruppe 2608" transform="translate(510.002 40)">
        <path id="Vereinigungsmenge_4-3" data-name="Vereinigungsmenge 4" d="M0,60V30H60V60ZM0,30A30.009,30.009,0,0,1,57.644,18.323,29.822,29.822,0,0,1,60,30v0Z" transform="translate(880 320) rotate(90)" fill="#161b25"/>
      </g>
      <path id="Polygon_460" data-name="Polygon 460" d="M30,0,60,60H0Z" transform="translate(990.001 259.998) rotate(90)" fill="#161b25"/>
      <path id="Polygon_461" data-name="Polygon 461" d="M30,0,60,60H0Z" transform="translate(1530.001 220) rotate(-90)" fill="#161b25"/>
      <path id="Differenzmenge_1417" data-name="Differenzmenge 1417" d="M7547-1229a29.82,29.82,0,0,1-11.678-2.357,29.9,29.9,0,0,1-9.535-6.429,29.911,29.911,0,0,1-6.43-9.536A29.81,29.81,0,0,1,7517-1259a29.81,29.81,0,0,1,2.357-11.677,29.9,29.9,0,0,1,6.43-9.536,29.9,29.9,0,0,1,9.535-6.429A29.817,29.817,0,0,1,7547-1289a29.81,29.81,0,0,1,11.678,2.358,29.894,29.894,0,0,1,9.536,6.429,29.914,29.914,0,0,1,6.43,9.536A29.81,29.81,0,0,1,7577-1259a29.81,29.81,0,0,1-2.357,11.677,29.911,29.911,0,0,1-6.43,9.536,29.894,29.894,0,0,1-9.536,6.429A29.812,29.812,0,0,1,7547-1229Zm0-45a14.9,14.9,0,0,0-5.838,1.179,14.952,14.952,0,0,0-4.769,3.214,14.958,14.958,0,0,0-3.215,4.768A14.907,14.907,0,0,0,7532-1259a14.9,14.9,0,0,0,1.179,5.839,14.955,14.955,0,0,0,3.215,4.768,14.949,14.949,0,0,0,4.769,3.215A14.9,14.9,0,0,0,7547-1244a14.9,14.9,0,0,0,5.839-1.179,14.938,14.938,0,0,0,4.769-3.215,14.947,14.947,0,0,0,3.215-4.768A14.9,14.9,0,0,0,7562-1259a14.907,14.907,0,0,0-1.179-5.839,14.945,14.945,0,0,0-3.215-4.768,14.937,14.937,0,0,0-4.769-3.214A14.9,14.9,0,0,0,7547-1274Z" transform="translate(-5986.998 1649)" fill="#161b25"/>
      <path id="Differenzmenge_1418" data-name="Differenzmenge 1418" d="M7547-1229h0l-30-30,30-30,30,30-30,30Zm0-45a14.9,14.9,0,0,0-5.838,1.179,14.948,14.948,0,0,0-4.769,3.214,14.958,14.958,0,0,0-3.215,4.768A14.907,14.907,0,0,0,7532-1259a14.906,14.906,0,0,0,1.179,5.839,14.956,14.956,0,0,0,3.215,4.768,14.947,14.947,0,0,0,4.769,3.215A14.9,14.9,0,0,0,7547-1244a14.9,14.9,0,0,0,5.839-1.179,14.937,14.937,0,0,0,4.769-3.215,14.948,14.948,0,0,0,3.215-4.768A14.906,14.906,0,0,0,7562-1259a14.907,14.907,0,0,0-1.179-5.839,14.945,14.945,0,0,0-3.215-4.768,14.937,14.937,0,0,0-4.769-3.214A14.9,14.9,0,0,0,7547-1274Z" transform="translate(-6286.998 1449)" fill="#161b25"/>
      <g id="Gruppe_2610" data-name="Gruppe 2610" transform="translate(410 840)">
        <ellipse id="Ellipse_21-4" data-name="Ellipse 21" cx="30" cy="15" rx="30" ry="15" transform="translate(520 19.999)" fill="#161b25"/>
        <ellipse id="Ellipse_22-4" data-name="Ellipse 22" cx="30" cy="15" rx="30" ry="15" transform="translate(520 49.999)" fill="#161b25"/>
      </g>
      <path id="Vereinigungsmenge_169" data-name="Vereinigungsmenge 169" d="M-7903,2284v-30h60v30Zm0-30a29.8,29.8,0,0,1,2.357-11.677,29.914,29.914,0,0,1,6.429-9.536,29.9,29.9,0,0,1,9.537-6.429A29.828,29.828,0,0,1-7873,2224a29.824,29.824,0,0,1,11.677,2.356,29.908,29.908,0,0,1,9.535,6.429,29.886,29.886,0,0,1,6.431,9.536A29.82,29.82,0,0,1-7843,2254v0Z" transform="translate(9033 -1363.998)" fill="#161b25"/>
      <path id="Schnittmenge_823" data-name="Schnittmenge 823" d="M-7903,2264h60v60A60,60,0,0,1-7903,2264Z" transform="translate(-834.001 -6983) rotate(-90)" fill="#161b25"/>
      <path id="Differenzmenge_1420" data-name="Differenzmenge 1420" d="M-7843,2284h-60v-60h60v60Zm-45-45a30.034,30.034,0,0,0,30,30v-30Z" transform="translate(-6813.002 3144) rotate(180)" fill="#161b25"/>
      <path id="Differenzmenge_1421" data-name="Differenzmenge 1421" d="M-7843,2284h-60v-60h60v60Zm-45-45a30.034,30.034,0,0,0,30,30v-30Z" transform="translate(-494.002 -6983) rotate(-90)" fill="#161b25"/>
      <path id="Differenzmenge_1422" data-name="Differenzmenge 1422" d="M-7873,2284a29.809,29.809,0,0,1-11.677-2.358,29.9,29.9,0,0,1-9.535-6.429,29.891,29.891,0,0,1-6.43-9.536A29.81,29.81,0,0,1-7903,2254a29.808,29.808,0,0,1,2.357-11.677,29.884,29.884,0,0,1,6.43-9.535,29.9,29.9,0,0,1,9.535-6.429A29.815,29.815,0,0,1-7873,2224a29.813,29.813,0,0,1,11.677,2.357,29.9,29.9,0,0,1,9.535,6.429,29.9,29.9,0,0,1,6.429,9.535A29.817,29.817,0,0,1-7843,2254a29.821,29.821,0,0,1-2.357,11.677,29.9,29.9,0,0,1-6.429,9.536,29.9,29.9,0,0,1-9.535,6.429A29.807,29.807,0,0,1-7873,2284Zm-15-45v30h30v-30Z" transform="translate(9433 -1363.998)" fill="#161b25"/>
      <g id="Gruppe_2611" data-name="Gruppe 2611" transform="translate(909.999 540)">
        <path id="Vereinigungsmenge_2-4" data-name="Vereinigungsmenge 2" d="M0,60V30H60V60ZM0,30A30.009,30.009,0,0,1,57.644,18.323,29.822,29.822,0,0,1,60,30v0Z" transform="translate(780 379.999) rotate(180)" fill="#161b25"/>
      </g>
      <g id="Gruppe_2612" data-name="Gruppe 2612" transform="translate(909.999 540)">
        <path id="Differenzmenge_66-4" data-name="Differenzmenge 66" d="M60,30H0A30.008,30.008,0,0,1,57.643,18.323,29.809,29.809,0,0,1,60,30Z" transform="translate(450 379.999) rotate(-90)" fill="#161b25"/>
        <path id="Differenzmenge_67-4" data-name="Differenzmenge 67" d="M60,30H0A30.008,30.008,0,0,1,57.643,18.323,29.809,29.809,0,0,1,60,30Z" transform="translate(450 319.999) rotate(90)" fill="#161b25"/>
      </g>
      <path id="Differenzmenge_1423" data-name="Differenzmenge 1423" d="M7547-1229a29.82,29.82,0,0,1-11.678-2.357,29.9,29.9,0,0,1-9.535-6.429,29.911,29.911,0,0,1-6.43-9.536A29.81,29.81,0,0,1,7517-1259a29.81,29.81,0,0,1,2.357-11.677,29.9,29.9,0,0,1,6.43-9.536,29.9,29.9,0,0,1,9.535-6.429A29.817,29.817,0,0,1,7547-1289a29.81,29.81,0,0,1,11.678,2.358,29.894,29.894,0,0,1,9.536,6.429,29.914,29.914,0,0,1,6.43,9.536A29.81,29.81,0,0,1,7577-1259a29.81,29.81,0,0,1-2.357,11.677,29.911,29.911,0,0,1-6.43,9.536,29.894,29.894,0,0,1-9.536,6.429A29.812,29.812,0,0,1,7547-1229Zm0-52.5-22.5,22.5,22.5,22.5,22.5-22.5-22.5-22.5Z" transform="translate(-6287 2149)" fill="#161b25"/>
      <rect id="Rechteck_10774" data-name="Rechteck 10774" width="60" height="60" transform="translate(1430 760)" fill="#161b25"/>
      <g id="Gruppe_2614" data-name="Gruppe 2614" transform="translate(910 540)">
        <g transform="matrix(1, 0, 0, 1, -910, -540)" filter="url(#Schnittmenge_1)">
          <path id="Schnittmenge_1-5" data-name="Schnittmenge 1" d="M0,0H30V30A30,30,0,0,1,0,0Z" transform="translate(1230 690)" fill="#ff3a4d"/>
        </g>
        <g transform="matrix(1, 0, 0, 1, -910, -540)" filter="url(#Schnittmenge_2)">
          <path id="Schnittmenge_2-5" data-name="Schnittmenge 2" d="M0,0H30V30A30,30,0,0,1,0,0Z" transform="translate(1230 690)" fill="#ff3a4d"/>
        </g>
        <g transform="matrix(1, 0, 0, 1, -910, -540)" filter="url(#Schnittmenge_3)">
          <path id="Schnittmenge_3-5" data-name="Schnittmenge 3" d="M0,0H30V30A30,30,0,0,1,0,0Z" transform="translate(1230 660)" fill="#ff3a4d"/>
        </g>
        <g transform="matrix(1, 0, 0, 1, -910, -540)" filter="url(#Schnittmenge_4)">
          <path id="Schnittmenge_4-5" data-name="Schnittmenge 4" d="M0,0H30V30A30,30,0,0,1,0,0Z" transform="translate(1260 660)" fill="#ff3a4d"/>
        </g>
        <g transform="matrix(1, 0, 0, 1, -910, -540)" filter="url(#Schnittmenge_5)">
          <path id="Schnittmenge_5-5" data-name="Schnittmenge 5" d="M0,0H30V30A30,30,0,0,1,0,0Z" transform="translate(1260 690)" fill="#ff3a4d"/>
        </g>
      </g>
      <g id="Gruppe_2615" data-name="Gruppe 2615" transform="translate(910 540)">
        <path id="Differenzmenge_43-5" data-name="Differenzmenge 43" d="M59,30H0A30.249,30.249,0,0,1,2.318,18.323,29.929,29.929,0,0,1,8.641,8.787a29.375,29.375,0,0,1,9.376-6.429,29.144,29.144,0,0,1,22.966,0A29.374,29.374,0,0,1,50.36,8.787a29.943,29.943,0,0,1,6.323,9.536A30.251,30.251,0,0,1,59,30Z" transform="translate(420 120)" fill="#161b25"/>
        <path id="Differenzmenge_44-5" data-name="Differenzmenge 44" d="M59,30H0A30.249,30.249,0,0,1,2.318,18.323,29.929,29.929,0,0,1,8.641,8.787a29.375,29.375,0,0,1,9.376-6.429,29.144,29.144,0,0,1,22.966,0A29.374,29.374,0,0,1,50.36,8.787a29.943,29.943,0,0,1,6.323,9.536A30.251,30.251,0,0,1,59,30Z" transform="translate(420 120)" fill="#161b25"/>
        <path id="Differenzmenge_45-5" data-name="Differenzmenge 45" d="M59,30H0A30.249,30.249,0,0,1,2.318,18.323,29.929,29.929,0,0,1,8.641,8.787a29.375,29.375,0,0,1,9.376-6.429,29.144,29.144,0,0,1,22.966,0A29.374,29.374,0,0,1,50.36,8.787a29.943,29.943,0,0,1,6.323,9.536A30.251,30.251,0,0,1,59,30Z" transform="translate(420 150)" fill="#161b25"/>
      </g>
      <g id="Gruppe_2616" data-name="Gruppe 2616" transform="translate(910 539.998)">
        <circle id="Ellipse_31-4" data-name="Ellipse 31" cx="15" cy="15" r="15" transform="translate(520 120)" fill="#161b25"/>
        <circle id="Ellipse_32-4" data-name="Ellipse 32" cx="15" cy="15" r="15" transform="translate(550 120)" fill="#161b25"/>
        <circle id="Ellipse_33-4" data-name="Ellipse 33" cx="15" cy="15" r="15" transform="translate(550 150)" fill="#161b25"/>
        <circle id="Ellipse_34-4" data-name="Ellipse 34" cx="15" cy="15" r="15" transform="translate(520 150)" fill="#161b25"/>
      </g>
      <g id="Gruppe_2617" data-name="Gruppe 2617" transform="translate(509.999 540)">
        <rect id="Rechteck_3643-4" data-name="Rechteck 3643" width="60" height="15" transform="translate(620 120)" fill="#161b25"/>
        <rect id="Rechteck_3644-4" data-name="Rechteck 3644" width="60" height="15" transform="translate(620 165)" fill="#161b25"/>
        <rect id="Rechteck_3645-4" data-name="Rechteck 3645" width="60" height="15" transform="translate(620 143)" fill="#161b25"/>
      </g>
      <g id="Gruppe_2618" data-name="Gruppe 2618" transform="translate(910 540)">
        <path id="Differenzmenge_46-5" data-name="Differenzmenge 46" d="M60,30H0A30.008,30.008,0,0,1,57.643,18.323,29.818,29.818,0,0,1,60,30Z" transform="translate(320 250)" fill="#161b25"/>
        <path id="Differenzmenge_47-5" data-name="Differenzmenge 47" d="M60,30H0A30.008,30.008,0,0,1,57.643,18.323,29.818,29.818,0,0,1,60,30Z" transform="translate(380 250) rotate(180)" fill="#161b25"/>
      </g>
      <circle id="Ellipse_6727" data-name="Ellipse 6727" cx="30" cy="30" r="30" transform="translate(1329.999 560)" fill="#161b25"/>
      <g id="Gruppe_2619" data-name="Gruppe 2619" transform="translate(910 540)">
        <path id="Schnittmenge_6-4" data-name="Schnittmenge 6" d="M0,0H30V30A30,30,0,0,1,0,0Z" transform="translate(220 50) rotate(-90)" fill="#161b25"/>
        <path id="Schnittmenge_7-4" data-name="Schnittmenge 7" d="M0,0H30V30A30,30,0,0,1,0,0Z" transform="translate(220 50)" fill="#161b25"/>
        <path id="Schnittmenge_8-4" data-name="Schnittmenge 8" d="M0,0H30V30A30,30,0,0,1,0,0Z" transform="translate(280 50) rotate(90)" fill="#161b25"/>
        <path id="Schnittmenge_9-4" data-name="Schnittmenge 9" d="M0,0H30V30A30,30,0,0,1,0,0Z" transform="translate(280 50) rotate(180)" fill="#161b25"/>
      </g>
      <g id="Gruppe_2620" data-name="Gruppe 2620" transform="translate(909.999 540)">
        <path id="Schnittmenge_10-4" data-name="Schnittmenge 10" d="M0,0H30V30A30,30,0,0,1,0,0Z" transform="translate(720 50) rotate(-90)" fill="#161b25"/>
        <path id="Schnittmenge_11-4" data-name="Schnittmenge 11" d="M0,0H30V30A30,30,0,0,1,0,0Z" transform="translate(750 20)" fill="#161b25"/>
        <path id="Schnittmenge_12-4" data-name="Schnittmenge 12" d="M0,0H30V30A30,30,0,0,1,0,0Z" transform="translate(780 50) rotate(90)" fill="#161b25"/>
        <path id="Schnittmenge_13-4" data-name="Schnittmenge 13" d="M0,0H30V30A30,30,0,0,1,0,0Z" transform="translate(750 80) rotate(180)" fill="#161b25"/>
      </g>
      <g transform="matrix(1, 0, 0, 1, 0, 0)" filter="url(#Schnittmenge_826)">
        <path id="Schnittmenge_826-2" data-name="Schnittmenge 826" d="M-7903,2264h60v60A60,60,0,0,1-7903,2264Z" transform="translate(-6313 2984) rotate(180)" fill="#ff3a4d" stroke="rgba(0,0,0,0)" stroke-miterlimit="10" stroke-width="1"/>
      </g>
      <path id="Schnittmenge_827" data-name="Schnittmenge 827" d="M-7903,2264h60v60A60,60,0,0,1-7903,2264Z" transform="translate(4054 8563) rotate(90)" fill="#161b25"/>
      <g transform="matrix(1, 0, 0, 1, 0, 0)" filter="url(#Schnittmenge_828)">
        <path id="Schnittmenge_828-2" data-name="Schnittmenge 828" d="M-7903,2264h60v60A60,60,0,0,1-7903,2264Z" transform="translate(8933 -1504)" fill="#ff3a4d" stroke="rgba(0,0,0,0)" stroke-miterlimit="10" stroke-width="1"/>
      </g>
      <g id="Gruppe_2621" data-name="Gruppe 2621" transform="translate(709.999 440)">
        <path id="Schnittmenge_18-4" data-name="Schnittmenge 18" d="M0,0H30V30A30,30,0,0,1,0,0Z" transform="translate(750 120)" fill="#161b25"/>
        <path id="Schnittmenge_19-4" data-name="Schnittmenge 19" d="M.005.846A1,1,0,0,1,.994,0H29a1,1,0,0,1,1,1V29.006a1,1,0,0,1-.846.988A30.008,30.008,0,0,1,.005.846Z" transform="translate(750 120) rotate(90)" fill="#161b25"/>
        <path id="Schnittmenge_20-4" data-name="Schnittmenge 20" d="M0,0H30V30A30,30,0,0,1,0,0Z" transform="translate(750 180) rotate(180)" fill="#161b25"/>
        <path id="Schnittmenge_21-4" data-name="Schnittmenge 21" d="M0,0H30V30A30,30,0,0,1,0,0Z" transform="translate(750 180) rotate(-90)" fill="#161b25"/>
      </g>
      <g id="Gruppe_2622" data-name="Gruppe 2622" transform="translate(910 540)">
        <rect id="Rechteck_3669-5" data-name="Rechteck 3669" width="60" height="15" transform="translate(780 220) rotate(90)" fill="#161b25"/>
        <rect id="Rechteck_3670-5" data-name="Rechteck 3670" width="60" height="15" transform="translate(735 220) rotate(90)" fill="#161b25"/>
        <rect id="Rechteck_3671-5" data-name="Rechteck 3671" width="60" height="15" transform="translate(758 220) rotate(90)" fill="#161b25"/>
      </g>
      <g id="Gruppe_2623" data-name="Gruppe 2623" transform="translate(909.999 540)">
        <path id="Polygon_4-4" data-name="Polygon 4" d="M30,0,60,30H0Z" transform="translate(880 50) rotate(180)" fill="#161b25"/>
        <path id="Polygon_5-4" data-name="Polygon 5" d="M30,0,60,30H0Z" transform="translate(820 50)" fill="#161b25"/>
      </g>
      <g id="Gruppe_2624" data-name="Gruppe 2624" transform="translate(209.999 540)">
        <path id="Polygon_6-5" data-name="Polygon 6" d="M30,0,60,30H0Z" transform="translate(820 120)" fill="#161b25"/>
        <path id="Polygon_7-5" data-name="Polygon 7" d="M30,0,60,30H0Z" transform="translate(880 180) rotate(180)" fill="#161b25"/>
      </g>
      <g id="Gruppe_2625" data-name="Gruppe 2625" transform="translate(910 540)">
        <g transform="matrix(1, 0, 0, 1, -910, -540)" filter="url(#Polygon_8)">
          <path id="Polygon_8-5" data-name="Polygon 8" d="M30,0,60,30H0Z" transform="translate(1760 820) rotate(-90)" fill="#ff3a4d"/>
        </g>
        <g transform="matrix(1, 0, 0, 1, -910, -540)" filter="url(#Polygon_9)">
          <path id="Polygon_9-5" data-name="Polygon 9" d="M30,0,60,30H0Z" transform="translate(1760 760) rotate(90)" fill="#ff3a4d"/>
        </g>
      </g>
      <path id="Differenzmenge_1424" data-name="Differenzmenge 1424" d="M-7843,2284h-60v-60h60v60Zm-45-45v30h30v-30Z" transform="translate(9033 -1464)" fill="#161b25"/>
      <path id="Differenzmenge_1425" data-name="Differenzmenge 1425" d="M-7843,2284h-60v-60h60v60Zm-45-45a30.034,30.034,0,0,0,30,30v-30Z" transform="translate(8833 -1464)" fill="#161b25"/>
      <path id="Differenzmenge_1426" data-name="Differenzmenge 1426" d="M-7843,2284h-60v-60h60v60Zm-45-45a30.036,30.036,0,0,0,30,30v-30Z" transform="translate(3914.001 8563) rotate(90)" fill="#161b25"/>
      <path id="Differenzmenge_1427" data-name="Differenzmenge 1427" d="M-7843,2284h-60v-60h60v60Zm-30-52.5-22.5,22.5,22.5,22.5,22.5-22.5-22.5-22.5Z" transform="translate(8933 -1664)" fill="#161b25"/>
      <path id="Vereinigungsmenge_170" data-name="Vereinigungsmenge 170" d="M-7903,2284v-30h60v30Zm0-30a29.8,29.8,0,0,1,2.358-11.677,29.91,29.91,0,0,1,6.429-9.537,29.9,29.9,0,0,1,9.537-6.429A29.828,29.828,0,0,1-7873,2224a29.824,29.824,0,0,1,11.677,2.356,29.91,29.91,0,0,1,9.535,6.429,29.906,29.906,0,0,1,6.431,9.537A29.822,29.822,0,0,1-7843,2254h-60Z" transform="translate(-1293.998 -7283) rotate(-90)" fill="#161b25"/>
      <g id="Gruppe_2626" data-name="Gruppe 2626" transform="translate(510 440)">
        <path id="Vereinigungsmenge_4-4" data-name="Vereinigungsmenge 4" d="M0,60V30H60V60ZM0,30A30.009,30.009,0,0,1,57.644,18.323,29.822,29.822,0,0,1,60,30v0Z" transform="translate(880 320) rotate(90)" fill="#161b25"/>
      </g>
      <path id="Polygon_468" data-name="Polygon 468" d="M30,0,60,60H0Z" transform="translate(989.999 659.998) rotate(90)" fill="#161b25"/>
      <path id="Polygon_469" data-name="Polygon 469" d="M30,0,60,60H0Z" transform="translate(1529.999 620) rotate(-90)" fill="#161b25"/>
      <path id="Differenzmenge_1429" data-name="Differenzmenge 1429" d="M7547-1229a29.82,29.82,0,0,1-11.678-2.357,29.9,29.9,0,0,1-9.535-6.429,29.911,29.911,0,0,1-6.43-9.536A29.81,29.81,0,0,1,7517-1259a29.81,29.81,0,0,1,2.357-11.677,29.9,29.9,0,0,1,6.43-9.536,29.9,29.9,0,0,1,9.535-6.429A29.817,29.817,0,0,1,7547-1289a29.81,29.81,0,0,1,11.678,2.358,29.894,29.894,0,0,1,9.536,6.429,29.914,29.914,0,0,1,6.43,9.536A29.81,29.81,0,0,1,7577-1259a29.81,29.81,0,0,1-2.357,11.677,29.911,29.911,0,0,1-6.43,9.536,29.894,29.894,0,0,1-9.536,6.429A29.812,29.812,0,0,1,7547-1229Zm0-45a14.9,14.9,0,0,0-5.838,1.179,14.952,14.952,0,0,0-4.769,3.214,14.958,14.958,0,0,0-3.215,4.768A14.907,14.907,0,0,0,7532-1259a14.9,14.9,0,0,0,1.179,5.839,14.955,14.955,0,0,0,3.215,4.768,14.949,14.949,0,0,0,4.769,3.215A14.9,14.9,0,0,0,7547-1244a14.9,14.9,0,0,0,5.839-1.179,14.938,14.938,0,0,0,4.769-3.215,14.947,14.947,0,0,0,3.215-4.768A14.9,14.9,0,0,0,7562-1259a14.907,14.907,0,0,0-1.179-5.839,14.945,14.945,0,0,0-3.215-4.768,14.937,14.937,0,0,0-4.769-3.214A14.9,14.9,0,0,0,7547-1274Z" transform="translate(-5987 2049)" fill="#161b25"/>
      <path id="Differenzmenge_1430" data-name="Differenzmenge 1430" d="M7547-1229h0l-30-30,30-30,30,30-30,30Zm0-45a14.9,14.9,0,0,0-5.838,1.179,14.948,14.948,0,0,0-4.769,3.214,14.958,14.958,0,0,0-3.215,4.768A14.907,14.907,0,0,0,7532-1259a14.906,14.906,0,0,0,1.179,5.839,14.956,14.956,0,0,0,3.215,4.768,14.947,14.947,0,0,0,4.769,3.215A14.9,14.9,0,0,0,7547-1244a14.9,14.9,0,0,0,5.839-1.179,14.937,14.937,0,0,0,4.769-3.215,14.948,14.948,0,0,0,3.215-4.768A14.906,14.906,0,0,0,7562-1259a14.907,14.907,0,0,0-1.179-5.839,14.945,14.945,0,0,0-3.215-4.768,14.937,14.937,0,0,0-4.769-3.214A14.9,14.9,0,0,0,7547-1274Z" transform="translate(-6287 1849)" fill="#161b25"/>
      <g id="Gruppe_2628" data-name="Gruppe 2628" transform="translate(1309.997 440)">
        <ellipse id="Ellipse_21-5" data-name="Ellipse 21" cx="30" cy="15" rx="30" ry="15" transform="translate(520 19.999)" fill="#161b25"/>
        <ellipse id="Ellipse_22-5" data-name="Ellipse 22" cx="30" cy="15" rx="30" ry="15" transform="translate(520 49.999)" fill="#161b25"/>
      </g>
      <g transform="matrix(1, 0, 0, 1, 0, 0)" filter="url(#Differenzmenge_1431)">
        <path id="Differenzmenge_1431-2" data-name="Differenzmenge 1431" d="M-7843,2284h-60v-60h60v60Zm-45-45a30.034,30.034,0,0,0,30,30v-30Z" transform="translate(9733 -1864)" fill="#ff3a4d" stroke="rgba(0,0,0,0)" stroke-miterlimit="10" stroke-width="1"/>
      </g>
      <path id="Vereinigungsmenge_171" data-name="Vereinigungsmenge 171" d="M-7903,2284v-30h60v30Zm0-30a29.8,29.8,0,0,1,2.358-11.677,29.91,29.91,0,0,1,6.429-9.537,29.9,29.9,0,0,1,9.537-6.429A29.828,29.828,0,0,1-7873,2224a29.824,29.824,0,0,1,11.677,2.356,29.91,29.91,0,0,1,9.535,6.429,29.906,29.906,0,0,1,6.431,9.537A29.822,29.822,0,0,1-7843,2254h-60Z" transform="translate(-394.001 -7683) rotate(-90)" fill="#161b25"/>
      <path id="Polygon_472" data-name="Polygon 472" d="M30,0,60,60H0Z" transform="translate(1889.996 259.998) rotate(90)" fill="#161b25"/>
      <g id="Gruppe_2629" data-name="Gruppe 2629" transform="translate(1309.995 840)">
        <ellipse id="Ellipse_21-6" data-name="Ellipse 21" cx="30" cy="15" rx="30" ry="15" transform="translate(520 19.999)" fill="#161b25"/>
        <ellipse id="Ellipse_22-6" data-name="Ellipse 22" cx="30" cy="15" rx="30" ry="15" transform="translate(520 49.999)" fill="#161b25"/>
      </g>
      <path id="Differenzmenge_1433" data-name="Differenzmenge 1433" d="M-7843,2284h-60v-60h60v60Zm-45-45a30.034,30.034,0,0,0,30,30v-30Z" transform="translate(9732.996 -1464)" fill="#161b25"/>
      <path id="Vereinigungsmenge_172" data-name="Vereinigungsmenge 172" d="M-7903,2284v-30h60v30Zm0-30a29.8,29.8,0,0,1,2.358-11.677,29.91,29.91,0,0,1,6.429-9.537,29.9,29.9,0,0,1,9.537-6.429A29.828,29.828,0,0,1-7873,2224a29.824,29.824,0,0,1,11.677,2.356,29.91,29.91,0,0,1,9.535,6.429,29.906,29.906,0,0,1,6.431,9.537A29.822,29.822,0,0,1-7843,2254h-60Z" transform="translate(-394.003 -7283) rotate(-90)" fill="#161b25"/>
      <path id="Polygon_473" data-name="Polygon 473" d="M30,0,60,60H0Z" transform="translate(1889.994 659.998) rotate(90)" fill="#161b25"/>
    </g>
  </g>
</svg>
